<svg width="200" height="95" viewBox="0 0 200 95" fill="none" xmlns="http://www.w3.org/2000/svg">
<mask id="mask0" mask-type="alpha" maskUnits="userSpaceOnUse" x="0" y="0" width="200" height="95">
<rect width="200" height="95" fill="#482E2E"/>
</mask>
<g mask="url(#mask0)">
</g>
<path d="M41.0771 41.4937C41.1193 41.4847 41.1618 41.4781 41.2047 41.474C41.9823 41.474 42.8727 41.2398 43.5081 41.5431C44.1434 41.8463 44.4746 42.6699 44.9259 43.2814C45.7109 44.3442 46.4811 45.4193 47.298 46.5437C48.3601 45.0815 49.4174 43.7006 50.3838 42.2606C50.8058 41.6343 51.2596 41.3532 52.0053 41.4494C52.5003 41.4804 52.9968 41.4804 53.4918 41.4494V53.263H51.3503V44.9163L51.2228 44.8694C51.0511 45.0913 50.8769 45.3108 50.7076 45.5352C49.7264 46.8503 48.7452 48.1653 47.764 49.4804C47.3421 50.0426 47.168 50.0451 46.7608 49.4804C45.6299 47.9368 44.5015 46.3908 43.2873 44.7289V53.2457H41.0771V41.4937Z" fill="black"/>
<path d="M66.2535 41.3897C68.0051 41.3897 69.7171 41.3897 71.449 41.3897C71.9782 41.3784 72.5074 41.4157 73.0299 41.5011C76.1769 42.11 76.83 45.2884 75.7513 47.348C75.3159 48.1723 74.8508 48.4891 73.2773 49.108L75.0759 51.1477L76.9414 53.2592C75.932 53.2592 75.0685 53.2741 74.2051 53.2444C74.0739 53.2444 73.9403 53.029 73.8241 52.9003C72.8839 51.8433 71.9339 50.7937 71.016 49.7169C70.7853 49.3973 70.4008 49.2263 70.0091 49.2689C69.5143 49.3035 69.0194 49.2689 68.4776 49.2689V53.2147H66.251L66.2535 41.3897ZM68.4554 47.2737C69.7344 47.2737 70.9492 47.3183 72.1664 47.2737C72.6755 47.2761 73.1626 47.067 73.5116 46.6962C73.8606 46.3255 74.0401 45.8264 74.0071 45.3181C73.9676 44.2587 73.1561 43.5111 72.0279 43.4962C71.3797 43.4962 70.734 43.4962 70.0858 43.4962H68.4677L68.4554 47.2737Z" fill="black"/>
<path d="M156.353 53.1954H154.188V41.3959C154.721 41.3959 155.278 41.3688 155.827 41.4131C155.974 41.4254 156.121 41.6372 156.238 41.7826C157.928 43.9252 159.617 46.0704 161.304 48.218C161.399 48.3362 161.502 48.447 161.678 48.649V41.4402H163.844V53.1289C162.933 53.3998 162.572 53.2865 161.998 52.5452L156.792 45.8389C156.675 45.6911 156.548 45.5483 156.345 45.2995L156.353 53.1954Z" fill="black"/>
<path d="M55.9053 53.263V41.3877H64.5217V43.5053H58.0654V46.2193H64.2935V48.2946H58.0606V51.0659H64.5266V53.263H55.9053Z" fill="black"/>
<path d="M107.288 41.3877V43.4939H100.804V46.2324H107.06V48.3112H100.804V51.0672H107.264V53.263H98.667V41.3877H107.288Z" fill="black"/>
<path d="M151.775 41.3877V43.4939H145.29V46.2324H151.546V48.3112H145.29V51.0647H151.753V53.263H143.153V41.3877H151.775Z" fill="black"/>
<path d="M180.103 43.4791V46.2061H186.342V48.3075H180.107V51.0644H186.578V53.263H177.983V41.3877H186.605V43.4791H180.103Z" fill="black"/>
<path d="M124.933 43.3937L123.121 44.3597C122.065 43.1653 120.781 42.7965 119.299 43.1402C118.997 43.2089 118.711 43.334 118.453 43.5091C117.563 44.1238 117.649 45.3408 118.659 45.7222C119.429 46.0133 120.28 46.081 121.089 46.2717C121.774 46.4045 122.449 46.5839 123.111 46.8087C124.318 47.2029 125.155 48.3305 125.204 49.6291C125.321 51.1522 124.852 52.4344 123.492 53.142C121.395 54.2235 119.226 54.2184 117.091 53.2198C116.179 52.7801 115.497 51.9565 115.221 50.9615C115.273 50.9102 115.329 50.864 115.389 50.8235C115.903 50.5449 116.416 50.2714 116.954 49.9829C117.957 51.7594 119.514 52.1032 121.314 51.7795C121.638 51.7172 121.949 51.5984 122.233 51.4282C123.314 50.7858 123.326 49.3229 122.187 48.8111C121.39 48.4523 120.475 48.392 119.607 48.1612C118.825 47.9529 118.001 47.8024 117.287 47.436C115.331 46.4323 115.086 43.5166 116.812 42.1089C118.539 40.7013 122.072 40.6611 123.81 42.1089C124.215 42.5081 124.59 42.9375 124.933 43.3937Z" fill="black"/>
<path d="M77.6318 53.2141V41.4846H79.7939V46.4458C80.7241 45.4182 81.5413 44.5159 82.3561 43.6112C82.4862 43.4661 82.6015 43.3162 82.7414 43.1736C83.2715 42.6032 83.7083 41.7771 84.3611 41.5362C85.1317 41.2486 86.079 41.4674 87.1171 41.4674C86.1821 42.4753 85.3183 43.4022 84.4593 44.3315C83.6003 45.2608 82.7414 46.1901 81.8334 47.1735L87.6325 53.2583C86.6165 53.2583 85.7526 53.2755 84.8888 53.2436C84.7342 53.2436 84.5648 53.0543 84.4372 52.9215C83.0269 51.4464 81.6182 49.9598 80.2112 48.4618C80.1179 48.3635 80.0148 48.2749 79.8406 48.1053V53.2141H77.6318Z" fill="black"/>
<path d="M136.144 50.3271L137.636 51.7939C135.838 54.1158 131.117 54.2336 128.763 52.0321C126.313 49.7479 126.348 45.0492 128.817 42.6597C131.139 40.403 135.588 40.5334 137.44 42.8527L136.085 44.2995C133.726 42.7951 131.431 42.9104 130.061 44.5928C128.766 46.1925 128.837 48.8202 130.191 50.3121C131.602 51.8491 134.035 51.8541 136.144 50.3271Z" fill="black"/>
<path d="M174.788 50.3168L176.259 51.806C174.367 54.1401 169.659 54.2254 167.333 51.9815C164.916 49.6474 164.995 44.9616 167.49 42.61C169.83 40.4062 174.293 40.5592 176.041 42.8206L174.705 44.2998C172.433 42.7955 170.095 42.8933 168.715 44.5505C167.394 46.14 167.426 48.7323 168.786 50.2642C170.186 51.8411 172.592 51.8612 174.788 50.3168Z" fill="black"/>
<path d="M90.8291 51.215H96.9434V53.263H88.667V41.3877H90.8291V51.215Z" fill="black"/>
<path d="M139.015 41.3877H141.084V53.263H139.015V41.3877Z" fill="black"/>
<path d="M33.6357 44.8315C33.4423 44.074 33.1635 43.3412 32.8045 42.6475L31.0849 44.0956L27.1631 47.3935L28.8715 48.8366L31.7251 46.433C31.7662 46.7678 31.7874 47.1048 31.7884 47.4421C31.7896 48.5727 31.5581 49.6912 31.1085 50.7275L32.8256 52.1769C33.9769 49.9093 34.2633 47.2967 33.6308 44.8315H33.6357Z" fill="black"/>
<path d="M23.7539 50.49L23.1522 49.9762L20.8077 47.9755L20.1948 47.4517L16.2835 44.1104L14.574 42.6475C14.2113 43.3486 13.9286 44.0898 13.7317 44.8564C13.0925 47.3481 13.3709 49.9915 14.5145 52.2887L16.2351 50.8245C15.7929 49.7831 15.5654 48.6606 15.5665 47.5262C15.5674 47.1767 15.5898 46.8276 15.6334 46.481L18.4866 48.9134L19.1007 49.4373L21.4428 51.438L22.0445 51.9517L23.7539 53.4122L25.472 51.9504L26.1171 51.4001L24.4076 49.9409L23.7539 50.49Z" fill="black"/>
<path d="M18.6451 41.0499C18.845 40.8821 19.0533 40.7261 19.2697 40.5818C21.1504 39.3118 23.4639 38.8945 25.658 39.4295C27.8521 39.9645 29.7298 41.4039 30.8429 43.4039L32.5217 41.9721C30.9972 39.462 28.506 37.7222 25.6589 37.1792C22.8118 36.6362 19.8719 37.3402 17.56 39.1186C17.355 39.2759 17.1588 39.442 16.9662 39.6143C16.4164 40.1081 15.9198 40.6602 15.4848 41.2612L29.5738 53.313C26.8188 56.1803 22.4433 56.6225 19.1895 54.3623C18.971 54.2114 18.7599 54.049 18.5574 53.8779C17.7843 53.2203 17.1365 52.4232 16.6465 51.5265L14.9639 52.9595C16.8334 56.0896 20.1689 58 23.7644 58C27.3599 58 30.6954 56.0896 32.5649 52.9595L30.8836 51.5227L18.6451 41.0499Z" fill="black"/>
</svg>
