<svg width="200" height="95" viewBox="0 0 200 95" fill="none" xmlns="http://www.w3.org/2000/svg">
<mask id="mask0" mask-type="alpha" maskUnits="userSpaceOnUse" x="0" y="0" width="200" height="95">
<rect width="200" height="95" fill="#482E2E"/>
</mask>
<g mask="url(#mask0)">
</g>
<path fill-rule="evenodd" clip-rule="evenodd" d="M54.1026 41.7324V47.9747H47.9431V42.5354C47.9431 42.0919 47.5833 41.7324 47.1396 41.7324H45.0605V56.6079C45.0605 57.0516 45.4202 57.4111 45.8641 57.4111H47.9431V50.4923H54.1026V56.6079C54.1026 57.0516 54.4623 57.4111 54.9062 57.4111H56.985V42.5354C56.985 42.0919 56.6254 41.7324 56.1815 41.7324H54.1026Z" fill="#D7E2F2"/>
<path fill-rule="evenodd" clip-rule="evenodd" d="M66.1941 45.4287V52.8585C66.1941 53.5335 65.8496 54.1735 65.2649 54.5112C63.6327 55.4539 61.9436 54.2764 61.9436 52.7237V46.2317C61.9436 45.7882 61.5839 45.4287 61.14 45.4287H59.0527V52.9885C59.0527 55.4209 61.0437 57.411 63.4773 57.411H64.6603C67.0939 57.411 69.0849 55.4209 69.0849 52.9885V46.2317C69.0849 45.7882 68.7252 45.4287 68.2815 45.4287H66.1941Z" fill="#D7E2F2"/>
<path fill-rule="evenodd" clip-rule="evenodd" d="M98.2555 57.4104H100.335V46.8891C100.335 46.4455 99.9747 46.0859 99.531 46.0859H97.4521V56.6073C97.4521 57.0509 97.8118 57.4104 98.2555 57.4104Z" fill="#357CE1"/>
<path fill-rule="evenodd" clip-rule="evenodd" d="M98.8937 44.9463C99.7822 44.9463 100.502 44.2264 100.502 43.3383C100.502 42.4502 99.7822 41.7305 98.8937 41.7305C98.0053 41.7305 97.2852 42.4502 97.2852 43.3383C97.2852 44.2264 98.0053 44.9463 98.8937 44.9463Z" fill="#357CE1"/>
<path fill-rule="evenodd" clip-rule="evenodd" d="M79.2282 52.4356C79.2282 53.865 78.0583 54.8165 76.6282 54.8165C75.1981 54.8165 74.0281 53.865 74.0281 52.4356V50.3958C74.0281 48.9664 75.1981 48.0149 76.6282 48.0149C78.0583 48.0149 79.2282 48.9664 79.2282 50.3958V52.4356ZM76.6282 45.4209C73.6046 45.4209 71.1309 47.5828 71.1309 50.6048V52.2394C71.1309 55.2615 73.6046 57.4105 76.6282 57.4105C79.6517 57.4105 82.1256 55.2615 82.1256 52.2394V50.6048C82.1256 47.5828 79.6517 45.4209 76.6282 45.4209Z" fill="#D7E2F2"/>
<path fill-rule="evenodd" clip-rule="evenodd" d="M92.3123 52.4361C92.3123 53.8655 91.1423 54.817 89.7122 54.817C88.2823 54.817 87.1121 53.8655 87.1121 52.4361V50.3963C87.1121 48.9668 88.2823 48.0153 89.7122 48.0153C91.1423 48.0153 92.3123 48.9668 92.3123 50.3963V52.4361ZM89.7122 45.4214C88.7673 45.4214 87.8762 45.6325 87.0974 46.0152V42.5219C87.0974 42.0783 86.7376 41.7188 86.2939 41.7188H84.2148V52.2399C84.2148 55.2621 86.6888 57.411 89.7122 57.411C92.7358 57.411 95.2096 55.2621 95.2096 52.2399V50.6053C95.2096 47.5832 92.7358 45.4214 89.7122 45.4214Z" fill="#357CE1"/>
<path fill-rule="evenodd" clip-rule="evenodd" d="M149.788 52.4855C149.788 53.9001 148.631 54.8419 147.215 54.8419C145.8 54.8419 144.642 53.9001 144.642 52.4855V50.4666C144.642 49.052 145.8 48.1102 147.215 48.1102C148.631 48.1102 149.788 49.052 149.788 50.4666V52.4855ZM147.215 45.543H147.215C146.28 45.543 145.398 45.7518 144.627 46.1304V42.5242C144.627 42.0853 144.271 41.7295 143.832 41.7295H141.774V52.2913C141.774 55.2824 144.223 57.4091 147.215 57.4091H147.215C150.208 57.4091 152.656 55.2824 152.656 52.2913V50.6734C152.656 47.6825 150.208 45.543 147.215 45.543Z" fill="#D7E2F2"/>
<path fill-rule="evenodd" clip-rule="evenodd" d="M172.887 57.355V55.5459C172.887 55.1176 172.54 54.771 172.111 54.7724C171.678 54.7739 171.134 54.7754 170.674 54.7754C169.503 54.7754 169.558 54.1902 169.558 52.6729V42.5159C169.558 42.0885 169.211 41.7422 168.784 41.7422H166.674V53.0198C166.674 55.7509 167.378 57.355 170.327 57.355C171.467 57.355 172.294 57.3228 172.886 57.3552L172.887 57.355Z" fill="#D7E2F2"/>
<path fill-rule="evenodd" clip-rule="evenodd" d="M117.641 48.0402H112.063V49.5593C112.063 50.0159 112.434 50.3861 112.89 50.3861H115.54V51.7292C115.54 52.7201 115.292 53.4514 114.781 53.9668C114.153 54.615 113.283 54.9575 112.268 54.9575C111.352 54.9575 110.481 54.6407 109.937 54.1103C109.181 53.3698 109.018 52.5657 109.018 49.5809C109.018 46.6131 109.181 45.8127 109.937 45.0729C110.495 44.529 111.582 44.1174 112.484 44.1174C115.533 44.1174 116.557 45.199 117.321 46.1839H117.421V43.9815C117.421 43.6559 117.265 43.3516 117.011 43.1483C115.734 42.1264 114.46 41.7529 112.268 41.7529C110.497 41.7529 108.983 42.3092 107.767 43.406C106.089 44.9206 106.089 46.6294 106.09 49.4604V49.7013C106.089 52.5324 106.089 54.241 107.767 55.7556C108.966 56.8374 110.522 57.409 112.268 57.409C114.101 57.409 115.715 56.7921 116.935 55.6252L116.936 55.6248C118.024 54.5798 118.468 52.5786 118.468 50.4977V48.8668C118.468 48.4103 118.098 48.0402 117.641 48.0402Z" fill="#D7E2F2"/>
<path fill-rule="evenodd" clip-rule="evenodd" d="M126.729 57.355V55.5459C126.729 55.1176 126.382 54.771 125.954 54.7724C125.521 54.7739 124.977 54.7754 124.517 54.7754C123.346 54.7754 123.401 54.1902 123.401 52.6729V42.5159C123.401 42.0885 123.054 41.7422 122.627 41.7422H120.517V53.0198C120.517 55.7509 121.221 57.355 124.17 57.355C125.31 57.355 126.136 57.3228 126.729 57.3552L126.729 57.355Z" fill="#D7E2F2"/>
<path fill-rule="evenodd" clip-rule="evenodd" d="M136.825 52.4854C136.825 53.9 135.667 54.8418 134.251 54.8418C132.836 54.8418 131.678 53.9 131.678 52.4854V50.4666C131.678 49.052 132.836 48.1102 134.251 48.1102C135.667 48.1102 136.825 49.052 136.825 50.4666V52.4854ZM134.251 45.543C131.259 45.543 128.811 47.6825 128.811 50.6734V52.2913C128.811 55.2824 131.259 57.409 134.251 57.409C137.244 57.409 139.692 55.2824 139.692 52.2913V50.6734C139.692 47.6825 137.244 45.543 134.251 45.543Z" fill="#D7E2F2"/>
<path fill-rule="evenodd" clip-rule="evenodd" d="M161.757 52.0374V55.0147C161.535 55.0578 161.289 55.0921 161.023 55.1165C160.37 55.1779 159.785 55.1891 159.106 55.1273C158.84 55.1033 158.595 55.0354 158.376 54.9273C158.165 54.8222 157.993 54.673 157.849 54.4706C157.713 54.2788 157.644 53.9956 157.644 53.6287C157.644 53.0573 157.848 52.6481 158.267 52.3773C158.714 52.0889 159.391 51.9424 160.279 51.9424C160.518 51.9424 160.81 51.9562 161.155 51.9835C161.381 52.0015 161.582 52.0194 161.757 52.0374ZM163.3 46.551C162.445 45.8684 161.196 45.5225 159.585 45.5225C158.986 45.5225 158.357 45.5661 157.714 45.6519C157.198 45.7206 156.468 45.8191 155.962 45.9357C155.757 45.983 155.72 46.1441 155.72 46.3372V47.8763C155.72 48.1505 155.722 48.4001 156.013 48.3293C156.555 48.1973 157.606 47.9645 157.892 47.9173C158.344 47.8431 158.835 47.8057 159.353 47.8057C160.16 47.8057 160.775 47.95 161.182 48.2336C161.564 48.5009 161.757 49.0096 161.757 49.7455V49.8346C161.614 49.8214 161.456 49.8088 161.284 49.7972C160.962 49.7756 160.55 49.7646 160.047 49.7646C159.361 49.7646 158.696 49.8423 158.072 49.9958C157.438 50.152 156.868 50.3933 156.378 50.7135C155.879 51.0402 155.479 51.4548 155.189 51.9468C154.896 52.4424 154.748 53.0228 154.748 53.6711C154.748 54.3296 154.875 54.9029 155.125 55.3746C155.378 55.8505 155.741 56.2475 156.203 56.5538C156.658 56.8563 157.217 57.0774 157.863 57.212C158.492 57.3425 159.203 57.4087 159.978 57.4087C160.542 57.4087 164.607 57.3515 164.607 55.4182C164.607 53.1781 164.607 49.8297 164.607 49.8297C164.607 48.3467 164.167 47.2436 163.3 46.551Z" fill="#D7E2F2"/>
<path fill-rule="evenodd" clip-rule="evenodd" d="M36.4298 42.8203C36.4298 39.6981 34.9082 37.0132 33.7508 36.1389C33.7461 36.1361 33.6622 36.089 33.6694 36.2139L33.6677 36.2177C33.5716 42.2459 30.4906 43.8798 28.7967 46.0807C24.8878 51.1598 28.5231 56.7283 32.225 57.7576C34.2963 58.3334 31.7466 56.7386 31.4183 53.37C31.0212 49.2986 36.4298 46.1907 36.4298 42.8203Z" fill="#D7E2F2"/>
<path fill-rule="evenodd" clip-rule="evenodd" d="M38.2059 44.8732C38.1823 44.8571 38.1485 44.8461 38.1252 44.8846C38.0616 45.6434 37.2861 47.2666 36.3032 48.7571C32.9694 53.8129 34.8692 56.2501 35.9374 57.5591C36.5578 58.3191 35.9374 57.5591 37.4879 56.7825C37.6093 56.7217 40.513 55.094 40.8273 51.3856C41.1318 47.7944 38.9739 45.5308 38.2059 44.8732Z" fill="#357CE1"/>
</svg>
