<svg width="201" height="95" viewBox="0 0 201 95" fill="none" xmlns="http://www.w3.org/2000/svg">
<mask id="mask0" mask-type="alpha" maskUnits="userSpaceOnUse" x="1" y="0" width="200" height="95">
<rect x="1" width="200" height="95" fill="#482E2E"/>
</mask>
<g mask="url(#mask0)">
</g>
<path d="M70.2283 39.2178V48.3814C71.0689 47.5541 71.9743 46.9178 73.0089 46.4723C73.9789 46.0269 75.0783 45.836 76.1776 45.836C78.6349 45.836 80.7043 46.7269 82.3856 48.5723C84.0669 50.4178 84.9723 52.7087 84.9723 55.5723C84.9723 58.3087 84.0669 60.5996 82.3209 62.445C80.5749 64.2905 78.4409 65.1814 76.0483 65.1814C74.9489 65.1814 73.9789 64.9905 73.0089 64.6087C72.1036 64.2269 71.1336 63.5905 70.2283 62.7632V64.736H65.5723V39.2178H70.2283ZM75.2076 50.1632C73.7203 50.1632 72.4916 50.6723 71.5216 51.6269C70.5516 52.645 70.0343 53.9178 70.0343 55.5087C70.0343 57.1632 70.5516 58.4996 71.5216 59.4541C72.4916 60.4723 73.7203 60.9814 75.2076 60.9814C76.6303 60.9814 77.8589 60.4723 78.8289 59.4541C79.7989 58.436 80.3163 57.0996 80.3163 55.5087C80.3163 53.9178 79.8636 52.645 78.8936 51.6269C77.8589 50.6723 76.6303 50.1632 75.2076 50.1632Z" fill="black"/>
<path d="M90.6631 38.7725C91.5038 38.7725 92.2151 39.0906 92.7971 39.6634C93.3791 40.2361 93.7025 40.9361 93.7025 41.827C93.7025 42.6543 93.4438 43.3543 92.7971 43.927C92.2151 44.4997 91.5038 44.8179 90.7278 44.8179C89.8871 44.8179 89.1758 44.4997 88.5938 43.927C88.0118 43.3543 87.6885 42.5906 87.6885 41.7634C87.6885 40.9361 88.0118 40.2361 88.5938 39.6634C89.1111 39.0906 89.8225 38.7725 90.6631 38.7725ZM88.3351 46.3452H93.0558V64.7361H88.3351V46.3452Z" fill="black"/>
<path d="M97.8409 39.5996H102.562V46.4087H105.342V50.4178H102.562V64.8632H97.8409V50.3542H95.4482V46.3451H97.8409V39.5996Z" fill="black"/>
<path d="M112.52 39.2178V48.3814C113.361 47.5541 114.266 46.9178 115.301 46.4723C116.271 46.0269 117.37 45.836 118.47 45.836C120.927 45.836 122.996 46.7269 124.678 48.5723C126.359 50.4178 127.264 52.7087 127.264 55.5723C127.264 58.3087 126.359 60.5996 124.613 62.445C122.867 64.2905 120.733 65.1814 118.34 65.1814C117.241 65.1814 116.271 64.9905 115.301 64.6087C114.396 64.2269 113.426 63.5905 112.52 62.7632V64.736H107.864V39.2178H112.52ZM117.435 50.1632C115.948 50.1632 114.719 50.6723 113.749 51.6269C112.779 52.645 112.262 53.9178 112.262 55.5087C112.262 57.1632 112.779 58.4996 113.749 59.4541C114.719 60.4723 115.948 60.9814 117.435 60.9814C118.858 60.9814 120.086 60.4723 121.056 59.4541C122.026 58.436 122.544 57.0996 122.544 55.5087C122.544 53.9178 122.091 52.645 121.121 51.6269C120.151 50.6723 118.922 50.1632 117.435 50.1632Z" fill="black"/>
<path d="M144.918 46.346H149.638V64.7369H144.918V62.7642C144.012 63.5915 143.107 64.2278 142.137 64.6096C141.232 64.9915 140.197 65.1824 139.162 65.1824C136.77 65.1824 134.636 64.2915 132.89 62.446C131.144 60.6006 130.238 58.3096 130.238 55.5733C130.238 52.7096 131.079 50.4187 132.825 48.5733C134.506 46.7278 136.576 45.8369 139.033 45.8369C140.132 45.8369 141.232 46.0278 142.202 46.4733C143.172 46.9187 144.077 47.4915 144.918 48.3824V46.346ZM140.003 50.1642C138.58 50.1642 137.352 50.6733 136.382 51.6915C135.412 52.7096 134.959 53.9824 134.959 55.5733C134.959 57.1642 135.476 58.5006 136.446 59.5187C137.416 60.5369 138.645 61.046 140.068 61.046C141.555 61.046 142.784 60.5369 143.754 59.5187C144.724 58.5006 145.241 57.1642 145.241 55.5733C145.241 53.9824 144.788 52.646 143.754 51.6915C142.719 50.6733 141.49 50.1642 140.003 50.1642Z" fill="black"/>
<path d="M154.36 46.3458H159.08V48.2549C160.115 47.364 161.085 46.7277 161.99 46.4095C162.831 46.0913 163.736 45.9004 164.642 45.9004C166.517 45.9004 168.069 46.5368 169.362 47.8095C170.462 48.8913 170.979 50.4822 170.979 52.6458V64.8004H166.323V56.7186C166.323 54.4913 166.194 53.0277 166 52.3277C165.806 51.6277 165.418 51.0549 164.965 50.6731C164.448 50.2913 163.866 50.1004 163.09 50.1004C162.12 50.1004 161.344 50.4186 160.632 51.0549C159.921 51.6913 159.468 52.5186 159.21 53.664C159.08 54.2368 159.016 55.5095 159.016 57.4186V64.8004H154.295V46.3458H154.36Z" fill="black"/>
<path d="M175.505 39.2178H180.226V53.9178L187.145 46.345H193.03L184.946 55.1905L194 64.7996H188.18L180.226 56.2723V64.736H175.505V39.2178Z" fill="black"/>
<path d="M24.3791 42.3369C18.9471 42.3369 14.5498 46.6642 14.5498 52.0096C14.5498 57.3551 18.9471 61.6824 24.3791 61.6824C29.8111 61.6824 34.2085 57.3551 34.2085 52.0096C34.1438 46.6642 29.7465 42.3369 24.3791 42.3369Z" fill="black"/>
<path d="M24.3793 28.0182C20.8873 28.0182 17.5893 28.7182 14.55 30.0545V38.2636C17.3307 36.3545 20.6933 35.2091 24.3793 35.2091C33.8207 35.2091 41.4513 42.7818 41.4513 52.0091C41.4513 61.3 33.8207 68.8091 24.3793 68.8091C14.938 68.8091 7.30733 61.3 7.30733 52.0091V34.9545V20H0V52.0091C0 65.2455 10.9287 76 24.3793 76C37.83 76 48.7587 65.2455 48.7587 52.0091C48.694 38.7727 37.83 28.0182 24.3793 28.0182Z" fill="black"/>
</svg>
