<?xml version="1.0" encoding="UTF-8" standalone="no"?><svg xmlns="http://www.w3.org/2000/svg" xmlns:xlink="http://www.w3.org/1999/xlink" clip-rule="evenodd" stroke-miterlimit="4.00" viewBox="0 0 756 118"><desc>SVG generated by Keynote</desc><defs></defs><g transform="matrix(1.00, 0.00, -0.00, -1.00, 0.0, 118.0)"><text xml:space="preserve" font-family="ArialMT" font-size="56.0" fill="#000000" transform="matrix(1.00, 0.00, -0.00, -1.00, 0.3, 66.1)">•</text><text xml:space="preserve" font-family="TrebuchetMS" font-size="56.0" fill="#000000" transform="matrix(1.00, 0.00, -0.00, -1.00, 36.0, 66.0)">A</text><text xml:space="preserve" font-family="TrebuchetMS" font-size="56.0" fill="#000000" transform="matrix(1.00, 0.00, -0.00, -1.00, 69.0, 66.0)">l</text><text xml:space="preserve" font-family="TrebuchetMS" font-size="56.0" fill="#000000" transform="matrix(1.00, 0.00, -0.00, -1.00, 85.5, 66.0)">i</text><text xml:space="preserve" font-family="TrebuchetMS" font-size="56.0" fill="#000000" transform="matrix(1.00, 0.00, -0.00, -1.00, 101.5, 66.0)">c</text><text xml:space="preserve" font-family="TrebuchetMS" font-size="56.0" fill="#000000" transform="matrix(1.00, 0.00, -0.00, -1.00, 129.2, 66.0)">e</text><text xml:space="preserve" font-family="TrebuchetMS" font-size="56.0" fill="#000000" transform="matrix(1.00, 0.00, -0.00, -1.00, 159.8, 66.0)"> </text><text xml:space="preserve" font-family="TrebuchetMS" font-size="56.0" fill="#000000" transform="matrix(1.00, 0.00, -0.00, -1.00, 176.7, 66.0)">s</text><text xml:space="preserve" font-family="TrebuchetMS" font-size="56.0" fill="#000000" transform="matrix(1.00, 0.00, -0.00, -1.00, 199.4, 66.0)">i</text><text xml:space="preserve" font-family="TrebuchetMS" font-size="56.0" fill="#000000" transform="matrix(1.00, 0.00, -0.00, -1.00, 215.3, 66.0)">g</text><text xml:space="preserve" font-family="TrebuchetMS" font-size="56.0" fill="#000000" transform="matrix(1.00, 0.00, -0.00, -1.00, 243.4, 66.0)">n</text><text xml:space="preserve" font-family="TrebuchetMS" font-size="56.0" fill="#000000" transform="matrix(1.00, 0.00, -0.00, -1.00, 274.1, 66.0)">s</text><text xml:space="preserve" font-family="TrebuchetMS" font-size="56.0" fill="#000000" transform="matrix(1.00, 0.00, -0.00, -1.00, 296.7, 66.0)"> </text><text xml:space="preserve" font-family="TrebuchetMS" font-size="56.0" fill="#000000" transform="matrix(1.00, 0.00, -0.00, -1.00, 313.6, 66.0)">t</text><text xml:space="preserve" font-family="TrebuchetMS" font-size="56.0" fill="#000000" transform="matrix(1.00, 0.00, -0.00, -1.00, 335.8, 66.0)">h</text><text xml:space="preserve" font-family="TrebuchetMS" font-size="56.0" fill="#000000" transform="matrix(1.00, 0.00, -0.00, -1.00, 366.5, 66.0)">e</text><text xml:space="preserve" font-family="TrebuchetMS" font-size="56.0" fill="#000000" transform="matrix(1.00, 0.00, -0.00, -1.00, 397.0, 66.0)"> </text><text xml:space="preserve" font-family="TrebuchetMS" font-size="56.0" fill="#000000" transform="matrix(1.00, 0.00, -0.00, -1.00, 413.9, 66.0)">g</text><text xml:space="preserve" font-family="TrebuchetMS" font-size="56.0" fill="#000000" transform="matrix(1.00, 0.00, -0.00, -1.00, 442.0, 66.0)">r</text><text xml:space="preserve" font-family="TrebuchetMS" font-size="56.0" fill="#000000" transform="matrix(1.00, 0.00, -0.00, -1.00, 463.8, 66.0)">e</text><text xml:space="preserve" font-family="TrebuchetMS" font-size="56.0" fill="#000000" transform="matrix(1.00, 0.00, -0.00, -1.00, 494.3, 66.0)">e</text><text xml:space="preserve" font-family="TrebuchetMS" font-size="56.0" fill="#000000" transform="matrix(1.00, 0.00, -0.00, -1.00, 524.9, 66.0)">n</text><text xml:space="preserve" font-family="TrebuchetMS" font-size="56.0" fill="#000000" transform="matrix(1.00, 0.00, -0.00, -1.00, 555.5, 66.0)"> </text><text xml:space="preserve" font-family="TrebuchetMS" font-size="56.0" fill="#000000" transform="matrix(1.00, 0.00, -0.00, -1.00, 572.4, 66.0)">c</text><text xml:space="preserve" font-family="TrebuchetMS" font-size="56.0" fill="#000000" transform="matrix(1.00, 0.00, -0.00, -1.00, 600.1, 66.0)">h</text><text xml:space="preserve" font-family="TrebuchetMS" font-size="56.0" fill="#000000" transform="matrix(1.00, 0.00, -0.00, -1.00, 630.8, 66.0)">e</text><text xml:space="preserve" font-family="TrebuchetMS" font-size="56.0" fill="#000000" transform="matrix(1.00, 0.00, -0.00, -1.00, 661.3, 66.0)">q</text><text xml:space="preserve" font-family="TrebuchetMS" font-size="56.0" fill="#000000" transform="matrix(1.00, 0.00, -0.00, -1.00, 692.5, 66.0)">u</text><text xml:space="preserve" font-family="TrebuchetMS" font-size="56.0" fill="#000000" transform="matrix(1.00, 0.00, -0.00, -1.00, 723.2, 66.0)">e</text><text xml:space="preserve" font-family="TrebuchetMS" font-size="56.0" fill="#000000" transform="matrix(1.00, 0.00, -0.00, -1.00, 753.7, 66.0)"> </text><text xml:space="preserve" font-family="TrebuchetMS" font-size="56.0" fill="#000000" transform="matrix(1.00, 0.00, -0.00, -1.00, 36.0, 13.0)">(</text><text xml:space="preserve" font-family="TrebuchetMS" font-size="56.0" fill="#000000" transform="matrix(1.00, 0.00, -0.00, -1.00, 56.6, 13.0)">v</text><text xml:space="preserve" font-family="TrebuchetMS" font-size="56.0" fill="#000000" transform="matrix(1.00, 0.00, -0.00, -1.00, 84.0, 13.0)">a</text><text xml:space="preserve" font-family="TrebuchetMS" font-size="56.0" fill="#000000" transform="matrix(1.00, 0.00, -0.00, -1.00, 113.4, 13.0)">l</text><text xml:space="preserve" font-family="TrebuchetMS" font-size="56.0" fill="#000000" transform="matrix(1.00, 0.00, -0.00, -1.00, 129.9, 13.0)">i</text><text xml:space="preserve" font-family="TrebuchetMS" font-size="56.0" fill="#000000" transform="matrix(1.00, 0.00, -0.00, -1.00, 145.9, 13.0)">d</text><text xml:space="preserve" font-family="TrebuchetMS" font-size="56.0" fill="#000000" transform="matrix(1.00, 0.00, -0.00, -1.00, 177.1, 13.0)">)</text></g></svg>