<?xml version="1.0" encoding="UTF-8" standalone="no"?><svg xmlns="http://www.w3.org/2000/svg" xmlns:xlink="http://www.w3.org/1999/xlink" clip-rule="evenodd" stroke-miterlimit="4.00" viewBox="0 0 811 118"><desc>SVG generated by Keynote</desc><defs></defs><g transform="matrix(1.00, 0.00, -0.00, -1.00, 0.0, 118.0)"><text xml:space="preserve" font-family="ArialMT" font-size="56.0" fill="#000000" transform="matrix(1.00, 0.00, -0.00, -1.00, 0.3, 66.4)">•</text><text xml:space="preserve" font-family="TrebuchetMS" font-size="56.0" fill="#000000" transform="matrix(1.00, 0.00, -0.00, -1.00, 36.0, 66.0)">B</text><text xml:space="preserve" font-family="TrebuchetMS" font-size="56.0" fill="#000000" transform="matrix(1.00, 0.00, -0.00, -1.00, 67.7, 66.0)">o</text><text xml:space="preserve" font-family="TrebuchetMS" font-size="56.0" fill="#000000" transform="matrix(1.00, 0.00, -0.00, -1.00, 97.7, 66.0)">b</text><text xml:space="preserve" font-family="TrebuchetMS" font-size="56.0" fill="#000000" transform="matrix(1.00, 0.00, -0.00, -1.00, 128.9, 66.0)"> </text><text xml:space="preserve" font-family="TrebuchetMS" font-size="56.0" fill="#000000" transform="matrix(1.00, 0.00, -0.00, -1.00, 145.8, 66.0)">c</text><text xml:space="preserve" font-family="TrebuchetMS" font-size="56.0" fill="#000000" transform="matrix(1.00, 0.00, -0.00, -1.00, 173.5, 66.0)">r</text><text xml:space="preserve" font-family="TrebuchetMS" font-size="56.0" fill="#000000" transform="matrix(1.00, 0.00, -0.00, -1.00, 195.3, 66.0)">e</text><text xml:space="preserve" font-family="TrebuchetMS" font-size="56.0" fill="#000000" transform="matrix(1.00, 0.00, -0.00, -1.00, 225.9, 66.0)">a</text><text xml:space="preserve" font-family="TrebuchetMS" font-size="56.0" fill="#000000" transform="matrix(1.00, 0.00, -0.00, -1.00, 255.3, 66.0)">t</text><text xml:space="preserve" font-family="TrebuchetMS" font-size="56.0" fill="#000000" transform="matrix(1.00, 0.00, -0.00, -1.00, 277.6, 66.0)">e</text><text xml:space="preserve" font-family="TrebuchetMS" font-size="56.0" fill="#000000" transform="matrix(1.00, 0.00, -0.00, -1.00, 308.2, 66.0)">s</text><text xml:space="preserve" font-family="TrebuchetMS" font-size="56.0" fill="#000000" transform="matrix(1.00, 0.00, -0.00, -1.00, 330.8, 66.0)"> </text><text xml:space="preserve" font-family="TrebuchetMS" font-size="56.0" fill="#000000" transform="matrix(1.00, 0.00, -0.00, -1.00, 347.7, 66.0)">t</text><text xml:space="preserve" font-family="TrebuchetMS" font-size="56.0" fill="#000000" transform="matrix(1.00, 0.00, -0.00, -1.00, 370.0, 66.0)">h</text><text xml:space="preserve" font-family="TrebuchetMS" font-size="56.0" fill="#000000" transform="matrix(1.00, 0.00, -0.00, -1.00, 400.6, 66.0)">e</text><text xml:space="preserve" font-family="TrebuchetMS" font-size="56.0" fill="#000000" transform="matrix(1.00, 0.00, -0.00, -1.00, 431.2, 66.0)"> </text><text xml:space="preserve" font-family="TrebuchetMS" font-size="56.0" fill="#000000" transform="matrix(1.00, 0.00, -0.00, -1.00, 448.1, 66.0)">y</text><text xml:space="preserve" font-family="TrebuchetMS" font-size="56.0" fill="#000000" transform="matrix(1.00, 0.00, -0.00, -1.00, 475.7, 66.0)">e</text><text xml:space="preserve" font-family="TrebuchetMS" font-size="56.0" fill="#000000" transform="matrix(1.00, 0.00, -0.00, -1.00, 506.3, 66.0)">l</text><text xml:space="preserve" font-family="TrebuchetMS" font-size="56.0" fill="#000000" transform="matrix(1.00, 0.00, -0.00, -1.00, 522.8, 66.0)">l</text><text xml:space="preserve" font-family="TrebuchetMS" font-size="56.0" fill="#000000" transform="matrix(1.00, 0.00, -0.00, -1.00, 539.3, 66.0)">o</text><text xml:space="preserve" font-family="TrebuchetMS" font-size="56.0" fill="#000000" transform="matrix(1.00, 0.00, -0.00, -1.00, 569.3, 66.0)">w</text><text xml:space="preserve" font-family="TrebuchetMS" font-size="56.0" fill="#000000" transform="matrix(1.00, 0.00, -0.00, -1.00, 611.0, 66.0)"> </text><text xml:space="preserve" font-family="TrebuchetMS" font-size="56.0" fill="#000000" transform="matrix(1.00, 0.00, -0.00, -1.00, 627.9, 66.0)">c</text><text xml:space="preserve" font-family="TrebuchetMS" font-size="56.0" fill="#000000" transform="matrix(1.00, 0.00, -0.00, -1.00, 655.6, 66.0)">h</text><text xml:space="preserve" font-family="TrebuchetMS" font-size="56.0" fill="#000000" transform="matrix(1.00, 0.00, -0.00, -1.00, 686.2, 66.0)">e</text><text xml:space="preserve" font-family="TrebuchetMS" font-size="56.0" fill="#000000" transform="matrix(1.00, 0.00, -0.00, -1.00, 716.8, 66.0)">q</text><text xml:space="preserve" font-family="TrebuchetMS" font-size="56.0" fill="#000000" transform="matrix(1.00, 0.00, -0.00, -1.00, 748.0, 66.0)">u</text><text xml:space="preserve" font-family="TrebuchetMS" font-size="56.0" fill="#000000" transform="matrix(1.00, 0.00, -0.00, -1.00, 778.7, 66.0)">e</text><text xml:space="preserve" font-family="TrebuchetMS" font-size="56.0" fill="#000000" transform="matrix(1.00, 0.00, -0.00, -1.00, 809.3, 66.0)"> </text><text xml:space="preserve" font-family="TrebuchetMS" font-size="56.0" fill="#000000" transform="matrix(1.00, 0.00, -0.00, -1.00, 36.0, 13.0)">a</text><text xml:space="preserve" font-family="TrebuchetMS" font-size="56.0" fill="#000000" transform="matrix(1.00, 0.00, -0.00, -1.00, 65.4, 13.0)">n</text><text xml:space="preserve" font-family="TrebuchetMS" font-size="56.0" fill="#000000" transform="matrix(1.00, 0.00, -0.00, -1.00, 96.1, 13.0)">d</text><text xml:space="preserve" font-family="TrebuchetMS" font-size="56.0" fill="#000000" transform="matrix(1.00, 0.00, -0.00, -1.00, 127.3, 13.0)"> </text><text xml:space="preserve" font-family="TrebuchetMS" font-size="56.0" fill="#000000" transform="matrix(1.00, 0.00, -0.00, -1.00, 144.2, 13.0)">s</text><text xml:space="preserve" font-family="TrebuchetMS" font-size="56.0" fill="#000000" transform="matrix(1.00, 0.00, -0.00, -1.00, 166.8, 13.0)">i</text><text xml:space="preserve" font-family="TrebuchetMS" font-size="56.0" fill="#000000" transform="matrix(1.00, 0.00, -0.00, -1.00, 182.8, 13.0)">g</text><text xml:space="preserve" font-family="TrebuchetMS" font-size="56.0" fill="#000000" transform="matrix(1.00, 0.00, -0.00, -1.00, 210.9, 13.0)">n</text><text xml:space="preserve" font-family="TrebuchetMS" font-size="56.0" fill="#000000" transform="matrix(1.00, 0.00, -0.00, -1.00, 241.5, 13.0)">s</text><text xml:space="preserve" font-family="TrebuchetMS" font-size="56.0" fill="#000000" transform="matrix(1.00, 0.00, -0.00, -1.00, 264.2, 13.0)"> </text><text xml:space="preserve" font-family="TrebuchetMS" font-size="56.0" fill="#000000" transform="matrix(1.00, 0.00, -0.00, -1.00, 281.1, 13.0)">i</text><text xml:space="preserve" font-family="TrebuchetMS" font-size="56.0" fill="#000000" transform="matrix(1.00, 0.00, -0.00, -1.00, 297.0, 13.0)">t</text><text xml:space="preserve" font-family="TrebuchetMS" font-size="56.0" fill="#000000" transform="matrix(1.00, 0.00, -0.00, -1.00, 319.3, 13.0)"> </text><text xml:space="preserve" font-family="TrebuchetMS" font-size="56.0" fill="#000000" transform="matrix(1.00, 0.00, -0.00, -1.00, 336.2, 13.0)">(</text><text xml:space="preserve" font-family="TrebuchetMS" font-size="56.0" fill="#000000" transform="matrix(1.00, 0.00, -0.00, -1.00, 356.7, 13.0)">i</text><text xml:space="preserve" font-family="TrebuchetMS" font-size="56.0" fill="#000000" transform="matrix(1.00, 0.00, -0.00, -1.00, 372.7, 13.0)">n</text><text xml:space="preserve" font-family="TrebuchetMS" font-size="56.0" fill="#000000" transform="matrix(1.00, 0.00, -0.00, -1.00, 403.3, 13.0)">v</text><text xml:space="preserve" font-family="TrebuchetMS" font-size="56.0" fill="#000000" transform="matrix(1.00, 0.00, -0.00, -1.00, 430.7, 13.0)">a</text><text xml:space="preserve" font-family="TrebuchetMS" font-size="56.0" fill="#000000" transform="matrix(1.00, 0.00, -0.00, -1.00, 460.2, 13.0)">l</text><text xml:space="preserve" font-family="TrebuchetMS" font-size="56.0" fill="#000000" transform="matrix(1.00, 0.00, -0.00, -1.00, 476.7, 13.0)">i</text><text xml:space="preserve" font-family="TrebuchetMS" font-size="56.0" fill="#000000" transform="matrix(1.00, 0.00, -0.00, -1.00, 492.7, 13.0)">d</text><text xml:space="preserve" font-family="TrebuchetMS" font-size="56.0" fill="#000000" transform="matrix(1.00, 0.00, -0.00, -1.00, 523.9, 13.0)">)</text></g></svg>