<svg width="200" height="95" viewBox="0 0 200 95" fill="none" xmlns="http://www.w3.org/2000/svg">
<mask id="mask0" mask-type="alpha" maskUnits="userSpaceOnUse" x="0" y="0" width="200" height="95">
<rect width="200" height="95" fill="#482E2E"/>
</mask>
<g mask="url(#mask0)">
</g>
<path d="M10 67.8188H165.82V63.7188H10V67.8188Z" fill="#159E49"/>
<path d="M176.62 67.8188H190V63.7188H176.62V67.8188Z" fill="#159E49"/>
<path d="M40.3603 57.5088H45.9403V36.4059H40.3603V57.5088ZM39.8203 30.3162C39.8203 29.3515 40.1203 28.5676 40.7803 27.9044C41.3803 27.3015 42.2203 27 43.1803 27C44.2003 27 44.9803 27.3015 45.5803 27.9044C46.1803 28.5074 46.5403 29.2912 46.5403 30.3162C46.5403 31.2809 46.2403 32.0647 45.5803 32.7279C44.9803 33.3309 44.1403 33.6324 43.1803 33.6324C42.2203 33.6324 41.4403 33.3309 40.7803 32.7279C40.1203 32.125 39.8203 31.2809 39.8203 30.3162Z" fill="#333433"/>
<path d="M58.78 36.3456H64.48V40.5662H58.78V50.6956C58.78 51.6 59.02 52.3235 59.56 52.8662C60.1 53.4088 60.76 53.7103 61.66 53.7103C62.44 53.7103 63.34 53.5897 64.3 53.3485L65.02 57.5088C63.4 57.9309 61.84 58.172 60.34 58.172C59.32 58.172 58.36 57.9912 57.52 57.6897C56.68 57.3882 55.96 56.9059 55.3 56.3029C54.7 55.7 54.22 54.9764 53.86 54.1323C53.5 53.2882 53.38 52.3838 53.38 51.3588V40.6868H49.54V36.4662H53.38V30.2559H58.72V36.3456H58.78Z" fill="#333433"/>
<path d="M67.7796 42.1946C67.7796 41.2902 67.9596 40.3858 68.3796 39.602C68.7996 38.8182 69.3396 38.1549 69.9996 37.552C70.7196 37.0093 71.5596 36.527 72.5196 36.2255C73.4796 35.924 74.6196 35.7432 75.7596 35.7432C76.9596 35.7432 78.2196 35.8638 79.4796 36.1049C80.7396 36.3461 82.0596 36.7079 83.3796 37.1902L82.1796 41.1696C81.1596 40.7476 80.1396 40.4461 79.1196 40.2049C78.0996 39.9637 77.1396 39.8432 76.2396 39.8432C75.2796 39.8432 74.4996 40.024 73.8996 40.4461C73.2996 40.8682 73.0596 41.4108 73.0596 42.1343C73.0596 42.7976 73.3596 43.2799 73.8996 43.5814C74.4396 43.8829 75.0996 44.1843 75.9396 44.4255C76.7796 44.6667 77.6196 44.9079 78.5796 45.0888C79.5396 45.3299 80.4396 45.6917 81.2196 46.174C82.0596 46.6564 82.7196 47.3196 83.2596 48.1035C83.7996 48.9476 84.0996 50.0329 84.0996 51.3593C84.0996 52.324 83.9196 53.1682 83.4996 54.0123C83.0796 54.7961 82.5396 55.5196 81.8196 56.1226C81.0996 56.7255 80.2596 57.1476 79.1796 57.5093C78.1596 57.8108 77.0196 57.9917 75.8196 57.9917C73.2396 57.9917 70.4796 57.449 67.5996 56.3035L68.7396 52.3843C71.1996 53.4093 73.4196 53.8917 75.3996 53.8917C76.4196 53.8917 77.2596 53.6505 77.8596 53.2285C78.4596 52.8064 78.7596 52.2035 78.7596 51.4196C78.7596 50.7564 78.4596 50.274 77.9196 49.9123C77.3796 49.5505 76.7196 49.249 75.8796 49.0079C75.0396 48.7667 74.1996 48.5255 73.2396 48.2843C72.2796 48.0432 71.4396 47.6814 70.5996 47.199C69.7596 46.7167 69.0996 46.1137 68.5596 45.3299C68.0196 44.6064 67.7796 43.5211 67.7796 42.1946Z" fill="#333433"/>
<path d="M95.3201 36.3456H101.02V40.5662H95.3201V50.6956C95.3201 51.6 95.5601 52.3235 96.1001 52.8662C96.6401 53.4088 97.3001 53.7103 98.2001 53.7103C98.9801 53.7103 99.8801 53.5897 100.84 53.3485L101.56 57.5088C99.9401 57.9309 98.3801 58.172 96.8801 58.172C95.8601 58.172 94.9001 57.9912 94.0601 57.6897C93.2201 57.3882 92.5001 56.9059 91.8401 56.3029C91.1801 55.7 90.7601 54.9764 90.4001 54.1323C90.0401 53.2882 89.9201 52.3838 89.9201 51.3588V40.6868H86.0801V36.4662H89.9201V30.2559H95.2601V36.3456H95.3201Z" fill="#333433"/>
<path d="M109.84 51.0574C109.84 51.9015 110.2 52.625 110.86 53.228C111.58 53.8309 112.42 54.1324 113.44 54.1324C114.88 54.1324 116.02 53.65 116.92 52.7456C117.82 51.8412 118.24 50.6353 118.24 49.1883V47.9221C117.22 47.6206 116.08 47.5 114.82 47.5C113.26 47.5 112.06 47.8015 111.16 48.4647C110.32 49.0677 109.84 49.9721 109.84 51.0574ZM104.62 51.3589C104.62 49.128 105.46 47.3794 107.14 46.1736C108.82 44.9677 111.16 44.3647 114.22 44.3647C114.88 44.3647 115.54 44.425 116.2 44.4853C116.86 44.5456 117.58 44.6662 118.24 44.7868V43.6412C118.24 42.5559 117.88 41.6515 117.1 40.9883C116.32 40.325 115.3 39.9633 113.98 39.9633C111.88 39.9633 109.6 40.4456 107.14 41.4706L105.76 37.6118C108.76 36.4059 111.7 35.8633 114.58 35.8633C115.9 35.8633 117.04 36.0442 118.12 36.4662C119.2 36.828 120.1 37.3706 120.88 38.0942C121.66 38.7574 122.26 39.6015 122.68 40.5662C123.1 41.5309 123.34 42.6162 123.34 43.7618V52.3839C123.34 52.8662 123.46 53.228 123.7 53.4692C123.94 53.7706 124.3 53.8912 124.78 53.8912C125.02 53.8912 125.2 53.8912 125.44 53.8309C125.62 53.8309 125.8 53.7706 125.86 53.7706L126.22 57.8103C125.74 57.8706 125.32 57.9912 124.84 58.0515C124.36 58.1118 123.88 58.1118 123.34 58.1118C122.26 58.1118 121.36 57.8706 120.58 57.328C119.8 56.8456 119.26 56.1221 118.9 55.2177C118 56.1221 116.92 56.8456 115.78 57.328C114.58 57.8103 113.38 58.0515 112.06 58.0515C110.98 58.0515 109.96 57.8706 109.06 57.5692C108.16 57.2677 107.38 56.7853 106.72 56.1824C106.06 55.5794 105.58 54.9162 105.22 54.0721C104.8 53.228 104.62 52.3236 104.62 51.3589Z" fill="#333433"/>
<path d="M129.34 36.2858H133.66L134.32 39.1799C135.16 38.0946 136.12 37.2505 137.32 36.6476C138.52 36.0446 139.78 35.7432 141.16 35.7432C142.72 35.7432 144.04 36.1049 145.24 36.7682C146.38 37.4314 147.28 38.3961 147.88 39.602C148.84 38.3358 149.98 37.3711 151.24 36.7079C152.5 36.0446 153.88 35.7432 155.44 35.7432C156.58 35.7432 157.6 35.924 158.56 36.2858C159.52 36.6476 160.36 37.1902 161.02 37.9138C161.74 38.577 162.28 39.4211 162.64 40.3858C163 41.3505 163.24 42.3755 163.24 43.5211V57.5093H157.78V44.4255C157.78 43.2196 157.42 42.2549 156.64 41.4711C155.86 40.7476 154.9 40.3255 153.7 40.3255C152.32 40.3255 151.18 40.8079 150.28 41.7726C149.38 42.7373 148.96 43.9432 148.96 45.5108V57.5093H143.5V44.4255C143.5 43.2196 143.14 42.2549 142.42 41.4711C141.7 40.7476 140.74 40.3255 139.54 40.3255C138.1 40.3255 136.96 40.8079 136.06 41.7726C135.16 42.7373 134.74 43.9432 134.74 45.5108V57.5093H129.28V36.2858H129.34Z" fill="#333433"/>
<path d="M184 46.8373C184 45.8726 183.88 44.9682 183.58 44.124C183.34 43.2799 182.92 42.5564 182.44 42.0137C181.96 41.4108 181.42 40.9888 180.76 40.627C180.1 40.2652 179.38 40.1446 178.6 40.1446C177.16 40.1446 176.02 40.627 175.06 41.652C174.16 42.6167 173.68 43.8829 173.68 45.4505V48.2843C173.68 49.0682 173.8 49.7917 174.04 50.3946C174.28 51.0579 174.64 51.6005 175.06 52.0829C175.48 52.5652 176.02 52.927 176.62 53.1682C177.22 53.4093 177.88 53.5299 178.6 53.5299C179.38 53.5299 180.1 53.3491 180.76 53.0476C181.42 52.7461 181.96 52.2637 182.44 51.6608C182.92 51.0579 183.28 50.3343 183.58 49.5505C183.88 48.7667 184 47.802 184 46.8373ZM168.4 36.2858H172.72L173.38 38.999C174.16 37.974 175.06 37.1902 176.2 36.5873C177.34 36.0446 178.6 35.7432 179.98 35.7432C181.36 35.7432 182.62 36.0446 183.82 36.5873C184.96 37.1299 185.98 37.9138 186.82 38.8785C187.66 39.8432 188.32 40.9888 188.8 42.3755C189.28 43.702 189.52 45.2093 189.52 46.8373C189.52 48.4652 189.28 49.9726 188.8 51.299C188.32 52.6255 187.66 53.8314 186.82 54.7961C185.98 55.7608 184.96 56.5446 183.82 57.0873C182.68 57.6299 181.36 57.9314 179.98 57.9314C178.72 57.9314 177.52 57.6902 176.5 57.2079C175.42 56.7255 174.52 56.002 173.8 55.0373V67.8799H168.4V36.2858Z" fill="#333433"/>
<path d="M28.36 52.0821C27.52 52.9262 26.38 53.288 24.94 53.288H18.22V44.5453H24.94C26.32 44.5453 27.46 44.9674 28.36 45.7512C29.2 46.535 29.62 47.6203 29.62 48.8865C29.68 50.213 29.26 51.2983 28.36 52.0821ZM18.22 32.7277H24.4C25.66 32.7277 26.68 33.0894 27.52 33.8733C28.36 34.5968 28.72 35.6218 28.72 36.8277C28.72 38.0335 28.3 38.9983 27.52 39.7218C26.68 40.4453 25.66 40.8071 24.4 40.8071H18.22V32.7277ZM33.88 45.088C32.98 43.8218 31.78 42.9174 30.28 42.3747C31.48 41.8321 32.38 41.0483 33.1 39.963C33.82 38.8777 34.18 37.6115 34.18 36.1644C34.18 35.0189 33.94 33.9939 33.52 33.0894C33.1 32.1247 32.44 31.3409 31.66 30.6777C30.88 30.0144 29.92 29.4718 28.84 29.11C27.76 28.7483 26.56 28.5674 25.24 28.5674H10V32.4262C12.34 32.4262 14.2 34.3556 14.2 36.7071C14.2 39.0586 12.34 40.988 10 40.988V44.485C12.34 44.485 14.2 46.4144 14.2 48.7659V49.4291C14.2 51.7806 12.34 53.71 10 53.71V57.5689H25.9C27.28 57.5689 28.48 57.388 29.62 56.9659C30.76 56.6042 31.72 56.0615 32.56 55.338C33.4 54.6144 34.06 53.7703 34.48 52.8056C34.96 51.8409 35.2 50.7556 35.2 49.5497C35.2 47.8012 34.78 46.3541 33.88 45.088Z" fill="#333433"/>
</svg>
