<svg width="200" height="95" viewBox="0 0 200 95" fill="none" xmlns="http://www.w3.org/2000/svg">
<mask id="mask0" mask-type="alpha" maskUnits="userSpaceOnUse" x="0" y="0" width="200" height="95">
<rect width="200" height="95" fill="#482E2E"/>
</mask>
<g mask="url(#mask0)">
</g>
<path d="M104.368 50.6199C104.368 53.4572 102.105 54.3344 98.9606 54.3344H95.085V41.4287H98.4669C101.798 41.4287 103.82 42.3641 103.82 44.7163C103.82 46.3232 102.654 47.2392 101.425 47.4992C102.891 47.7787 104.368 48.4851 104.368 50.6199ZM97.5418 46.7385H99.0578C100.403 46.7385 101.281 46.1407 101.281 44.9259C101.281 43.6178 100.383 43.2452 98.7002 43.2452H97.534L97.5418 46.7385ZM101.787 50.5306C101.787 48.978 100.683 48.4541 99.2444 48.4541H97.5418V52.4907H98.9723C100.609 52.4868 101.787 52.1491 101.787 50.5267V50.5306Z" fill="black"/>
<path d="M109.297 52.6927C109.489 52.6895 109.678 52.6581 109.861 52.5995L110.362 54.2802C109.823 54.4999 109.246 54.6132 108.663 54.614C107.186 54.614 106.331 53.7368 106.331 52.095V40.4973L108.726 40.2334V51.9242C108.737 52.4676 108.904 52.6927 109.297 52.6927Z" fill="black"/>
<path d="M120.741 49.3856C120.741 52.4907 119.003 54.6138 116.076 54.6138C113.149 54.6138 111.411 52.6343 111.411 49.3856C111.411 46.2805 113.153 44.1768 116.076 44.1768C118.999 44.1768 120.741 46.1563 120.741 49.3856ZM113.953 49.3856C113.953 51.7571 114.68 52.8012 116.084 52.8012C117.487 52.8012 118.218 51.7377 118.218 49.3856C118.218 47.0335 117.487 45.9855 116.103 45.9855C114.719 45.9855 113.938 47.0529 113.938 49.3856H113.953Z" fill="black"/>
<path d="M129.834 45.3332L128.749 46.7888C128.199 46.3136 127.494 46.0543 126.767 46.0591C125.383 46.0591 124.539 47.0682 124.539 49.4398C124.539 51.8113 125.418 52.673 126.767 52.673C127.494 52.6598 128.191 52.384 128.73 51.8967L129.834 53.4493C128.938 54.1975 127.803 54.6008 126.635 54.5865C123.774 54.5865 121.997 52.607 121.997 49.4514C121.997 46.2958 123.774 44.1766 126.615 44.1766C127.797 44.1357 128.949 44.5498 129.834 45.3332Z" fill="black"/>
<path d="M131.478 54.3345V40.4973L133.872 40.2334V54.3345H131.478ZM140.119 54.3345H137.371L133.958 48.9355L137.27 44.4564H139.789L136.496 48.8074L140.119 54.3345Z" fill="black"/>
<path d="M148.547 45.3531L147.614 46.7892C146.908 46.2668 146.059 45.9741 145.181 45.9508C144.17 45.9508 143.626 46.339 143.626 46.9406C143.626 47.5422 144.014 47.8915 145.701 48.3573C147.723 48.9007 148.862 49.7236 148.862 51.4624C148.862 53.5157 146.953 54.5986 144.691 54.5986C143.246 54.6404 141.839 54.1405 140.745 53.1974L141.962 51.835C142.708 52.4567 143.645 52.8058 144.617 52.8248C145.701 52.8248 146.393 52.359 146.393 51.6604C146.393 50.7987 146.005 50.5387 144.15 50.0147C142.11 49.4557 141.212 48.4854 141.212 47.0299C141.212 45.3842 142.728 44.1537 145.029 44.1537C146.305 44.1379 147.547 44.5615 148.547 45.3531Z" fill="black"/>
<path d="M154.312 54.6136C152.368 54.5941 151.338 53.4957 151.338 51.3842V46.156H149.783V44.4559H151.338V42.2746L153.729 41.9951V44.4598H156.03L155.789 46.156H153.729V51.3105C153.729 52.2847 154.048 52.6767 154.778 52.6767C155.196 52.6602 155.601 52.5256 155.945 52.2886L156.784 53.8412C156.059 54.3458 155.196 54.6155 154.312 54.6136Z" fill="black"/>
<path d="M164.112 44.3246L163.7 46.6535C163.414 46.5755 163.118 46.5376 162.821 46.5409C161.624 46.5409 161.006 47.4181 160.633 49.0793V54.3464H158.238V44.4566H160.314L160.54 46.3973C161.006 44.9806 161.962 44.1927 163.121 44.1927C163.456 44.1884 163.79 44.2328 164.112 44.3246Z" fill="black"/>
<path d="M173.586 50.1308H167.389C167.556 52.1492 168.513 52.8012 169.823 52.8012C170.719 52.7851 171.586 52.4771 172.291 51.924L173.282 53.2864C172.254 54.1473 170.955 54.6175 169.613 54.6139C166.546 54.6139 164.901 52.58 164.901 49.4594C164.901 46.4513 166.491 44.1768 169.298 44.1768C172.105 44.1768 173.656 46.0437 173.656 49.1605C173.644 49.4788 173.609 49.8708 173.586 50.1308ZM171.277 48.4851C171.277 46.8627 170.697 45.8885 169.333 45.8885C168.209 45.8885 167.502 46.6376 167.389 48.6054H171.277V48.4851Z" fill="black"/>
<path d="M183.863 52.9914L183.358 54.5751C182.273 54.4819 181.562 54.0899 181.169 53.1389C180.845 53.6173 180.403 54.0042 179.885 54.2626C179.368 54.5209 178.793 54.6419 178.215 54.6139C176.232 54.6139 175.016 53.3641 175.016 51.5709C175.016 49.4244 176.644 48.2639 179.525 48.2639H180.761V47.7089C180.761 46.4202 180.178 45.9894 178.907 45.9894C178.012 46.0302 177.128 46.2069 176.287 46.5134L175.727 44.8871C176.872 44.4379 178.089 44.1986 179.319 44.1807C181.958 44.1807 183.117 45.3917 183.117 47.5769V51.7261C183.117 52.5218 183.377 52.8013 183.863 52.9914ZM180.753 51.664V49.6496H179.758C178.203 49.6496 177.426 50.2085 177.426 51.369C177.426 52.32 177.912 52.8634 178.829 52.8634C179.232 52.8671 179.628 52.7563 179.97 52.544C180.312 52.3316 180.586 52.0264 180.761 51.664H180.753Z" fill="black"/>
<path d="M198.942 47.1813V54.3347H196.544V47.5539C196.544 46.3235 196.058 45.9664 195.459 45.9664C194.635 45.9664 194.13 46.5447 193.589 47.4607V54.3347H191.195V47.5539C191.195 46.3235 190.689 45.9664 190.11 45.9664C189.266 45.9664 188.761 46.5447 188.221 47.4607V54.3347H185.826V44.4565H187.902L188.089 45.7452C188.395 45.2654 188.818 44.8711 189.318 44.5995C189.819 44.3279 190.38 44.1879 190.95 44.1926C191.476 44.1703 191.995 44.3206 192.427 44.6206C192.86 44.9206 193.182 45.3538 193.344 45.8538C194.095 44.8253 195.008 44.1926 196.318 44.1926C197.892 44.1771 198.942 45.3143 198.942 47.1813Z" fill="black"/>
<path d="M75.6094 35.1297C76.7579 36.7409 77.6861 38.4979 78.3694 40.3541L80.8223 39.5584C80.043 37.4323 78.9785 35.4215 77.658 33.5811L75.6094 35.1297Z" fill="#00C3FF"/>
<path d="M58.7922 23.5199C58.1352 23.4928 57.4782 23.4966 56.8213 23.5199L57.0079 26.0817C57.9973 26.0468 58.9879 26.074 59.9739 26.1632C60.96 26.2569 61.939 26.4138 62.905 26.6328L63.5619 24.1487C62.4595 23.8951 61.3413 23.7148 60.2149 23.6092C59.7407 23.5665 59.2625 23.5355 58.7922 23.5199Z" fill="#00C3FF"/>
<path d="M34.734 59.1238C33.7036 57.0348 32.9646 54.8147 32.5377 52.5254L29.8438 52.9485C30.3174 55.5368 31.1509 58.0465 32.32 60.4046L34.734 59.1238Z" fill="#00C3FF"/>
<path d="M33.3379 33.2508L35.7247 34.5743C36.9171 32.5737 38.378 30.7454 40.0669 29.1404L38.2398 27.1182C36.3299 28.9264 34.6802 30.9902 33.3379 33.2508Z" fill="#00C3FF"/>
<path d="M29.96 42.019L32.6461 42.4925C33.1189 40.2084 33.9037 37.9999 34.9785 35.9291L32.5917 34.6094C31.3739 36.9451 30.4881 39.439 29.96 42.019Z" fill="#00C3FF"/>
<path d="M47.4492 21.2225L48.5221 23.7261C50.6952 22.8746 52.975 22.3248 55.2977 22.092L55.1034 19.375C52.4778 19.6291 49.9011 20.2511 47.4492 21.2225Z" fill="#00C3FF"/>
<path d="M39.3906 26.0657L41.2177 28.0879C42.9959 26.5764 44.972 25.3137 47.0914 24.3346L46.0224 21.8311C43.6258 22.9287 41.3938 24.3539 39.3906 26.0657Z" fill="#00C3FF"/>
<path d="M79.8228 66.119L77.6886 64.4229C76.1809 66.2028 74.4376 67.7698 72.5068 69.0805L73.9762 71.3861C76.1611 69.9106 78.1289 68.1378 79.8228 66.119Z" fill="#00C3FF"/>
<path d="M46.6131 70.9664C44.5131 69.9422 42.563 68.6363 40.8171 67.085L38.9512 69.0722C40.9183 70.8241 43.1202 72.2937 45.4936 73.4388L46.6131 70.9664Z" fill="#00C3FF"/>
<path d="M86.3964 50.4263C86.747 46.7572 86.3773 43.0551 85.3079 39.5273L82.7112 40.389C84.1987 45.3837 84.1459 50.7097 82.5596 55.674L85.1291 56.5861C85.777 54.5856 86.202 52.5198 86.3964 50.4263Z" fill="#00C3FF"/>
<path d="M70.4814 68.5526L69.0975 66.3906C67.3944 67.4034 65.5644 68.1865 63.6553 68.7195L64.2617 71.2152C66.4459 70.6123 68.5382 69.7166 70.4814 68.5526Z" fill="#00C3FF"/>
<path d="M36.6889 50.4876C36.4991 48.8847 36.4782 47.2663 36.6267 45.6591C36.6617 45.271 36.7084 44.9294 36.7589 44.5723L34.2282 44.1221C34.166 44.549 34.1116 44.9799 34.0689 45.4223C33.8975 47.2403 33.9249 49.0714 34.1505 50.8835L36.6889 50.4876Z" fill="#00C3FF"/>
<path d="M65.292 23.0193C67.5333 23.6769 69.6733 24.6394 71.6517 25.8799L73.1677 23.6131C70.9376 22.2075 68.5206 21.1217 65.9878 20.3877L65.292 23.0193Z" fill="#00C3FF"/>
<path d="M54.1979 76.0438L54.4545 73.3269C52.2534 73.0317 50.0999 72.4524 48.0482 71.6035L46.9092 74.1031C49.2418 75.0699 51.6929 75.7225 54.1979 76.0438Z" fill="#00C3FF"/>
<path d="M40.8404 65.0009L42.6052 63.13C41.2084 61.7253 40.0021 60.1438 39.0172 58.4258L36.7354 59.6251C37.8555 61.5931 39.2362 63.4014 40.8404 65.0009Z" fill="#00C3FF"/>
<path d="M74.4584 24.4746L72.9268 26.7491C74.8282 28.1015 76.5373 29.7048 78.0075 31.5155L80.1922 29.8542C78.5404 27.8039 76.6106 25.9933 74.4584 24.4746Z" fill="#00C3FF"/>
<path d="M77.0713 62.2447C78.4296 60.4342 79.5334 58.4466 80.3522 56.3372L77.9304 55.4717C77.2046 57.3136 76.2387 59.052 75.0576 60.6417L77.0713 62.2447Z" fill="#00C3FF"/>
<path d="M79.0882 41.5723L76.6509 42.3796C77.3256 44.7109 77.5538 47.1483 77.3234 49.5641C77.202 50.9083 76.9415 52.2364 76.5459 53.527L78.9716 54.3848C79.4391 52.8945 79.7492 51.3594 79.8968 49.8047C80.1549 47.0342 79.8805 44.2399 79.0882 41.5723Z" fill="#7EE0FF"/>
<path d="M54.8077 69.5375L55.0448 66.9797C53.5405 66.7562 52.0675 66.3575 50.656 65.792L49.5986 68.1208C51.2699 68.8056 53.0195 69.2814 54.8077 69.5375Z" fill="#7EE0FF"/>
<path d="M72.4609 42.3173L74.7622 41.541C74.2065 40.0838 73.4727 38.7006 72.5776 37.4229L70.6533 38.8861C71.3913 39.9534 71.9982 41.1054 72.4609 42.3173Z" fill="#7EE0FF"/>
<path d="M58.5436 29.8857C58.1199 29.8857 57.6962 29.8857 57.2764 29.8857L57.4513 32.2922C58.7452 32.2552 60.0387 32.3751 61.3036 32.6493L61.9217 30.3205C61.1602 30.1527 60.3891 30.0322 59.6127 29.9595C59.2667 29.9246 58.9052 29.9013 58.5436 29.8857Z" fill="#7EE0FF"/>
<path d="M39.0566 36.4177L41.3074 37.6636C42.1538 36.2734 43.1725 34.9953 44.3395 33.8599L42.6058 31.9541C41.2312 33.2796 40.0379 34.7804 39.0566 36.4177Z" fill="#7EE0FF"/>
<path d="M63.6631 29.1824C65.2231 29.6562 66.7162 30.3266 68.1063 31.1775L69.533 29.0427C67.9049 28.0419 66.1523 27.2589 64.32 26.7139L63.6631 29.1824Z" fill="#7EE0FF"/>
<path d="M72.9271 35.3742L74.9718 33.8216C73.7626 32.339 72.3627 31.0222 70.8085 29.9053L69.3818 32.04C70.6993 32.9982 71.8904 34.1184 72.9271 35.3742Z" fill="#7EE0FF"/>
<path d="M70.1748 56.7762L72.0718 58.2783C72.9936 57.0196 73.7536 55.6504 74.3343 54.2028L72.0524 53.3955C71.5626 54.5926 70.9324 55.7274 70.1748 56.7762Z" fill="#7EE0FF"/>
<path d="M45.1907 62.458L43.4297 64.3288C44.8681 65.5908 46.4665 66.6583 48.1839 67.5038L49.2374 65.175C47.7783 64.4447 46.4185 63.5317 45.1907 62.458Z" fill="#7EE0FF"/>
<path d="M42.8587 49.5214C42.7408 48.4304 42.7317 47.3305 42.8315 46.2377C42.8509 46.0475 42.8742 45.8496 42.8976 45.6594L40.5146 45.2363C40.4796 45.4925 40.4485 45.7526 40.4252 46.0126C40.3062 47.3044 40.3192 48.6049 40.4641 49.894L42.8587 49.5214Z" fill="#7EE0FF"/>
<path d="M38.8431 51.5322L36.3008 51.9204C36.6613 53.8027 37.2678 55.6296 38.1045 57.3543L40.3786 56.155C39.6744 54.6846 39.1585 53.1314 38.8431 51.5322Z" fill="#7EE0FF"/>
<path d="M69.0703 63.7156L70.4542 65.8775C72.0309 64.799 73.4593 63.5188 74.7031 62.0699L72.6894 60.4746C71.6248 61.703 70.4088 62.792 69.0703 63.7156Z" fill="#7EE0FF"/>
<path d="M40.553 39.0184L38.3061 37.7764C37.431 39.4784 36.7852 41.2887 36.3857 43.1599L38.9164 43.6062C39.2654 42.014 39.8153 40.4724 40.553 39.0184Z" fill="#7EE0FF"/>
<path d="M62.1826 62.6601L62.7502 64.9889C64.2529 64.5613 65.696 63.9471 67.0457 63.1608L65.7395 61.123C64.6192 61.7746 63.4252 62.2906 62.1826 62.6601Z" fill="#7EE0FF"/>
<path d="M44.5218 55.5186L42.3838 56.6364C43.1665 57.9854 44.116 59.2307 45.2099 60.3431L46.8814 58.5771C45.9769 57.654 45.1849 56.6273 44.5218 55.5186Z" fill="#7EE0FF"/>
<path d="M57.234 67.1861C57.0202 67.1861 56.8064 67.159 56.5887 67.1434L56.3516 69.7013C58.3683 69.8487 60.3959 69.7181 62.3769 69.3131L61.7705 66.8174C60.2783 67.119 58.7554 67.2428 57.234 67.1861Z" fill="#7EE0FF"/>
<path d="M43.7715 30.9139L45.4936 32.8197C46.7479 31.7768 48.1283 30.8954 49.6025 30.1958L48.5918 27.8359C46.8578 28.6483 45.2374 29.683 43.7715 30.9139Z" fill="#7EE0FF"/>
<path d="M50.0146 27.2267L51.0254 29.5904C52.548 29.0042 54.139 28.6129 55.7601 28.426L55.5774 25.8682C53.6715 26.0754 51.8012 26.5322 50.0146 27.2267Z" fill="#7EE0FF"/>
<path d="M56.5109 76.2373C58.9365 76.3147 61.3632 76.1194 63.7452 75.6551L63.1776 73.0352C61.1114 73.4633 59.0004 73.6366 56.8918 73.5514C56.5536 73.5514 56.3087 73.5087 55.9705 73.4815L55.7334 76.2257C55.9923 76.2404 56.2519 76.2404 56.5109 76.2257V76.2373Z" fill="#00C3FF"/>
</svg>
