<svg width="200" height="95" viewBox="0 0 200 95" fill="none" xmlns="http://www.w3.org/2000/svg">
<mask id="mask0" mask-type="alpha" maskUnits="userSpaceOnUse" x="0" y="0" width="200" height="95">
<rect width="200" height="95" fill="#482E2E"/>
</mask>
<g mask="url(#mask0)">
</g>
<g clip-path="url(#clip0)">
<path d="M11 40.4482H17.0535C18.4931 40.4482 19.5857 40.8037 20.3314 41.5147C20.719 41.9166 21.0192 42.3988 21.2121 42.9293C21.4049 43.4597 21.486 44.0264 21.4499 44.5916C21.4754 45.2896 21.3293 45.9829 21.0253 46.6073C20.7167 47.1694 20.2703 47.6382 19.7307 47.9671C20.2491 48.0614 20.7492 48.2414 21.2117 48.5003C21.592 48.7072 21.9265 48.9933 22.1939 49.3402C22.4613 49.6872 22.6559 50.0876 22.7652 50.516C22.8694 50.9611 22.9181 51.418 22.9102 51.8758C22.9242 52.558 22.799 53.2356 22.5425 53.8648C22.2961 54.4343 21.9258 54.9379 21.4603 55.3366C20.9652 55.7544 20.3899 56.0597 19.7721 56.2324C19.0426 56.4426 18.2874 56.5431 17.5299 56.5311H11V40.4482ZM15.065 46.7673H15.8107C17.0846 46.7673 17.7163 46.234 17.7163 45.2102C17.7163 44.1863 17.0846 43.6531 15.8107 43.6531H15.065V46.7673ZM15.065 53.3316H15.9557C16.7105 53.3852 17.4665 53.246 18.1565 52.9263C18.3734 52.7929 18.5502 52.6002 18.6672 52.3695C18.7842 52.1389 18.8369 51.8794 18.8193 51.6198C18.8365 51.361 18.7836 51.1024 18.6666 50.8727C18.5496 50.643 18.373 50.4512 18.1565 50.3187C17.4673 49.9964 16.7106 49.8571 15.9557 49.9134H15.065V53.3316Z" fill="#4489FF"/>
<path d="M35.6334 40.4482V53.0063H40.5165V56.5311H31.5684V40.4482H35.6334Z" fill="#4489FF"/>
<path d="M47.8074 48.4999C47.7844 46.8083 48.2642 45.1499 49.1823 43.7469C50.1004 42.344 51.4131 41.2635 52.9443 40.6505C55.1949 39.7832 57.6741 39.7832 59.9247 40.6505C60.9474 41.0588 61.8805 41.6734 62.6692 42.4582C63.436 43.2261 64.0468 44.1433 64.4661 45.1564C64.8972 46.2149 65.1156 47.3522 65.1082 48.4999C65.1161 49.6459 64.8976 50.7816 64.4661 51.8381C64.0481 52.8536 63.4372 53.7728 62.6692 54.5416C61.8802 55.3248 60.9471 55.9376 59.9247 56.344C57.6754 57.2186 55.1936 57.2186 52.9443 56.344C51.4083 55.735 50.0894 54.6575 49.1641 53.2558C48.2387 51.8541 47.7509 50.1948 47.766 48.4999H47.8074ZM52.0588 48.4999C52.0557 49.1105 52.1811 49.7145 52.4265 50.2703C52.6513 50.7994 52.975 51.2778 53.3793 51.6781C53.7838 52.0775 54.2582 52.3941 54.7774 52.6113C55.5797 52.9444 56.4578 53.0336 57.3078 52.8682C58.1578 52.7028 58.9438 52.2898 59.5726 51.6781C59.9801 51.2783 60.3073 50.8 60.5358 50.2703C60.7734 49.7125 60.8934 49.1091 60.8879 48.4999C60.8928 47.8891 60.7729 47.2841 60.5358 46.7242C60.3023 46.1907 59.969 45.7098 59.555 45.3091C59.1409 44.9083 58.6542 44.5955 58.1227 44.3886C57.0361 43.9479 55.8277 43.9479 54.7412 44.3886C54.2273 44.6089 53.7596 44.9294 53.3638 45.3324C52.9689 45.7313 52.6509 46.2036 52.4265 46.7242C52.1816 47.2821 52.0562 47.8877 52.0588 48.4999Z" fill="#4489FF"/>
<path d="M85.1745 45.8284C84.7667 45.2753 84.2395 44.8274 83.6347 44.5202C83.0299 44.2129 82.3639 44.0547 81.6895 44.058C81.11 44.0515 80.5354 44.1677 80.0014 44.3993C79.5009 44.6171 79.047 44.9342 78.6654 45.3325C78.2943 45.736 78.0009 46.2083 77.8006 46.7243C77.3725 47.8579 77.3725 49.1155 77.8006 50.2491C78.2153 51.3046 79.0171 52.1495 80.0324 52.6007C80.5565 52.8292 81.1204 52.9453 81.6895 52.942C82.3585 52.9299 83.0173 52.771 83.6218 52.4758C84.2264 52.1806 84.7628 51.756 85.1953 51.2302V56.1841L84.781 56.3334C84.2144 56.5478 83.6327 56.7171 83.0411 56.84C82.5138 56.9453 81.978 56.9989 81.4409 57C79.3112 56.9892 77.2689 56.1269 75.7448 54.595C74.98 53.8179 74.3651 52.8988 73.9323 51.8861C73.4664 50.8074 73.2315 49.6379 73.2436 48.4573C73.2315 47.2847 73.4628 46.123 73.922 45.0499C74.5674 43.5533 75.6189 42.2806 76.95 41.3847C78.2812 40.4888 79.8352 40.008 81.4254 40C82.0434 40.0006 82.6596 40.0685 83.2637 40.2026C83.9125 40.3536 84.5468 40.5642 85.159 40.8319L85.1745 45.8284Z" fill="#4489FF"/>
<path d="M98.6959 47.0872L103.652 40.4482H108.669L102.455 48.0737L109.249 56.5311H103.983L98.6959 49.5668V56.5311H94.6309V40.4482H98.6959V47.0872Z" fill="#4489FF"/>
<path d="M121.34 56.5311H117.275V40.4482H123.743C125.5 40.4482 126.845 40.9175 127.777 41.856C128.709 42.7945 129.175 44.1188 129.175 45.8287C129.175 47.5422 128.709 48.8665 127.777 49.8014C126.845 50.7364 125.5 51.2021 123.743 51.1986H121.34V56.5311ZM121.34 47.8231H122.687C124.178 47.8231 124.929 47.1512 124.929 45.8127C124.929 44.4743 124.178 43.8077 122.687 43.8077H121.34V47.8231Z" fill="#4489FF"/>
<path d="M146.264 53.7528H140.459L139.527 56.5311H135.192L141.142 40.4482H145.58L151.53 56.5311H147.191L146.264 53.7528ZM145.187 50.5533L143.364 45.2208L141.536 50.58L145.187 50.5533Z" fill="#4489FF"/>
<path d="M168.122 44.5698C167.724 44.2226 167.277 43.9402 166.796 43.7326C166.387 43.5604 165.949 43.4699 165.507 43.466C165.049 43.4443 164.597 43.5793 164.222 43.8499C164.062 43.96 163.931 44.1092 163.841 44.2841C163.751 44.4591 163.704 44.6543 163.705 44.8525C163.695 45.1115 163.784 45.3642 163.953 45.5563C164.139 45.7578 164.36 45.9208 164.606 46.0363C164.898 46.1834 165.203 46.3013 165.517 46.3882C165.862 46.4878 166.199 46.5944 166.527 46.7082C167.649 47.0253 168.663 47.6566 169.458 48.5319C170.1 49.3784 170.427 50.434 170.379 51.5074C170.39 52.2758 170.253 53.0388 169.976 53.7524C169.714 54.4098 169.31 54.997 168.795 55.4695C168.236 55.9798 167.58 56.3648 166.869 56.5999C166.033 56.8809 165.158 57.0161 164.279 56.9999C162.308 57.001 160.387 56.365 158.785 55.1815L160.525 51.806C161.061 52.3139 161.671 52.733 162.332 53.0485C162.885 53.3105 163.485 53.4486 164.093 53.4538C164.627 53.4961 165.156 53.3284 165.574 52.9845C165.724 52.8524 165.845 52.689 165.929 52.5051C166.013 52.3213 166.058 52.1211 166.061 51.918C166.065 51.7014 166.023 51.4864 165.936 51.2888C165.839 51.0928 165.697 50.9243 165.522 50.7982C165.289 50.6261 165.035 50.4863 164.766 50.3823C164.455 50.2543 164.077 50.1103 163.637 49.9557C163.119 49.785 162.602 49.5984 162.084 49.3904C161.593 49.1936 161.137 48.9163 160.732 48.5692C160.329 48.2135 160.005 47.7736 159.779 47.2787C159.517 46.6553 159.393 45.9794 159.417 45.3004C159.408 44.56 159.538 43.8248 159.8 43.1354C160.043 42.5084 160.41 41.9401 160.877 41.4663C161.368 40.9937 161.948 40.6306 162.581 40.3998C163.319 40.1224 164.1 39.9868 164.885 39.9999C165.705 40.0066 166.521 40.1177 167.314 40.3305C168.157 40.5498 168.971 40.8758 169.737 41.301L168.122 44.5698Z" fill="#4489FF"/>
<path d="M187.737 44.5703C187.34 44.2219 186.893 43.9394 186.412 43.7331C186.004 43.5609 185.568 43.4704 185.127 43.4665C184.668 43.4435 184.214 43.5786 183.838 43.8504C183.678 43.9605 183.547 44.1096 183.457 44.2846C183.366 44.4595 183.319 44.6548 183.32 44.8529C183.31 45.112 183.4 45.3646 183.569 45.5568C183.754 45.7583 183.976 45.9212 184.221 46.0367C184.515 46.1839 184.822 46.3017 185.138 46.3887C185.474 46.49 185.811 46.5966 186.142 46.7086C187.265 47.0245 188.28 47.656 189.073 48.5323C189.717 49.3783 190.046 50.4339 190 51.5079C190.011 52.2763 189.873 53.0393 189.596 53.7529C189.333 54.4105 188.927 54.9977 188.41 55.4699C187.856 55.9701 187.207 56.3476 186.505 56.5791C185.678 56.8575 184.812 56.9926 183.941 56.979C181.971 56.9791 180.049 56.3431 178.447 55.1606L180.192 51.7852C180.726 52.294 181.334 52.7133 181.994 53.0276C182.547 53.2892 183.147 53.4273 183.755 53.4329C184.29 53.4745 184.821 53.307 185.241 52.9636C185.471 52.7577 185.63 52.4811 185.696 52.1748C185.761 51.8685 185.729 51.5486 185.604 51.2626C185.505 51.0678 185.363 50.8997 185.189 50.772C184.954 50.6 184.698 50.4602 184.428 50.3561C184.118 50.2281 183.745 50.0841 183.299 49.9295C182.782 49.7588 182.264 49.5722 181.746 49.3642C181.257 49.1674 180.802 48.89 180.4 48.543C179.995 48.1874 179.669 47.7476 179.442 47.2525C179.182 46.6283 179.058 45.953 179.079 45.2742C179.07 44.5338 179.2 43.7986 179.462 43.1092C179.706 42.4809 180.074 41.9123 180.545 41.4401C181.032 40.9665 181.611 40.6032 182.243 40.3736C182.968 40.111 183.733 39.9845 184.501 40.0003C185.32 40.0071 186.136 40.1181 186.929 40.331C187.774 40.5512 188.59 40.8771 189.358 41.3015L187.737 44.5703Z" fill="#4489FF"/>
</g>
<defs>
<clipPath id="clip0">
<rect x="11" y="40" width="179" height="17" fill="white"/>
</clipPath>
</defs>
</svg>
