<svg width="200" height="95" viewBox="0 0 200 95" fill="none" xmlns="http://www.w3.org/2000/svg">
<mask id="mask0" mask-type="alpha" maskUnits="userSpaceOnUse" x="0" y="0" width="200" height="95">
<rect width="200" height="95" fill="#482E2E"/>
</mask>
<g mask="url(#mask0)">
</g>
<g clip-path="url(#clip0)">
<path d="M30.9369 34.0283C33.8844 33.8365 36.882 34.4322 39.5298 35.765C43.4366 37.7037 46.544 41.2074 48.0128 45.3372C48.6623 47.1648 49.012 49.0934 49.012 51.032V58.2314C49.012 58.5242 49.022 58.8271 48.952 59.1098C48.7922 59.8368 48.2826 60.473 47.6031 60.786C47.1335 61.0081 46.594 61.0384 46.0944 60.9576C45.0053 60.7557 44.166 59.7258 44.156 58.6151C44.146 56.3836 44.156 54.1521 44.156 51.9105C44.176 51.2744 44.176 50.5979 43.8363 50.0425C43.2867 49.0126 41.9478 48.5178 40.8787 48.9621C39.9694 49.2852 39.31 50.2142 39.3 51.1936C39.29 53.4655 39.3 55.7273 39.3 57.989C39.3 58.4131 39.32 58.8473 39.2001 59.2512C38.9703 60.0489 38.3108 60.6951 37.5215 60.9172C36.4823 61.2101 35.2933 60.7456 34.7637 59.7763C34.404 59.1906 34.434 58.4838 34.444 57.8376C34.434 55.5859 34.454 53.3342 34.434 51.0825C34.414 49.9415 33.4848 48.9116 32.3557 48.7602C31.6263 48.6491 30.8569 48.8914 30.3274 49.4165C29.8478 49.8709 29.578 50.5272 29.578 51.1936V57.7568C29.568 58.3122 29.6379 58.8776 29.4281 59.3926C29.1084 60.3316 28.1692 61.0182 27.18 60.9879C26.1708 61.0485 25.1816 60.3417 24.8619 59.3825C24.682 58.9079 24.722 58.403 24.722 57.8982C24.722 55.6364 24.732 53.3746 24.722 51.1027C24.712 49.9819 23.8527 48.9621 22.7636 48.7602C21.7844 48.5481 20.6953 49.053 20.1957 49.9516C19.9859 50.3252 19.876 50.7594 19.876 51.1835V58.5343C19.886 59.2512 19.5562 59.958 19.0167 60.4124C18.1974 61.1394 16.8685 61.1798 15.9992 60.5134C15.3697 60.0792 15 59.3421 15 58.5747V51.133C15.01 48.3159 15.7094 45.5089 17.0383 43.035C18.1274 41.0156 19.6162 39.2082 21.4047 37.7744C24.1025 35.5631 27.4797 34.2403 30.9369 34.0283Z" fill="black"/>
<path d="M97.1628 42.6634C95.9238 42.6634 94.7348 42.6634 93.4759 42.6634C93.6057 40.0483 94.1453 37.6956 96.5133 36.2113C98.8614 34.7371 101.449 34.4039 104.137 34.626C105.596 34.7472 107.015 35.0602 108.354 35.6863C110.702 36.7768 111.861 38.6447 111.861 41.2397C111.871 45.8441 111.861 50.4585 111.861 55.0628C111.861 56.7592 112.2 57.0722 113.879 56.9005C114.059 56.8804 114.239 56.8501 114.429 56.8198C114.449 56.9106 114.469 56.9813 114.469 57.052C114.469 57.9709 114.469 58.8897 114.469 59.8489C113.13 60.3033 111.791 60.4447 110.442 60.0812C109.463 59.8085 108.833 59.0916 108.493 58.1425C108.324 57.6578 108.224 57.153 108.064 56.5875C107.924 56.7491 107.804 56.9005 107.664 57.0318C104.757 60.0105 101.289 61.2626 97.2128 60.2225C94.3252 59.4854 92.3268 56.8097 92.2569 53.7906C92.2369 52.8213 92.3168 51.8317 92.5466 50.8927C93.0762 48.7117 94.6049 47.399 96.5533 46.5206C97.9222 45.8946 99.381 45.7128 100.85 45.5311C102.568 45.3089 104.287 45.0969 106.006 44.8545C107.175 44.693 107.764 44.067 107.944 42.8755C108.314 40.5127 107.274 38.9174 104.986 38.3519C103.627 38.0187 102.239 37.9581 100.86 38.2207C98.8214 38.5943 97.6824 39.7554 97.2827 41.8052C97.2627 42.0677 97.2228 42.3403 97.1628 42.6634ZM108.024 47.2375C106.325 48.1664 104.677 48.3886 103.018 48.641C101.619 48.8631 100.2 49.0651 98.8614 49.5094C97.0629 50.1051 96.2636 51.5995 96.4134 53.5988C96.5433 55.2648 97.6724 56.6077 99.4409 56.9005C102.189 57.365 104.627 56.5976 106.545 54.5378C107.105 53.9421 107.554 53.0737 107.674 52.2659C107.924 50.6605 107.914 49.0146 108.024 47.2375Z" fill="black"/>
<path d="M160.51 52.0442C160.42 52.448 160.37 52.7913 160.271 53.1145C158.672 58.0015 155.465 60.1118 151.558 60.546C144.783 61.3033 140.916 56.8201 139.917 52.0643C139.128 48.288 139.238 44.5318 140.877 40.9776C142.425 37.6253 144.923 35.414 148.64 34.7577C153.076 33.9701 159.381 36.1814 160.44 43.2091C160.71 45.0165 160.77 46.8643 160.94 48.7726C155.115 48.7726 149.449 48.7726 143.724 48.7726C143.874 51.3474 144.274 53.7506 146.132 55.6287C146.902 56.4062 147.891 56.7798 148.96 56.9615C152.457 57.5774 155.325 55.8912 156.464 52.5086C156.584 52.1451 156.743 52.0341 157.113 52.0442C158.222 52.0643 159.331 52.0442 160.51 52.0442ZM143.864 45.4608C148.171 45.4608 152.447 45.4608 156.753 45.4608C156.614 43.9563 156.344 42.5427 155.654 41.23C154.985 39.9578 153.986 39.049 152.627 38.5845C148.171 37.0397 143.564 40.6343 143.864 45.4608Z" fill="black"/>
<path d="M169.783 59.7283C168.444 59.7283 167.175 59.7283 165.866 59.7283C165.866 51.5394 165.866 43.3708 165.866 35.1718C167.095 35.1718 168.314 35.1718 169.583 35.1718C169.583 36.2825 169.583 37.3528 169.583 38.615C169.863 38.2919 170.043 38.0899 170.213 37.8981C172.87 34.8285 176.228 34.0207 180.025 34.9699C182.672 35.6262 184.141 37.5144 184.641 40.1599C184.851 41.2403 184.97 42.351 184.98 43.4516C185.02 48.7223 185 53.9931 185 59.2638C185 59.4052 184.98 59.5566 184.97 59.7283C183.652 59.7283 182.343 59.7283 180.964 59.7283C180.964 59.486 180.964 59.2739 180.964 59.0619C180.964 54.1445 180.994 49.2171 180.944 44.2997C180.934 43.2092 180.784 42.0884 180.474 41.0484C179.965 39.3218 178.606 38.4029 176.817 38.3424C173.57 38.2313 170.982 39.968 170.193 42.9063C169.913 43.9564 169.823 45.0873 169.813 46.1879C169.773 50.459 169.793 54.7403 169.783 59.0114C169.783 59.2234 169.783 59.4456 169.783 59.7283Z" fill="black"/>
<path d="M118.255 35.1712C119.544 35.1712 120.763 35.1712 122.032 35.1712C122.032 38.5942 122.032 42.0071 122.032 45.5714C122.272 45.3392 122.412 45.218 122.551 45.0867C125.639 41.9061 128.736 38.7154 131.814 35.5247C132.074 35.252 132.333 35.1309 132.713 35.1309C134.162 35.1511 135.621 35.141 137.219 35.141C137 35.3732 136.88 35.5146 136.75 35.6559C134.032 38.4125 131.324 41.169 128.586 43.9155C128.277 44.2184 128.267 44.4203 128.487 44.7838C131.454 49.5598 134.402 54.3358 137.359 59.1219C137.469 59.2935 137.569 59.4652 137.709 59.7176C137.509 59.7378 137.359 59.758 137.209 59.758C135.86 59.758 134.512 59.7479 133.163 59.7681C132.793 59.7782 132.613 59.6368 132.433 59.3339C130.175 55.4869 127.897 51.6499 125.629 47.8029C125.529 47.6312 125.419 47.4697 125.289 47.2677C124.24 48.3178 123.221 49.3377 122.212 50.3878C122.082 50.519 122.052 50.7816 122.052 50.9936C122.042 53.6896 122.042 56.3754 122.042 59.0714C122.042 59.2733 122.042 59.4753 122.042 59.7681C121.292 59.7681 120.573 59.7782 119.854 59.7681C119.334 59.758 118.645 59.8994 118.345 59.6267C118.085 59.3844 118.245 58.6574 118.245 58.1425C118.245 50.7311 118.245 43.3197 118.245 35.9083C118.255 35.666 118.255 35.4338 118.255 35.1712Z" fill="black"/>
<path d="M74.7409 35.1408C71.6734 38.2104 68.6959 41.2093 65.6983 44.2081C68.9157 49.4183 72.0631 54.5174 75.2805 59.7276C75.0207 59.7377 74.8608 59.7579 74.6909 59.7579C73.382 59.7579 72.0631 59.7478 70.7542 59.768C70.3745 59.7781 70.1647 59.6367 69.9748 59.3136C67.7167 55.4665 65.4386 51.6296 63.1704 47.7825C63.0805 47.621 62.9806 47.4695 62.8307 47.2272C62.2512 47.833 61.7516 48.4793 61.1221 48.9538C59.8532 49.9232 59.4735 51.1348 59.5734 52.7201C59.7033 54.8102 59.6034 56.9205 59.6034 59.0208C59.6034 59.2429 59.6034 59.4549 59.6034 59.7074C58.3344 59.7074 57.1154 59.7074 55.8564 59.7074C55.8564 51.5387 55.8564 43.3701 55.8564 35.161C57.0854 35.161 58.2944 35.161 59.5834 35.161C59.5834 38.584 59.5834 41.9968 59.5834 45.4097C59.6633 45.4602 59.7432 45.5208 59.8232 45.5713C59.9231 45.3996 59.983 45.1876 60.1129 45.0563C63.1804 41.8757 66.2679 38.7152 69.3353 35.5346C69.6051 35.2519 69.8749 35.1105 70.2846 35.1206C71.5635 35.1509 72.8425 35.1307 74.1114 35.1307C74.2913 35.1408 74.4711 35.1408 74.7409 35.1408Z" fill="black"/>
<path d="M82.225 39.2098C84.1235 36.4028 86.1418 34.0602 89.8887 34.7367C89.8887 36.1705 89.8887 37.5942 89.8887 38.9372C88.8896 39.0078 87.9104 38.9775 86.9811 39.1694C84.673 39.6541 82.8945 41.7846 82.5448 44.3493C82.4748 44.8541 82.4449 45.3792 82.4449 45.8942C82.4349 50.2764 82.4449 54.6686 82.4449 59.0508C82.4449 59.2629 82.4449 59.485 82.4449 59.7274C81.116 59.7274 79.857 59.7274 78.5381 59.7274C78.5381 51.5486 78.5381 43.39 78.5381 35.181C79.7471 35.181 80.9561 35.181 82.235 35.181C82.2251 36.4936 82.225 37.7861 82.225 39.2098Z" fill="black"/>
</g>
<defs>
<clipPath id="clip0">
<rect x="15" y="34" width="170" height="27" fill="white"/>
</clipPath>
</defs>
</svg>
