<svg width="200" height="95" viewBox="0 0 200 95" fill="none" xmlns="http://www.w3.org/2000/svg">
<mask id="mask0" mask-type="alpha" maskUnits="userSpaceOnUse" x="0" y="0" width="200" height="95">
<rect width="200" height="95" fill="#482E2E"/>
</mask>
<g mask="url(#mask0)">
</g>
<g clip-path="url(#clip0)">
<path d="M28.6538 68.4741C47.1888 46.3214 50.7665 30.0257 50.7665 30.0257C50.7665 30.0257 46.6364 27.5547 28.6538 27.5547C10.6711 27.5547 6.54102 30.0257 6.54102 30.0257C6.54102 30.0257 10.1188 46.307 28.6538 68.4741Z" stroke="black" stroke-width="2" stroke-linecap="round" stroke-linejoin="round"/>
<path d="M15.0762 31.3724C15.0762 31.3724 15.8993 28.9014 28.6543 28.9014C41.4093 28.9014 42.5104 31.3724 42.5104 31.3724C42.5104 31.3724 39.3876 47.0269 28.7915 57.4621C28.7915 57.4729 15.8993 42.8269 15.0762 31.3724Z" stroke="black" stroke-width="2" stroke-linecap="round" stroke-linejoin="round"/>
<path d="M37.4917 45.2222L50.7665 30.0107L28.791 33.4003L6.54102 30.0107L20.0072 45.0746" stroke="black" stroke-width="2" stroke-linecap="round" stroke-linejoin="round"/>
<path d="M28.6543 68.4591L35.3802 49.0332" stroke="black" stroke-width="2" stroke-linecap="round" stroke-linejoin="round"/>
<path d="M28.792 57.4736L34.5864 60.9064" stroke="black" stroke-width="2" stroke-linecap="round" stroke-linejoin="round"/>
<path d="M31.6904 59.1914L41.7666 50.1106L45.5466 35.9941L47.9438 38.0617" stroke="black" stroke-width="2" stroke-linecap="round" stroke-linejoin="round"/>
<path d="M45.5471 35.9948L41.6914 34.5648L28.792 33.4014" stroke="black" stroke-width="2" stroke-linecap="round" stroke-linejoin="round"/>
<path d="M28.6544 68.4595L21.5205 47.5928" stroke="black" stroke-width="2" stroke-linecap="round" stroke-linejoin="round"/>
<path d="M28.5168 57.4736L22.7188 60.9064" stroke="black" stroke-width="2" stroke-linecap="round" stroke-linejoin="round"/>
<path d="M25.6186 59.1914L15.5424 50.1106L11.7624 35.9941L9.36523 38.0617" stroke="black" stroke-width="2" stroke-linecap="round" stroke-linejoin="round"/>
<path d="M11.7617 35.9948L15.6175 34.5648L28.5169 33.4014" stroke="black" stroke-width="2" stroke-linecap="round" stroke-linejoin="round"/>
<path d="M60.4607 39.9814H73.7067L73.8005 40.0751V41.1953L62.2478 52.6355H73.7139L73.8078 52.7291V53.8097L73.7139 53.9034H60.4679L60.374 53.8097V52.6823L71.981 41.2422H60.4679L60.374 41.1485V40.0679L60.4607 39.9814Z" fill="black"/>
<path d="M92.9423 39.9814H95.5164C97.5815 39.9814 99.4058 41.0092 100.99 43.0648C101.674 44.1265 102.062 45.3515 102.112 46.6128V47.2648C102.112 49.049 101.317 50.6988 99.7259 52.214C98.3613 53.3379 96.9581 53.8986 95.5164 53.8962H92.9423C90.8724 53.8962 89.0468 52.8696 87.4656 50.8164C86.7814 49.7533 86.3938 48.5272 86.3428 47.2648V46.6128C86.3428 44.6917 87.2321 42.964 89.0107 41.4295C90.1269 40.5302 91.5082 40.0214 92.9423 39.9814ZM87.7002 46.7065V46.9838C87.7002 49.3852 88.9169 51.1286 91.3502 52.214C91.9307 52.418 92.54 52.5287 93.1553 52.5418H95.2637C97.4298 52.5418 99.099 51.4372 100.271 49.2279C100.585 48.5216 100.745 47.7566 100.74 46.9838V46.7065C100.74 44.8622 99.8042 43.3013 97.9317 42.0238C97.1085 41.5879 96.1952 41.3487 95.2637 41.325H93.1553C91.018 41.325 89.3489 42.414 88.1479 44.5921C87.8742 45.2648 87.7226 45.9808 87.7002 46.7065Z" fill="black"/>
<path d="M105.99 39.9814H107.159L118.066 52.4013V40.0751L118.16 39.9814H119.243L119.337 40.0751V53.8025L119.243 53.8962H117.651L107.181 41.941V53.8025L107.087 53.8962H106.004L105.91 53.8025V40.0751L105.99 39.9814Z" fill="black"/>
<path d="M129.713 39.9814H132.287C134.357 39.9814 136.182 41.0092 137.764 43.0648C138.447 44.1272 138.834 45.3518 138.886 46.6128V47.2648C138.886 49.049 138.091 50.6988 136.5 52.214C135.135 53.3379 133.731 53.8986 132.287 53.8962H129.713C127.648 53.8962 125.822 52.8696 124.236 50.8164C123.553 49.7525 123.166 48.5269 123.113 47.2648V46.6128C123.113 44.6917 124.003 42.964 125.781 41.4295C126.898 40.5313 128.279 40.0228 129.713 39.9814ZM124.471 46.7065V46.9838C124.471 49.3852 125.687 51.1286 128.121 52.214C128.708 52.4196 129.325 52.5303 129.947 52.5418H132.052C134.218 52.5418 135.889 51.4372 137.063 49.2279C137.376 48.5214 137.535 47.7564 137.529 46.9838V46.7065C137.529 44.8622 136.593 43.3013 134.72 42.0238C133.897 41.5871 132.984 41.3478 132.052 41.325H129.947C127.81 41.325 126.141 42.414 124.94 44.5921C124.656 45.2628 124.496 45.9791 124.467 46.7065H124.471Z" fill="black"/>
<path d="M142.759 39.9814H151.785C154.163 39.9814 156.112 41.1641 157.634 43.5295C158.151 44.4778 158.441 45.5335 158.478 46.6128V47.2648C158.478 49.3756 157.433 51.2283 155.341 52.8228C154.317 53.4757 153.139 53.8484 151.926 53.9034H142.752L142.658 53.8097V40.0751L142.759 39.9814ZM143.929 41.3358V52.5418H151.698C153.836 52.5418 155.489 51.4528 156.659 49.2748C156.952 48.6111 157.112 47.8963 157.128 47.1712V46.6597C157.128 44.8778 156.239 43.3674 154.46 42.1283C153.63 41.6168 152.674 41.3426 151.698 41.3358H143.929Z" fill="black"/>
<path d="M162.359 39.9814H176.118L176.212 40.0751V41.1557L176.118 41.2494H163.529V46.4724H172.194L172.288 46.566V47.6862L172.194 47.7799H163.529V52.6247H176.118L176.212 52.7183V53.7989L176.118 53.8926H162.359L162.266 53.7989V40.0751L162.359 39.9814Z" fill="black"/>
<path d="M183.505 39.9814H193.896L193.989 40.0751V41.1557L193.896 41.2494H184.397C183.114 41.2494 182.287 41.5291 181.917 42.0886C181.51 42.5202 181.277 43.0853 181.26 43.6772C181.26 44.8622 181.884 45.6691 183.133 46.1049L183.599 46.1518H190.668C192.127 46.1518 193.265 46.883 194.083 48.3454C194.328 48.8223 194.452 49.3515 194.444 49.8871V50.3554C194.444 51.484 193.79 52.5118 192.48 53.4387C191.987 53.6996 191.445 53.8577 190.888 53.9034H180.057L179.964 53.8097V52.6823L180.057 52.5886H190.072C191.603 52.5886 192.566 52.0123 192.96 50.8597L193.101 50.0672C193.101 48.7921 192.431 47.9516 191.09 47.5458L190.762 47.4989L183.321 47.4521C182.429 47.4521 181.516 46.9406 180.606 45.9104C180.199 45.3009 179.971 44.5895 179.949 43.8573V43.4971C179.949 42.2555 180.651 41.1977 182.054 40.3236C182.515 40.1285 183.006 40.0128 183.505 39.9814Z" fill="black"/>
<path d="M80.9923 39.9814H79.7432V53.8962H80.9923V39.9814Z" fill="black"/>
</g>
<defs>
<clipPath id="clip0">
<rect x="6" y="27" width="189" height="42" fill="white"/>
</clipPath>
</defs>
</svg>
