<?xml version="1.0" encoding="UTF-8" standalone="no"?><svg xmlns="http://www.w3.org/2000/svg" xmlns:xlink="http://www.w3.org/1999/xlink" clip-rule="evenodd" stroke-miterlimit="4.00" viewBox="0 0 1960 1080"><desc>SVG generated by Keynote</desc><defs></defs><g transform="matrix(1.00, 0.00, -0.00, -1.00, 0.0, 1080.0)"><path d="M 0.0 1080.0 L 1960.0 1080.0 L 1960.0 0.0 L 0.0 0.0 Z M 0.0 1080.0 " fill="#FFFFFF"></path><text xml:space="preserve" font-family="Helvetica-Light" font-size="88.0" fill="#000000" transform="matrix(1.00, 0.00, -0.00, -1.00, 162.0, 920.0)">A</text><text xml:space="preserve" font-family="Helvetica-Light" font-size="88.0" fill="#000000" transform="matrix(1.00, 0.00, -0.00, -1.00, 220.7, 920.0)"> </text><text xml:space="preserve" font-family="Helvetica-Light" font-size="88.0" fill="#000000" transform="matrix(1.00, 0.00, -0.00, -1.00, 245.2, 920.0)">c</text><text xml:space="preserve" font-family="Helvetica-Light" font-size="88.0" fill="#000000" transform="matrix(1.00, 0.00, -0.00, -1.00, 294.1, 920.0)">h</text><text xml:space="preserve" font-family="Helvetica-Light" font-size="88.0" fill="#000000" transform="matrix(1.00, 0.00, -0.00, -1.00, 343.0, 920.0)">a</text><text xml:space="preserve" font-family="Helvetica-Light" font-size="88.0" fill="#000000" transform="matrix(1.00, 0.00, -0.00, -1.00, 391.9, 920.0)">i</text><text xml:space="preserve" font-family="Helvetica-Light" font-size="88.0" fill="#000000" transform="matrix(1.00, 0.00, -0.00, -1.00, 411.5, 920.0)">n</text><text xml:space="preserve" font-family="Helvetica-Light" font-size="88.0" fill="#000000" transform="matrix(1.00, 0.00, -0.00, -1.00, 460.4, 920.0)"> </text><text xml:space="preserve" font-family="Helvetica-Light" font-size="88.0" fill="#000000" transform="matrix(1.00, 0.00, -0.00, -1.00, 484.9, 920.0)">o</text><text xml:space="preserve" font-family="Helvetica-Light" font-size="88.0" fill="#000000" transform="matrix(1.00, 0.00, -0.00, -1.00, 533.8, 920.0)">f</text><text xml:space="preserve" font-family="Helvetica-Light" font-size="88.0" fill="#000000" transform="matrix(1.00, 0.00, -0.00, -1.00, 558.3, 920.0)"> </text><text xml:space="preserve" font-family="Helvetica-Light" font-size="88.0" fill="#000000" transform="matrix(1.00, 0.00, -0.00, -1.00, 582.7, 920.0)">t</text><text xml:space="preserve" font-family="Helvetica-Light" font-size="88.0" fill="#000000" transform="matrix(1.00, 0.00, -0.00, -1.00, 607.2, 920.0)">r</text><text xml:space="preserve" font-family="Helvetica-Light" font-size="88.0" fill="#000000" transform="matrix(1.00, 0.00, -0.00, -1.00, 636.5, 920.0)">a</text><text xml:space="preserve" font-family="Helvetica-Light" font-size="88.0" fill="#000000" transform="matrix(1.00, 0.00, -0.00, -1.00, 685.4, 920.0)">n</text><text xml:space="preserve" font-family="Helvetica-Light" font-size="88.0" fill="#000000" transform="matrix(1.00, 0.00, -0.00, -1.00, 734.4, 920.0)">s</text><text xml:space="preserve" font-family="Helvetica-Light" font-size="88.0" fill="#000000" transform="matrix(1.00, 0.00, -0.00, -1.00, 778.4, 920.0)">a</text><text xml:space="preserve" font-family="Helvetica-Light" font-size="88.0" fill="#000000" transform="matrix(1.00, 0.00, -0.00, -1.00, 827.3, 920.0)">c</text><text xml:space="preserve" font-family="Helvetica-Light" font-size="88.0" fill="#000000" transform="matrix(1.00, 0.00, -0.00, -1.00, 876.2, 920.0)">t</text><text xml:space="preserve" font-family="Helvetica-Light" font-size="88.0" fill="#000000" transform="matrix(1.00, 0.00, -0.00, -1.00, 900.7, 920.0)">i</text><text xml:space="preserve" font-family="Helvetica-Light" font-size="88.0" fill="#000000" transform="matrix(1.00, 0.00, -0.00, -1.00, 920.2, 920.0)">o</text><text xml:space="preserve" font-family="Helvetica-Light" font-size="88.0" fill="#000000" transform="matrix(1.00, 0.00, -0.00, -1.00, 969.1, 920.0)">n</text><text xml:space="preserve" font-family="Helvetica-Light" font-size="88.0" fill="#000000" transform="matrix(1.00, 0.00, -0.00, -1.00, 1018.1, 920.0)">s</text><image xlink:href="B01E19E660208FA7AA95034CEFC78722.png" width="647.00" height="241.00" transform="matrix(1.00, 0.00, -0.00, -1.00, 184.0, 902.0)"></image><image xlink:href="D1FD28564D96C216BB5F294B65EEC63D.png" width="647.00" height="256.00" transform="matrix(1.00, 0.00, -0.00, -1.00, 427.0, 693.0)"></image><image xlink:href="D1ADC9407D18921E7A7AA982BDFB4561.png" width="647.00" height="258.00" transform="matrix(1.00, 0.00, -0.00, -1.00, 680.0, 486.0)"></image><image xlink:href="E3C29414BF769378D76820B20204A7FF.png" width="648.00" height="259.00" transform="matrix(1.00, 0.00, -0.00, -1.00, 1002.0, 281.0)"></image><text xml:space="preserve" font-family="TrebuchetMS" font-size="40.0" fill="#000000" transform="matrix(1.00, 0.00, -0.00, -1.00, 1099.0, 792.0)">A</text><text xml:space="preserve" font-family="TrebuchetMS" font-size="40.0" fill="#000000" transform="matrix(1.00, 0.00, -0.00, -1.00, 1120.4, 792.0)"> </text><text xml:space="preserve" font-family="TrebuchetMS" font-size="40.0" fill="#000000" transform="matrix(1.00, 0.00, -0.00, -1.00, 1132.5, 792.0)">l</text><text xml:space="preserve" font-family="TrebuchetMS" font-size="40.0" fill="#000000" transform="matrix(1.00, 0.00, -0.00, -1.00, 1144.2, 792.0)">a</text><text xml:space="preserve" font-family="TrebuchetMS" font-size="40.0" fill="#000000" transform="matrix(1.00, 0.00, -0.00, -1.00, 1165.3, 792.0)">t</text><text xml:space="preserve" font-family="TrebuchetMS" font-size="40.0" fill="#000000" transform="matrix(1.00, 0.00, -0.00, -1.00, 1181.2, 792.0)">e</text><text xml:space="preserve" font-family="TrebuchetMS" font-size="40.0" fill="#000000" transform="matrix(1.00, 0.00, -0.00, -1.00, 1203.0, 792.0)">r</text><text xml:space="preserve" font-family="TrebuchetMS" font-size="40.0" fill="#000000" transform="matrix(1.00, 0.00, -0.00, -1.00, 1218.6, 792.0)"> </text><text xml:space="preserve" font-family="TrebuchetMS" font-size="40.0" fill="#000000" transform="matrix(1.00, 0.00, -0.00, -1.00, 1230.6, 792.0)">t</text><text xml:space="preserve" font-family="TrebuchetMS" font-size="40.0" fill="#000000" transform="matrix(1.00, 0.00, -0.00, -1.00, 1246.5, 792.0)">r</text><text xml:space="preserve" font-family="TrebuchetMS" font-size="40.0" fill="#000000" transform="matrix(1.00, 0.00, -0.00, -1.00, 1262.1, 792.0)">a</text><text xml:space="preserve" font-family="TrebuchetMS" font-size="40.0" fill="#000000" transform="matrix(1.00, 0.00, -0.00, -1.00, 1283.1, 792.0)">n</text><text xml:space="preserve" font-family="TrebuchetMS" font-size="40.0" fill="#000000" transform="matrix(1.00, 0.00, -0.00, -1.00, 1305.0, 792.0)">s</text><text xml:space="preserve" font-family="TrebuchetMS" font-size="40.0" fill="#000000" transform="matrix(1.00, 0.00, -0.00, -1.00, 1321.2, 792.0)">a</text><text xml:space="preserve" font-family="TrebuchetMS" font-size="40.0" fill="#000000" transform="matrix(1.00, 0.00, -0.00, -1.00, 1342.2, 792.0)">c</text><text xml:space="preserve" font-family="TrebuchetMS" font-size="40.0" fill="#000000" transform="matrix(1.00, 0.00, -0.00, -1.00, 1362.0, 792.0)">t</text><text xml:space="preserve" font-family="TrebuchetMS" font-size="40.0" fill="#000000" transform="matrix(1.00, 0.00, -0.00, -1.00, 1377.9, 792.0)">i</text><text xml:space="preserve" font-family="TrebuchetMS" font-size="40.0" fill="#000000" transform="matrix(1.00, 0.00, -0.00, -1.00, 1389.3, 792.0)">o</text><text xml:space="preserve" font-family="TrebuchetMS" font-size="40.0" fill="#000000" transform="matrix(1.00, 0.00, -0.00, -1.00, 1410.8, 792.0)">n</text><text xml:space="preserve" font-family="TrebuchetMS" font-size="40.0" fill="#000000" transform="matrix(1.00, 0.00, -0.00, -1.00, 1432.7, 792.0)"> </text><text xml:space="preserve" font-family="TrebuchetMS" font-size="40.0" fill="#000000" transform="matrix(1.00, 0.00, -0.00, -1.00, 1444.7, 792.0)">i</text><text xml:space="preserve" font-family="TrebuchetMS" font-size="40.0" fill="#000000" transform="matrix(1.00, 0.00, -0.00, -1.00, 1456.2, 792.0)">s</text><text xml:space="preserve" font-family="TrebuchetMS" font-size="40.0" fill="#000000" transform="matrix(1.00, 0.00, -0.00, -1.00, 1472.3, 792.0)"> </text><text xml:space="preserve" font-family="TrebuchetMS" font-size="40.0" fill="#000000" transform="matrix(1.00, 0.00, -0.00, -1.00, 1484.4, 792.0)">v</text><text xml:space="preserve" font-family="TrebuchetMS" font-size="40.0" fill="#000000" transform="matrix(1.00, 0.00, -0.00, -1.00, 1504.0, 792.0)">a</text><text xml:space="preserve" font-family="TrebuchetMS" font-size="40.0" fill="#000000" transform="matrix(1.00, 0.00, -0.00, -1.00, 1525.1, 792.0)">l</text><text xml:space="preserve" font-family="TrebuchetMS" font-size="40.0" fill="#000000" transform="matrix(1.00, 0.00, -0.00, -1.00, 1536.8, 792.0)">i</text><text xml:space="preserve" font-family="TrebuchetMS" font-size="40.0" fill="#000000" transform="matrix(1.00, 0.00, -0.00, -1.00, 1548.3, 792.0)">d</text><text xml:space="preserve" font-family="TrebuchetMS" font-size="40.0" fill="#000000" transform="matrix(1.00, 0.00, -0.00, -1.00, 1570.5, 792.0)"> </text><text xml:space="preserve" font-family="TrebuchetMS" font-size="40.0" fill="#000000" transform="matrix(1.00, 0.00, -0.00, -1.00, 1582.6, 792.0)">o</text><text xml:space="preserve" font-family="TrebuchetMS" font-size="40.0" fill="#000000" transform="matrix(1.00, 0.00, -0.00, -1.00, 1604.1, 792.0)">n</text><text xml:space="preserve" font-family="TrebuchetMS" font-size="40.0" fill="#000000" transform="matrix(1.00, 0.00, -0.00, -1.00, 1626.0, 792.0)">l</text><text xml:space="preserve" font-family="TrebuchetMS" font-size="40.0" fill="#000000" transform="matrix(1.00, 0.00, -0.00, -1.00, 1637.7, 792.0)">y</text><text xml:space="preserve" font-family="TrebuchetMS" font-size="40.0" fill="#000000" transform="matrix(1.00, 0.00, -0.00, -1.00, 1657.5, 792.0)"> </text><text xml:space="preserve" font-family="TrebuchetMS" font-size="40.0" fill="#000000" transform="matrix(1.00, 0.00, -0.00, -1.00, 1669.6, 792.0)">i</text><text xml:space="preserve" font-family="TrebuchetMS" font-size="40.0" fill="#000000" transform="matrix(1.00, 0.00, -0.00, -1.00, 1681.0, 792.0)">f</text><text xml:space="preserve" font-family="TrebuchetMS" font-size="40.0" fill="#000000" transform="matrix(1.00, 0.00, -0.00, -1.00, 1695.8, 792.0)"> </text><text xml:space="preserve" font-family="TrebuchetMS" font-size="40.0" fill="#000000" transform="matrix(1.00, 0.00, -0.00, -1.00, 1707.9, 792.0)">t</text><text xml:space="preserve" font-family="TrebuchetMS" font-size="40.0" fill="#000000" transform="matrix(1.00, 0.00, -0.00, -1.00, 1723.7, 792.0)">h</text><text xml:space="preserve" font-family="TrebuchetMS" font-size="40.0" fill="#000000" transform="matrix(1.00, 0.00, -0.00, -1.00, 1745.6, 792.0)">e</text><text xml:space="preserve" font-family="TrebuchetMS" font-size="40.0" fill="#000000" transform="matrix(1.00, 0.00, -0.00, -1.00, 1767.5, 792.0)"> </text><text xml:space="preserve" font-family="TrebuchetMS" font-size="40.0" fill="#000000" transform="matrix(1.00, 0.00, -0.00, -1.00, 1099.0, 745.0)">e</text><text xml:space="preserve" font-family="TrebuchetMS" font-size="40.0" fill="#000000" transform="matrix(1.00, 0.00, -0.00, -1.00, 1120.8, 745.0)">a</text><text xml:space="preserve" font-family="TrebuchetMS" font-size="40.0" fill="#000000" transform="matrix(1.00, 0.00, -0.00, -1.00, 1141.9, 745.0)">r</text><text xml:space="preserve" font-family="TrebuchetMS" font-size="40.0" fill="#000000" transform="matrix(1.00, 0.00, -0.00, -1.00, 1157.4, 745.0)">l</text><text xml:space="preserve" font-family="TrebuchetMS" font-size="40.0" fill="#000000" transform="matrix(1.00, 0.00, -0.00, -1.00, 1169.2, 745.0)">i</text><text xml:space="preserve" font-family="TrebuchetMS" font-size="40.0" fill="#000000" transform="matrix(1.00, 0.00, -0.00, -1.00, 1180.6, 745.0)">e</text><text xml:space="preserve" font-family="TrebuchetMS" font-size="40.0" fill="#000000" transform="matrix(1.00, 0.00, -0.00, -1.00, 1202.4, 745.0)">r</text><text xml:space="preserve" font-family="TrebuchetMS" font-size="40.0" fill="#000000" transform="matrix(1.00, 0.00, -0.00, -1.00, 1217.9, 745.0)"> </text><text xml:space="preserve" font-family="TrebuchetMS" font-size="40.0" fill="#000000" transform="matrix(1.00, 0.00, -0.00, -1.00, 1230.0, 745.0)">t</text><text xml:space="preserve" font-family="TrebuchetMS" font-size="40.0" fill="#000000" transform="matrix(1.00, 0.00, -0.00, -1.00, 1245.9, 745.0)">r</text><text xml:space="preserve" font-family="TrebuchetMS" font-size="40.0" fill="#000000" transform="matrix(1.00, 0.00, -0.00, -1.00, 1261.4, 745.0)">a</text><text xml:space="preserve" font-family="TrebuchetMS" font-size="40.0" fill="#000000" transform="matrix(1.00, 0.00, -0.00, -1.00, 1282.4, 745.0)">n</text><text xml:space="preserve" font-family="TrebuchetMS" font-size="40.0" fill="#000000" transform="matrix(1.00, 0.00, -0.00, -1.00, 1304.3, 745.0)">s</text><text xml:space="preserve" font-family="TrebuchetMS" font-size="40.0" fill="#000000" transform="matrix(1.00, 0.00, -0.00, -1.00, 1320.5, 745.0)">a</text><text xml:space="preserve" font-family="TrebuchetMS" font-size="40.0" fill="#000000" transform="matrix(1.00, 0.00, -0.00, -1.00, 1341.5, 745.0)">c</text><text xml:space="preserve" font-family="TrebuchetMS" font-size="40.0" fill="#000000" transform="matrix(1.00, 0.00, -0.00, -1.00, 1361.3, 745.0)">t</text><text xml:space="preserve" font-family="TrebuchetMS" font-size="40.0" fill="#000000" transform="matrix(1.00, 0.00, -0.00, -1.00, 1377.2, 745.0)">i</text><text xml:space="preserve" font-family="TrebuchetMS" font-size="40.0" fill="#000000" transform="matrix(1.00, 0.00, -0.00, -1.00, 1388.6, 745.0)">o</text><text xml:space="preserve" font-family="TrebuchetMS" font-size="40.0" fill="#000000" transform="matrix(1.00, 0.00, -0.00, -1.00, 1410.1, 745.0)">n</text><text xml:space="preserve" font-family="TrebuchetMS" font-size="40.0" fill="#000000" transform="matrix(1.00, 0.00, -0.00, -1.00, 1431.9, 745.0)">s</text><text xml:space="preserve" font-family="TrebuchetMS" font-size="40.0" fill="#000000" transform="matrix(1.00, 0.00, -0.00, -1.00, 1448.1, 745.0)"> </text><text xml:space="preserve" font-family="TrebuchetMS" font-size="40.0" fill="#000000" transform="matrix(1.00, 0.00, -0.00, -1.00, 1460.2, 745.0)">a</text><text xml:space="preserve" font-family="TrebuchetMS" font-size="40.0" fill="#000000" transform="matrix(1.00, 0.00, -0.00, -1.00, 1481.2, 745.0)">r</text><text xml:space="preserve" font-family="TrebuchetMS" font-size="40.0" fill="#000000" transform="matrix(1.00, 0.00, -0.00, -1.00, 1496.7, 745.0)">e</text><text xml:space="preserve" font-family="TrebuchetMS" font-size="40.0" fill="#000000" transform="matrix(1.00, 0.00, -0.00, -1.00, 1518.6, 745.0)"> </text><text xml:space="preserve" font-family="TrebuchetMS" font-size="40.0" fill="#000000" transform="matrix(1.00, 0.00, -0.00, -1.00, 1530.6, 745.0)">v</text><text xml:space="preserve" font-family="TrebuchetMS" font-size="40.0" fill="#000000" transform="matrix(1.00, 0.00, -0.00, -1.00, 1550.2, 745.0)">a</text><text xml:space="preserve" font-family="TrebuchetMS" font-size="40.0" fill="#000000" transform="matrix(1.00, 0.00, -0.00, -1.00, 1571.2, 745.0)">l</text><text xml:space="preserve" font-family="TrebuchetMS" font-size="40.0" fill="#000000" transform="matrix(1.00, 0.00, -0.00, -1.00, 1583.0, 745.0)">i</text><text xml:space="preserve" font-family="TrebuchetMS" font-size="40.0" fill="#000000" transform="matrix(1.00, 0.00, -0.00, -1.00, 1594.4, 745.0)">d</text><text xml:space="preserve" font-family="TrebuchetMS" font-size="40.0" fill="#000000" transform="matrix(1.00, 0.00, -0.00, -1.00, 1616.7, 745.0)"> </text><text xml:space="preserve" font-family="TrebuchetMS" font-size="40.0" fill="#000000" transform="matrix(1.00, 0.00, -0.00, -1.00, 1628.8, 745.0)">a</text><text xml:space="preserve" font-family="TrebuchetMS" font-size="40.0" fill="#000000" transform="matrix(1.00, 0.00, -0.00, -1.00, 1649.8, 745.0)">n</text><text xml:space="preserve" font-family="TrebuchetMS" font-size="40.0" fill="#000000" transform="matrix(1.00, 0.00, -0.00, -1.00, 1671.7, 745.0)">d</text><text xml:space="preserve" font-family="TrebuchetMS" font-size="40.0" fill="#000000" transform="matrix(1.00, 0.00, -0.00, -1.00, 1694.0, 745.0)"> </text><text xml:space="preserve" font-family="TrebuchetMS" font-size="40.0" fill="#000000" transform="matrix(1.00, 0.00, -0.00, -1.00, 1099.0, 698.0)">c</text><text xml:space="preserve" font-family="TrebuchetMS" font-size="40.0" fill="#000000" transform="matrix(1.00, 0.00, -0.00, -1.00, 1118.8, 698.0)">o</text><text xml:space="preserve" font-family="TrebuchetMS" font-size="40.0" fill="#000000" transform="matrix(1.00, 0.00, -0.00, -1.00, 1140.2, 698.0)">n</text><text xml:space="preserve" font-family="TrebuchetMS" font-size="40.0" fill="#000000" transform="matrix(1.00, 0.00, -0.00, -1.00, 1162.1, 698.0)">f</text><text xml:space="preserve" font-family="TrebuchetMS" font-size="40.0" fill="#000000" transform="matrix(1.00, 0.00, -0.00, -1.00, 1176.8, 698.0)">i</text><text xml:space="preserve" font-family="TrebuchetMS" font-size="40.0" fill="#000000" transform="matrix(1.00, 0.00, -0.00, -1.00, 1188.3, 698.0)">r</text><text xml:space="preserve" font-family="TrebuchetMS" font-size="40.0" fill="#000000" transform="matrix(1.00, 0.00, -0.00, -1.00, 1203.8, 698.0)">m</text><text xml:space="preserve" font-family="TrebuchetMS" font-size="40.0" fill="#000000" transform="matrix(1.00, 0.00, -0.00, -1.00, 1237.0, 698.0)">e</text><text xml:space="preserve" font-family="TrebuchetMS" font-size="40.0" fill="#000000" transform="matrix(1.00, 0.00, -0.00, -1.00, 1258.8, 698.0)">d</text></g></svg>