<?xml version="1.0" encoding="UTF-8" standalone="no"?><svg xmlns="http://www.w3.org/2000/svg" xmlns:xlink="http://www.w3.org/1999/xlink" clip-rule="evenodd" stroke-miterlimit="4.00" viewBox="0 0 1960 1080"><desc>SVG generated by Keynote</desc><defs></defs><g transform="matrix(1.00, 0.00, -0.00, -1.00, 0.0, 1080.0)"><path d="M 0.0 1080.0 L 1960.0 1080.0 L 1960.0 0.0 L 0.0 0.0 Z M 0.0 1080.0 " fill="#FFFFFF"></path><text xml:space="preserve" font-family="Helvetica-Light" font-size="84.5" fill="#000000" transform="matrix(1.00, 0.00, -0.00, -1.00, 159.0, 933.0)">S</text><text xml:space="preserve" font-family="Helvetica-Light" font-size="84.5" fill="#000000" transform="matrix(1.00, 0.00, -0.00, -1.00, 210.6, 933.0)">i</text><text xml:space="preserve" font-family="Helvetica-Light" font-size="84.5" fill="#000000" transform="matrix(1.00, 0.00, -0.00, -1.00, 229.4, 933.0)">g</text><text xml:space="preserve" font-family="Helvetica-Light" font-size="84.5" fill="#000000" transform="matrix(1.00, 0.00, -0.00, -1.00, 281.0, 933.0)">n</text><text xml:space="preserve" font-family="Helvetica-Light" font-size="84.5" fill="#000000" transform="matrix(1.00, 0.00, -0.00, -1.00, 328.0, 933.0)">a</text><text xml:space="preserve" font-family="Helvetica-Light" font-size="84.5" fill="#000000" transform="matrix(1.00, 0.00, -0.00, -1.00, 374.9, 933.0)">t</text><text xml:space="preserve" font-family="Helvetica-Light" font-size="84.5" fill="#000000" transform="matrix(1.00, 0.00, -0.00, -1.00, 398.4, 933.0)">u</text><text xml:space="preserve" font-family="Helvetica-Light" font-size="84.5" fill="#000000" transform="matrix(1.00, 0.00, -0.00, -1.00, 445.4, 933.0)">r</text><text xml:space="preserve" font-family="Helvetica-Light" font-size="84.5" fill="#000000" transform="matrix(1.00, 0.00, -0.00, -1.00, 472.0, 933.0)">e</text><text xml:space="preserve" font-family="Helvetica-Light" font-size="84.5" fill="#000000" transform="matrix(1.00, 0.00, -0.00, -1.00, 519.0, 933.0)"> </text><text xml:space="preserve" font-family="Helvetica-Light" font-size="84.5" fill="#000000" transform="matrix(1.00, 0.00, -0.00, -1.00, 542.5, 933.0)">m</text><text xml:space="preserve" font-family="Helvetica-Light" font-size="84.5" fill="#000000" transform="matrix(1.00, 0.00, -0.00, -1.00, 612.8, 933.0)">a</text><text xml:space="preserve" font-family="Helvetica-Light" font-size="84.5" fill="#000000" transform="matrix(1.00, 0.00, -0.00, -1.00, 659.8, 933.0)">l</text><text xml:space="preserve" font-family="Helvetica-Light" font-size="84.5" fill="#000000" transform="matrix(1.00, 0.00, -0.00, -1.00, 678.6, 933.0)">l</text><text xml:space="preserve" font-family="Helvetica-Light" font-size="84.5" fill="#000000" transform="matrix(1.00, 0.00, -0.00, -1.00, 697.3, 933.0)">e</text><text xml:space="preserve" font-family="Helvetica-Light" font-size="84.5" fill="#000000" transform="matrix(1.00, 0.00, -0.00, -1.00, 744.3, 933.0)">a</text><text xml:space="preserve" font-family="Helvetica-Light" font-size="84.5" fill="#000000" transform="matrix(1.00, 0.00, -0.00, -1.00, 791.2, 933.0)">b</text><text xml:space="preserve" font-family="Helvetica-Light" font-size="84.5" fill="#000000" transform="matrix(1.00, 0.00, -0.00, -1.00, 842.9, 933.0)">i</text><text xml:space="preserve" font-family="Helvetica-Light" font-size="84.5" fill="#000000" transform="matrix(1.00, 0.00, -0.00, -1.00, 861.6, 933.0)">l</text><text xml:space="preserve" font-family="Helvetica-Light" font-size="84.5" fill="#000000" transform="matrix(1.00, 0.00, -0.00, -1.00, 880.4, 933.0)">i</text><text xml:space="preserve" font-family="Helvetica-Light" font-size="84.5" fill="#000000" transform="matrix(1.00, 0.00, -0.00, -1.00, 899.1, 933.0)">t</text><text xml:space="preserve" font-family="Helvetica-Light" font-size="84.5" fill="#000000" transform="matrix(1.00, 0.00, -0.00, -1.00, 922.6, 933.0)">y</text><text xml:space="preserve" font-family="Helvetica-Light" font-size="84.5" fill="#000000" transform="matrix(1.00, 0.00, -0.00, -1.00, 964.9, 933.0)"> </text><text xml:space="preserve" font-family="Helvetica-Light" font-size="84.5" fill="#000000" transform="matrix(1.00, 0.00, -0.00, -1.00, 988.3, 933.0)">w</text><text xml:space="preserve" font-family="Helvetica-Light" font-size="84.5" fill="#000000" transform="matrix(1.00, 0.00, -0.00, -1.00, 1049.3, 933.0)">o</text><text xml:space="preserve" font-family="Helvetica-Light" font-size="84.5" fill="#000000" transform="matrix(1.00, 0.00, -0.00, -1.00, 1096.3, 933.0)">n</text><text xml:space="preserve" font-family="Helvetica-Light" font-size="84.5" fill="#000000" transform="matrix(1.00, 0.00, -0.00, -1.00, 1143.3, 933.0)">’</text><text xml:space="preserve" font-family="Helvetica-Light" font-size="84.5" fill="#000000" transform="matrix(1.00, 0.00, -0.00, -1.00, 1160.5, 933.0)">t</text><text xml:space="preserve" font-family="Helvetica-Light" font-size="84.5" fill="#000000" transform="matrix(1.00, 0.00, -0.00, -1.00, 1184.0, 933.0)"> </text><text xml:space="preserve" font-family="Helvetica-Light" font-size="84.5" fill="#000000" transform="matrix(1.00, 0.00, -0.00, -1.00, 1207.5, 933.0)">b</text><text xml:space="preserve" font-family="Helvetica-Light" font-size="84.5" fill="#000000" transform="matrix(1.00, 0.00, -0.00, -1.00, 1259.1, 933.0)">r</text><text xml:space="preserve" font-family="Helvetica-Light" font-size="84.5" fill="#000000" transform="matrix(1.00, 0.00, -0.00, -1.00, 1285.7, 933.0)">e</text><text xml:space="preserve" font-family="Helvetica-Light" font-size="84.5" fill="#000000" transform="matrix(1.00, 0.00, -0.00, -1.00, 1332.7, 933.0)">a</text><text xml:space="preserve" font-family="Helvetica-Light" font-size="84.5" fill="#000000" transform="matrix(1.00, 0.00, -0.00, -1.00, 1379.7, 933.0)">k</text><text xml:space="preserve" font-family="Helvetica-Light" font-size="84.5" fill="#000000" transform="matrix(1.00, 0.00, -0.00, -1.00, 1421.9, 933.0)"> </text><text xml:space="preserve" font-family="Helvetica-Light" font-size="84.5" fill="#000000" transform="matrix(1.00, 0.00, -0.00, -1.00, 1445.4, 933.0)">t</text><text xml:space="preserve" font-family="Helvetica-Light" font-size="84.5" fill="#000000" transform="matrix(1.00, 0.00, -0.00, -1.00, 1468.9, 933.0)">h</text><text xml:space="preserve" font-family="Helvetica-Light" font-size="84.5" fill="#000000" transform="matrix(1.00, 0.00, -0.00, -1.00, 1515.8, 933.0)">e</text><text xml:space="preserve" font-family="Helvetica-Light" font-size="84.5" fill="#000000" transform="matrix(1.00, 0.00, -0.00, -1.00, 1562.8, 933.0)"> </text><text xml:space="preserve" font-family="Helvetica-Light" font-size="84.5" fill="#000000" transform="matrix(1.00, 0.00, -0.00, -1.00, 1586.3, 933.0)">t</text><text xml:space="preserve" font-family="Helvetica-Light" font-size="84.5" fill="#000000" transform="matrix(1.00, 0.00, -0.00, -1.00, 1609.8, 933.0)">x</text><text xml:space="preserve" font-family="Helvetica-Light" font-size="84.5" fill="#000000" transform="matrix(1.00, 0.00, -0.00, -1.00, 1652.0, 933.0)"> </text><text xml:space="preserve" font-family="Helvetica-Light" font-size="84.5" fill="#000000" transform="matrix(1.00, 0.00, -0.00, -1.00, 159.0, 842.0)">c</text><text xml:space="preserve" font-family="Helvetica-Light" font-size="84.5" fill="#000000" transform="matrix(1.00, 0.00, -0.00, -1.00, 206.0, 842.0)">h</text><text xml:space="preserve" font-family="Helvetica-Light" font-size="84.5" fill="#000000" transform="matrix(1.00, 0.00, -0.00, -1.00, 252.9, 842.0)">a</text><text xml:space="preserve" font-family="Helvetica-Light" font-size="84.5" fill="#000000" transform="matrix(1.00, 0.00, -0.00, -1.00, 299.9, 842.0)">i</text><text xml:space="preserve" font-family="Helvetica-Light" font-size="84.5" fill="#000000" transform="matrix(1.00, 0.00, -0.00, -1.00, 318.7, 842.0)">n</text><image xlink:href="F106FC4FF61A3D61BA1680C27B78D1C4.png" width="636.00" height="252.00" transform="matrix(1.00, 0.00, -0.00, -1.00, 620.0, 800.0)"></image><image xlink:href="08BA933C30C063CD42CE00AE9B3634E5.png" width="812.00" height="321.00" transform="matrix(1.00, 0.00, -0.00, -1.00, 1026.0, 631.0)"></image><image xlink:href="6514AC529ACC92C3AD4EFCDB963FFEDB.png" width="802.00" height="331.00" transform="matrix(1.00, 0.00, -0.00, -1.00, 88.0, 641.0)"></image><image xlink:href="BC4465A9C21BB07F593C65317F6A5869.png" width="636.00" height="254.00" transform="matrix(1.00, 0.00, -0.00, -1.00, 620.0, 293.0)"></image></g></svg>