<svg width="200" height="95" viewBox="0 0 200 95" fill="none" xmlns="http://www.w3.org/2000/svg">
<mask id="mask0" mask-type="alpha" maskUnits="userSpaceOnUse" x="0" y="0" width="200" height="95">
<rect width="200" height="95" fill="#482E2E"/>
</mask>
<g mask="url(#mask0)">
</g>
<g clip-path="url(#clip0)">
<path d="M22.998 48.1087C22.998 49.0906 23.7547 49.8542 24.7275 49.8542C25.7004 49.8542 26.457 49.0906 26.457 48.1087C26.457 47.1269 25.7004 46.3633 24.7275 46.3633C23.7547 46.3633 22.998 47.1269 22.998 48.1087ZM37.5905 46.3633C36.6177 46.3633 35.8611 47.1269 35.8611 48.1087C35.8611 49.0906 36.6177 49.8542 37.5905 49.8542C38.5634 49.8542 39.32 49.0906 39.32 48.1087C39.32 47.1269 38.5634 46.3633 37.5905 46.3633ZM37.5905 59.5633C36.6177 59.5633 35.8611 60.3269 35.8611 61.3087C35.8611 62.2906 36.6177 63.0542 37.5905 63.0542C38.5634 63.0542 39.32 62.2906 39.32 61.3087C39.32 60.3269 38.5634 59.5633 37.5905 59.5633Z" fill="black"/>
<path d="M41.2653 31.8543C39.5358 29.6725 36.4012 29.5634 34.5636 31.3089L34.3474 31.5271L33.915 31.8543C32.1856 33.2725 29.5913 33.1634 27.9699 31.5271V31.418C27.4295 30.8725 26.6728 30.4361 25.9162 30.218C25.8081 30.218 25.5919 30.1089 25.4838 30.1089H23.7543C23.6462 30.1089 23.5382 30.1089 23.4301 30.218H23.2139C23.1058 30.218 22.9977 30.3271 22.8896 30.3271C22.8896 30.3271 22.7815 30.3271 22.7815 30.4361C22.6734 30.4361 22.5653 30.5452 22.4572 30.5452C22.4572 30.5452 22.3491 30.5452 22.3491 30.6543C22.241 30.7634 22.1329 30.7634 22.0249 30.8725C22.0249 30.8725 21.9168 30.8725 21.9168 30.9816C21.8087 31.0907 21.7006 31.0907 21.5925 31.1998L21.4844 31.3089L21.2682 31.5271L20.8358 31.8543C19.1064 33.2725 16.5121 33.1634 14.9988 31.5271C14.9988 31.5271 14.8908 31.5271 14.8908 31.418L14.6746 31.1998C14.026 30.6543 13.2694 30.218 12.4046 30.1089H10.459C10.459 30.218 10.3509 30.218 10.2428 30.3271H10.1347C9.59422 30.5452 9.05376 30.7634 8.62139 31.1998L8.51329 31.3089L8.18902 31.6361C7.75665 32.0725 7.54046 32.618 7.32428 33.0543C7.32428 33.1634 7.21619 33.2725 7.21619 33.3816C7.21619 33.4907 7.10809 33.5998 7.10809 33.818C7 34.5816 7 35.3452 7.21619 36.1089C7.21619 36.218 7.32428 36.3271 7.32428 36.4361V36.5452C7.32428 36.6543 7.43237 36.7634 7.43237 36.8725C7.54046 36.9816 7.54046 37.0907 7.64856 37.3089C7.86474 37.418 8.08092 37.6361 8.18902 37.7452L8.4052 37.9634L8.62139 38.1816C10.2428 39.818 10.2428 42.6543 8.51329 44.3998C8.29711 44.618 7.97283 44.9452 7.86474 45.1634C7.75665 45.2725 7.75665 45.3816 7.64856 45.5998V45.7089C7.54046 45.818 7.54046 45.9271 7.43237 46.0361V46.1452C7.43237 46.2543 7.32428 46.3634 7.32428 46.4725V46.5816C7.32428 46.6907 7.32428 46.7998 7.21619 46.9089V48.5452C7.21619 48.6543 7.21619 48.7634 7.32428 48.8725V48.9816C7.54046 49.7452 7.97283 50.5089 8.62139 51.1634C10.3509 52.9089 10.3509 55.7452 8.62139 57.4907L8.51329 57.5998L8.29711 57.818V57.9271C8.18902 58.0361 8.08092 58.1452 8.08092 58.2543C8.08092 58.2543 8.08092 58.3634 7.97283 58.3634C7.86474 58.4725 7.86474 58.5816 7.75665 58.6907L7.64856 58.7998C7.64856 58.9089 7.54046 58.9089 7.54046 59.018C7.54046 59.1271 7.43237 59.1271 7.43237 59.2361C7.43237 59.3452 7.43237 59.3452 7.32428 59.4543C7.10809 59.8907 7 60.4361 7 60.8725V61.7452C7.10809 62.0725 7.10809 62.3998 7.32428 62.618C7.32428 62.7271 7.43237 62.8362 7.43237 62.8362C7.43237 62.8362 7.43237 62.9452 7.54046 62.9452C7.54046 63.0543 7.64856 63.1634 7.64856 63.2725C7.64856 63.2725 7.64855 63.3816 7.75665 63.3816C7.86474 63.5998 7.97283 63.7089 8.08092 63.818C8.08092 63.818 8.08092 63.9271 8.18902 63.9271C8.18902 63.9271 8.18902 64.0362 8.29711 64.0362C8.29711 64.1452 8.4052 64.1452 8.4052 64.1452L8.51329 64.2543C8.62139 64.3634 8.72948 64.3634 8.72948 64.4725L8.83757 64.5816C8.83757 64.5816 8.94566 64.5816 8.94566 64.6907C9.05376 64.7998 9.16185 64.9089 9.26994 64.9089C9.26994 64.9089 9.37804 64.9089 9.37804 65.018C9.48613 65.1271 9.59422 65.1271 9.70231 65.2361H9.8104C9.9185 65.3452 10.0266 65.3452 10.2428 65.3452C10.3509 65.3452 10.5671 65.4543 10.6751 65.4543H10.7832C10.8913 65.4543 10.9994 65.4543 11.1075 65.5634H12.0803C12.4046 65.5634 12.6208 65.4543 12.9451 65.4543H13.0532C13.1613 65.4543 13.2694 65.3452 13.3775 65.3452H13.4855C13.5936 65.3452 13.7017 65.2361 13.8098 65.2361H13.9179C14.1341 65.1271 14.4584 64.9089 14.6746 64.7998L14.9988 64.4725L15.1069 64.3634C16.8364 62.5089 19.6468 62.5089 21.3763 64.3634C23.322 66.4361 26.5647 66.3271 28.4023 64.0362C29.6994 62.3998 29.6994 59.9998 28.4023 58.2543C26.6728 56.0725 23.5382 55.9634 21.7006 57.7089L21.4844 57.9271L21.052 58.2543C19.3225 59.6725 16.7283 59.5634 15.1069 57.9271L14.8908 57.7089L14.5665 57.2725C13.1613 55.5271 13.2694 52.9089 14.8908 51.2725C15.8636 50.3998 16.296 49.1998 16.296 47.9998V47.6725C16.296 46.5816 15.8636 45.4907 14.9988 44.7271C14.9988 44.618 14.8908 44.618 14.8908 44.5089L14.5665 44.0725C13.1613 42.3271 13.2694 39.7089 14.8908 38.0725L14.9988 37.9634L15.1069 37.8543C16.8364 35.9998 19.6468 35.9998 21.3763 37.8543L21.4844 37.9634L21.5925 38.0725L21.8087 38.2907C21.9168 38.2907 21.9168 38.3998 22.0249 38.3998C22.1329 38.3998 22.1329 38.5089 22.241 38.5089C22.3491 38.5089 22.3491 38.618 22.4572 38.618C22.5653 38.618 22.5653 38.7271 22.6734 38.7271C22.7815 38.7271 22.7815 38.8361 22.8896 38.8361C22.9977 38.8361 22.9977 38.9452 23.1058 38.9452C23.2139 38.9452 23.2139 38.9452 23.322 39.0543C23.4301 39.0543 23.4301 39.0543 23.5382 39.1634H25.3757C25.4838 39.1634 25.5919 39.1634 25.7 39.0543H25.9162C26.0243 39.0543 26.1324 38.9452 26.2405 38.9452H26.3486C26.4566 38.9452 26.5647 38.8361 26.7809 38.7271C27.2133 38.5089 27.6457 38.1816 27.9699 37.8543L28.078 37.7452C29.8075 35.8907 32.6179 35.8907 34.3474 37.7452C36.185 39.9271 39.5358 39.818 41.2653 37.5271C42.5624 35.8907 42.5624 33.4907 41.2653 31.8543Z" fill="black"/>
<path d="M65.9102 45.3818C65.2617 44.7273 64.7212 44.2909 63.9646 43.9636C63.316 43.6364 62.5594 43.4182 61.5865 43.4182C60.7218 43.4182 59.8571 43.6364 59.2085 43.9636C58.56 44.2909 58.0195 44.7273 57.5871 45.3818C57.1548 45.9273 56.8305 46.5818 56.6143 47.3455C56.3981 48.1091 56.29 48.8727 56.29 49.6364C56.29 50.4 56.3981 51.1636 56.7224 51.9273C56.9386 52.6909 57.3709 53.2364 57.8033 53.7818C58.2357 54.3273 58.8842 54.7636 59.5328 55.0909C60.1813 55.4182 60.938 55.5273 61.8027 55.5273C62.7756 55.5273 63.5322 55.3091 64.1808 54.9818C64.8293 54.6545 65.4779 54.2182 66.0183 53.5636L68.2883 55.9636C67.4235 56.9455 66.4507 57.6 65.3698 58.0364C64.2889 58.4727 63.0998 58.6909 61.8027 58.6909C60.5056 58.6909 59.2085 58.4727 58.1276 58.0364C57.0467 57.6 56.0738 56.9455 55.3172 56.1818C54.5605 55.4182 53.912 54.4364 53.4796 53.3455C53.0472 52.2545 52.8311 50.9455 52.8311 49.6364C52.8311 48.3273 53.0472 47.0182 53.4796 45.9273C53.912 44.8364 54.5605 43.8545 55.3172 42.9818C56.0738 42.2182 57.0467 41.5636 58.1276 41.1273C59.2085 40.6909 60.5056 40.4727 61.8027 40.4727C63.0998 40.4727 64.2889 40.6909 65.3698 41.1273C66.5588 41.5636 67.5316 42.3273 68.3964 43.2L65.9102 45.3818ZM73.2605 49.4182C73.2605 50.2909 73.3686 51.1636 73.6929 51.8182C73.9091 52.5818 74.3415 53.2364 74.7738 53.7818C75.2062 54.3273 75.8548 54.7636 76.5033 54.9818C77.1519 55.3091 78.0166 55.4182 78.8813 55.4182C79.7461 55.4182 80.5027 55.3091 81.2594 54.9818C81.9079 54.6545 82.5565 54.2182 82.9889 53.7818C83.4212 53.2364 83.8536 52.5818 84.0698 51.8182C84.286 51.0545 84.5022 50.2909 84.5022 49.4182C84.5022 48.5455 84.3941 47.6727 84.0698 47.0182C83.8536 46.2545 83.4212 45.6 82.9889 45.0545C82.5565 44.5091 81.9079 44.0727 81.2594 43.8545C80.6108 43.5273 79.7461 43.4182 78.8813 43.4182C78.0166 43.4182 77.26 43.5273 76.5033 43.8545C75.8548 44.1818 75.2062 44.6182 74.7738 45.0545C74.3415 45.6 73.9091 46.2545 73.6929 47.0182C73.4767 47.7818 73.2605 48.5455 73.2605 49.4182ZM69.8016 49.4182C69.8016 48.1091 70.0178 46.9091 70.4501 45.8182C70.8825 44.7273 71.5311 43.7455 72.3958 42.8727C73.2605 42 74.1253 41.3455 75.3143 40.9091C76.3952 40.4727 77.5842 40.1455 78.8813 40.1455C80.1785 40.1455 81.3675 40.3636 82.4484 40.9091C83.5293 41.3455 84.5022 42 85.3669 42.8727C86.2316 43.7455 86.7721 44.7273 87.3126 45.8182C87.7449 46.9091 87.9611 48.1091 87.9611 49.4182C87.9611 50.7273 87.7449 51.9273 87.3126 53.0182C86.8802 54.1091 86.2316 55.0909 85.3669 55.9636C84.5022 56.8364 83.6374 57.3818 82.4484 57.9273C81.3675 58.3636 80.1785 58.6909 78.8813 58.6909C77.5842 58.6909 76.3952 58.4727 75.3143 57.9273C74.2334 57.4909 73.2605 56.8364 72.3958 55.9636C71.5311 55.0909 70.9906 54.2182 70.4501 53.0182C70.1259 51.9273 69.8016 50.7273 69.8016 49.4182ZM91.312 58.2545H94.5548V40.8H91.312V58.2545ZM90.5553 34.4727C90.5553 33.8182 90.7715 33.2727 91.2039 32.7273C91.6363 32.2909 92.1767 31.9636 92.8253 31.9636C93.4738 31.9636 94.0143 32.1818 94.4467 32.7273C94.879 33.1636 95.0952 33.8182 95.0952 34.4727C95.0952 35.1273 94.879 35.6727 94.4467 36.2182C94.0143 36.6545 93.4738 36.9818 92.8253 36.9818C92.1767 36.9818 91.6363 36.7636 91.2039 36.2182C90.7715 35.7818 90.5553 35.1273 90.5553 34.4727ZM99.0946 40.8H102.337V43.5273H102.446C102.878 42.5455 103.526 41.7818 104.607 41.2364C105.58 40.6909 106.769 40.3636 108.174 40.3636C109.039 40.3636 109.796 40.4727 110.552 40.8C111.309 41.0182 111.958 41.4545 112.498 42C113.039 42.5455 113.471 43.2 113.903 44.0727C114.228 44.9455 114.444 45.9273 114.444 47.1273V58.3636H111.201V48C111.201 47.2364 111.093 46.4727 110.877 45.9273C110.661 45.3818 110.336 44.8364 110.012 44.5091C109.688 44.1818 109.255 43.8545 108.715 43.7455C108.283 43.6364 107.742 43.5273 107.202 43.5273C106.553 43.5273 105.904 43.6364 105.364 43.8545C104.824 44.0727 104.283 44.4 103.851 44.9455C103.418 45.3818 103.094 46.0364 102.878 46.8C102.662 47.5636 102.554 48.4364 102.554 49.4182V58.4727H99.3108V40.8H99.0946ZM126.442 55.5273C127.307 55.5273 128.063 55.4182 128.82 55.0909C129.577 54.7636 130.117 54.3273 130.658 53.7818C131.09 53.2364 131.522 52.5818 131.739 51.8182C131.955 51.0545 132.171 50.2909 132.171 49.3091C132.171 48.4364 132.063 47.5636 131.739 46.8C131.522 46.0364 131.09 45.3818 130.658 44.8364C130.117 44.2909 129.577 43.8545 128.82 43.5273C128.063 43.2 127.307 43.0909 126.442 43.0909C125.577 43.0909 124.821 43.2 124.064 43.5273C123.307 43.8545 122.767 44.2909 122.226 44.8364C121.794 45.3818 121.362 46.0364 121.146 46.8C120.929 47.5636 120.713 48.3273 120.713 49.3091C120.713 50.1818 120.821 51.0545 121.146 51.8182C121.362 52.5818 121.794 53.2364 122.226 53.7818C122.659 54.3273 123.307 54.7636 124.064 55.0909C124.713 55.3091 125.577 55.5273 126.442 55.5273ZM135.414 58.1455H132.171V55.6364H132.063C131.414 56.6182 130.55 57.2727 129.469 57.8182C128.388 58.3636 127.199 58.5818 126.01 58.5818C124.713 58.5818 123.415 58.3636 122.335 57.9273C121.254 57.4909 120.281 56.8364 119.524 55.9636C118.767 55.0909 118.119 54.1091 117.795 53.0182C117.362 51.9273 117.146 50.7273 117.146 49.4182C117.146 48.1091 117.362 46.9091 117.795 45.7091C118.227 44.6182 118.767 43.6364 119.524 42.7636C120.281 41.8909 121.254 41.2364 122.335 40.8C123.415 40.3636 124.604 40.1455 126.01 40.1455C127.199 40.1455 128.388 40.3636 129.469 40.9091C130.55 41.4545 131.414 42.2182 131.955 43.0909H132.063V30H135.306V58.1455H135.414ZM151.952 48C151.952 47.2364 151.844 46.5818 151.628 45.9273C151.411 45.2727 151.087 44.7273 150.655 44.2909C150.222 43.8545 149.682 43.5273 149.141 43.2C148.493 42.9818 147.844 42.7636 146.98 42.7636C146.223 42.7636 145.466 42.8727 144.818 43.2C144.169 43.5273 143.629 43.8545 143.088 44.4C142.656 44.8364 142.224 45.3818 142.007 46.0364C141.791 46.6909 141.575 47.2364 141.575 47.7818H151.952V48ZM141.575 50.7273C141.575 51.4909 141.791 52.1455 142.115 52.8C142.44 53.4545 142.872 54 143.413 54.4364C143.953 54.8727 144.602 55.2 145.25 55.4182C146.007 55.6364 146.655 55.7455 147.412 55.7455C148.385 55.7455 149.358 55.5273 150.114 54.9818C150.871 54.5455 151.52 53.8909 152.168 53.1273L154.654 55.0909C152.817 57.4909 150.222 58.6909 146.98 58.6909C145.574 58.6909 144.385 58.4727 143.304 58.0364C142.224 57.6 141.251 56.9455 140.494 56.0727C139.737 55.2 139.089 54.3273 138.765 53.1273C138.332 52.0364 138.116 50.8364 138.116 49.5273C138.116 48.2182 138.332 47.0182 138.765 45.9273C139.197 44.8364 139.846 43.8545 140.602 42.9818C141.359 42.1091 142.332 41.5636 143.413 41.0182C144.493 40.5818 145.683 40.3636 146.98 40.3636C148.493 40.3636 149.79 40.5818 150.871 41.1273C151.952 41.6727 152.817 42.3273 153.465 43.2C154.114 44.0727 154.654 45.0545 154.978 46.1455C155.303 47.2364 155.411 48.3273 155.411 49.5273V50.7273H141.575ZM168.166 45.1636C167.733 44.7273 167.301 44.2909 166.761 43.9636C166.22 43.6364 165.463 43.4182 164.707 43.4182C163.95 43.4182 163.302 43.6364 162.653 43.9636C162.113 44.2909 161.788 44.7273 161.788 45.3818C161.788 45.9273 162.004 46.3636 162.329 46.5818C162.653 46.9091 163.085 47.1273 163.518 47.3455C163.95 47.5636 164.491 47.6727 164.923 47.7818C165.463 47.8909 165.896 48 166.22 48C166.869 48.2182 167.625 48.3273 168.166 48.6545C168.814 48.8727 169.355 49.2 169.787 49.6364C170.22 50.0727 170.544 50.5091 170.868 51.0545C171.084 51.6 171.3 52.2545 171.3 53.1273C171.3 54.1091 171.084 54.9818 170.652 55.6364C170.219 56.2909 169.679 56.9455 169.03 57.3818C168.382 57.8182 167.625 58.1455 166.761 58.3636C165.896 58.5818 165.031 58.6909 164.274 58.6909C162.869 58.6909 161.572 58.4727 160.491 58.0364C159.41 57.6 158.437 56.8364 157.573 55.6364L160.059 53.5636C160.599 54.1091 161.14 54.5455 161.788 54.9818C162.437 55.4182 163.193 55.6364 164.166 55.6364C164.599 55.6364 165.031 55.6364 165.463 55.5273C165.896 55.4182 166.22 55.3091 166.544 55.0909C166.869 54.8727 167.085 54.6545 167.301 54.4364C167.517 54.1091 167.625 53.7818 167.625 53.4545C167.625 53.0182 167.517 52.5818 167.193 52.2545C166.869 51.9273 166.544 51.7091 166.112 51.4909C165.68 51.2727 165.247 51.1636 164.815 51.0545L163.518 50.7273C162.869 50.5091 162.113 50.4 161.572 50.1818C160.924 49.9636 160.383 49.6364 159.951 49.3091C159.518 48.9818 159.086 48.4364 158.762 47.8909C158.437 47.3455 158.329 46.5818 158.329 45.8182C158.329 44.9455 158.546 44.0727 158.87 43.4182C159.194 42.7636 159.735 42.2182 160.383 41.7818C161.032 41.3455 161.68 41.0182 162.437 40.8C163.193 40.5818 164.058 40.4727 164.815 40.4727C166.004 40.4727 167.085 40.6909 168.166 41.1273C169.247 41.5636 170.111 42.3273 170.76 43.3091L168.166 45.1636ZM174.435 30.4364H177.678V48.1091L185.028 40.6909H189.46L181.569 48.5455L190.217 57.9273H185.569L177.678 48.9818V57.9273H174.435V30.4364Z" fill="black"/>
</g>
<defs>
<clipPath id="clip0">
<rect x="7" y="30" width="187" height="36" fill="white"/>
</clipPath>
</defs>
</svg>
