<svg width="200" height="95" viewBox="0 0 200 95" fill="none" xmlns="http://www.w3.org/2000/svg">
<mask id="mask0" mask-type="alpha" maskUnits="userSpaceOnUse" x="0" y="0" width="200" height="95">
<rect width="200" height="95" fill="#482E2E"/>
</mask>
<g mask="url(#mask0)">
</g>
<path fill-rule="evenodd" clip-rule="evenodd" d="M43.218 32H36.3409C35.9794 32 35.6835 32.2868 35.6835 32.6372V55.1834C35.6835 55.5338 35.3877 55.8201 35.0273 55.8201H11.7671C11.4051 55.8201 11.1104 56.1074 11.1104 56.4578V63.1234C11.1104 63.4738 11.4051 63.7606 11.7671 63.7606H43.218H43.8754V63.1234V32.6372C43.8754 32.2868 43.5795 32 43.218 32Z" fill="#F29700"/>
<path fill-rule="evenodd" clip-rule="evenodd" d="M11.8577 52.6571H19.6915C20.1036 52.6571 20.4404 52.3307 20.4404 51.9312V44.3377C20.4404 43.9387 20.1036 43.6123 19.6915 43.6123H11.8577C11.4461 43.6123 11.1094 43.9387 11.1094 44.3377V51.9312C11.1094 52.3307 11.4461 52.6571 11.8577 52.6571Z" fill="#F29700"/>
<path fill-rule="evenodd" clip-rule="evenodd" d="M23.5169 41.0448H31.3507C31.7628 41.0448 32.0996 40.7184 32.0996 40.3194V32.7259C32.0996 32.3264 31.7628 32 31.3507 32H30.9305H24.0534H23.5169C23.1053 32 22.7686 32.3264 22.7686 32.7259V40.3194C22.7686 40.7184 23.1053 41.0448 23.5169 41.0448Z" fill="#F29700"/>
<path fill-rule="evenodd" clip-rule="evenodd" d="M145.423 40.9261C145.155 40.9261 144.86 41.1242 144.766 41.3664L137.904 58.956C137.81 59.1982 137.608 59.2228 137.454 59.0107L133.044 52.9137C132.89 52.7022 132.765 52.3172 132.765 52.0583V40.6706C132.765 40.4122 132.547 40.2002 132.28 40.2002H129.943C129.676 40.2002 129.458 40.4122 129.458 40.6706V52.1381C129.458 52.397 129.332 52.782 129.178 52.9929L123.553 60.722C123.399 60.933 123.456 61.222 123.68 61.3632L125.411 62.459C125.635 62.6002 125.945 62.5438 126.1 62.3335L130.85 55.8978C131.006 55.6874 131.26 55.688 131.415 55.8983L135.775 61.8235C135.93 62.0338 136.188 62.2063 136.347 62.2063H137.122H139.281H139.967C140.078 62.2063 140.244 62.0076 140.337 61.7649L148.111 41.3675C148.204 41.1248 148.061 40.9261 147.794 40.9261H145.423Z" fill="#545555"/>
<path fill-rule="evenodd" clip-rule="evenodd" d="M67.4509 33.9512C67.1838 33.9512 66.8097 34.099 66.6186 34.2798L56.4575 43.8843C56.2664 44.0645 56.267 44.3597 56.4581 44.5405L58.1378 46.1218C58.3295 46.302 58.6432 46.3026 58.8354 46.1223L68.1722 37.3944C68.3645 37.2148 68.7398 37.068 69.0069 37.068H74.4777C74.7448 37.068 75.1201 37.2148 75.3118 37.3944L84.6491 46.1223C84.8414 46.3026 85.1551 46.302 85.3468 46.1218L87.0265 44.5405C87.2176 44.3597 87.2181 44.0645 87.027 43.8843L76.866 34.2798C76.6749 34.099 76.3007 33.9512 76.0336 33.9512H67.4509Z" fill="#545555"/>
<path fill-rule="evenodd" clip-rule="evenodd" d="M73.4346 53.53C73.4346 53.2716 73.6533 53.0596 73.9198 53.0596H84.3774C84.6445 53.0596 84.8632 52.8481 84.8632 52.5892V50.4583C84.8632 50.1994 84.6445 49.9874 84.3774 49.9874H73.9198C73.6533 49.9874 73.4346 49.7759 73.4346 49.5176V46.3003C73.4346 46.0419 73.6533 45.8305 73.9198 45.8305H80.2121C80.4792 45.8305 80.6973 45.6184 80.6973 45.3595V43.1974C80.6973 42.939 80.4792 42.7275 80.2121 42.7275H63.2724C63.0059 42.7275 62.7871 42.939 62.7871 43.1974V45.3595C62.7871 45.6184 63.0059 45.8305 63.2724 45.8305H69.5991C69.8662 45.8305 70.0844 46.0419 70.0844 46.3003V49.5176C70.0844 49.7759 69.8662 49.9874 69.5991 49.9874H59.1071C58.84 49.9874 58.6224 50.1994 58.6224 50.4583V52.5892C58.6224 52.8481 58.84 53.0596 59.1071 53.0596H69.5991C69.8662 53.0596 70.0844 53.2716 70.0844 53.53V58.6963C70.0844 58.9552 69.8662 59.1667 69.5991 59.1667H58.494C58.227 59.1667 58.0088 59.3781 58.0088 59.637V61.7998C58.0088 62.0587 58.227 62.2701 58.494 62.2701H84.9933C85.2604 62.2701 85.4791 62.0587 85.4791 61.7998V59.637C85.4791 59.3781 85.2604 59.1667 84.9933 59.1667H73.9198C73.6533 59.1667 73.4346 58.9552 73.4346 58.6963V53.53Z" fill="#545555"/>
<path fill-rule="evenodd" clip-rule="evenodd" d="M127.263 37.4285C127.263 37.1696 127.482 36.9581 127.749 36.9581H134.473C134.74 36.9581 134.958 37.1696 134.958 37.4285V53.7354C134.958 53.9937 135.177 54.2052 135.443 54.2052H137.781C138.047 54.2052 138.266 53.9937 138.266 53.7354V34.4215C138.266 34.1626 138.047 33.9512 137.781 33.9512H124.443C124.176 33.9512 123.957 34.1626 123.957 34.4215V53.7354C123.957 53.9937 124.176 54.2052 124.443 54.2052H126.778C127.045 54.2052 127.263 53.9937 127.263 53.7354V37.4285Z" fill="#545555"/>
<path fill-rule="evenodd" clip-rule="evenodd" d="M151.945 34.4215C151.945 34.1626 151.726 33.9512 151.459 33.9512H149.122C148.856 33.9512 148.637 34.1626 148.637 34.4215V35.5922C148.637 35.8511 148.419 36.0626 148.152 36.0626H140.902C140.635 36.0626 140.417 36.274 140.417 36.5329V38.6532C140.417 38.9116 140.635 39.1236 140.902 39.1236H148.152C148.419 39.1236 148.637 39.3351 148.637 39.594V58.7689C148.637 59.0278 148.419 59.2393 148.152 59.2393H145.785C145.519 59.2393 145.3 59.4507 145.3 59.7096V61.7998C145.3 62.0587 145.519 62.2702 145.785 62.2702H151.459C151.726 62.2702 151.945 62.0587 151.945 61.7998V39.594C151.945 39.3351 152.163 39.1236 152.43 39.1236H153.834C154.101 39.1236 154.32 38.9116 154.32 38.6532V36.5329C154.32 36.274 154.101 36.0626 153.834 36.0626H152.43C152.163 36.0626 151.945 35.8511 151.945 35.5922V34.4215Z" fill="#545555"/>
<path fill-rule="evenodd" clip-rule="evenodd" d="M169.671 52.1235C169.671 52.3824 169.89 52.5938 170.156 52.5938H176.767C177.034 52.5938 177.252 52.8059 177.252 53.0642V58.6853C177.252 58.9442 177.034 59.1557 176.767 59.1557H170.156C169.89 59.1557 169.671 59.3671 169.671 59.626V61.7162C169.671 61.9751 169.89 62.1866 170.156 62.1866H187.719C187.986 62.1866 188.205 61.9751 188.205 61.7162V59.626C188.205 59.3671 187.986 59.1557 187.719 59.1557H181.043C180.775 59.1557 180.557 58.9442 180.557 58.6853V53.0642C180.557 52.8059 180.775 52.5938 181.043 52.5938H187.719C187.986 52.5938 188.205 52.3824 188.205 52.1235V50.0026C188.205 49.7437 187.986 49.5322 187.719 49.5322H170.156C169.89 49.5322 169.671 49.7437 169.671 50.0026V52.1235Z" fill="#545555"/>
<path fill-rule="evenodd" clip-rule="evenodd" d="M181.753 41.3271C181.54 41.1714 181.54 40.917 181.754 40.7613L186.343 37.4213C186.556 37.2661 186.731 36.9274 186.731 36.6685V34.5968C186.731 34.3384 186.513 34.127 186.245 34.127H170.097C169.83 34.127 169.611 34.3384 169.611 34.5968V36.6702C169.611 36.9291 169.83 37.1406 170.097 37.1406H180.844C181.111 37.1406 181.292 37.1897 181.247 37.2505C181.202 37.3108 180.991 37.4871 180.777 37.6422L169.05 46.1419C168.837 46.297 168.797 46.5899 168.963 46.7919L170.344 48.4776C170.509 48.6801 170.82 48.7192 171.033 48.5635L178.319 43.261C178.533 43.1059 178.882 43.1059 179.095 43.2616L186.347 48.5629C186.56 48.7186 186.875 48.684 187.046 48.4859L188.478 46.8315C188.649 46.6329 188.616 46.3433 188.402 46.1876L181.753 41.3271Z" fill="#545555"/>
<path fill-rule="evenodd" clip-rule="evenodd" d="M95.5518 44.9973C95.5518 44.7384 95.77 44.5269 96.0371 44.5269H102.847C103.114 44.5269 103.333 44.7384 103.333 44.9973V50.6647C103.333 50.9236 103.114 51.135 102.847 51.135H96.0371C95.77 51.135 95.5518 50.9236 95.5518 50.6647V44.9973ZM106.624 44.9973C106.624 44.7384 106.843 44.5269 107.11 44.5269H114.648C114.916 44.5269 115.134 44.7384 115.134 44.9973V50.6647C115.134 50.9236 114.916 51.135 114.648 51.135H107.11C106.843 51.135 106.624 50.9236 106.624 50.6647V44.9973ZM118.935 59.671C118.935 59.4121 118.716 59.2006 118.449 59.2006H96.0371C95.77 59.2006 95.5518 58.9891 95.5518 58.7302V54.6765C95.5518 54.4176 95.77 54.2056 96.0371 54.2056H117.942C118.208 54.2056 118.426 53.9941 118.426 53.7358V41.9569C118.426 41.698 118.208 41.4865 117.942 41.4865H114.943C114.676 41.4865 114.508 41.2806 114.57 41.029L115.853 35.808C115.915 35.5563 115.747 35.3504 115.48 35.3504H112.283H111.313H97.0387C96.7716 35.3504 96.5857 35.1412 96.6254 34.8851L96.7106 34.3355C96.7503 34.0794 96.5644 33.8701 96.2978 33.8701H93.9752C93.7081 33.8701 93.4513 34.0782 93.4036 34.3327L92.7347 37.9037C92.6869 38.1582 92.8665 38.3669 93.1336 38.3669H95.4551H96.4262H111.313C111.579 38.3669 111.752 38.5739 111.697 38.8266L111.214 41.0262C111.158 41.2795 110.894 41.4865 110.627 41.4865H92.7122C92.4457 41.4865 92.2275 41.698 92.2275 41.9569V61.8002C92.2275 62.0591 92.4457 62.2706 92.7122 62.2706H118.449C118.716 62.2706 118.935 62.0591 118.935 61.8002V59.671Z" fill="#545555"/>
<path fill-rule="evenodd" clip-rule="evenodd" d="M158.348 58.9307C158.081 58.9307 157.862 59.1421 157.862 59.401V61.4912C157.862 61.7501 158.081 61.9622 158.348 61.9622H166.55C166.817 61.9622 167.036 61.7501 167.036 61.4912V59.401C167.036 59.1421 166.817 58.9307 166.55 58.9307H158.348Z" fill="#545555"/>
<path fill-rule="evenodd" clip-rule="evenodd" d="M65.1271 57.275C65.1271 57.5333 64.9083 57.7453 64.6412 57.7453H62.3681C62.101 57.7453 61.8828 57.5333 61.8828 57.275V55.071C61.8828 54.8121 62.101 54.6006 62.3681 54.6006H64.6412C64.9083 54.6006 65.1271 54.8121 65.1271 55.071V57.275Z" fill="#545555"/>
<path fill-rule="evenodd" clip-rule="evenodd" d="M81.5812 57.275C81.5812 57.5333 81.3624 57.7453 81.0953 57.7453H78.8222C78.5551 57.7453 78.3369 57.5333 78.3369 57.275V55.071C78.3369 54.8121 78.5551 54.6006 78.8222 54.6006H81.0953C81.3624 54.6006 81.5812 54.8121 81.5812 55.071V57.275Z" fill="#545555"/>
<path fill-rule="evenodd" clip-rule="evenodd" d="M163.516 52.8291C163.249 52.8291 163.103 52.6299 163.192 52.3855L165.897 44.9454C165.985 44.7016 165.839 44.5024 165.572 44.5029L162.934 44.5091C162.668 44.5096 162.377 44.7099 162.289 44.9543L158.51 55.4159C158.422 55.6602 158.568 55.86 158.835 55.86H166.55C166.817 55.86 167.035 55.648 167.035 55.3891V53.2994C167.035 53.0405 166.817 52.8291 166.55 52.8291H163.516Z" fill="#545555"/>
<path fill-rule="evenodd" clip-rule="evenodd" d="M162.115 42.5557C162.207 42.313 162.362 41.9174 162.461 41.6764L165.423 34.3892C165.521 34.1481 165.383 33.9512 165.116 33.9512H162.382C162.115 33.9512 161.821 34.1498 161.728 34.3925L158.031 44.0606C157.939 44.3033 158.081 44.5014 158.348 44.5014H160.889C161.156 44.5014 161.45 44.3028 161.543 44.06L162.115 42.5557Z" fill="#F29700"/>
</svg>
