<?xml version="1.0" encoding="UTF-8" standalone="no"?><svg xmlns="http://www.w3.org/2000/svg" xmlns:xlink="http://www.w3.org/1999/xlink" clip-rule="evenodd" stroke-miterlimit="4.00" viewBox="0 0 645 187"><desc>SVG generated by Keynote</desc><defs></defs><g transform="matrix(1.00, 0.00, -0.00, -1.00, 0.0, 187.0)"><text xml:space="preserve" font-family="TrebuchetMS" font-size="56.0" fill="#000000" transform="matrix(1.00, 0.00, -0.00, -1.00, 0.0, 143.0)">“</text><text xml:space="preserve" font-family="TrebuchetMS" font-size="56.0" fill="#000000" transform="matrix(1.00, 0.00, -0.00, -1.00, 29.4, 143.0)">A</text><text xml:space="preserve" font-family="TrebuchetMS" font-size="56.0" fill="#000000" transform="matrix(1.00, 0.00, -0.00, -1.00, 62.4, 143.0)">n</text><text xml:space="preserve" font-family="TrebuchetMS" font-size="56.0" fill="#000000" transform="matrix(1.00, 0.00, -0.00, -1.00, 93.0, 143.0)">y</text><text xml:space="preserve" font-family="TrebuchetMS" font-size="56.0" fill="#000000" transform="matrix(1.00, 0.00, -0.00, -1.00, 120.6, 143.0)">o</text><text xml:space="preserve" font-family="TrebuchetMS" font-size="56.0" fill="#000000" transform="matrix(1.00, 0.00, -0.00, -1.00, 150.7, 143.0)">n</text><text xml:space="preserve" font-family="TrebuchetMS" font-size="56.0" fill="#000000" transform="matrix(1.00, 0.00, -0.00, -1.00, 181.3, 143.0)">e</text><text xml:space="preserve" font-family="TrebuchetMS" font-size="56.0" fill="#000000" transform="matrix(1.00, 0.00, -0.00, -1.00, 211.8, 143.0)">-</text><text xml:space="preserve" font-family="TrebuchetMS" font-size="56.0" fill="#000000" transform="matrix(1.00, 0.00, -0.00, -1.00, 232.4, 143.0)">c</text><text xml:space="preserve" font-family="TrebuchetMS" font-size="56.0" fill="#000000" transform="matrix(1.00, 0.00, -0.00, -1.00, 260.2, 143.0)">a</text><text xml:space="preserve" font-family="TrebuchetMS" font-size="56.0" fill="#000000" transform="matrix(1.00, 0.00, -0.00, -1.00, 289.6, 143.0)">n</text><text xml:space="preserve" font-family="TrebuchetMS" font-size="56.0" fill="#000000" transform="matrix(1.00, 0.00, -0.00, -1.00, 320.2, 143.0)">-</text><text xml:space="preserve" font-family="TrebuchetMS" font-size="56.0" fill="#000000" transform="matrix(1.00, 0.00, -0.00, -1.00, 340.8, 143.0)">s</text><text xml:space="preserve" font-family="TrebuchetMS" font-size="56.0" fill="#000000" transform="matrix(1.00, 0.00, -0.00, -1.00, 363.5, 143.0)">p</text><text xml:space="preserve" font-family="TrebuchetMS" font-size="56.0" fill="#000000" transform="matrix(1.00, 0.00, -0.00, -1.00, 394.7, 143.0)">e</text><text xml:space="preserve" font-family="TrebuchetMS" font-size="56.0" fill="#000000" transform="matrix(1.00, 0.00, -0.00, -1.00, 425.3, 143.0)">n</text><text xml:space="preserve" font-family="TrebuchetMS" font-size="56.0" fill="#000000" transform="matrix(1.00, 0.00, -0.00, -1.00, 455.9, 143.0)">d</text><text xml:space="preserve" font-family="TrebuchetMS" font-size="56.0" fill="#000000" transform="matrix(1.00, 0.00, -0.00, -1.00, 487.1, 143.0)">”</text><text xml:space="preserve" font-family="TrebuchetMS" font-size="56.0" fill="#000000" transform="matrix(1.00, 0.00, -0.00, -1.00, 516.5, 143.0)"> </text><text xml:space="preserve" font-family="TrebuchetMS" font-size="56.0" fill="#000000" transform="matrix(1.00, 0.00, -0.00, -1.00, 0.0, 13.0)">P</text><text xml:space="preserve" font-family="TrebuchetMS" font-size="56.0" fill="#000000" transform="matrix(1.00, 0.00, -0.00, -1.00, 28.6, 13.0)">a</text><text xml:space="preserve" font-family="TrebuchetMS" font-size="56.0" fill="#000000" transform="matrix(1.00, 0.00, -0.00, -1.00, 58.0, 13.0)">y</text><text xml:space="preserve" font-family="TrebuchetMS" font-size="56.0" fill="#000000" transform="matrix(1.00, 0.00, -0.00, -1.00, 85.7, 13.0)">a</text><text xml:space="preserve" font-family="TrebuchetMS" font-size="56.0" fill="#000000" transform="matrix(1.00, 0.00, -0.00, -1.00, 115.2, 13.0)">b</text><text xml:space="preserve" font-family="TrebuchetMS" font-size="56.0" fill="#000000" transform="matrix(1.00, 0.00, -0.00, -1.00, 146.3, 13.0)">l</text><text xml:space="preserve" font-family="TrebuchetMS" font-size="56.0" fill="#000000" transform="matrix(1.00, 0.00, -0.00, -1.00, 162.8, 13.0)">e</text><text xml:space="preserve" font-family="TrebuchetMS" font-size="56.0" fill="#000000" transform="matrix(1.00, 0.00, -0.00, -1.00, 193.4, 13.0)"> </text><text xml:space="preserve" font-family="TrebuchetMS" font-size="56.0" fill="#000000" transform="matrix(1.00, 0.00, -0.00, -1.00, 210.3, 13.0)">t</text><text xml:space="preserve" font-family="TrebuchetMS" font-size="56.0" fill="#000000" transform="matrix(1.00, 0.00, -0.00, -1.00, 232.6, 13.0)">o</text><text xml:space="preserve" font-family="TrebuchetMS" font-size="56.0" fill="#000000" transform="matrix(1.00, 0.00, -0.00, -1.00, 262.6, 13.0)"> </text><text xml:space="preserve" font-family="TrebuchetMS" font-size="56.0" fill="#000000" transform="matrix(1.00, 0.00, -0.00, -1.00, 279.5, 13.0)">b</text><text xml:space="preserve" font-family="TrebuchetMS" font-size="56.0" fill="#000000" transform="matrix(1.00, 0.00, -0.00, -1.00, 310.7, 13.0)">e</text><text xml:space="preserve" font-family="TrebuchetMS" font-size="56.0" fill="#000000" transform="matrix(1.00, 0.00, -0.00, -1.00, 341.3, 13.0)">a</text><text xml:space="preserve" font-family="TrebuchetMS" font-size="56.0" fill="#000000" transform="matrix(1.00, 0.00, -0.00, -1.00, 370.7, 13.0)">r</text><text xml:space="preserve" font-family="TrebuchetMS" font-size="56.0" fill="#000000" transform="matrix(1.00, 0.00, -0.00, -1.00, 392.5, 13.0)">e</text><text xml:space="preserve" font-family="TrebuchetMS" font-size="56.0" fill="#000000" transform="matrix(1.00, 0.00, -0.00, -1.00, 423.1, 13.0)">r</text><text xml:space="preserve" font-family="TrebuchetMS" font-size="56.0" fill="#000000" transform="matrix(1.00, 0.00, -0.00, -1.00, 444.8, 13.0)"> </text><text xml:space="preserve" font-family="TrebuchetMS" font-size="56.0" fill="#000000" transform="matrix(1.00, 0.00, -0.00, -1.00, 461.7, 13.0)">c</text><text xml:space="preserve" font-family="TrebuchetMS" font-size="56.0" fill="#000000" transform="matrix(1.00, 0.00, -0.00, -1.00, 489.4, 13.0)">h</text><text xml:space="preserve" font-family="TrebuchetMS" font-size="56.0" fill="#000000" transform="matrix(1.00, 0.00, -0.00, -1.00, 520.1, 13.0)">e</text><text xml:space="preserve" font-family="TrebuchetMS" font-size="56.0" fill="#000000" transform="matrix(1.00, 0.00, -0.00, -1.00, 550.7, 13.0)">q</text><text xml:space="preserve" font-family="TrebuchetMS" font-size="56.0" fill="#000000" transform="matrix(1.00, 0.00, -0.00, -1.00, 581.8, 13.0)">u</text><text xml:space="preserve" font-family="TrebuchetMS" font-size="56.0" fill="#000000" transform="matrix(1.00, 0.00, -0.00, -1.00, 612.5, 13.0)">e</text></g></svg>