<?xml version="1.0" encoding="UTF-8" standalone="no"?><svg xmlns="http://www.w3.org/2000/svg" xmlns:xlink="http://www.w3.org/1999/xlink" clip-rule="evenodd" stroke-miterlimit="4.00" viewBox="0 0 1960 1080"><desc>SVG generated by Keynote</desc><defs></defs><g transform="matrix(1.00, 0.00, -0.00, -1.00, 0.0, 1080.0)"><path d="M 0.0 1080.0 L 1960.0 1080.0 L 1960.0 0.0 L 0.0 0.0 Z M 0.0 1080.0 " fill="#FFFFFF"></path><text xml:space="preserve" font-family="Helvetica-Light" font-size="84.5" fill="#000000" transform="matrix(1.00, 0.00, -0.00, -1.00, 90.0, 981.0)">B</text><text xml:space="preserve" font-family="Helvetica-Light" font-size="84.5" fill="#000000" transform="matrix(1.00, 0.00, -0.00, -1.00, 146.3, 981.0)">r</text><text xml:space="preserve" font-family="Helvetica-Light" font-size="84.5" fill="#000000" transform="matrix(1.00, 0.00, -0.00, -1.00, 173.0, 981.0)">e</text><text xml:space="preserve" font-family="Helvetica-Light" font-size="84.5" fill="#000000" transform="matrix(1.00, 0.00, -0.00, -1.00, 219.9, 981.0)">a</text><text xml:space="preserve" font-family="Helvetica-Light" font-size="84.5" fill="#000000" transform="matrix(1.00, 0.00, -0.00, -1.00, 266.9, 981.0)">k</text><text xml:space="preserve" font-family="Helvetica-Light" font-size="84.5" fill="#000000" transform="matrix(1.00, 0.00, -0.00, -1.00, 309.1, 981.0)">i</text><text xml:space="preserve" font-family="Helvetica-Light" font-size="84.5" fill="#000000" transform="matrix(1.00, 0.00, -0.00, -1.00, 327.9, 981.0)">n</text><text xml:space="preserve" font-family="Helvetica-Light" font-size="84.5" fill="#000000" transform="matrix(1.00, 0.00, -0.00, -1.00, 374.9, 981.0)">g</text><text xml:space="preserve" font-family="Helvetica-Light" font-size="84.5" fill="#000000" transform="matrix(1.00, 0.00, -0.00, -1.00, 426.5, 981.0)"> </text><text xml:space="preserve" font-family="Helvetica-Light" font-size="84.5" fill="#000000" transform="matrix(1.00, 0.00, -0.00, -1.00, 450.0, 981.0)">u</text><text xml:space="preserve" font-family="Helvetica-Light" font-size="84.5" fill="#000000" transform="matrix(1.00, 0.00, -0.00, -1.00, 496.9, 981.0)">n</text><text xml:space="preserve" font-family="Helvetica-Light" font-size="84.5" fill="#000000" transform="matrix(1.00, 0.00, -0.00, -1.00, 543.9, 981.0)">c</text><text xml:space="preserve" font-family="Helvetica-Light" font-size="84.5" fill="#000000" transform="matrix(1.00, 0.00, -0.00, -1.00, 590.9, 981.0)">o</text><text xml:space="preserve" font-family="Helvetica-Light" font-size="84.5" fill="#000000" transform="matrix(1.00, 0.00, -0.00, -1.00, 637.9, 981.0)">n</text><text xml:space="preserve" font-family="Helvetica-Light" font-size="84.5" fill="#000000" transform="matrix(1.00, 0.00, -0.00, -1.00, 684.8, 981.0)">f</text><text xml:space="preserve" font-family="Helvetica-Light" font-size="84.5" fill="#000000" transform="matrix(1.00, 0.00, -0.00, -1.00, 708.3, 981.0)">i</text><text xml:space="preserve" font-family="Helvetica-Light" font-size="84.5" fill="#000000" transform="matrix(1.00, 0.00, -0.00, -1.00, 727.1, 981.0)">r</text><text xml:space="preserve" font-family="Helvetica-Light" font-size="84.5" fill="#000000" transform="matrix(1.00, 0.00, -0.00, -1.00, 756.7, 981.0)">m</text><text xml:space="preserve" font-family="Helvetica-Light" font-size="84.5" fill="#000000" transform="matrix(1.00, 0.00, -0.00, -1.00, 827.1, 981.0)">e</text><text xml:space="preserve" font-family="Helvetica-Light" font-size="84.5" fill="#000000" transform="matrix(1.00, 0.00, -0.00, -1.00, 874.1, 981.0)">d</text><text xml:space="preserve" font-family="Helvetica-Light" font-size="84.5" fill="#000000" transform="matrix(1.00, 0.00, -0.00, -1.00, 925.7, 981.0)"> </text><text xml:space="preserve" font-family="Helvetica-Light" font-size="84.5" fill="#000000" transform="matrix(1.00, 0.00, -0.00, -1.00, 949.2, 981.0)">t</text><text xml:space="preserve" font-family="Helvetica-Light" font-size="84.5" fill="#000000" transform="matrix(1.00, 0.00, -0.00, -1.00, 972.6, 981.0)">x</text><text xml:space="preserve" font-family="Helvetica-Light" font-size="84.5" fill="#000000" transform="matrix(1.00, 0.00, -0.00, -1.00, 1014.9, 981.0)"> </text><text xml:space="preserve" font-family="Helvetica-Light" font-size="84.5" fill="#000000" transform="matrix(1.00, 0.00, -0.00, -1.00, 1038.4, 981.0)">c</text><text xml:space="preserve" font-family="Helvetica-Light" font-size="84.5" fill="#000000" transform="matrix(1.00, 0.00, -0.00, -1.00, 1085.3, 981.0)">h</text><text xml:space="preserve" font-family="Helvetica-Light" font-size="84.5" fill="#000000" transform="matrix(1.00, 0.00, -0.00, -1.00, 1132.3, 981.0)">a</text><text xml:space="preserve" font-family="Helvetica-Light" font-size="84.5" fill="#000000" transform="matrix(1.00, 0.00, -0.00, -1.00, 1179.3, 981.0)">i</text><text xml:space="preserve" font-family="Helvetica-Light" font-size="84.5" fill="#000000" transform="matrix(1.00, 0.00, -0.00, -1.00, 1198.0, 981.0)">n</text><text xml:space="preserve" font-family="Helvetica-Light" font-size="84.5" fill="#000000" transform="matrix(1.00, 0.00, -0.00, -1.00, 1245.0, 981.0)"> </text><text xml:space="preserve" font-family="Helvetica-Light" font-size="84.5" fill="#000000" transform="matrix(1.00, 0.00, -0.00, -1.00, 1268.5, 981.0)">w</text><text xml:space="preserve" font-family="Helvetica-Light" font-size="84.5" fill="#000000" transform="matrix(1.00, 0.00, -0.00, -1.00, 1329.5, 981.0)">i</text><text xml:space="preserve" font-family="Helvetica-Light" font-size="84.5" fill="#000000" transform="matrix(1.00, 0.00, -0.00, -1.00, 1348.2, 981.0)">t</text><text xml:space="preserve" font-family="Helvetica-Light" font-size="84.5" fill="#000000" transform="matrix(1.00, 0.00, -0.00, -1.00, 1371.7, 981.0)">h</text><text xml:space="preserve" font-family="Helvetica-Light" font-size="84.5" fill="#000000" transform="matrix(1.00, 0.00, -0.00, -1.00, 1418.7, 981.0)"> </text><text xml:space="preserve" font-family="Helvetica-Light" font-size="84.5" fill="#000000" transform="matrix(1.00, 0.00, -0.00, -1.00, 1442.2, 981.0)">t</text><text xml:space="preserve" font-family="Helvetica-Light" font-size="84.5" fill="#000000" transform="matrix(1.00, 0.00, -0.00, -1.00, 1465.7, 981.0)">x</text><text xml:space="preserve" font-family="Helvetica-Light" font-size="84.5" fill="#000000" transform="matrix(1.00, 0.00, -0.00, -1.00, 1507.9, 981.0)"> </text><text xml:space="preserve" font-family="Helvetica-Light" font-size="84.5" fill="#000000" transform="matrix(1.00, 0.00, -0.00, -1.00, 90.0, 890.0)">m</text><text xml:space="preserve" font-family="Helvetica-Light" font-size="84.5" fill="#000000" transform="matrix(1.00, 0.00, -0.00, -1.00, 160.4, 890.0)">a</text><text xml:space="preserve" font-family="Helvetica-Light" font-size="84.5" fill="#000000" transform="matrix(1.00, 0.00, -0.00, -1.00, 207.3, 890.0)">l</text><text xml:space="preserve" font-family="Helvetica-Light" font-size="84.5" fill="#000000" transform="matrix(1.00, 0.00, -0.00, -1.00, 226.1, 890.0)">l</text><text xml:space="preserve" font-family="Helvetica-Light" font-size="84.5" fill="#000000" transform="matrix(1.00, 0.00, -0.00, -1.00, 244.9, 890.0)">e</text><text xml:space="preserve" font-family="Helvetica-Light" font-size="84.5" fill="#000000" transform="matrix(1.00, 0.00, -0.00, -1.00, 291.8, 890.0)">a</text><text xml:space="preserve" font-family="Helvetica-Light" font-size="84.5" fill="#000000" transform="matrix(1.00, 0.00, -0.00, -1.00, 338.8, 890.0)">b</text><text xml:space="preserve" font-family="Helvetica-Light" font-size="84.5" fill="#000000" transform="matrix(1.00, 0.00, -0.00, -1.00, 390.4, 890.0)">i</text><text xml:space="preserve" font-family="Helvetica-Light" font-size="84.5" fill="#000000" transform="matrix(1.00, 0.00, -0.00, -1.00, 409.2, 890.0)">l</text><text xml:space="preserve" font-family="Helvetica-Light" font-size="84.5" fill="#000000" transform="matrix(1.00, 0.00, -0.00, -1.00, 427.9, 890.0)">i</text><text xml:space="preserve" font-family="Helvetica-Light" font-size="84.5" fill="#000000" transform="matrix(1.00, 0.00, -0.00, -1.00, 446.7, 890.0)">t</text><text xml:space="preserve" font-family="Helvetica-Light" font-size="84.5" fill="#000000" transform="matrix(1.00, 0.00, -0.00, -1.00, 470.2, 890.0)">y</text><image xlink:href="../../70B58C24-A744-4330-8540-15FA700A246D/assets/B01E19E660208FA7AA95034CEFC78722.png" width="647.00" height="241.00" transform="matrix(1.00, 0.00, -0.00, -1.00, 449.0, 902.0)"></image><image xlink:href="../../70B58C24-A744-4330-8540-15FA700A246D/assets/D1FD28564D96C216BB5F294B65EEC63D.png" width="647.00" height="256.00" transform="matrix(1.00, 0.00, -0.00, -1.00, 782.0, 693.0)"></image><image xlink:href="../../70B58C24-A744-4330-8540-15FA700A246D/assets/D1ADC9407D18921E7A7AA982BDFB4561.png" width="647.00" height="258.00" transform="matrix(1.00, 0.00, -0.00, -1.00, 1034.0, 486.0)"></image><image xlink:href="../../70B58C24-A744-4330-8540-15FA700A246D/assets/E3C29414BF769378D76820B20204A7FF.png" width="648.00" height="259.00" transform="matrix(1.00, 0.00, -0.00, -1.00, 1252.0, 281.0)"></image><image xlink:href="../../3A080AC0-A7CC-48A0-9C02-8169B8E8404B/assets/FA9C57203F27B5A9E69B2202F9C56107.png" width="647.00" height="256.00" transform="matrix(1.00, 0.00, -0.00, -1.00, 101.0, 693.0)"></image><text xml:space="preserve" font-family="LucidaGrande" font-size="192.0" fill="#FF0000" transform="matrix(1.00, 0.00, -0.00, -1.00, 323.0, 463.0)">✓</text><text xml:space="preserve" font-family="ZapfDingbatsITC" font-size="192.0" fill="#FF0000" transform="matrix(1.00, 0.00, -0.00, -1.00, 1090.0, 524.0)">✗</text><text xml:space="preserve" font-family="ZapfDingbatsITC" font-size="192.0" fill="#FF0000" transform="matrix(1.00, 0.00, -0.00, -1.00, 1331.0, 326.0)">✗</text><text xml:space="preserve" font-family="ZapfDingbatsITC" font-size="192.0" fill="#FF0000" transform="matrix(1.00, 0.00, -0.00, -1.00, 1555.0, 137.0)">✗</text><text xml:space="preserve" font-family="LucidaGrande" font-size="192.0" fill="#FF0000" transform="matrix(1.00, 0.00, -0.00, -1.00, 698.0, 691.0)">✓</text></g></svg>