<svg width="16" height="16" viewBox="0 0 16 16" fill="none" xmlns="http://www.w3.org/2000/svg">
<g clip-path="url(#clip0)">
<path d="M2.286 15.9997C3.54852 15.9997 4.572 14.9763 4.572 13.7137C4.572 12.4512 3.54852 11.4277 2.286 11.4277C1.02348 11.4277 0 12.4512 0 13.7137C0 14.9763 1.02348 15.9997 2.286 15.9997Z" fill="#EEEEEE"/>
<path d="M7.61933 15.9997H10.666C10.666 10.119 5.88067 5.33367 0 5.33301V8.38101C4.20133 8.38167 7.61933 11.7983 7.61933 15.9997Z" fill="#EEEEEE"/>
<path d="M16 16C16 7.17733 8.82267 0 0 0V3.04733C7.14267 3.04733 12.9533 8.85667 12.9533 16H16Z" fill="#EEEEEE"/>
</g>
<defs>
<clipPath id="clip0">
<rect width="16" height="16" fill="white"/>
</clipPath>
</defs>
</svg>
