<svg width="64" height="64" viewBox="0 0 64 64" fill="none" xmlns="http://www.w3.org/2000/svg">
<path d="M61.3464 37.3334L63.9505 17.8113C63.9844 17.5495 64 17.2853 64 17.0209C64 14.895 62.9411 13.021 61.3334 11.8669V5.33337C61.3334 2.39188 58.9401 0 56 0H8C5.05988 0 2.66663 2.39188 2.66663 5.33337V11.8669C1.05887 13.021 0 14.895 0 17.0209C0 17.2853 0.015625 17.5495 0.0495 17.819L2.65363 37.3334L0.0495 56.8555C0.015625 57.1172 0 57.3815 0 57.6459C0 61.1497 2.85162 64 6.35413 64H57.6457C61.1485 64 64 61.1497 64 57.6459C64 57.3815 63.9844 57.1173 63.9505 56.8478L61.3464 37.3334ZM32 44C32 48.4115 28.4115 52 24 52C19.5885 52 16 48.4115 16 44C16 43.263 16.5964 42.6666 17.3334 42.6666C18.0704 42.6666 18.6667 43.263 18.6667 44C18.6667 46.9414 21.06 49.3334 24.0001 49.3334C26.9403 49.3334 29.3335 46.9415 29.3335 44C29.3335 41.0585 26.9401 38.6666 24 38.6666C23.263 38.6666 22.6666 38.0702 22.6666 37.3332C22.6666 36.5962 23.263 35.9999 24 35.9999C26.9401 35.9999 29.3334 33.608 29.3334 30.6665C29.3334 27.725 26.9401 25.3334 24 25.3334C21.0599 25.3334 18.6666 27.7253 18.6666 30.6667C18.6666 31.4037 18.0702 32.0001 17.3333 32.0001C16.5963 32.0001 15.9999 31.4037 15.9999 30.6667C15.9999 26.2552 19.5884 22.6667 23.9999 22.6667C28.4114 22.6667 31.9999 26.2552 31.9999 30.6667C31.9999 33.4497 30.5681 35.8999 28.406 37.3334C30.5683 38.7669 32 41.217 32 44ZM48 50.6666C48 51.4036 47.4036 52 46.6666 52C45.9296 52 45.3332 51.4036 45.3332 50.6666V26.4909L39.4061 30.4428C38.7967 30.8464 37.966 30.685 37.5571 30.073C37.1483 29.4597 37.3149 28.6329 37.9269 28.224L45.9269 22.8906C46.3384 22.6185 46.8617 22.5925 47.2966 22.8242C47.7289 23.056 47.9997 23.5079 47.9997 24V50.6666H48ZM56 10.6666H8V5.33337H56V10.6666Z" fill="#515151"/>
</svg>
