<svg width="24" height="24" viewBox="0 0 24 24" fill="none" xmlns="http://www.w3.org/2000/svg">
<g clip-path="url(#clip0)">
<path d="M3.75 14.9999H6.24994C6.66394 14.9999 6.99994 14.6639 6.99994 14.2499V11.75C6.99994 11.336 6.66394 11 6.24994 11H3.75C3.336 11 3 11.336 3 11.75V14.2499C3 14.6639 3.336 14.9999 3.75 14.9999Z" fill="#515151"/>
<path d="M3.75 20.9999H6.24994C6.66394 20.9999 6.99994 20.6639 6.99994 20.2499V17.75C6.99994 17.336 6.66394 17 6.24994 17H3.75C3.336 17 3 17.336 3 17.75V20.2499C3 20.6639 3.336 20.9999 3.75 20.9999Z" fill="#515151"/>
<path d="M10.75 14.9999H13.2501C13.6641 14.9999 14.0001 14.6639 14.0001 14.2499V11.75C14.0001 11.336 13.6641 11 13.2501 11H10.75C10.336 11 10 11.336 10 11.75V14.2499C10 14.6639 10.336 14.9999 10.75 14.9999Z" fill="#515151"/>
<path d="M10.75 20.9999H13.2501C13.6641 20.9999 14.0001 20.6639 14.0001 20.2499V17.75C14.0001 17.336 13.6641 17 13.2501 17H10.75C10.336 17 10 17.336 10 17.75V20.2499C10 20.6639 10.336 20.9999 10.75 20.9999Z" fill="#515151"/>
<path d="M17.75 14.9999H20.2499C20.6639 14.9999 20.9999 14.6639 20.9999 14.2499V11.75C20.9999 11.336 20.6639 11 20.2499 11H17.75C17.336 11 17 11.336 17 11.75V14.2499C17 14.6639 17.336 14.9999 17.75 14.9999Z" fill="#515151"/>
<path d="M21 3H20.0001V0.999939C20.0001 0.448059 19.552 0 18.9999 0H18C17.4479 0 17.0001 0.448059 17.0001 0.999939V3H6.99994V0.999939C6.99994 0.448059 6.55206 0 6 0H5.00006C4.448 0 3.99994 0.448059 3.99994 0.999939V3H3C1.34601 3 0 4.34601 0 6V21C0 22.654 1.34601 24 3 24H21C22.654 24 24 22.654 24 21V6C24 4.34601 22.654 3 21 3ZM21.9999 21C21.9999 21.551 21.551 21.9999 21 21.9999H3C2.44904 21.9999 2.00006 21.551 2.00006 21V10.04H21.9999V21Z" fill="#515151"/>
</g>
<defs>
<clipPath id="clip0">
<rect width="24" height="24" fill="white"/>
</clipPath>
</defs>
</svg>
