<svg width="64" height="54" viewBox="0 0 64 54" fill="none" xmlns="http://www.w3.org/2000/svg">
<path d="M30.2772 5.91686C27.2265 6.0982 23.1625 0.314198 16.3012 3.06353C9.73317 5.69553 9.20783 10.6689 2.0665 33.9249C0.397168 39.3649 -1.45883 43.4609 1.80783 47.6689C4.55183 51.2049 9.45317 52.0075 13.4532 50.0022C14.4878 49.4849 15.2638 48.1862 16.3012 46.6315C17.1438 44.9409 27.4292 18.1169 27.4292 18.1062C28.6292 15.6982 33.2798 15.9675 32.6052 20.6982C32.6052 22.2475 25.3572 39.5435 25.3572 40.4075C24.4852 46.5169 32.5065 47.1195 34.9332 41.4449C35.1918 41.1862 36.2265 38.8529 38.2985 34.7035C48.4612 14.3382 44.6318 22.2715 47.6158 16.2902C48.6505 14.9942 49.6852 14.2155 50.4638 14.2155C51.7572 14.2155 52.5332 15.2529 52.2745 17.0689C52.2745 19.1542 44.6158 32.8289 42.4398 39.3702C41.3492 44.8342 44.1865 49.7089 48.9092 52.3355C50.3758 53.3142 59.2878 54.9729 62.1092 52.8529C65.0505 51.8715 64.2238 47.6235 61.8505 47.1489C59.2692 45.8555 57.9998 46.9542 54.6025 45.5942C47.1332 42.5995 63.8585 17.8662 62.8878 10.0662C62.1118 5.1382 59.5225 2.80487 54.3465 2.5462C51.2638 2.5462 50.9305 3.94887 49.4318 3.78353C47.9332 3.6182 44.8212 0.0608652 40.3758 0.116865C35.9305 0.172865 32.6772 5.77287 30.2772 5.91686Z" fill="#515151"/>
</svg>
