<svg width="64" height="54" viewBox="0 0 64 54" fill="none" xmlns="http://www.w3.org/2000/svg">
<path d="M23.8764 53.2553C21.1088 53.2553 18.2602 53.0312 15.3945 52.582C10.3471 51.79 5.23777 49.1498 3.79198 48.3593L0 46.2861L4.10545 44.936C8.59323 43.4604 11.3232 42.5448 14.7026 41.1113C11.3188 39.4726 8.7109 36.5248 7.45554 32.7143L6.50046 29.8149L7.28366 29.9345C6.54099 29.186 5.95457 28.4262 5.49998 27.7353C3.88329 25.2797 3.02733 22.2792 3.20946 19.7079L3.38915 17.1772L4.90428 17.7641C4.26512 16.5571 3.80321 15.268 3.53172 13.9169C2.87011 10.622 3.42381 7.12151 5.09129 4.06047L6.41111 1.63762L8.17624 3.75774C13.7587 10.4638 20.8295 14.4418 29.2216 15.6064C28.8788 13.2436 29.1356 10.9633 29.9857 8.91936C30.9755 6.53948 32.7362 4.52141 35.076 3.08294C37.6747 1.48577 40.826 0.711842 43.9495 0.903736C47.2635 1.10735 50.2723 2.34905 52.6619 4.497C53.8289 4.19378 54.6888 3.87004 55.8509 3.43254C56.5501 3.16936 57.343 2.87053 58.3352 2.52874L61.9915 1.26897L59.6072 8.07854C59.7644 8.06536 59.9265 8.05413 60.096 8.0468L64.0002 7.87004L61.6926 11.0239C61.5603 11.2045 61.5266 11.2558 61.4797 11.3266C61.2937 11.6069 61.0623 11.9555 57.8948 16.185C57.1018 17.2441 56.7058 18.6235 56.7796 20.0698C57.0603 25.5658 56.386 30.5385 54.7742 34.849C53.2498 38.9272 50.8875 42.4262 47.7537 45.249C43.8758 48.7411 38.931 51.1323 33.056 52.3549C30.1742 52.9545 27.0795 53.2553 23.8764 53.2553Z" fill="#515151"/>
</svg>
