<svg width="24" height="20" viewBox="0 0 24 20" fill="none" xmlns="http://www.w3.org/2000/svg">
<path d="M21.534 5.113C22.51 4.42 23.331 3.555 24 2.559V2.558C23.107 2.949 22.157 3.209 21.165 3.335C22.185 2.726 22.964 1.769 23.33 0.616C22.379 1.183 21.329 1.583 20.21 1.807C19.307 0.845 18.02 0.25 16.616 0.25C13.892 0.25 11.699 2.461 11.699 5.171C11.699 5.561 11.732 5.936 11.813 6.293C7.723 6.093 4.103 4.133 1.671 1.146C1.247 1.883 0.997 2.726 0.997 3.633C0.997 5.337 1.874 6.847 3.183 7.722C2.392 7.707 1.617 7.477 0.96 7.116V7.17C0.96 9.561 2.665 11.547 4.902 12.005C4.501 12.115 4.065 12.167 3.612 12.167C3.297 12.167 2.979 12.149 2.681 12.083C3.318 14.031 5.128 15.464 7.278 15.511C5.604 16.82 3.478 17.609 1.177 17.609C0.774 17.609 0.387 17.591 0 17.542C2.18 18.947 4.762 19.75 7.548 19.75C16.231 19.75 21.89 12.506 21.534 5.113Z" fill="white"/>
</svg>
