<svg width="200" height="80" viewBox="0 0 200 80" fill="none" xmlns="http://www.w3.org/2000/svg">
<path fill-rule="evenodd" clip-rule="evenodd" d="M49.5185 50.1503L47.75 51.1708V71.487V73.5207L49.5185 72.5005L51.2874 71.487V49.1367L49.5185 50.1503Z" fill="#1A2E33"/>
<path fill-rule="evenodd" clip-rule="evenodd" d="M15.9165 10.5391L14.1476 11.5526L12.3721 12.5721L14.1476 13.593L31.8329 23.7474L33.6011 22.7272L35.3696 21.7137L15.9235 10.5391H15.9165Z" fill="#1A2E33"/>
<mask id="mask0" mask-type="alpha" maskUnits="userSpaceOnUse" x="15" y="0" width="56" height="72">
<path d="M15.9238 0H70.7399V71.4875H15.9238V0Z" fill="white"/>
</mask>
<g mask="url(#mask0)">
<path fill-rule="evenodd" clip-rule="evenodd" d="M33.328 0.544174L15.9238 10.5393L35.3703 21.7139L51.2864 30.8555V49.1372V71.4875L68.6983 61.4854C69.9612 60.7595 70.7399 59.4183 70.7399 57.9668V22.0329C70.7399 20.5814 69.9612 19.2402 68.698 18.5146L37.4123 0.544174C36.1487 -0.181391 34.5917 -0.181391 33.328 0.544174Z" fill="#00D1B0"/>
</g>
<mask id="mask1" mask-type="alpha" maskUnits="userSpaceOnUse" x="0" y="12" width="48" height="68">
<path d="M0 12.5723H47.7493V79.9995H0V12.5723Z" fill="white"/>
</mask>
<g mask="url(#mask1)">
<path fill-rule="evenodd" clip-rule="evenodd" d="M0 22.031V57.9664C0 59.4178 0.778671 60.759 2.04231 61.4846L33.3283 79.455C34.592 80.181 36.1486 80.181 37.4119 79.4554L47.7493 73.5204V71.4867V51.1705L35.3699 58.278L19.4535 49.1368V30.8547L31.8332 23.7472L14.1486 13.5924L12.3727 12.5723L2.04056 18.5138C0.777972 19.2397 0 20.5806 0 22.031Z" fill="#404F54"/>
</g>
<path fill-rule="evenodd" clip-rule="evenodd" d="M163.755 51.2257L161.461 50.6194L152.43 27.2167C152.054 26.2424 151.114 25.5996 150.065 25.5996H149.886H147.032H143.373C143.093 25.5996 142.866 25.825 142.866 26.1033V28.2173C142.866 28.4782 143.042 28.7064 143.296 28.7735L145.573 29.3794L137.378 50.6194L135.082 51.2257C134.829 51.2928 134.652 51.5214 134.652 51.7826V53.8953C134.652 54.1739 134.879 54.3996 135.159 54.3996H135.919H140.631H144.423C144.703 54.3996 144.93 54.1742 144.93 53.8956V51.7871C144.93 51.5234 144.75 51.2939 144.494 51.2292L142.089 50.6194L144.006 45.6525H154.832L156.749 50.6194L154.345 51.2292C154.088 51.2939 153.909 51.5234 153.909 51.7871V53.8953C153.909 54.1739 154.135 54.3996 154.415 54.3996H158.208H162.919H163.68C163.959 54.3996 164.186 54.1742 164.186 53.8956V51.7826C164.186 51.5214 164.009 51.2928 163.755 51.2257ZM145.429 41.9666L149.351 31.7996H149.487L153.41 41.9666H145.429Z" fill="#404F54"/>
<path fill-rule="evenodd" clip-rule="evenodd" d="M107.886 51.2257L105.591 50.6194L96.5602 27.2167C96.184 26.2424 95.2438 25.5996 94.1948 25.5996H94.0168H91.1623H87.5029C87.2228 25.5996 86.9959 25.8253 86.9959 26.1036V28.2173C86.9959 28.4782 87.1721 28.7064 87.4252 28.7735L89.7039 29.3794L81.5077 50.6194L79.2126 51.2257C78.9588 51.2928 78.7822 51.5214 78.7822 51.7826V53.8953C78.7822 54.1739 79.0091 54.3996 79.2889 54.3996H80.049H84.7612H88.5532C88.8333 54.3996 89.0602 54.1739 89.0602 53.8953V51.7871C89.0602 51.5234 88.8805 51.2939 88.6238 51.2292L86.2196 50.6194L88.1361 45.6525H98.9626L100.879 50.6194L98.4745 51.2292C98.2182 51.2939 98.0385 51.5234 98.0385 51.7871V53.8953C98.0385 54.1739 98.2654 54.3996 98.5455 54.3996H102.338H107.049H107.81C108.09 54.3996 108.316 54.1739 108.316 53.8953V51.7826C108.316 51.5214 108.14 51.2928 107.886 51.2257ZM89.5588 41.9666L93.4819 31.7996H93.6168L97.5399 41.9666H89.5588Z" fill="#404F54"/>
<path fill-rule="evenodd" clip-rule="evenodd" d="M121.312 25.5996H119.896H113.095H110.487C110.207 25.5996 109.98 25.825 109.98 26.1033V28.2027C109.98 28.4702 110.166 28.7026 110.428 28.7634L113.08 29.3794C113.089 29.4987 113.095 29.5707 113.095 29.5707V50.4285C113.095 50.4285 113.089 50.5001 113.08 50.6194L110.428 51.2354C110.166 51.2967 109.98 51.5287 109.98 51.7965V53.8956C109.98 54.1739 110.207 54.3996 110.487 54.3996H113.095H119.896H122.482C130.344 54.3996 136.029 49.0243 136.029 40.12C136.029 30.8542 129.821 25.5996 121.312 25.5996ZM120.949 50.4285H117.731V29.5707H120.707C127.562 29.5707 131.15 33.3815 131.15 40.2003C131.15 47.2598 127.481 50.3881 120.949 50.4285Z" fill="#404F54"/>
<mask id="mask2" mask-type="alpha" maskUnits="userSpaceOnUse" x="165" y="25" width="35" height="30">
<path d="M165.851 25.5996H199.826V54.3996H165.851V25.5996Z" fill="white"/>
</mask>
<g mask="url(#mask2)">
<path fill-rule="evenodd" clip-rule="evenodd" d="M192.075 32.3961V50.6198L189.831 51.2247C189.579 51.2925 189.403 51.5203 189.403 51.7805V53.896C189.403 54.1742 189.63 54.3996 189.91 54.3996H199.319C199.599 54.3996 199.826 54.1739 199.826 53.8956V51.7972C199.826 51.5294 199.64 51.2967 199.378 51.2365L196.712 50.6198V29.5707C196.712 29.5707 196.718 29.4991 196.729 29.3798L199.379 28.7638C199.64 28.7029 199.826 28.4702 199.826 28.2027V26.104C199.826 25.8253 199.599 25.5996 199.319 25.5996H196.761H194.558H194.253H194.022H191.811C190.912 25.5996 190.107 26.1509 189.784 26.9857L182.906 44.8111H182.771L175.892 26.9857C175.57 26.1509 174.764 25.5996 173.865 25.5996H171.655H171.424H171.118H168.916H166.357C166.078 25.5996 165.851 25.8253 165.851 26.104V28.2027C165.851 28.4702 166.036 28.7029 166.298 28.7638L168.948 29.3798C168.958 29.4991 168.965 29.5707 168.965 29.5707V50.6198L166.298 51.2365C166.036 51.2967 165.851 51.5294 165.851 51.7972V53.8956C165.851 54.1739 166.078 54.3996 166.357 54.3996H175.766C176.046 54.3996 176.273 54.1739 176.273 53.8956V51.7805C176.273 51.5203 176.098 51.2925 175.845 51.2247L173.601 50.6198V32.3961H173.741L180.718 50.4786C181.464 52.4107 184.212 52.4107 184.958 50.4786L191.936 32.3961H192.075Z" fill="#404F54"/>
</g>
</svg>
