<?xml version="1.0" encoding="UTF-8" standalone="no"?><svg xmlns="http://www.w3.org/2000/svg" xmlns:xlink="http://www.w3.org/1999/xlink" clip-rule="evenodd" stroke-miterlimit="4.00" viewBox="0 0 1960 1080"><desc>SVG generated by Keynote</desc><defs></defs><g transform="matrix(1.00, 0.00, -0.00, -1.00, 0.0, 1080.0)"><path d="M 0.0 1080.0 L 1960.0 1080.0 L 1960.0 0.0 L 0.0 0.0 Z M 0.0 1080.0 " fill="#FFFFFF"></path><text xml:space="preserve" font-family="Helvetica-Light" font-size="88.0" fill="#000000" transform="matrix(1.00, 0.00, -0.00, -1.00, 172.0, 940.0)">B</text><text xml:space="preserve" font-family="Helvetica-Light" font-size="88.0" fill="#000000" transform="matrix(1.00, 0.00, -0.00, -1.00, 230.7, 940.0)">i</text><text xml:space="preserve" font-family="Helvetica-Light" font-size="88.0" fill="#000000" transform="matrix(1.00, 0.00, -0.00, -1.00, 250.2, 940.0)">t</text><text xml:space="preserve" font-family="Helvetica-Light" font-size="88.0" fill="#000000" transform="matrix(1.00, 0.00, -0.00, -1.00, 274.7, 940.0)">c</text><text xml:space="preserve" font-family="Helvetica-Light" font-size="88.0" fill="#000000" transform="matrix(1.00, 0.00, -0.00, -1.00, 323.6, 940.0)">o</text><text xml:space="preserve" font-family="Helvetica-Light" font-size="88.0" fill="#000000" transform="matrix(1.00, 0.00, -0.00, -1.00, 372.6, 940.0)">i</text><text xml:space="preserve" font-family="Helvetica-Light" font-size="88.0" fill="#000000" transform="matrix(1.00, 0.00, -0.00, -1.00, 392.1, 940.0)">n</text><text xml:space="preserve" font-family="Helvetica-Light" font-size="88.0" fill="#000000" transform="matrix(1.00, 0.00, -0.00, -1.00, 441.0, 940.0)"> </text><text xml:space="preserve" font-family="Helvetica-Light" font-size="88.0" fill="#000000" transform="matrix(1.00, 0.00, -0.00, -1.00, 465.5, 940.0)">t</text><text xml:space="preserve" font-family="Helvetica-Light" font-size="88.0" fill="#000000" transform="matrix(1.00, 0.00, -0.00, -1.00, 489.9, 940.0)">r</text><text xml:space="preserve" font-family="Helvetica-Light" font-size="88.0" fill="#000000" transform="matrix(1.00, 0.00, -0.00, -1.00, 519.2, 940.0)">a</text><text xml:space="preserve" font-family="Helvetica-Light" font-size="88.0" fill="#000000" transform="matrix(1.00, 0.00, -0.00, -1.00, 568.2, 940.0)">n</text><text xml:space="preserve" font-family="Helvetica-Light" font-size="88.0" fill="#000000" transform="matrix(1.00, 0.00, -0.00, -1.00, 617.1, 940.0)">s</text><text xml:space="preserve" font-family="Helvetica-Light" font-size="88.0" fill="#000000" transform="matrix(1.00, 0.00, -0.00, -1.00, 661.1, 940.0)">a</text><text xml:space="preserve" font-family="Helvetica-Light" font-size="88.0" fill="#000000" transform="matrix(1.00, 0.00, -0.00, -1.00, 710.0, 940.0)">c</text><text xml:space="preserve" font-family="Helvetica-Light" font-size="88.0" fill="#000000" transform="matrix(1.00, 0.00, -0.00, -1.00, 759.0, 940.0)">t</text><text xml:space="preserve" font-family="Helvetica-Light" font-size="88.0" fill="#000000" transform="matrix(1.00, 0.00, -0.00, -1.00, 783.4, 940.0)">i</text><text xml:space="preserve" font-family="Helvetica-Light" font-size="88.0" fill="#000000" transform="matrix(1.00, 0.00, -0.00, -1.00, 803.0, 940.0)">o</text><text xml:space="preserve" font-family="Helvetica-Light" font-size="88.0" fill="#000000" transform="matrix(1.00, 0.00, -0.00, -1.00, 851.9, 940.0)">n</text><text xml:space="preserve" font-family="Helvetica-Light" font-size="88.0" fill="#000000" transform="matrix(1.00, 0.00, -0.00, -1.00, 900.8, 940.0)">s</text><text xml:space="preserve" font-family="Helvetica-Light" font-size="88.0" fill="#000000" transform="matrix(1.00, 0.00, -0.00, -1.00, 944.8, 940.0)"> </text><text xml:space="preserve" font-family="Helvetica-Light" font-size="88.0" fill="#000000" transform="matrix(1.00, 0.00, -0.00, -1.00, 969.3, 940.0)">a</text><text xml:space="preserve" font-family="Helvetica-Light" font-size="88.0" fill="#000000" transform="matrix(1.00, 0.00, -0.00, -1.00, 1018.2, 940.0)">r</text><text xml:space="preserve" font-family="Helvetica-Light" font-size="88.0" fill="#000000" transform="matrix(1.00, 0.00, -0.00, -1.00, 1045.9, 940.0)">e</text><text xml:space="preserve" font-family="Helvetica-Light" font-size="88.0" fill="#000000" transform="matrix(1.00, 0.00, -0.00, -1.00, 1094.9, 940.0)"> </text><text xml:space="preserve" font-family="Helvetica-Light" font-size="88.0" fill="#000000" transform="matrix(1.00, 0.00, -0.00, -1.00, 1119.3, 940.0)">v</text><text xml:space="preserve" font-family="Helvetica-Light" font-size="88.0" fill="#000000" transform="matrix(1.00, 0.00, -0.00, -1.00, 1163.3, 940.0)">e</text><text xml:space="preserve" font-family="Helvetica-Light" font-size="88.0" fill="#000000" transform="matrix(1.00, 0.00, -0.00, -1.00, 1212.2, 940.0)">r</text><text xml:space="preserve" font-family="Helvetica-Light" font-size="88.0" fill="#000000" transform="matrix(1.00, 0.00, -0.00, -1.00, 1243.1, 940.0)">y</text><text xml:space="preserve" font-family="Helvetica-Light" font-size="88.0" fill="#000000" transform="matrix(1.00, 0.00, -0.00, -1.00, 1287.1, 940.0)"> </text><text xml:space="preserve" font-family="Helvetica-Light" font-size="88.0" fill="#000000" transform="matrix(1.00, 0.00, -0.00, -1.00, 1311.6, 940.0)">f</text><text xml:space="preserve" font-family="Helvetica-Light" font-size="88.0" fill="#000000" transform="matrix(1.00, 0.00, -0.00, -1.00, 1336.1, 940.0)">l</text><text xml:space="preserve" font-family="Helvetica-Light" font-size="88.0" fill="#000000" transform="matrix(1.00, 0.00, -0.00, -1.00, 1355.6, 940.0)">e</text><text xml:space="preserve" font-family="Helvetica-Light" font-size="88.0" fill="#000000" transform="matrix(1.00, 0.00, -0.00, -1.00, 1404.5, 940.0)">x</text><text xml:space="preserve" font-family="Helvetica-Light" font-size="88.0" fill="#000000" transform="matrix(1.00, 0.00, -0.00, -1.00, 1448.5, 940.0)">i</text><text xml:space="preserve" font-family="Helvetica-Light" font-size="88.0" fill="#000000" transform="matrix(1.00, 0.00, -0.00, -1.00, 1468.1, 940.0)">b</text><text xml:space="preserve" font-family="Helvetica-Light" font-size="88.0" fill="#000000" transform="matrix(1.00, 0.00, -0.00, -1.00, 1521.8, 940.0)">l</text><text xml:space="preserve" font-family="Helvetica-Light" font-size="88.0" fill="#000000" transform="matrix(1.00, 0.00, -0.00, -1.00, 1541.4, 940.0)">e</text><g><clipPath id="clip-140"><path d="M 688.3 548.8 L 1682.3 548.8 L 1682.3 920.2 L 688.3 920.2 Z M 688.3 548.8 "></path></clipPath><g clip-path="url(#clip-140)"><path d="M 690.3 918.2 L 1680.3 918.2 L 1680.3 550.8 L 690.3 550.8 Z M 690.3 918.2 " fill="#FFE599"></path><path d="M 0.0 0.0 L 990.0 0.0 L 990.0 367.5 L 0.0 367.5 Z M 0.0 0.0 " fill="none" stroke="#42719B" stroke-width="2.00" stroke-miterlimit="8.00" transform="matrix(1.00, 0.00, 0.00, -1.00, 690.3, 918.2)"></path></g></g><g><clipPath id="clip-141"><path d="M 729.1 756.3 L 847.4 756.3 L 847.4 819.2 L 729.1 819.2 Z M 729.1 756.3 "></path></clipPath><g clip-path="url(#clip-141)"><text xml:space="preserve" font-family="TrebuchetMS" font-size="36.0" fill="#000000" transform="matrix(1.00, 0.00, -0.00, -1.00, 740.0, 775.0)">F</text><text xml:space="preserve" font-family="TrebuchetMS" font-size="36.0" fill="#000000" transform="matrix(1.00, 0.00, -0.00, -1.00, 758.9, 775.0)">r</text><text xml:space="preserve" font-family="TrebuchetMS" font-size="36.0" fill="#000000" transform="matrix(1.00, 0.00, -0.00, -1.00, 772.9, 775.0)">o</text><text xml:space="preserve" font-family="TrebuchetMS" font-size="36.0" fill="#000000" transform="matrix(1.00, 0.00, -0.00, -1.00, 792.2, 775.0)">m</text><text xml:space="preserve" font-family="TrebuchetMS" font-size="36.0" fill="#000000" transform="matrix(1.00, 0.00, -0.00, -1.00, 822.1, 775.0)">:</text></g></g><g><clipPath id="clip-142"><path d="M 761.0 844.4 L 983.8 844.4 L 983.8 907.3 L 761.0 907.3 Z M 761.0 844.4 "></path></clipPath><g clip-path="url(#clip-142)"><text xml:space="preserve" font-family="TrebuchetMS" font-size="36.0" fill="#000000" transform="matrix(1.00, 0.00, -0.00, -1.00, 771.0, 863.0)">B</text><text xml:space="preserve" font-family="TrebuchetMS" font-size="36.0" fill="#000000" transform="matrix(1.00, 0.00, -0.00, -1.00, 791.4, 863.0)">i</text><text xml:space="preserve" font-family="TrebuchetMS" font-size="36.0" fill="#000000" transform="matrix(1.00, 0.00, -0.00, -1.00, 801.6, 863.0)">t</text><text xml:space="preserve" font-family="TrebuchetMS" font-size="36.0" fill="#000000" transform="matrix(1.00, 0.00, -0.00, -1.00, 815.9, 863.0)">c</text><text xml:space="preserve" font-family="TrebuchetMS" font-size="36.0" fill="#000000" transform="matrix(1.00, 0.00, -0.00, -1.00, 833.8, 863.0)">o</text><text xml:space="preserve" font-family="TrebuchetMS" font-size="36.0" fill="#000000" transform="matrix(1.00, 0.00, -0.00, -1.00, 853.1, 863.0)">i</text><text xml:space="preserve" font-family="TrebuchetMS" font-size="36.0" fill="#000000" transform="matrix(1.00, 0.00, -0.00, -1.00, 863.3, 863.0)">n</text><text xml:space="preserve" font-family="TrebuchetMS" font-size="36.0" fill="#000000" transform="matrix(1.00, 0.00, -0.00, -1.00, 883.0, 863.0)"> </text><text xml:space="preserve" font-family="TrebuchetMS" font-size="36.0" fill="#000000" transform="matrix(1.00, 0.00, -0.00, -1.00, 893.9, 863.0)">B</text><text xml:space="preserve" font-family="TrebuchetMS" font-size="36.0" fill="#000000" transform="matrix(1.00, 0.00, -0.00, -1.00, 914.2, 863.0)">a</text><text xml:space="preserve" font-family="TrebuchetMS" font-size="36.0" fill="#000000" transform="matrix(1.00, 0.00, -0.00, -1.00, 933.2, 863.0)">n</text><text xml:space="preserve" font-family="TrebuchetMS" font-size="36.0" fill="#000000" transform="matrix(1.00, 0.00, -0.00, -1.00, 952.9, 863.0)">k</text></g></g><g><clipPath id="clip-143"><path d="M 713.5 849.6 L 764.2 849.6 L 764.2 900.3 L 713.5 900.3 Z M 713.5 849.6 "></path></clipPath><g clip-path="url(#clip-143)"><image xlink:href="../../012418F2-C9DB-43BA-8424-4651D57B56D3/assets/35AD6C6153D2937708B91BCF58F5E767.jpeg" width="51.00" height="51.00" transform="matrix(1.00, 0.00, -0.00, -0.98, 713.0, 900.0)"></image></g></g><g><clipPath id="clip-144"><path d="M 729.1 671.1 L 927.1 671.1 L 927.1 734.0 L 729.1 734.0 Z M 729.1 671.1 "></path></clipPath><g clip-path="url(#clip-144)"><text xml:space="preserve" font-family="TrebuchetMS" font-size="36.0" fill="#000000" transform="matrix(1.00, 0.00, -0.00, -1.00, 740.0, 690.0)">T</text><text xml:space="preserve" font-family="TrebuchetMS" font-size="36.0" fill="#000000" transform="matrix(1.00, 0.00, -0.00, -1.00, 756.4, 690.0)">o</text><text xml:space="preserve" font-family="TrebuchetMS" font-size="36.0" fill="#000000" transform="matrix(1.00, 0.00, -0.00, -1.00, 775.7, 690.0)">:</text><text xml:space="preserve" font-family="TrebuchetMS" font-size="36.0" fill="#000000" transform="matrix(1.00, 0.00, -0.00, -1.00, 788.9, 690.0)"> </text><text xml:space="preserve" font-family="TrebuchetMS" font-size="36.0" fill="#000000" transform="matrix(1.00, 0.00, -0.00, -1.00, 797.8, 690.0)">A</text><text xml:space="preserve" font-family="TrebuchetMS" font-size="36.0" fill="#000000" transform="matrix(1.00, 0.00, -0.00, -1.00, 819.1, 690.0)">n</text><text xml:space="preserve" font-family="TrebuchetMS" font-size="36.0" fill="#000000" transform="matrix(1.00, 0.00, -0.00, -1.00, 838.7, 690.0)">y</text><text xml:space="preserve" font-family="TrebuchetMS" font-size="36.0" fill="#000000" transform="matrix(1.00, 0.00, -0.00, -1.00, 856.5, 690.0)">o</text><text xml:space="preserve" font-family="TrebuchetMS" font-size="36.0" fill="#000000" transform="matrix(1.00, 0.00, -0.00, -1.00, 875.8, 690.0)">n</text><text xml:space="preserve" font-family="TrebuchetMS" font-size="36.0" fill="#000000" transform="matrix(1.00, 0.00, -0.00, -1.00, 895.5, 690.0)">e</text></g></g><g><clipPath id="clip-145"><path d="M 729.1 585.9 L 1000.7 585.9 L 1000.7 648.8 L 729.1 648.8 Z M 729.1 585.9 "></path></clipPath><g clip-path="url(#clip-145)"><text xml:space="preserve" font-family="TrebuchetMS" font-size="36.0" fill="#000000" transform="matrix(1.00, 0.00, -0.00, -1.00, 740.0, 604.0)">A</text><text xml:space="preserve" font-family="TrebuchetMS" font-size="36.0" fill="#000000" transform="matrix(1.00, 0.00, -0.00, -1.00, 761.2, 604.0)">m</text><text xml:space="preserve" font-family="TrebuchetMS" font-size="36.0" fill="#000000" transform="matrix(1.00, 0.00, -0.00, -1.00, 791.1, 604.0)">o</text><text xml:space="preserve" font-family="TrebuchetMS" font-size="36.0" fill="#000000" transform="matrix(1.00, 0.00, -0.00, -1.00, 810.4, 604.0)">u</text><text xml:space="preserve" font-family="TrebuchetMS" font-size="36.0" fill="#000000" transform="matrix(1.00, 0.00, -0.00, -1.00, 830.1, 604.0)">n</text><text xml:space="preserve" font-family="TrebuchetMS" font-size="36.0" fill="#000000" transform="matrix(1.00, 0.00, -0.00, -1.00, 849.8, 604.0)">t</text><text xml:space="preserve" font-family="TrebuchetMS" font-size="36.0" fill="#000000" transform="matrix(1.00, 0.00, -0.00, -1.00, 864.1, 604.0)">:</text><text xml:space="preserve" font-family="TrebuchetMS" font-size="36.0" fill="#000000" transform="matrix(1.00, 0.00, -0.00, -1.00, 877.3, 604.0)"> </text><text xml:space="preserve" font-family="TrebuchetMS" font-size="36.0" fill="#000000" transform="matrix(1.00, 0.00, -0.00, -1.00, 888.2, 604.0)">2</text><text xml:space="preserve" font-family="TrebuchetMS" font-size="36.0" fill="#000000" transform="matrix(1.00, 0.00, -0.00, -1.00, 907.1, 604.0)">5</text><text xml:space="preserve" font-family="TrebuchetMS" font-size="36.0" fill="#000000" transform="matrix(1.00, 0.00, -0.00, -1.00, 926.0, 604.0)">B</text><text xml:space="preserve" font-family="TrebuchetMS" font-size="36.0" fill="#000000" transform="matrix(1.00, 0.00, -0.00, -1.00, 946.4, 604.0)">T</text><text xml:space="preserve" font-family="TrebuchetMS" font-size="36.0" fill="#000000" transform="matrix(1.00, 0.00, -0.00, -1.00, 967.3, 604.0)">C</text></g></g><g><clipPath id="clip-146"><path d="M 1288.9 840.7 L 1588.2 840.7 L 1588.2 903.6 L 1288.9 903.6 Z M 1288.9 840.7 "></path></clipPath><g clip-path="url(#clip-146)"><text xml:space="preserve" font-family="TrebuchetMS" font-size="36.0" fill="#000000" transform="matrix(1.00, 0.00, -0.00, -1.00, 1299.0, 859.0)">D</text><text xml:space="preserve" font-family="TrebuchetMS" font-size="36.0" fill="#000000" transform="matrix(1.00, 0.00, -0.00, -1.00, 1321.1, 859.0)">a</text><text xml:space="preserve" font-family="TrebuchetMS" font-size="36.0" fill="#000000" transform="matrix(1.00, 0.00, -0.00, -1.00, 1340.0, 859.0)">t</text><text xml:space="preserve" font-family="TrebuchetMS" font-size="36.0" fill="#000000" transform="matrix(1.00, 0.00, -0.00, -1.00, 1354.3, 859.0)">e</text><text xml:space="preserve" font-family="TrebuchetMS" font-size="36.0" fill="#000000" transform="matrix(1.00, 0.00, -0.00, -1.00, 1373.9, 859.0)">:</text><text xml:space="preserve" font-family="TrebuchetMS" font-size="36.0" fill="#000000" transform="matrix(1.00, 0.00, -0.00, -1.00, 1387.2, 859.0)"> </text><text xml:space="preserve" font-family="TrebuchetMS" font-size="36.0" fill="#000000" transform="matrix(1.00, 0.00, -0.00, -1.00, 1398.0, 859.0)">1</text><text xml:space="preserve" font-family="TrebuchetMS" font-size="36.0" fill="#000000" transform="matrix(1.00, 0.00, -0.00, -1.00, 1416.9, 859.0)">7</text><text xml:space="preserve" font-family="TrebuchetMS" font-size="36.0" fill="#000000" transform="matrix(1.00, 0.00, -0.00, -1.00, 1435.8, 859.0)">-</text><text xml:space="preserve" font-family="TrebuchetMS" font-size="36.0" fill="#000000" transform="matrix(1.00, 0.00, -0.00, -1.00, 1449.0, 859.0)">0</text><text xml:space="preserve" font-family="TrebuchetMS" font-size="36.0" fill="#000000" transform="matrix(1.00, 0.00, -0.00, -1.00, 1467.9, 859.0)">3</text><text xml:space="preserve" font-family="TrebuchetMS" font-size="36.0" fill="#000000" transform="matrix(1.00, 0.00, -0.00, -1.00, 1486.8, 859.0)">-</text><text xml:space="preserve" font-family="TrebuchetMS" font-size="36.0" fill="#000000" transform="matrix(1.00, 0.00, -0.00, -1.00, 1500.0, 859.0)">2</text><text xml:space="preserve" font-family="TrebuchetMS" font-size="36.0" fill="#000000" transform="matrix(1.00, 0.00, -0.00, -1.00, 1518.9, 859.0)">0</text><text xml:space="preserve" font-family="TrebuchetMS" font-size="36.0" fill="#000000" transform="matrix(1.00, 0.00, -0.00, -1.00, 1537.8, 859.0)">1</text><text xml:space="preserve" font-family="TrebuchetMS" font-size="36.0" fill="#000000" transform="matrix(1.00, 0.00, -0.00, -1.00, 1556.7, 859.0)">6</text></g></g><g><clipPath id="clip-147"><path d="M 1154.1 546.7 L 1490.5 546.7 L 1490.5 708.7 L 1154.1 708.7 Z M 1154.1 546.7 "></path></clipPath><g clip-path="url(#clip-147)"><text xml:space="preserve" font-family="TrebuchetMS" font-size="36.0" fill="#000000" transform="matrix(1.00, 0.00, -0.00, -1.00, 1181.0, 603.0)">S</text><text xml:space="preserve" font-family="TrebuchetMS" font-size="36.0" fill="#000000" transform="matrix(1.00, 0.00, -0.00, -1.00, 1198.3, 603.0)">i</text><text xml:space="preserve" font-family="TrebuchetMS" font-size="36.0" fill="#000000" transform="matrix(1.00, 0.00, -0.00, -1.00, 1208.6, 603.0)">g</text><text xml:space="preserve" font-family="TrebuchetMS" font-size="36.0" fill="#000000" transform="matrix(1.00, 0.00, -0.00, -1.00, 1226.7, 603.0)">n</text><text xml:space="preserve" font-family="TrebuchetMS" font-size="36.0" fill="#000000" transform="matrix(1.00, 0.00, -0.00, -1.00, 1246.3, 603.0)">a</text><text xml:space="preserve" font-family="TrebuchetMS" font-size="36.0" fill="#000000" transform="matrix(1.00, 0.00, -0.00, -1.00, 1265.3, 603.0)">t</text><text xml:space="preserve" font-family="TrebuchetMS" font-size="36.0" fill="#000000" transform="matrix(1.00, 0.00, -0.00, -1.00, 1279.6, 603.0)">u</text><text xml:space="preserve" font-family="TrebuchetMS" font-size="36.0" fill="#000000" transform="matrix(1.00, 0.00, -0.00, -1.00, 1299.2, 603.0)">r</text><text xml:space="preserve" font-family="TrebuchetMS" font-size="36.0" fill="#000000" transform="matrix(1.00, 0.00, -0.00, -1.00, 1313.2, 603.0)">e</text><text xml:space="preserve" font-family="TrebuchetMS" font-size="36.0" fill="#000000" transform="matrix(1.00, 0.00, -0.00, -1.00, 1332.9, 603.0)">:</text><text xml:space="preserve" font-family="TrebuchetMS" font-size="36.0" fill="#000000" transform="matrix(1.00, 0.00, -0.00, -1.00, 1346.1, 603.0)"> </text><text xml:space="preserve" font-family="BrushScriptMT" font-style="italic" font-size="88.0" fill="#000000" transform="matrix(1.00, 0.00, -0.00, -1.00, 1356.9, 603.0)">B</text><text xml:space="preserve" font-family="BrushScriptMT" font-style="italic" font-size="88.0" fill="#000000" transform="matrix(1.00, 0.00, -0.00, -1.00, 1405.4, 603.0)">o</text><text xml:space="preserve" font-family="BrushScriptMT" font-style="italic" font-size="88.0" fill="#000000" transform="matrix(1.00, 0.00, -0.00, -1.00, 1432.9, 603.0)">b</text></g></g><g><clipPath id="clip-148"><path d="M 848.2 735.7 L 1117.4 735.7 L 1117.4 835.4 L 848.2 835.4 Z M 848.2 735.7 "></path></clipPath><g clip-path="url(#clip-148)"><image xlink:href="../../BE3B8430-1335-480E-A5EF-A0DABB8DDA3D/assets/FEFFCB46941701988011DDB335849A1F.png" width="270.00" height="100.00" transform="matrix(1.00, 0.00, -0.00, -0.99, 848.0, 835.0)"></image></g></g><text xml:space="preserve" font-family="TrebuchetMS" font-size="56.0" fill="#000000" transform="matrix(1.00, 0.00, -0.00, -1.00, 73.0, 777.0)">“</text><text xml:space="preserve" font-family="TrebuchetMS" font-size="56.0" fill="#000000" transform="matrix(1.00, 0.00, -0.00, -1.00, 102.4, 777.0)">A</text><text xml:space="preserve" font-family="TrebuchetMS" font-size="56.0" fill="#000000" transform="matrix(1.00, 0.00, -0.00, -1.00, 135.4, 777.0)">n</text><text xml:space="preserve" font-family="TrebuchetMS" font-size="56.0" fill="#000000" transform="matrix(1.00, 0.00, -0.00, -1.00, 166.0, 777.0)">y</text><text xml:space="preserve" font-family="TrebuchetMS" font-size="56.0" fill="#000000" transform="matrix(1.00, 0.00, -0.00, -1.00, 193.6, 777.0)">o</text><text xml:space="preserve" font-family="TrebuchetMS" font-size="56.0" fill="#000000" transform="matrix(1.00, 0.00, -0.00, -1.00, 223.7, 777.0)">n</text><text xml:space="preserve" font-family="TrebuchetMS" font-size="56.0" fill="#000000" transform="matrix(1.00, 0.00, -0.00, -1.00, 254.3, 777.0)">e</text><text xml:space="preserve" font-family="TrebuchetMS" font-size="56.0" fill="#000000" transform="matrix(1.00, 0.00, -0.00, -1.00, 284.8, 777.0)">-</text><text xml:space="preserve" font-family="TrebuchetMS" font-size="56.0" fill="#000000" transform="matrix(1.00, 0.00, -0.00, -1.00, 305.4, 777.0)">c</text><text xml:space="preserve" font-family="TrebuchetMS" font-size="56.0" fill="#000000" transform="matrix(1.00, 0.00, -0.00, -1.00, 333.2, 777.0)">a</text><text xml:space="preserve" font-family="TrebuchetMS" font-size="56.0" fill="#000000" transform="matrix(1.00, 0.00, -0.00, -1.00, 362.6, 777.0)">n</text><text xml:space="preserve" font-family="TrebuchetMS" font-size="56.0" fill="#000000" transform="matrix(1.00, 0.00, -0.00, -1.00, 393.2, 777.0)">-</text><text xml:space="preserve" font-family="TrebuchetMS" font-size="56.0" fill="#000000" transform="matrix(1.00, 0.00, -0.00, -1.00, 413.8, 777.0)">s</text><text xml:space="preserve" font-family="TrebuchetMS" font-size="56.0" fill="#000000" transform="matrix(1.00, 0.00, -0.00, -1.00, 436.5, 777.0)">p</text><text xml:space="preserve" font-family="TrebuchetMS" font-size="56.0" fill="#000000" transform="matrix(1.00, 0.00, -0.00, -1.00, 467.7, 777.0)">e</text><text xml:space="preserve" font-family="TrebuchetMS" font-size="56.0" fill="#000000" transform="matrix(1.00, 0.00, -0.00, -1.00, 498.3, 777.0)">n</text><text xml:space="preserve" font-family="TrebuchetMS" font-size="56.0" fill="#000000" transform="matrix(1.00, 0.00, -0.00, -1.00, 528.9, 777.0)">d</text><text xml:space="preserve" font-family="TrebuchetMS" font-size="56.0" fill="#000000" transform="matrix(1.00, 0.00, -0.00, -1.00, 560.1, 777.0)">”</text><text xml:space="preserve" font-family="TrebuchetMS" font-size="56.0" fill="#000000" transform="matrix(1.00, 0.00, -0.00, -1.00, 589.5, 777.0)"> </text><text xml:space="preserve" font-family="TrebuchetMS" font-size="56.0" fill="#000000" transform="matrix(1.00, 0.00, -0.00, -1.00, 73.0, 647.0)">P</text><text xml:space="preserve" font-family="TrebuchetMS" font-size="56.0" fill="#000000" transform="matrix(1.00, 0.00, -0.00, -1.00, 101.6, 647.0)">a</text><text xml:space="preserve" font-family="TrebuchetMS" font-size="56.0" fill="#000000" transform="matrix(1.00, 0.00, -0.00, -1.00, 131.0, 647.0)">y</text><text xml:space="preserve" font-family="TrebuchetMS" font-size="56.0" fill="#000000" transform="matrix(1.00, 0.00, -0.00, -1.00, 158.7, 647.0)">a</text><text xml:space="preserve" font-family="TrebuchetMS" font-size="56.0" fill="#000000" transform="matrix(1.00, 0.00, -0.00, -1.00, 188.2, 647.0)">b</text><text xml:space="preserve" font-family="TrebuchetMS" font-size="56.0" fill="#000000" transform="matrix(1.00, 0.00, -0.00, -1.00, 219.3, 647.0)">l</text><text xml:space="preserve" font-family="TrebuchetMS" font-size="56.0" fill="#000000" transform="matrix(1.00, 0.00, -0.00, -1.00, 235.8, 647.0)">e</text><text xml:space="preserve" font-family="TrebuchetMS" font-size="56.0" fill="#000000" transform="matrix(1.00, 0.00, -0.00, -1.00, 266.4, 647.0)"> </text><text xml:space="preserve" font-family="TrebuchetMS" font-size="56.0" fill="#000000" transform="matrix(1.00, 0.00, -0.00, -1.00, 283.3, 647.0)">t</text><text xml:space="preserve" font-family="TrebuchetMS" font-size="56.0" fill="#000000" transform="matrix(1.00, 0.00, -0.00, -1.00, 305.6, 647.0)">o</text><text xml:space="preserve" font-family="TrebuchetMS" font-size="56.0" fill="#000000" transform="matrix(1.00, 0.00, -0.00, -1.00, 335.6, 647.0)"> </text><text xml:space="preserve" font-family="TrebuchetMS" font-size="56.0" fill="#000000" transform="matrix(1.00, 0.00, -0.00, -1.00, 352.5, 647.0)">b</text><text xml:space="preserve" font-family="TrebuchetMS" font-size="56.0" fill="#000000" transform="matrix(1.00, 0.00, -0.00, -1.00, 383.7, 647.0)">e</text><text xml:space="preserve" font-family="TrebuchetMS" font-size="56.0" fill="#000000" transform="matrix(1.00, 0.00, -0.00, -1.00, 414.3, 647.0)">a</text><text xml:space="preserve" font-family="TrebuchetMS" font-size="56.0" fill="#000000" transform="matrix(1.00, 0.00, -0.00, -1.00, 443.7, 647.0)">r</text><text xml:space="preserve" font-family="TrebuchetMS" font-size="56.0" fill="#000000" transform="matrix(1.00, 0.00, -0.00, -1.00, 465.5, 647.0)">e</text><text xml:space="preserve" font-family="TrebuchetMS" font-size="56.0" fill="#000000" transform="matrix(1.00, 0.00, -0.00, -1.00, 496.1, 647.0)">r</text><text xml:space="preserve" font-family="TrebuchetMS" font-size="56.0" fill="#000000" transform="matrix(1.00, 0.00, -0.00, -1.00, 517.8, 647.0)"> </text><text xml:space="preserve" font-family="TrebuchetMS" font-size="56.0" fill="#000000" transform="matrix(1.00, 0.00, -0.00, -1.00, 534.7, 647.0)">c</text><text xml:space="preserve" font-family="TrebuchetMS" font-size="56.0" fill="#000000" transform="matrix(1.00, 0.00, -0.00, -1.00, 562.4, 647.0)">h</text><text xml:space="preserve" font-family="TrebuchetMS" font-size="56.0" fill="#000000" transform="matrix(1.00, 0.00, -0.00, -1.00, 593.1, 647.0)">e</text><text xml:space="preserve" font-family="TrebuchetMS" font-size="56.0" fill="#000000" transform="matrix(1.00, 0.00, -0.00, -1.00, 623.7, 647.0)">q</text><text xml:space="preserve" font-family="TrebuchetMS" font-size="56.0" fill="#000000" transform="matrix(1.00, 0.00, -0.00, -1.00, 654.8, 647.0)">u</text><text xml:space="preserve" font-family="TrebuchetMS" font-size="56.0" fill="#000000" transform="matrix(1.00, 0.00, -0.00, -1.00, 685.5, 647.0)">e</text><image xlink:href="3EE18314F8F56F5A368C4D906B254F06.png" width="612.00" height="227.00" transform="matrix(1.00, 0.00, -0.00, -1.00, 416.0, 518.0)"></image><image xlink:href="8252D05B9408D954661B97EB7C666636.png" width="611.00" height="227.00" transform="matrix(1.00, 0.00, -0.00, -1.00, 1109.0, 518.0)"></image><image xlink:href="BA18454BBA5310B1530BF957691473C2.png" width="612.00" height="228.00" transform="matrix(1.00, 0.00, -0.00, -1.00, 416.0, 261.0)"></image><image xlink:href="5555115231D5E044C8BDA29C16E216AC.png" width="611.00" height="227.00" transform="matrix(1.00, 0.00, -0.00, -1.00, 1109.0, 260.0)"></image></g></svg>