<?xml version="1.0" encoding="UTF-8" standalone="no"?><svg xmlns="http://www.w3.org/2000/svg" xmlns:xlink="http://www.w3.org/1999/xlink" clip-rule="evenodd" stroke-miterlimit="4.00" viewBox="0 0 1960 1080"><desc>SVG generated by Keynote</desc><defs></defs><g transform="matrix(1.00, 0.00, -0.00, -1.00, 0.0, 1080.0)"><path d="M 0.0 1080.0 L 1960.0 1080.0 L 1960.0 0.0 L 0.0 0.0 Z M 0.0 1080.0 " fill="#FFFFFF"></path><text xml:space="preserve" font-family="Helvetica-Light" font-size="88.0" fill="#000000" transform="matrix(1.00, 0.00, -0.00, -1.00, 172.0, 940.0)">B</text><text xml:space="preserve" font-family="Helvetica-Light" font-size="88.0" fill="#000000" transform="matrix(1.00, 0.00, -0.00, -1.00, 230.7, 940.0)">i</text><text xml:space="preserve" font-family="Helvetica-Light" font-size="88.0" fill="#000000" transform="matrix(1.00, 0.00, -0.00, -1.00, 250.2, 940.0)">t</text><text xml:space="preserve" font-family="Helvetica-Light" font-size="88.0" fill="#000000" transform="matrix(1.00, 0.00, -0.00, -1.00, 274.7, 940.0)">c</text><text xml:space="preserve" font-family="Helvetica-Light" font-size="88.0" fill="#000000" transform="matrix(1.00, 0.00, -0.00, -1.00, 323.6, 940.0)">o</text><text xml:space="preserve" font-family="Helvetica-Light" font-size="88.0" fill="#000000" transform="matrix(1.00, 0.00, -0.00, -1.00, 372.6, 940.0)">i</text><text xml:space="preserve" font-family="Helvetica-Light" font-size="88.0" fill="#000000" transform="matrix(1.00, 0.00, -0.00, -1.00, 392.1, 940.0)">n</text><text xml:space="preserve" font-family="Helvetica-Light" font-size="88.0" fill="#000000" transform="matrix(1.00, 0.00, -0.00, -1.00, 441.0, 940.0)"> </text><text xml:space="preserve" font-family="Helvetica-Light" font-size="88.0" fill="#000000" transform="matrix(1.00, 0.00, -0.00, -1.00, 465.5, 940.0)">t</text><text xml:space="preserve" font-family="Helvetica-Light" font-size="88.0" fill="#000000" transform="matrix(1.00, 0.00, -0.00, -1.00, 489.9, 940.0)">r</text><text xml:space="preserve" font-family="Helvetica-Light" font-size="88.0" fill="#000000" transform="matrix(1.00, 0.00, -0.00, -1.00, 519.2, 940.0)">a</text><text xml:space="preserve" font-family="Helvetica-Light" font-size="88.0" fill="#000000" transform="matrix(1.00, 0.00, -0.00, -1.00, 568.2, 940.0)">n</text><text xml:space="preserve" font-family="Helvetica-Light" font-size="88.0" fill="#000000" transform="matrix(1.00, 0.00, -0.00, -1.00, 617.1, 940.0)">s</text><text xml:space="preserve" font-family="Helvetica-Light" font-size="88.0" fill="#000000" transform="matrix(1.00, 0.00, -0.00, -1.00, 661.1, 940.0)">a</text><text xml:space="preserve" font-family="Helvetica-Light" font-size="88.0" fill="#000000" transform="matrix(1.00, 0.00, -0.00, -1.00, 710.0, 940.0)">c</text><text xml:space="preserve" font-family="Helvetica-Light" font-size="88.0" fill="#000000" transform="matrix(1.00, 0.00, -0.00, -1.00, 759.0, 940.0)">t</text><text xml:space="preserve" font-family="Helvetica-Light" font-size="88.0" fill="#000000" transform="matrix(1.00, 0.00, -0.00, -1.00, 783.4, 940.0)">i</text><text xml:space="preserve" font-family="Helvetica-Light" font-size="88.0" fill="#000000" transform="matrix(1.00, 0.00, -0.00, -1.00, 803.0, 940.0)">o</text><text xml:space="preserve" font-family="Helvetica-Light" font-size="88.0" fill="#000000" transform="matrix(1.00, 0.00, -0.00, -1.00, 851.9, 940.0)">n</text><text xml:space="preserve" font-family="Helvetica-Light" font-size="88.0" fill="#000000" transform="matrix(1.00, 0.00, -0.00, -1.00, 900.8, 940.0)">s</text><text xml:space="preserve" font-family="Helvetica-Light" font-size="88.0" fill="#000000" transform="matrix(1.00, 0.00, -0.00, -1.00, 944.8, 940.0)"> </text><text xml:space="preserve" font-family="Helvetica-Light" font-size="88.0" fill="#000000" transform="matrix(1.00, 0.00, -0.00, -1.00, 969.3, 940.0)">a</text><text xml:space="preserve" font-family="Helvetica-Light" font-size="88.0" fill="#000000" transform="matrix(1.00, 0.00, -0.00, -1.00, 1018.2, 940.0)">r</text><text xml:space="preserve" font-family="Helvetica-Light" font-size="88.0" fill="#000000" transform="matrix(1.00, 0.00, -0.00, -1.00, 1045.9, 940.0)">e</text><text xml:space="preserve" font-family="Helvetica-Light" font-size="88.0" fill="#000000" transform="matrix(1.00, 0.00, -0.00, -1.00, 1094.9, 940.0)"> </text><text xml:space="preserve" font-family="Helvetica-Light" font-size="88.0" fill="#000000" transform="matrix(1.00, 0.00, -0.00, -1.00, 1119.3, 940.0)">v</text><text xml:space="preserve" font-family="Helvetica-Light" font-size="88.0" fill="#000000" transform="matrix(1.00, 0.00, -0.00, -1.00, 1163.3, 940.0)">e</text><text xml:space="preserve" font-family="Helvetica-Light" font-size="88.0" fill="#000000" transform="matrix(1.00, 0.00, -0.00, -1.00, 1212.2, 940.0)">r</text><text xml:space="preserve" font-family="Helvetica-Light" font-size="88.0" fill="#000000" transform="matrix(1.00, 0.00, -0.00, -1.00, 1243.1, 940.0)">y</text><text xml:space="preserve" font-family="Helvetica-Light" font-size="88.0" fill="#000000" transform="matrix(1.00, 0.00, -0.00, -1.00, 1287.1, 940.0)"> </text><text xml:space="preserve" font-family="Helvetica-Light" font-size="88.0" fill="#000000" transform="matrix(1.00, 0.00, -0.00, -1.00, 1311.6, 940.0)">f</text><text xml:space="preserve" font-family="Helvetica-Light" font-size="88.0" fill="#000000" transform="matrix(1.00, 0.00, -0.00, -1.00, 1336.1, 940.0)">l</text><text xml:space="preserve" font-family="Helvetica-Light" font-size="88.0" fill="#000000" transform="matrix(1.00, 0.00, -0.00, -1.00, 1355.6, 940.0)">e</text><text xml:space="preserve" font-family="Helvetica-Light" font-size="88.0" fill="#000000" transform="matrix(1.00, 0.00, -0.00, -1.00, 1404.5, 940.0)">x</text><text xml:space="preserve" font-family="Helvetica-Light" font-size="88.0" fill="#000000" transform="matrix(1.00, 0.00, -0.00, -1.00, 1448.5, 940.0)">i</text><text xml:space="preserve" font-family="Helvetica-Light" font-size="88.0" fill="#000000" transform="matrix(1.00, 0.00, -0.00, -1.00, 1468.1, 940.0)">b</text><text xml:space="preserve" font-family="Helvetica-Light" font-size="88.0" fill="#000000" transform="matrix(1.00, 0.00, -0.00, -1.00, 1521.8, 940.0)">l</text><text xml:space="preserve" font-family="Helvetica-Light" font-size="88.0" fill="#000000" transform="matrix(1.00, 0.00, -0.00, -1.00, 1541.4, 940.0)">e</text><g><clipPath id="clip-123"><path d="M 576.6 56.6 L 1570.6 56.6 L 1570.6 428.0 L 576.6 428.0 Z M 576.6 56.6 "></path></clipPath><g clip-path="url(#clip-123)"><path d="M 578.6 426.0 L 1568.6 426.0 L 1568.6 58.6 L 578.6 58.6 Z M 578.6 426.0 " fill="#F7CAAC"></path><path d="M 0.0 0.0 L 990.0 0.0 L 990.0 367.5 L 0.0 367.5 Z M 0.0 0.0 " fill="none" stroke="#42719B" stroke-width="2.00" stroke-miterlimit="8.00" transform="matrix(1.00, 0.00, 0.00, -1.00, 578.6, 426.0)"></path></g></g><g><clipPath id="clip-124"><path d="M 617.5 264.1 L 735.7 264.1 L 735.7 327.0 L 617.5 327.0 Z M 617.5 264.1 "></path></clipPath><g clip-path="url(#clip-124)"><text xml:space="preserve" font-family="TrebuchetMS" font-size="36.0" fill="#000000" transform="matrix(1.00, 0.00, -0.00, -1.00, 628.0, 283.0)">F</text><text xml:space="preserve" font-family="TrebuchetMS" font-size="36.0" fill="#000000" transform="matrix(1.00, 0.00, -0.00, -1.00, 646.9, 283.0)">r</text><text xml:space="preserve" font-family="TrebuchetMS" font-size="36.0" fill="#000000" transform="matrix(1.00, 0.00, -0.00, -1.00, 660.9, 283.0)">o</text><text xml:space="preserve" font-family="TrebuchetMS" font-size="36.0" fill="#000000" transform="matrix(1.00, 0.00, -0.00, -1.00, 680.2, 283.0)">m</text><text xml:space="preserve" font-family="TrebuchetMS" font-size="36.0" fill="#000000" transform="matrix(1.00, 0.00, -0.00, -1.00, 710.1, 283.0)">:</text></g></g><g><clipPath id="clip-125"><path d="M 649.3 352.2 L 872.2 352.2 L 872.2 415.1 L 649.3 415.1 Z M 649.3 352.2 "></path></clipPath><g clip-path="url(#clip-125)"><text xml:space="preserve" font-family="TrebuchetMS" font-size="36.0" fill="#000000" transform="matrix(1.00, 0.00, -0.00, -1.00, 660.0, 371.0)">B</text><text xml:space="preserve" font-family="TrebuchetMS" font-size="36.0" fill="#000000" transform="matrix(1.00, 0.00, -0.00, -1.00, 680.4, 371.0)">i</text><text xml:space="preserve" font-family="TrebuchetMS" font-size="36.0" fill="#000000" transform="matrix(1.00, 0.00, -0.00, -1.00, 690.6, 371.0)">t</text><text xml:space="preserve" font-family="TrebuchetMS" font-size="36.0" fill="#000000" transform="matrix(1.00, 0.00, -0.00, -1.00, 704.9, 371.0)">c</text><text xml:space="preserve" font-family="TrebuchetMS" font-size="36.0" fill="#000000" transform="matrix(1.00, 0.00, -0.00, -1.00, 722.8, 371.0)">o</text><text xml:space="preserve" font-family="TrebuchetMS" font-size="36.0" fill="#000000" transform="matrix(1.00, 0.00, -0.00, -1.00, 742.1, 371.0)">i</text><text xml:space="preserve" font-family="TrebuchetMS" font-size="36.0" fill="#000000" transform="matrix(1.00, 0.00, -0.00, -1.00, 752.3, 371.0)">n</text><text xml:space="preserve" font-family="TrebuchetMS" font-size="36.0" fill="#000000" transform="matrix(1.00, 0.00, -0.00, -1.00, 772.0, 371.0)"> </text><text xml:space="preserve" font-family="TrebuchetMS" font-size="36.0" fill="#000000" transform="matrix(1.00, 0.00, -0.00, -1.00, 782.9, 371.0)">B</text><text xml:space="preserve" font-family="TrebuchetMS" font-size="36.0" fill="#000000" transform="matrix(1.00, 0.00, -0.00, -1.00, 803.2, 371.0)">a</text><text xml:space="preserve" font-family="TrebuchetMS" font-size="36.0" fill="#000000" transform="matrix(1.00, 0.00, -0.00, -1.00, 822.2, 371.0)">n</text><text xml:space="preserve" font-family="TrebuchetMS" font-size="36.0" fill="#000000" transform="matrix(1.00, 0.00, -0.00, -1.00, 841.9, 371.0)">k</text></g></g><g><clipPath id="clip-126"><path d="M 601.8 357.3 L 652.6 357.3 L 652.6 408.1 L 601.8 408.1 Z M 601.8 357.3 "></path></clipPath><g clip-path="url(#clip-126)"><image xlink:href="../../012418F2-C9DB-43BA-8424-4651D57B56D3/assets/35AD6C6153D2937708B91BCF58F5E767.jpeg" width="51.00" height="51.00" transform="matrix(1.00, 0.00, -0.00, -1.00, 602.0, 408.0)"></image></g></g><g><clipPath id="clip-127"><path d="M 617.5 178.9 L 789.1 178.9 L 789.1 241.8 L 617.5 241.8 Z M 617.5 178.9 "></path></clipPath><g clip-path="url(#clip-127)"><text xml:space="preserve" font-family="TrebuchetMS" font-size="36.0" fill="#000000" transform="matrix(1.00, 0.00, -0.00, -1.00, 628.0, 197.0)">T</text><text xml:space="preserve" font-family="TrebuchetMS" font-size="36.0" fill="#000000" transform="matrix(1.00, 0.00, -0.00, -1.00, 644.4, 197.0)">o</text><text xml:space="preserve" font-family="TrebuchetMS" font-size="36.0" fill="#000000" transform="matrix(1.00, 0.00, -0.00, -1.00, 663.7, 197.0)">:</text><text xml:space="preserve" font-family="TrebuchetMS" font-size="36.0" fill="#000000" transform="matrix(1.00, 0.00, -0.00, -1.00, 676.9, 197.0)"> </text><text xml:space="preserve" font-family="TrebuchetMS" font-size="36.0" fill="#000000" transform="matrix(1.00, 0.00, -0.00, -1.00, 687.8, 197.0)">D</text><text xml:space="preserve" font-family="TrebuchetMS" font-size="36.0" fill="#000000" transform="matrix(1.00, 0.00, -0.00, -1.00, 709.9, 197.0)">a</text><text xml:space="preserve" font-family="TrebuchetMS" font-size="36.0" fill="#000000" transform="matrix(1.00, 0.00, -0.00, -1.00, 728.8, 197.0)">v</text><text xml:space="preserve" font-family="TrebuchetMS" font-size="36.0" fill="#000000" transform="matrix(1.00, 0.00, -0.00, -1.00, 746.4, 197.0)">i</text><text xml:space="preserve" font-family="TrebuchetMS" font-size="36.0" fill="#000000" transform="matrix(1.00, 0.00, -0.00, -1.00, 756.7, 197.0)">d</text></g></g><g><clipPath id="clip-128"><path d="M 617.5 93.7 L 889.0 93.7 L 889.0 156.6 L 617.5 156.6 Z M 617.5 93.7 "></path></clipPath><g clip-path="url(#clip-128)"><text xml:space="preserve" font-family="TrebuchetMS" font-size="36.0" fill="#000000" transform="matrix(1.00, 0.00, -0.00, -1.00, 628.0, 112.0)">A</text><text xml:space="preserve" font-family="TrebuchetMS" font-size="36.0" fill="#000000" transform="matrix(1.00, 0.00, -0.00, -1.00, 649.2, 112.0)">m</text><text xml:space="preserve" font-family="TrebuchetMS" font-size="36.0" fill="#000000" transform="matrix(1.00, 0.00, -0.00, -1.00, 679.1, 112.0)">o</text><text xml:space="preserve" font-family="TrebuchetMS" font-size="36.0" fill="#000000" transform="matrix(1.00, 0.00, -0.00, -1.00, 698.4, 112.0)">u</text><text xml:space="preserve" font-family="TrebuchetMS" font-size="36.0" fill="#000000" transform="matrix(1.00, 0.00, -0.00, -1.00, 718.1, 112.0)">n</text><text xml:space="preserve" font-family="TrebuchetMS" font-size="36.0" fill="#000000" transform="matrix(1.00, 0.00, -0.00, -1.00, 737.8, 112.0)">t</text><text xml:space="preserve" font-family="TrebuchetMS" font-size="36.0" fill="#000000" transform="matrix(1.00, 0.00, -0.00, -1.00, 752.1, 112.0)">:</text><text xml:space="preserve" font-family="TrebuchetMS" font-size="36.0" fill="#000000" transform="matrix(1.00, 0.00, -0.00, -1.00, 765.3, 112.0)"> </text><text xml:space="preserve" font-family="TrebuchetMS" font-size="36.0" fill="#000000" transform="matrix(1.00, 0.00, -0.00, -1.00, 776.2, 112.0)">2</text><text xml:space="preserve" font-family="TrebuchetMS" font-size="36.0" fill="#000000" transform="matrix(1.00, 0.00, -0.00, -1.00, 795.1, 112.0)">5</text><text xml:space="preserve" font-family="TrebuchetMS" font-size="36.0" fill="#000000" transform="matrix(1.00, 0.00, -0.00, -1.00, 814.0, 112.0)">B</text><text xml:space="preserve" font-family="TrebuchetMS" font-size="36.0" fill="#000000" transform="matrix(1.00, 0.00, -0.00, -1.00, 834.4, 112.0)">T</text><text xml:space="preserve" font-family="TrebuchetMS" font-size="36.0" fill="#000000" transform="matrix(1.00, 0.00, -0.00, -1.00, 855.3, 112.0)">C</text></g></g><g><clipPath id="clip-129"><path d="M 1177.2 348.4 L 1476.5 348.4 L 1476.5 411.3 L 1177.2 411.3 Z M 1177.2 348.4 "></path></clipPath><g clip-path="url(#clip-129)"><text xml:space="preserve" font-family="TrebuchetMS" font-size="36.0" fill="#000000" transform="matrix(1.00, 0.00, -0.00, -1.00, 1188.0, 367.0)">D</text><text xml:space="preserve" font-family="TrebuchetMS" font-size="36.0" fill="#000000" transform="matrix(1.00, 0.00, -0.00, -1.00, 1210.1, 367.0)">a</text><text xml:space="preserve" font-family="TrebuchetMS" font-size="36.0" fill="#000000" transform="matrix(1.00, 0.00, -0.00, -1.00, 1229.0, 367.0)">t</text><text xml:space="preserve" font-family="TrebuchetMS" font-size="36.0" fill="#000000" transform="matrix(1.00, 0.00, -0.00, -1.00, 1243.3, 367.0)">e</text><text xml:space="preserve" font-family="TrebuchetMS" font-size="36.0" fill="#000000" transform="matrix(1.00, 0.00, -0.00, -1.00, 1262.9, 367.0)">:</text><text xml:space="preserve" font-family="TrebuchetMS" font-size="36.0" fill="#000000" transform="matrix(1.00, 0.00, -0.00, -1.00, 1276.2, 367.0)"> </text><text xml:space="preserve" font-family="TrebuchetMS" font-size="36.0" fill="#000000" transform="matrix(1.00, 0.00, -0.00, -1.00, 1287.0, 367.0)">1</text><text xml:space="preserve" font-family="TrebuchetMS" font-size="36.0" fill="#000000" transform="matrix(1.00, 0.00, -0.00, -1.00, 1305.9, 367.0)">4</text><text xml:space="preserve" font-family="TrebuchetMS" font-size="36.0" fill="#000000" transform="matrix(1.00, 0.00, -0.00, -1.00, 1324.8, 367.0)">-</text><text xml:space="preserve" font-family="TrebuchetMS" font-size="36.0" fill="#000000" transform="matrix(1.00, 0.00, -0.00, -1.00, 1338.0, 367.0)">0</text><text xml:space="preserve" font-family="TrebuchetMS" font-size="36.0" fill="#000000" transform="matrix(1.00, 0.00, -0.00, -1.00, 1356.9, 367.0)">3</text><text xml:space="preserve" font-family="TrebuchetMS" font-size="36.0" fill="#000000" transform="matrix(1.00, 0.00, -0.00, -1.00, 1375.8, 367.0)">-</text><text xml:space="preserve" font-family="TrebuchetMS" font-size="36.0" fill="#000000" transform="matrix(1.00, 0.00, -0.00, -1.00, 1389.0, 367.0)">2</text><text xml:space="preserve" font-family="TrebuchetMS" font-size="36.0" fill="#000000" transform="matrix(1.00, 0.00, -0.00, -1.00, 1407.9, 367.0)">0</text><text xml:space="preserve" font-family="TrebuchetMS" font-size="36.0" fill="#000000" transform="matrix(1.00, 0.00, -0.00, -1.00, 1426.8, 367.0)">1</text><text xml:space="preserve" font-family="TrebuchetMS" font-size="36.0" fill="#000000" transform="matrix(1.00, 0.00, -0.00, -1.00, 1445.7, 367.0)">6</text></g></g><g><clipPath id="clip-130"><path d="M 986.0 67.3 L 1563.5 67.3 L 1563.5 229.2 L 986.0 229.2 Z M 986.0 67.3 "></path></clipPath><g clip-path="url(#clip-130)"><text xml:space="preserve" font-family="TrebuchetMS" font-size="36.0" fill="#000000" transform="matrix(1.00, 0.00, -0.00, -1.00, 1013.0, 124.0)">S</text><text xml:space="preserve" font-family="TrebuchetMS" font-size="36.0" fill="#000000" transform="matrix(1.00, 0.00, -0.00, -1.00, 1030.3, 124.0)">i</text><text xml:space="preserve" font-family="TrebuchetMS" font-size="36.0" fill="#000000" transform="matrix(1.00, 0.00, -0.00, -1.00, 1040.6, 124.0)">g</text><text xml:space="preserve" font-family="TrebuchetMS" font-size="36.0" fill="#000000" transform="matrix(1.00, 0.00, -0.00, -1.00, 1058.7, 124.0)">n</text><text xml:space="preserve" font-family="TrebuchetMS" font-size="36.0" fill="#000000" transform="matrix(1.00, 0.00, -0.00, -1.00, 1078.3, 124.0)">a</text><text xml:space="preserve" font-family="TrebuchetMS" font-size="36.0" fill="#000000" transform="matrix(1.00, 0.00, -0.00, -1.00, 1097.3, 124.0)">t</text><text xml:space="preserve" font-family="TrebuchetMS" font-size="36.0" fill="#000000" transform="matrix(1.00, 0.00, -0.00, -1.00, 1111.6, 124.0)">u</text><text xml:space="preserve" font-family="TrebuchetMS" font-size="36.0" fill="#000000" transform="matrix(1.00, 0.00, -0.00, -1.00, 1131.2, 124.0)">r</text><text xml:space="preserve" font-family="TrebuchetMS" font-size="36.0" fill="#000000" transform="matrix(1.00, 0.00, -0.00, -1.00, 1145.2, 124.0)">e</text><text xml:space="preserve" font-family="TrebuchetMS" font-size="36.0" fill="#000000" transform="matrix(1.00, 0.00, -0.00, -1.00, 1164.9, 124.0)">:</text><text xml:space="preserve" font-family="TrebuchetMS" font-size="36.0" fill="#000000" transform="matrix(1.00, 0.00, -0.00, -1.00, 1178.1, 124.0)"> </text><text xml:space="preserve" font-family="BrushScriptMT" font-style="italic" font-size="88.0" fill="#000000" transform="matrix(1.00, 0.00, -0.00, -1.00, 1188.9, 124.0)">C</text><text xml:space="preserve" font-family="BrushScriptMT" font-style="italic" font-size="88.0" fill="#000000" transform="matrix(1.00, 0.00, -0.00, -1.00, 1242.0, 124.0)">a</text><text xml:space="preserve" font-family="BrushScriptMT" font-style="italic" font-size="88.0" fill="#000000" transform="matrix(1.00, 0.00, -0.00, -1.00, 1277.7, 124.0)">r</text><text xml:space="preserve" font-family="BrushScriptMT" font-style="italic" font-size="88.0" fill="#000000" transform="matrix(1.00, 0.00, -0.00, -1.00, 1303.4, 124.0)">l</text><text xml:space="preserve" font-family="BrushScriptMT" font-style="italic" font-size="88.0" fill="#000000" transform="matrix(1.00, 0.00, -0.00, -1.00, 1323.6, 124.0)"> </text><text xml:space="preserve" font-family="BrushScriptMT" font-style="italic" font-size="88.0" fill="#000000" transform="matrix(1.00, 0.00, -0.00, -1.00, 1348.2, 124.0)">E</text><text xml:space="preserve" font-family="BrushScriptMT" font-style="italic" font-size="88.0" fill="#000000" transform="matrix(1.00, 0.00, -0.00, -1.00, 1402.4, 124.0)">d</text><text xml:space="preserve" font-family="BrushScriptMT" font-style="italic" font-size="88.0" fill="#000000" transform="matrix(1.00, 0.00, -0.00, -1.00, 1439.1, 124.0)">w</text><text xml:space="preserve" font-family="BrushScriptMT" font-style="italic" font-size="88.0" fill="#000000" transform="matrix(1.00, 0.00, -0.00, -1.00, 1482.3, 124.0)">i</text><text xml:space="preserve" font-family="BrushScriptMT" font-style="italic" font-size="88.0" fill="#000000" transform="matrix(1.00, 0.00, -0.00, -1.00, 1502.4, 124.0)">n</text></g></g><g><clipPath id="clip-131"><path d="M 576.6 462.2 L 1570.6 462.2 L 1570.6 833.6 L 576.6 833.6 Z M 576.6 462.2 "></path></clipPath><g clip-path="url(#clip-131)"><path d="M 578.6 831.6 L 1568.6 831.6 L 1568.6 464.2 L 578.6 464.2 Z M 578.6 831.6 " fill="#FFE599"></path><path d="M 0.0 0.0 L 990.0 0.0 L 990.0 367.5 L 0.0 367.5 Z M 0.0 0.0 " fill="none" stroke="#42719B" stroke-width="2.00" stroke-miterlimit="8.00" transform="matrix(1.00, 0.00, 0.00, -1.00, 578.6, 831.6)"></path></g></g><g><clipPath id="clip-132"><path d="M 617.5 669.6 L 735.7 669.6 L 735.7 732.5 L 617.5 732.5 Z M 617.5 669.6 "></path></clipPath><g clip-path="url(#clip-132)"><text xml:space="preserve" font-family="TrebuchetMS" font-size="36.0" fill="#000000" transform="matrix(1.00, 0.00, -0.00, -1.00, 628.0, 688.0)">F</text><text xml:space="preserve" font-family="TrebuchetMS" font-size="36.0" fill="#000000" transform="matrix(1.00, 0.00, -0.00, -1.00, 646.9, 688.0)">r</text><text xml:space="preserve" font-family="TrebuchetMS" font-size="36.0" fill="#000000" transform="matrix(1.00, 0.00, -0.00, -1.00, 660.9, 688.0)">o</text><text xml:space="preserve" font-family="TrebuchetMS" font-size="36.0" fill="#000000" transform="matrix(1.00, 0.00, -0.00, -1.00, 680.2, 688.0)">m</text><text xml:space="preserve" font-family="TrebuchetMS" font-size="36.0" fill="#000000" transform="matrix(1.00, 0.00, -0.00, -1.00, 710.1, 688.0)">:</text></g></g><g><clipPath id="clip-133"><path d="M 649.3 757.7 L 872.2 757.7 L 872.2 820.6 L 649.3 820.6 Z M 649.3 757.7 "></path></clipPath><g clip-path="url(#clip-133)"><text xml:space="preserve" font-family="TrebuchetMS" font-size="36.0" fill="#000000" transform="matrix(1.00, 0.00, -0.00, -1.00, 660.0, 776.0)">B</text><text xml:space="preserve" font-family="TrebuchetMS" font-size="36.0" fill="#000000" transform="matrix(1.00, 0.00, -0.00, -1.00, 680.4, 776.0)">i</text><text xml:space="preserve" font-family="TrebuchetMS" font-size="36.0" fill="#000000" transform="matrix(1.00, 0.00, -0.00, -1.00, 690.6, 776.0)">t</text><text xml:space="preserve" font-family="TrebuchetMS" font-size="36.0" fill="#000000" transform="matrix(1.00, 0.00, -0.00, -1.00, 704.9, 776.0)">c</text><text xml:space="preserve" font-family="TrebuchetMS" font-size="36.0" fill="#000000" transform="matrix(1.00, 0.00, -0.00, -1.00, 722.8, 776.0)">o</text><text xml:space="preserve" font-family="TrebuchetMS" font-size="36.0" fill="#000000" transform="matrix(1.00, 0.00, -0.00, -1.00, 742.1, 776.0)">i</text><text xml:space="preserve" font-family="TrebuchetMS" font-size="36.0" fill="#000000" transform="matrix(1.00, 0.00, -0.00, -1.00, 752.3, 776.0)">n</text><text xml:space="preserve" font-family="TrebuchetMS" font-size="36.0" fill="#000000" transform="matrix(1.00, 0.00, -0.00, -1.00, 772.0, 776.0)"> </text><text xml:space="preserve" font-family="TrebuchetMS" font-size="36.0" fill="#000000" transform="matrix(1.00, 0.00, -0.00, -1.00, 782.9, 776.0)">B</text><text xml:space="preserve" font-family="TrebuchetMS" font-size="36.0" fill="#000000" transform="matrix(1.00, 0.00, -0.00, -1.00, 803.2, 776.0)">a</text><text xml:space="preserve" font-family="TrebuchetMS" font-size="36.0" fill="#000000" transform="matrix(1.00, 0.00, -0.00, -1.00, 822.2, 776.0)">n</text><text xml:space="preserve" font-family="TrebuchetMS" font-size="36.0" fill="#000000" transform="matrix(1.00, 0.00, -0.00, -1.00, 841.9, 776.0)">k</text></g></g><g><clipPath id="clip-134"><path d="M 601.8 762.9 L 652.6 762.9 L 652.6 813.7 L 601.8 813.7 Z M 601.8 762.9 "></path></clipPath><g clip-path="url(#clip-134)"><image xlink:href="../../012418F2-C9DB-43BA-8424-4651D57B56D3/assets/35AD6C6153D2937708B91BCF58F5E767.jpeg" width="51.00" height="51.00" transform="matrix(1.00, 0.00, -0.00, -1.00, 602.0, 814.0)"></image></g></g><g><clipPath id="clip-135"><path d="M 617.5 584.5 L 1071.5 584.5 L 1071.5 647.4 L 617.5 647.4 Z M 617.5 584.5 "></path></clipPath><g clip-path="url(#clip-135)"><text xml:space="preserve" font-family="TrebuchetMS" font-size="36.0" fill="#000000" transform="matrix(1.00, 0.00, -0.00, -1.00, 628.0, 603.0)">T</text><text xml:space="preserve" font-family="TrebuchetMS" font-size="36.0" fill="#000000" transform="matrix(1.00, 0.00, -0.00, -1.00, 644.4, 603.0)">o</text><text xml:space="preserve" font-family="TrebuchetMS" font-size="36.0" fill="#000000" transform="matrix(1.00, 0.00, -0.00, -1.00, 663.7, 603.0)">:</text><text xml:space="preserve" font-family="TrebuchetMS" font-size="36.0" fill="#000000" transform="matrix(1.00, 0.00, -0.00, -1.00, 676.9, 603.0)"> </text><text xml:space="preserve" font-family="TrebuchetMS" font-size="36.0" fill="#000000" transform="matrix(1.00, 0.00, -0.00, -1.00, 687.8, 603.0)">2</text><text xml:space="preserve" font-family="TrebuchetMS" font-size="36.0" fill="#000000" transform="matrix(1.00, 0.00, -0.00, -1.00, 706.7, 603.0)"> </text><text xml:space="preserve" font-family="TrebuchetMS" font-size="36.0" fill="#000000" transform="matrix(1.00, 0.00, -0.00, -1.00, 717.5, 603.0)">o</text><text xml:space="preserve" font-family="TrebuchetMS" font-size="36.0" fill="#000000" transform="matrix(1.00, 0.00, -0.00, -1.00, 736.9, 603.0)">f</text><text xml:space="preserve" font-family="TrebuchetMS" font-size="36.0" fill="#000000" transform="matrix(1.00, 0.00, -0.00, -1.00, 750.2, 603.0)"> </text><text xml:space="preserve" font-family="TrebuchetMS" font-size="36.0" fill="#000000" transform="matrix(1.00, 0.00, -0.00, -1.00, 761.0, 603.0)">C</text><text xml:space="preserve" font-family="TrebuchetMS" font-size="36.0" fill="#000000" transform="matrix(1.00, 0.00, -0.00, -1.00, 782.5, 603.0)">a</text><text xml:space="preserve" font-family="TrebuchetMS" font-size="36.0" fill="#000000" transform="matrix(1.00, 0.00, -0.00, -1.00, 801.5, 603.0)">r</text><text xml:space="preserve" font-family="TrebuchetMS" font-size="36.0" fill="#000000" transform="matrix(1.00, 0.00, -0.00, -1.00, 815.5, 603.0)">l</text><text xml:space="preserve" font-family="TrebuchetMS" font-size="36.0" fill="#000000" transform="matrix(1.00, 0.00, -0.00, -1.00, 826.1, 603.0)">,</text><text xml:space="preserve" font-family="TrebuchetMS" font-size="36.0" fill="#000000" transform="matrix(1.00, 0.00, -0.00, -1.00, 839.3, 603.0)"> </text><text xml:space="preserve" font-family="TrebuchetMS" font-size="36.0" fill="#000000" transform="matrix(1.00, 0.00, -0.00, -1.00, 850.2, 603.0)">D</text><text xml:space="preserve" font-family="TrebuchetMS" font-size="36.0" fill="#000000" transform="matrix(1.00, 0.00, -0.00, -1.00, 872.2, 603.0)">a</text><text xml:space="preserve" font-family="TrebuchetMS" font-size="36.0" fill="#000000" transform="matrix(1.00, 0.00, -0.00, -1.00, 891.2, 603.0)">v</text><text xml:space="preserve" font-family="TrebuchetMS" font-size="36.0" fill="#000000" transform="matrix(1.00, 0.00, -0.00, -1.00, 908.8, 603.0)">i</text><text xml:space="preserve" font-family="TrebuchetMS" font-size="36.0" fill="#000000" transform="matrix(1.00, 0.00, -0.00, -1.00, 919.1, 603.0)">d</text><text xml:space="preserve" font-family="TrebuchetMS" font-size="36.0" fill="#000000" transform="matrix(1.00, 0.00, -0.00, -1.00, 939.1, 603.0)">,</text><text xml:space="preserve" font-family="TrebuchetMS" font-size="36.0" fill="#000000" transform="matrix(1.00, 0.00, -0.00, -1.00, 952.3, 603.0)"> </text><text xml:space="preserve" font-family="TrebuchetMS" font-size="36.0" fill="#000000" transform="matrix(1.00, 0.00, -0.00, -1.00, 963.2, 603.0)">E</text><text xml:space="preserve" font-family="TrebuchetMS" font-size="36.0" fill="#000000" transform="matrix(1.00, 0.00, -0.00, -1.00, 982.5, 603.0)">d</text><text xml:space="preserve" font-family="TrebuchetMS" font-size="36.0" fill="#000000" transform="matrix(1.00, 0.00, -0.00, -1.00, 1002.5, 603.0)">w</text><text xml:space="preserve" font-family="TrebuchetMS" font-size="36.0" fill="#000000" transform="matrix(1.00, 0.00, -0.00, -1.00, 1029.3, 603.0)">i</text><text xml:space="preserve" font-family="TrebuchetMS" font-size="36.0" fill="#000000" transform="matrix(1.00, 0.00, -0.00, -1.00, 1039.6, 603.0)">n</text></g></g><g><clipPath id="clip-136"><path d="M 617.5 499.3 L 889.0 499.3 L 889.0 562.2 L 617.5 562.2 Z M 617.5 499.3 "></path></clipPath><g clip-path="url(#clip-136)"><text xml:space="preserve" font-family="TrebuchetMS" font-size="36.0" fill="#000000" transform="matrix(1.00, 0.00, -0.00, -1.00, 628.0, 518.0)">A</text><text xml:space="preserve" font-family="TrebuchetMS" font-size="36.0" fill="#000000" transform="matrix(1.00, 0.00, -0.00, -1.00, 649.2, 518.0)">m</text><text xml:space="preserve" font-family="TrebuchetMS" font-size="36.0" fill="#000000" transform="matrix(1.00, 0.00, -0.00, -1.00, 679.1, 518.0)">o</text><text xml:space="preserve" font-family="TrebuchetMS" font-size="36.0" fill="#000000" transform="matrix(1.00, 0.00, -0.00, -1.00, 698.4, 518.0)">u</text><text xml:space="preserve" font-family="TrebuchetMS" font-size="36.0" fill="#000000" transform="matrix(1.00, 0.00, -0.00, -1.00, 718.1, 518.0)">n</text><text xml:space="preserve" font-family="TrebuchetMS" font-size="36.0" fill="#000000" transform="matrix(1.00, 0.00, -0.00, -1.00, 737.8, 518.0)">t</text><text xml:space="preserve" font-family="TrebuchetMS" font-size="36.0" fill="#000000" transform="matrix(1.00, 0.00, -0.00, -1.00, 752.1, 518.0)">:</text><text xml:space="preserve" font-family="TrebuchetMS" font-size="36.0" fill="#000000" transform="matrix(1.00, 0.00, -0.00, -1.00, 765.3, 518.0)"> </text><text xml:space="preserve" font-family="TrebuchetMS" font-size="36.0" fill="#000000" transform="matrix(1.00, 0.00, -0.00, -1.00, 776.2, 518.0)">2</text><text xml:space="preserve" font-family="TrebuchetMS" font-size="36.0" fill="#000000" transform="matrix(1.00, 0.00, -0.00, -1.00, 795.1, 518.0)">5</text><text xml:space="preserve" font-family="TrebuchetMS" font-size="36.0" fill="#000000" transform="matrix(1.00, 0.00, -0.00, -1.00, 814.0, 518.0)">B</text><text xml:space="preserve" font-family="TrebuchetMS" font-size="36.0" fill="#000000" transform="matrix(1.00, 0.00, -0.00, -1.00, 834.4, 518.0)">T</text><text xml:space="preserve" font-family="TrebuchetMS" font-size="36.0" fill="#000000" transform="matrix(1.00, 0.00, -0.00, -1.00, 855.3, 518.0)">C</text></g></g><g><clipPath id="clip-137"><path d="M 1177.2 754.0 L 1476.5 754.0 L 1476.5 816.9 L 1177.2 816.9 Z M 1177.2 754.0 "></path></clipPath><g clip-path="url(#clip-137)"><text xml:space="preserve" font-family="TrebuchetMS" font-size="36.0" fill="#000000" transform="matrix(1.00, 0.00, -0.00, -1.00, 1188.0, 772.0)">D</text><text xml:space="preserve" font-family="TrebuchetMS" font-size="36.0" fill="#000000" transform="matrix(1.00, 0.00, -0.00, -1.00, 1210.1, 772.0)">a</text><text xml:space="preserve" font-family="TrebuchetMS" font-size="36.0" fill="#000000" transform="matrix(1.00, 0.00, -0.00, -1.00, 1229.0, 772.0)">t</text><text xml:space="preserve" font-family="TrebuchetMS" font-size="36.0" fill="#000000" transform="matrix(1.00, 0.00, -0.00, -1.00, 1243.3, 772.0)">e</text><text xml:space="preserve" font-family="TrebuchetMS" font-size="36.0" fill="#000000" transform="matrix(1.00, 0.00, -0.00, -1.00, 1262.9, 772.0)">:</text><text xml:space="preserve" font-family="TrebuchetMS" font-size="36.0" fill="#000000" transform="matrix(1.00, 0.00, -0.00, -1.00, 1276.2, 772.0)"> </text><text xml:space="preserve" font-family="TrebuchetMS" font-size="36.0" fill="#000000" transform="matrix(1.00, 0.00, -0.00, -1.00, 1287.0, 772.0)">1</text><text xml:space="preserve" font-family="TrebuchetMS" font-size="36.0" fill="#000000" transform="matrix(1.00, 0.00, -0.00, -1.00, 1305.9, 772.0)">7</text><text xml:space="preserve" font-family="TrebuchetMS" font-size="36.0" fill="#000000" transform="matrix(1.00, 0.00, -0.00, -1.00, 1324.8, 772.0)">-</text><text xml:space="preserve" font-family="TrebuchetMS" font-size="36.0" fill="#000000" transform="matrix(1.00, 0.00, -0.00, -1.00, 1338.0, 772.0)">0</text><text xml:space="preserve" font-family="TrebuchetMS" font-size="36.0" fill="#000000" transform="matrix(1.00, 0.00, -0.00, -1.00, 1356.9, 772.0)">3</text><text xml:space="preserve" font-family="TrebuchetMS" font-size="36.0" fill="#000000" transform="matrix(1.00, 0.00, -0.00, -1.00, 1375.8, 772.0)">-</text><text xml:space="preserve" font-family="TrebuchetMS" font-size="36.0" fill="#000000" transform="matrix(1.00, 0.00, -0.00, -1.00, 1389.0, 772.0)">2</text><text xml:space="preserve" font-family="TrebuchetMS" font-size="36.0" fill="#000000" transform="matrix(1.00, 0.00, -0.00, -1.00, 1407.9, 772.0)">0</text><text xml:space="preserve" font-family="TrebuchetMS" font-size="36.0" fill="#000000" transform="matrix(1.00, 0.00, -0.00, -1.00, 1426.8, 772.0)">1</text><text xml:space="preserve" font-family="TrebuchetMS" font-size="36.0" fill="#000000" transform="matrix(1.00, 0.00, -0.00, -1.00, 1445.7, 772.0)">6</text></g></g><g><clipPath id="clip-138"><path d="M 1042.4 460.1 L 1378.8 460.1 L 1378.8 622.0 L 1042.4 622.0 Z M 1042.4 460.1 "></path></clipPath><g clip-path="url(#clip-138)"><text xml:space="preserve" font-family="TrebuchetMS" font-size="36.0" fill="#000000" transform="matrix(1.00, 0.00, -0.00, -1.00, 1069.0, 517.0)">S</text><text xml:space="preserve" font-family="TrebuchetMS" font-size="36.0" fill="#000000" transform="matrix(1.00, 0.00, -0.00, -1.00, 1086.3, 517.0)">i</text><text xml:space="preserve" font-family="TrebuchetMS" font-size="36.0" fill="#000000" transform="matrix(1.00, 0.00, -0.00, -1.00, 1096.6, 517.0)">g</text><text xml:space="preserve" font-family="TrebuchetMS" font-size="36.0" fill="#000000" transform="matrix(1.00, 0.00, -0.00, -1.00, 1114.7, 517.0)">n</text><text xml:space="preserve" font-family="TrebuchetMS" font-size="36.0" fill="#000000" transform="matrix(1.00, 0.00, -0.00, -1.00, 1134.3, 517.0)">a</text><text xml:space="preserve" font-family="TrebuchetMS" font-size="36.0" fill="#000000" transform="matrix(1.00, 0.00, -0.00, -1.00, 1153.3, 517.0)">t</text><text xml:space="preserve" font-family="TrebuchetMS" font-size="36.0" fill="#000000" transform="matrix(1.00, 0.00, -0.00, -1.00, 1167.6, 517.0)">u</text><text xml:space="preserve" font-family="TrebuchetMS" font-size="36.0" fill="#000000" transform="matrix(1.00, 0.00, -0.00, -1.00, 1187.2, 517.0)">r</text><text xml:space="preserve" font-family="TrebuchetMS" font-size="36.0" fill="#000000" transform="matrix(1.00, 0.00, -0.00, -1.00, 1201.2, 517.0)">e</text><text xml:space="preserve" font-family="TrebuchetMS" font-size="36.0" fill="#000000" transform="matrix(1.00, 0.00, -0.00, -1.00, 1220.9, 517.0)">:</text><text xml:space="preserve" font-family="TrebuchetMS" font-size="36.0" fill="#000000" transform="matrix(1.00, 0.00, -0.00, -1.00, 1234.1, 517.0)"> </text><text xml:space="preserve" font-family="BrushScriptMT" font-style="italic" font-size="88.0" fill="#000000" transform="matrix(1.00, 0.00, -0.00, -1.00, 1244.9, 517.0)">B</text><text xml:space="preserve" font-family="BrushScriptMT" font-style="italic" font-size="88.0" fill="#000000" transform="matrix(1.00, 0.00, -0.00, -1.00, 1293.4, 517.0)">o</text><text xml:space="preserve" font-family="BrushScriptMT" font-style="italic" font-size="88.0" fill="#000000" transform="matrix(1.00, 0.00, -0.00, -1.00, 1320.9, 517.0)">b</text></g></g><g><clipPath id="clip-139"><path d="M 736.5 649.1 L 1005.7 649.1 L 1005.7 748.7 L 736.5 748.7 Z M 736.5 649.1 "></path></clipPath><g clip-path="url(#clip-139)"><image xlink:href="../../BE3B8430-1335-480E-A5EF-A0DABB8DDA3D/assets/FEFFCB46941701988011DDB335849A1F.png" width="270.00" height="100.00" transform="matrix(1.00, 0.00, -0.00, -1.00, 737.0, 749.0)"></image></g></g><image xlink:href="../../E012F984-440B-4427-B74F-21B9F07D15BF/assets/C3A53CA6FACCC881C35F79A17AC83E6D.png" width="270.00" height="108.00" transform="matrix(1.00, 0.00, -0.00, -1.00, 737.0, 347.0)"></image><text xml:space="preserve" font-family="TrebuchetMS" font-size="48.0" fill="#000000" transform="matrix(1.00, 0.00, -0.00, -1.00, 77.0, 707.0)">m</text><text xml:space="preserve" font-family="TrebuchetMS" font-size="48.0" fill="#000000" transform="matrix(1.00, 0.00, -0.00, -1.00, 116.8, 707.0)">-</text><text xml:space="preserve" font-family="TrebuchetMS" font-size="48.0" fill="#000000" transform="matrix(1.00, 0.00, -0.00, -1.00, 134.5, 707.0)">o</text><text xml:space="preserve" font-family="TrebuchetMS" font-size="48.0" fill="#000000" transform="matrix(1.00, 0.00, -0.00, -1.00, 160.2, 707.0)">f</text><text xml:space="preserve" font-family="TrebuchetMS" font-size="48.0" fill="#000000" transform="matrix(1.00, 0.00, -0.00, -1.00, 177.9, 707.0)">-</text><text xml:space="preserve" font-family="TrebuchetMS" font-size="48.0" fill="#000000" transform="matrix(1.00, 0.00, -0.00, -1.00, 195.6, 707.0)">n</text><text xml:space="preserve" font-family="TrebuchetMS" font-size="48.0" fill="#000000" transform="matrix(1.00, 0.00, -0.00, -1.00, 221.8, 707.0)"> </text><text xml:space="preserve" font-family="TrebuchetMS" font-size="48.0" fill="#000000" transform="matrix(1.00, 0.00, -0.00, -1.00, 236.3, 707.0)">m</text><text xml:space="preserve" font-family="TrebuchetMS" font-size="48.0" fill="#000000" transform="matrix(1.00, 0.00, -0.00, -1.00, 276.1, 707.0)">u</text><text xml:space="preserve" font-family="TrebuchetMS" font-size="48.0" fill="#000000" transform="matrix(1.00, 0.00, -0.00, -1.00, 302.4, 707.0)">l</text><text xml:space="preserve" font-family="TrebuchetMS" font-size="48.0" fill="#000000" transform="matrix(1.00, 0.00, -0.00, -1.00, 316.5, 707.0)">t</text><text xml:space="preserve" font-family="TrebuchetMS" font-size="48.0" fill="#000000" transform="matrix(1.00, 0.00, -0.00, -1.00, 335.6, 707.0)">i</text><text xml:space="preserve" font-family="TrebuchetMS" font-size="48.0" fill="#000000" transform="matrix(1.00, 0.00, -0.00, -1.00, 349.3, 707.0)">-</text><text xml:space="preserve" font-family="TrebuchetMS" font-size="48.0" fill="#000000" transform="matrix(1.00, 0.00, -0.00, -1.00, 366.9, 707.0)">s</text><text xml:space="preserve" font-family="TrebuchetMS" font-size="48.0" fill="#000000" transform="matrix(1.00, 0.00, -0.00, -1.00, 386.4, 707.0)">i</text><text xml:space="preserve" font-family="TrebuchetMS" font-size="48.0" fill="#000000" transform="matrix(1.00, 0.00, -0.00, -1.00, 400.1, 707.0)">g</text><text xml:space="preserve" font-family="TrebuchetMS" font-size="48.0" fill="#000000" transform="matrix(1.00, 0.00, -0.00, -1.00, 424.1, 707.0)">n</text><text xml:space="preserve" font-family="TrebuchetMS" font-size="48.0" fill="#000000" transform="matrix(1.00, 0.00, -0.00, -1.00, 450.4, 707.0)">a</text><text xml:space="preserve" font-family="TrebuchetMS" font-size="48.0" fill="#000000" transform="matrix(1.00, 0.00, -0.00, -1.00, 475.6, 707.0)">t</text><text xml:space="preserve" font-family="TrebuchetMS" font-size="48.0" fill="#000000" transform="matrix(1.00, 0.00, -0.00, -1.00, 494.7, 707.0)">u</text><text xml:space="preserve" font-family="TrebuchetMS" font-size="48.0" fill="#000000" transform="matrix(1.00, 0.00, -0.00, -1.00, 520.9, 707.0)">r</text><text xml:space="preserve" font-family="TrebuchetMS" font-size="48.0" fill="#000000" transform="matrix(1.00, 0.00, -0.00, -1.00, 539.6, 707.0)">e</text><text xml:space="preserve" font-family="TrebuchetMS" font-size="48.0" fill="#000000" transform="matrix(1.00, 0.00, -0.00, -1.00, 565.8, 707.0)"> </text><text xml:space="preserve" font-family="TrebuchetMS" font-size="48.0" fill="#000000" transform="matrix(1.00, 0.00, -0.00, -1.00, 77.0, 651.0)">e</text><text xml:space="preserve" font-family="TrebuchetMS" font-size="48.0" fill="#000000" transform="matrix(1.00, 0.00, -0.00, -1.00, 103.2, 651.0)">.</text><text xml:space="preserve" font-family="TrebuchetMS" font-size="48.0" fill="#000000" transform="matrix(1.00, 0.00, -0.00, -1.00, 120.8, 651.0)">g</text><text xml:space="preserve" font-family="TrebuchetMS" font-size="48.0" fill="#000000" transform="matrix(1.00, 0.00, -0.00, -1.00, 144.9, 651.0)">.</text><text xml:space="preserve" font-family="TrebuchetMS" font-size="48.0" fill="#000000" transform="matrix(1.00, 0.00, -0.00, -1.00, 162.6, 651.0)"> </text><text xml:space="preserve" font-family="TrebuchetMS" font-size="48.0" fill="#000000" transform="matrix(1.00, 0.00, -0.00, -1.00, 177.0, 651.0)">2</text><text xml:space="preserve" font-family="TrebuchetMS" font-size="48.0" fill="#000000" transform="matrix(1.00, 0.00, -0.00, -1.00, 202.2, 651.0)">-</text><text xml:space="preserve" font-family="TrebuchetMS" font-size="48.0" fill="#000000" transform="matrix(1.00, 0.00, -0.00, -1.00, 219.9, 651.0)">o</text><text xml:space="preserve" font-family="TrebuchetMS" font-size="48.0" fill="#000000" transform="matrix(1.00, 0.00, -0.00, -1.00, 245.6, 651.0)">f</text><text xml:space="preserve" font-family="TrebuchetMS" font-size="48.0" fill="#000000" transform="matrix(1.00, 0.00, -0.00, -1.00, 263.3, 651.0)">-</text><text xml:space="preserve" font-family="TrebuchetMS" font-size="48.0" fill="#000000" transform="matrix(1.00, 0.00, -0.00, -1.00, 281.0, 651.0)">3</text><text xml:space="preserve" font-family="TrebuchetMS" font-size="48.0" fill="#000000" transform="matrix(1.00, 0.00, -0.00, -1.00, 306.2, 651.0)"> </text><text xml:space="preserve" font-family="TrebuchetMS" font-size="48.0" fill="#000000" transform="matrix(1.00, 0.00, -0.00, -1.00, 320.6, 651.0)">m</text><text xml:space="preserve" font-family="TrebuchetMS" font-size="48.0" fill="#000000" transform="matrix(1.00, 0.00, -0.00, -1.00, 360.5, 651.0)">u</text><text xml:space="preserve" font-family="TrebuchetMS" font-size="48.0" fill="#000000" transform="matrix(1.00, 0.00, -0.00, -1.00, 386.7, 651.0)">l</text><text xml:space="preserve" font-family="TrebuchetMS" font-size="48.0" fill="#000000" transform="matrix(1.00, 0.00, -0.00, -1.00, 400.9, 651.0)">t</text><text xml:space="preserve" font-family="TrebuchetMS" font-size="48.0" fill="#000000" transform="matrix(1.00, 0.00, -0.00, -1.00, 419.9, 651.0)">i</text><text xml:space="preserve" font-family="TrebuchetMS" font-size="48.0" fill="#000000" transform="matrix(1.00, 0.00, -0.00, -1.00, 433.6, 651.0)">-</text><text xml:space="preserve" font-family="TrebuchetMS" font-size="48.0" fill="#000000" transform="matrix(1.00, 0.00, -0.00, -1.00, 451.3, 651.0)">s</text><text xml:space="preserve" font-family="TrebuchetMS" font-size="48.0" fill="#000000" transform="matrix(1.00, 0.00, -0.00, -1.00, 470.7, 651.0)">i</text><text xml:space="preserve" font-family="TrebuchetMS" font-size="48.0" fill="#000000" transform="matrix(1.00, 0.00, -0.00, -1.00, 484.4, 651.0)">g</text></g></svg>