<?xml version="1.0" encoding="UTF-8" standalone="no"?><svg xmlns="http://www.w3.org/2000/svg" xmlns:xlink="http://www.w3.org/1999/xlink" clip-rule="evenodd" stroke-miterlimit="4.00" viewBox="0 0 1622 83"><desc>SVG generated by Keynote</desc><defs></defs><g transform="matrix(1.00, 0.00, -0.00, -1.00, 0.0, 83.0)"><text xml:space="preserve" font-family="Helvetica-Light" font-size="83.6" fill="#000000" transform="matrix(1.00, 0.00, -0.00, -1.00, -3.0, 20.0)">C</text><text xml:space="preserve" font-family="Helvetica-Light" font-size="83.6" fill="#000000" transform="matrix(1.00, 0.00, -0.00, -1.00, 57.4, 20.0)">r</text><text xml:space="preserve" font-family="Helvetica-Light" font-size="83.6" fill="#000000" transform="matrix(1.00, 0.00, -0.00, -1.00, 83.7, 20.0)">e</text><text xml:space="preserve" font-family="Helvetica-Light" font-size="83.6" fill="#000000" transform="matrix(1.00, 0.00, -0.00, -1.00, 130.2, 20.0)">a</text><text xml:space="preserve" font-family="Helvetica-Light" font-size="83.6" fill="#000000" transform="matrix(1.00, 0.00, -0.00, -1.00, 176.7, 20.0)">t</text><text xml:space="preserve" font-family="Helvetica-Light" font-size="83.6" fill="#000000" transform="matrix(1.00, 0.00, -0.00, -1.00, 199.9, 20.0)">i</text><text xml:space="preserve" font-family="Helvetica-Light" font-size="83.6" fill="#000000" transform="matrix(1.00, 0.00, -0.00, -1.00, 218.5, 20.0)">n</text><text xml:space="preserve" font-family="Helvetica-Light" font-size="83.6" fill="#000000" transform="matrix(1.00, 0.00, -0.00, -1.00, 264.9, 20.0)">g</text><text xml:space="preserve" font-family="Helvetica-Light" font-size="83.6" fill="#000000" transform="matrix(1.00, 0.00, -0.00, -1.00, 316.0, 20.0)"> </text><text xml:space="preserve" font-family="Helvetica-Light" font-size="83.6" fill="#000000" transform="matrix(1.00, 0.00, -0.00, -1.00, 339.3, 20.0)">a</text><text xml:space="preserve" font-family="Helvetica-Light" font-size="83.6" fill="#000000" transform="matrix(1.00, 0.00, -0.00, -1.00, 385.7, 20.0)"> </text><text xml:space="preserve" font-family="Helvetica-Light" font-size="83.6" fill="#000000" transform="matrix(1.00, 0.00, -0.00, -1.00, 409.0, 20.0)">c</text><text xml:space="preserve" font-family="Helvetica-Light" font-size="83.6" fill="#000000" transform="matrix(1.00, 0.00, -0.00, -1.00, 455.5, 20.0)">h</text><text xml:space="preserve" font-family="Helvetica-Light" font-size="83.6" fill="#000000" transform="matrix(1.00, 0.00, -0.00, -1.00, 501.9, 20.0)">a</text><text xml:space="preserve" font-family="Helvetica-Light" font-size="83.6" fill="#000000" transform="matrix(1.00, 0.00, -0.00, -1.00, 548.4, 20.0)">i</text><text xml:space="preserve" font-family="Helvetica-Light" font-size="83.6" fill="#000000" transform="matrix(1.00, 0.00, -0.00, -1.00, 567.0, 20.0)">n</text><text xml:space="preserve" font-family="Helvetica-Light" font-size="83.6" fill="#000000" transform="matrix(1.00, 0.00, -0.00, -1.00, 613.5, 20.0)"> </text><text xml:space="preserve" font-family="Helvetica-Light" font-size="83.6" fill="#000000" transform="matrix(1.00, 0.00, -0.00, -1.00, 636.7, 20.0)">o</text><text xml:space="preserve" font-family="Helvetica-Light" font-size="83.6" fill="#000000" transform="matrix(1.00, 0.00, -0.00, -1.00, 683.2, 20.0)">f</text><text xml:space="preserve" font-family="Helvetica-Light" font-size="83.6" fill="#000000" transform="matrix(1.00, 0.00, -0.00, -1.00, 706.4, 20.0)"> </text><text xml:space="preserve" font-family="Helvetica-Light" font-size="83.6" fill="#000000" transform="matrix(1.00, 0.00, -0.00, -1.00, 729.7, 20.0)">t</text><text xml:space="preserve" font-family="Helvetica-Light" font-size="83.6" fill="#000000" transform="matrix(1.00, 0.00, -0.00, -1.00, 752.9, 20.0)">r</text><text xml:space="preserve" font-family="Helvetica-Light" font-size="83.6" fill="#000000" transform="matrix(1.00, 0.00, -0.00, -1.00, 780.8, 20.0)">a</text><text xml:space="preserve" font-family="Helvetica-Light" font-size="83.6" fill="#000000" transform="matrix(1.00, 0.00, -0.00, -1.00, 827.2, 20.0)">n</text><text xml:space="preserve" font-family="Helvetica-Light" font-size="83.6" fill="#000000" transform="matrix(1.00, 0.00, -0.00, -1.00, 873.7, 20.0)">s</text><text xml:space="preserve" font-family="Helvetica-Light" font-size="83.6" fill="#000000" transform="matrix(1.00, 0.00, -0.00, -1.00, 915.5, 20.0)">a</text><text xml:space="preserve" font-family="Helvetica-Light" font-size="83.6" fill="#000000" transform="matrix(1.00, 0.00, -0.00, -1.00, 962.0, 20.0)">c</text><text xml:space="preserve" font-family="Helvetica-Light" font-size="83.6" fill="#000000" transform="matrix(1.00, 0.00, -0.00, -1.00, 1008.5, 20.0)">t</text><text xml:space="preserve" font-family="Helvetica-Light" font-size="83.6" fill="#000000" transform="matrix(1.00, 0.00, -0.00, -1.00, 1031.7, 20.0)">i</text><text xml:space="preserve" font-family="Helvetica-Light" font-size="83.6" fill="#000000" transform="matrix(1.00, 0.00, -0.00, -1.00, 1050.3, 20.0)">o</text><text xml:space="preserve" font-family="Helvetica-Light" font-size="83.6" fill="#000000" transform="matrix(1.00, 0.00, -0.00, -1.00, 1096.8, 20.0)">n</text><text xml:space="preserve" font-family="Helvetica-Light" font-size="83.6" fill="#000000" transform="matrix(1.00, 0.00, -0.00, -1.00, 1143.2, 20.0)">s</text><text xml:space="preserve" font-family="Helvetica-Light" font-size="83.6" fill="#000000" transform="matrix(1.00, 0.00, -0.00, -1.00, 1185.0, 20.0)"> </text><text xml:space="preserve" font-family="Helvetica-Light" font-size="83.6" fill="#000000" transform="matrix(1.00, 0.00, -0.00, -1.00, 1208.3, 20.0)">w</text><text xml:space="preserve" font-family="Helvetica-Light" font-size="83.6" fill="#000000" transform="matrix(1.00, 0.00, -0.00, -1.00, 1268.6, 20.0)">i</text><text xml:space="preserve" font-family="Helvetica-Light" font-size="83.6" fill="#000000" transform="matrix(1.00, 0.00, -0.00, -1.00, 1287.2, 20.0)">t</text><text xml:space="preserve" font-family="Helvetica-Light" font-size="83.6" fill="#000000" transform="matrix(1.00, 0.00, -0.00, -1.00, 1310.4, 20.0)">h</text><text xml:space="preserve" font-family="Helvetica-Light" font-size="83.6" fill="#000000" transform="matrix(1.00, 0.00, -0.00, -1.00, 1356.9, 20.0)"> </text><text xml:space="preserve" font-family="Helvetica-Light" font-size="83.6" fill="#000000" transform="matrix(1.00, 0.00, -0.00, -1.00, 1380.2, 20.0)">s</text><text xml:space="preserve" font-family="Helvetica-Light" font-size="83.6" fill="#000000" transform="matrix(1.00, 0.00, -0.00, -1.00, 1422.0, 20.0)">e</text><text xml:space="preserve" font-family="Helvetica-Light" font-size="83.6" fill="#000000" transform="matrix(1.00, 0.00, -0.00, -1.00, 1468.4, 20.0)">g</text><text xml:space="preserve" font-family="Helvetica-Light" font-size="83.6" fill="#000000" transform="matrix(1.00, 0.00, -0.00, -1.00, 1519.5, 20.0)">w</text><text xml:space="preserve" font-family="Helvetica-Light" font-size="83.6" fill="#000000" transform="matrix(1.00, 0.00, -0.00, -1.00, 1579.9, 20.0)">i</text><text xml:space="preserve" font-family="Helvetica-Light" font-size="83.6" fill="#000000" transform="matrix(1.00, 0.00, -0.00, -1.00, 1598.4, 20.0)">t</text></g></svg>