<?xml version="1.0" encoding="UTF-8" standalone="no"?><svg xmlns="http://www.w3.org/2000/svg" xmlns:xlink="http://www.w3.org/1999/xlink" clip-rule="evenodd" stroke-miterlimit="4.00" viewBox="0 0 895 133"><desc>SVG generated by Keynote</desc><defs></defs><g transform="matrix(1.00, 0.00, -0.00, -1.00, 0.0, 133.0)"><text xml:space="preserve" font-family="TrebuchetMS" font-size="40.0" fill="#000000" transform="matrix(1.00, 0.00, -0.00, -1.00, 0.9, 94.5)">2</text><text xml:space="preserve" font-family="TrebuchetMS" font-size="40.0" fill="#000000" transform="matrix(1.00, 0.00, -0.00, -1.00, 21.9, 94.5)">.</text><text xml:space="preserve" font-family="TrebuchetMS" font-size="40.0" fill="#000000" transform="matrix(1.00, 0.00, -0.00, -1.00, 82.0, 95.0)">A</text><text xml:space="preserve" font-family="TrebuchetMS" font-size="40.0" fill="#000000" transform="matrix(1.00, 0.00, -0.00, -1.00, 105.6, 95.0)">l</text><text xml:space="preserve" font-family="TrebuchetMS" font-size="40.0" fill="#000000" transform="matrix(1.00, 0.00, -0.00, -1.00, 117.4, 95.0)">i</text><text xml:space="preserve" font-family="TrebuchetMS" font-size="40.0" fill="#000000" transform="matrix(1.00, 0.00, -0.00, -1.00, 128.8, 95.0)">c</text><text xml:space="preserve" font-family="TrebuchetMS" font-size="40.0" fill="#000000" transform="matrix(1.00, 0.00, -0.00, -1.00, 148.6, 95.0)">e</text><text xml:space="preserve" font-family="TrebuchetMS" font-size="40.0" fill="#000000" transform="matrix(1.00, 0.00, -0.00, -1.00, 170.4, 95.0)"> </text><text xml:space="preserve" font-family="TrebuchetMS" font-size="40.0" fill="#000000" transform="matrix(1.00, 0.00, -0.00, -1.00, 182.5, 95.0)">c</text><text xml:space="preserve" font-family="TrebuchetMS" font-size="40.0" fill="#000000" transform="matrix(1.00, 0.00, -0.00, -1.00, 202.3, 95.0)">r</text><text xml:space="preserve" font-family="TrebuchetMS" font-size="40.0" fill="#000000" transform="matrix(1.00, 0.00, -0.00, -1.00, 217.8, 95.0)">e</text><text xml:space="preserve" font-family="TrebuchetMS" font-size="40.0" fill="#000000" transform="matrix(1.00, 0.00, -0.00, -1.00, 239.7, 95.0)">a</text><text xml:space="preserve" font-family="TrebuchetMS" font-size="40.0" fill="#000000" transform="matrix(1.00, 0.00, -0.00, -1.00, 260.7, 95.0)">t</text><text xml:space="preserve" font-family="TrebuchetMS" font-size="40.0" fill="#000000" transform="matrix(1.00, 0.00, -0.00, -1.00, 276.6, 95.0)">e</text><text xml:space="preserve" font-family="TrebuchetMS" font-size="40.0" fill="#000000" transform="matrix(1.00, 0.00, -0.00, -1.00, 298.4, 95.0)">s</text><text xml:space="preserve" font-family="TrebuchetMS" font-size="40.0" fill="#000000" transform="matrix(1.00, 0.00, -0.00, -1.00, 314.6, 95.0)"> </text><text xml:space="preserve" font-family="TrebuchetMS" font-size="40.0" fill="#000000" transform="matrix(1.00, 0.00, -0.00, -1.00, 326.7, 95.0)">t</text><text xml:space="preserve" font-family="TrebuchetMS" font-size="40.0" fill="#000000" transform="matrix(1.00, 0.00, -0.00, -1.00, 342.5, 95.0)">h</text><text xml:space="preserve" font-family="TrebuchetMS" font-size="40.0" fill="#000000" transform="matrix(1.00, 0.00, -0.00, -1.00, 364.4, 95.0)">e</text><text xml:space="preserve" font-family="TrebuchetMS" font-size="40.0" fill="#000000" transform="matrix(1.00, 0.00, -0.00, -1.00, 386.2, 95.0)"> </text><text xml:space="preserve" font-family="TrebuchetMS" font-size="40.0" fill="#000000" transform="matrix(1.00, 0.00, -0.00, -1.00, 398.3, 95.0)">g</text><text xml:space="preserve" font-family="TrebuchetMS" font-size="40.0" fill="#000000" transform="matrix(1.00, 0.00, -0.00, -1.00, 418.4, 95.0)">r</text><text xml:space="preserve" font-family="TrebuchetMS" font-size="40.0" fill="#000000" transform="matrix(1.00, 0.00, -0.00, -1.00, 433.9, 95.0)">e</text><text xml:space="preserve" font-family="TrebuchetMS" font-size="40.0" fill="#000000" transform="matrix(1.00, 0.00, -0.00, -1.00, 455.8, 95.0)">e</text><text xml:space="preserve" font-family="TrebuchetMS" font-size="40.0" fill="#000000" transform="matrix(1.00, 0.00, -0.00, -1.00, 477.6, 95.0)">n</text><text xml:space="preserve" font-family="TrebuchetMS" font-size="40.0" fill="#000000" transform="matrix(1.00, 0.00, -0.00, -1.00, 499.5, 95.0)"> </text><text xml:space="preserve" font-family="TrebuchetMS" font-size="40.0" fill="#000000" transform="matrix(1.00, 0.00, -0.00, -1.00, 511.5, 95.0)">c</text><text xml:space="preserve" font-family="TrebuchetMS" font-size="40.0" fill="#000000" transform="matrix(1.00, 0.00, -0.00, -1.00, 531.3, 95.0)">h</text><text xml:space="preserve" font-family="TrebuchetMS" font-size="40.0" fill="#000000" transform="matrix(1.00, 0.00, -0.00, -1.00, 553.2, 95.0)">e</text><text xml:space="preserve" font-family="TrebuchetMS" font-size="40.0" fill="#000000" transform="matrix(1.00, 0.00, -0.00, -1.00, 575.0, 95.0)">q</text><text xml:space="preserve" font-family="TrebuchetMS" font-size="40.0" fill="#000000" transform="matrix(1.00, 0.00, -0.00, -1.00, 597.3, 95.0)">u</text><text xml:space="preserve" font-family="TrebuchetMS" font-size="40.0" fill="#000000" transform="matrix(1.00, 0.00, -0.00, -1.00, 619.2, 95.0)">e</text><text xml:space="preserve" font-family="TrebuchetMS" font-size="40.0" fill="#000000" transform="matrix(1.00, 0.00, -0.00, -1.00, 641.0, 95.0)">,</text><text xml:space="preserve" font-family="TrebuchetMS" font-size="40.0" fill="#000000" transform="matrix(1.00, 0.00, -0.00, -1.00, 655.7, 95.0)"> </text><text xml:space="preserve" font-family="TrebuchetMS" font-size="40.0" fill="#000000" transform="matrix(1.00, 0.00, -0.00, -1.00, 667.8, 95.0)">s</text><text xml:space="preserve" font-family="TrebuchetMS" font-size="40.0" fill="#000000" transform="matrix(1.00, 0.00, -0.00, -1.00, 684.0, 95.0)">e</text><text xml:space="preserve" font-family="TrebuchetMS" font-size="40.0" fill="#000000" transform="matrix(1.00, 0.00, -0.00, -1.00, 705.8, 95.0)">n</text><text xml:space="preserve" font-family="TrebuchetMS" font-size="40.0" fill="#000000" transform="matrix(1.00, 0.00, -0.00, -1.00, 727.7, 95.0)">d</text><text xml:space="preserve" font-family="TrebuchetMS" font-size="40.0" fill="#000000" transform="matrix(1.00, 0.00, -0.00, -1.00, 750.0, 95.0)">i</text><text xml:space="preserve" font-family="TrebuchetMS" font-size="40.0" fill="#000000" transform="matrix(1.00, 0.00, -0.00, -1.00, 761.4, 95.0)">n</text><text xml:space="preserve" font-family="TrebuchetMS" font-size="40.0" fill="#000000" transform="matrix(1.00, 0.00, -0.00, -1.00, 783.2, 95.0)">g</text><text xml:space="preserve" font-family="TrebuchetMS" font-size="40.0" fill="#000000" transform="matrix(1.00, 0.00, -0.00, -1.00, 803.3, 95.0)"> </text><text xml:space="preserve" font-family="TrebuchetMS" font-size="40.0" fill="#000000" transform="matrix(1.00, 0.00, -0.00, -1.00, 82.0, 52.0)">2</text><text xml:space="preserve" font-family="TrebuchetMS" font-size="40.0" fill="#000000" transform="matrix(1.00, 0.00, -0.00, -1.00, 103.0, 52.0)">5</text><text xml:space="preserve" font-family="TrebuchetMS" font-size="40.0" fill="#000000" transform="matrix(1.00, 0.00, -0.00, -1.00, 124.0, 52.0)">B</text><text xml:space="preserve" font-family="TrebuchetMS" font-size="40.0" fill="#000000" transform="matrix(1.00, 0.00, -0.00, -1.00, 146.6, 52.0)">T</text><text xml:space="preserve" font-family="TrebuchetMS" font-size="40.0" fill="#000000" transform="matrix(1.00, 0.00, -0.00, -1.00, 169.8, 52.0)">C</text><text xml:space="preserve" font-family="TrebuchetMS" font-size="40.0" fill="#000000" transform="matrix(1.00, 0.00, -0.00, -1.00, 193.8, 52.0)"> </text><text xml:space="preserve" font-family="TrebuchetMS" font-size="40.0" fill="#000000" transform="matrix(1.00, 0.00, -0.00, -1.00, 205.8, 52.0)">t</text><text xml:space="preserve" font-family="TrebuchetMS" font-size="40.0" fill="#000000" transform="matrix(1.00, 0.00, -0.00, -1.00, 221.7, 52.0)">o</text><text xml:space="preserve" font-family="TrebuchetMS" font-size="40.0" fill="#000000" transform="matrix(1.00, 0.00, -0.00, -1.00, 243.1, 52.0)"> </text><text xml:space="preserve" font-family="TrebuchetMS" font-size="40.0" fill="#000000" transform="matrix(1.00, 0.00, -0.00, -1.00, 255.2, 52.0)">“</text><text xml:space="preserve" font-family="TrebuchetMS" font-size="40.0" fill="#000000" transform="matrix(1.00, 0.00, -0.00, -1.00, 276.2, 52.0)">S</text><text xml:space="preserve" font-family="TrebuchetMS" font-size="40.0" fill="#000000" transform="matrix(1.00, 0.00, -0.00, -1.00, 295.4, 52.0)">e</text><text xml:space="preserve" font-family="TrebuchetMS" font-size="40.0" fill="#000000" transform="matrix(1.00, 0.00, -0.00, -1.00, 317.3, 52.0)">g</text><text xml:space="preserve" font-family="TrebuchetMS" font-size="40.0" fill="#000000" transform="matrix(1.00, 0.00, -0.00, -1.00, 337.3, 52.0)">w</text><text xml:space="preserve" font-family="TrebuchetMS" font-size="40.0" fill="#000000" transform="matrix(1.00, 0.00, -0.00, -1.00, 367.1, 52.0)">i</text><text xml:space="preserve" font-family="TrebuchetMS" font-size="40.0" fill="#000000" transform="matrix(1.00, 0.00, -0.00, -1.00, 378.5, 52.0)">t</text><text xml:space="preserve" font-family="TrebuchetMS" font-size="40.0" fill="#000000" transform="matrix(1.00, 0.00, -0.00, -1.00, 394.4, 52.0)"> </text><text xml:space="preserve" font-family="TrebuchetMS" font-size="40.0" fill="#000000" transform="matrix(1.00, 0.00, -0.00, -1.00, 406.5, 52.0)">2</text><text xml:space="preserve" font-family="TrebuchetMS" font-size="40.0" fill="#000000" transform="matrix(1.00, 0.00, -0.00, -1.00, 427.5, 52.0)"> </text><text xml:space="preserve" font-family="TrebuchetMS" font-size="40.0" fill="#000000" transform="matrix(1.00, 0.00, -0.00, -1.00, 439.5, 52.0)">o</text><text xml:space="preserve" font-family="TrebuchetMS" font-size="40.0" fill="#000000" transform="matrix(1.00, 0.00, -0.00, -1.00, 461.0, 52.0)">f</text><text xml:space="preserve" font-family="TrebuchetMS" font-size="40.0" fill="#000000" transform="matrix(1.00, 0.00, -0.00, -1.00, 475.7, 52.0)"> </text><text xml:space="preserve" font-family="TrebuchetMS" font-size="40.0" fill="#000000" transform="matrix(1.00, 0.00, -0.00, -1.00, 485.6, 52.0)">A</text><text xml:space="preserve" font-family="TrebuchetMS" font-size="40.0" fill="#000000" transform="matrix(1.00, 0.00, -0.00, -1.00, 509.2, 52.0)">l</text><text xml:space="preserve" font-family="TrebuchetMS" font-size="40.0" fill="#000000" transform="matrix(1.00, 0.00, -0.00, -1.00, 521.0, 52.0)">i</text><text xml:space="preserve" font-family="TrebuchetMS" font-size="40.0" fill="#000000" transform="matrix(1.00, 0.00, -0.00, -1.00, 532.4, 52.0)">c</text><text xml:space="preserve" font-family="TrebuchetMS" font-size="40.0" fill="#000000" transform="matrix(1.00, 0.00, -0.00, -1.00, 552.2, 52.0)">e</text><text xml:space="preserve" font-family="TrebuchetMS" font-size="40.0" fill="#000000" transform="matrix(1.00, 0.00, -0.00, -1.00, 574.0, 52.0)"> </text><text xml:space="preserve" font-family="TrebuchetMS" font-size="40.0" fill="#000000" transform="matrix(1.00, 0.00, -0.00, -1.00, 586.1, 52.0)">a</text><text xml:space="preserve" font-family="TrebuchetMS" font-size="40.0" fill="#000000" transform="matrix(1.00, 0.00, -0.00, -1.00, 607.1, 52.0)">n</text><text xml:space="preserve" font-family="TrebuchetMS" font-size="40.0" fill="#000000" transform="matrix(1.00, 0.00, -0.00, -1.00, 629.0, 52.0)">d</text><text xml:space="preserve" font-family="TrebuchetMS" font-size="40.0" fill="#000000" transform="matrix(1.00, 0.00, -0.00, -1.00, 651.3, 52.0)"> </text><text xml:space="preserve" font-family="TrebuchetMS" font-size="40.0" fill="#000000" transform="matrix(1.00, 0.00, -0.00, -1.00, 663.4, 52.0)">B</text><text xml:space="preserve" font-family="TrebuchetMS" font-size="40.0" fill="#000000" transform="matrix(1.00, 0.00, -0.00, -1.00, 686.0, 52.0)">o</text><text xml:space="preserve" font-family="TrebuchetMS" font-size="40.0" fill="#000000" transform="matrix(1.00, 0.00, -0.00, -1.00, 707.4, 52.0)">b</text><text xml:space="preserve" font-family="TrebuchetMS" font-size="40.0" fill="#000000" transform="matrix(1.00, 0.00, -0.00, -1.00, 729.7, 52.0)">”</text><text xml:space="preserve" font-family="TrebuchetMS" font-size="40.0" fill="#000000" transform="matrix(1.00, 0.00, -0.00, -1.00, 750.7, 52.0)">,</text><text xml:space="preserve" font-family="TrebuchetMS" font-size="40.0" fill="#000000" transform="matrix(1.00, 0.00, -0.00, -1.00, 765.4, 52.0)"> </text><text xml:space="preserve" font-family="TrebuchetMS" font-size="40.0" fill="#000000" transform="matrix(1.00, 0.00, -0.00, -1.00, 777.5, 52.0)">b</text><text xml:space="preserve" font-family="TrebuchetMS" font-size="40.0" fill="#000000" transform="matrix(1.00, 0.00, -0.00, -1.00, 799.8, 52.0)">u</text><text xml:space="preserve" font-family="TrebuchetMS" font-size="40.0" fill="#000000" transform="matrix(1.00, 0.00, -0.00, -1.00, 821.6, 52.0)">t</text><text xml:space="preserve" font-family="TrebuchetMS" font-size="40.0" fill="#000000" transform="matrix(1.00, 0.00, -0.00, -1.00, 837.5, 52.0)"> </text><text xml:space="preserve" font-family="TrebuchetMS" font-size="40.0" fill="#000000" transform="matrix(1.00, 0.00, -0.00, -1.00, 849.6, 52.0)">d</text><text xml:space="preserve" font-family="TrebuchetMS" font-size="40.0" fill="#000000" transform="matrix(1.00, 0.00, -0.00, -1.00, 871.9, 52.0)">o</text><text xml:space="preserve" font-family="TrebuchetMS" font-size="40.0" fill="#000000" transform="matrix(1.00, 0.00, -0.00, -1.00, 893.3, 52.0)"> </text><text xml:space="preserve" font-family="TrebuchetMS" font-size="40.0" fill="#000000" transform="matrix(1.00, 0.00, -0.00, -1.00, 82.0, 10.0)">N</text><text xml:space="preserve" font-family="TrebuchetMS" font-size="40.0" fill="#000000" transform="matrix(1.00, 0.00, -0.00, -1.00, 107.5, 10.0)">O</text><text xml:space="preserve" font-family="TrebuchetMS" font-size="40.0" fill="#000000" transform="matrix(1.00, 0.00, -0.00, -1.00, 134.5, 10.0)">T</text><text xml:space="preserve" font-family="TrebuchetMS" font-size="40.0" fill="#000000" transform="matrix(1.00, 0.00, -0.00, -1.00, 157.0, 10.0)"> </text><text xml:space="preserve" font-family="TrebuchetMS" font-size="40.0" fill="#000000" transform="matrix(1.00, 0.00, -0.00, -1.00, 169.0, 10.0)">a</text><text xml:space="preserve" font-family="TrebuchetMS" font-size="40.0" fill="#000000" transform="matrix(1.00, 0.00, -0.00, -1.00, 190.1, 10.0)">t</text><text xml:space="preserve" font-family="TrebuchetMS" font-size="40.0" fill="#000000" transform="matrix(1.00, 0.00, -0.00, -1.00, 205.9, 10.0)">t</text><text xml:space="preserve" font-family="TrebuchetMS" font-size="40.0" fill="#000000" transform="matrix(1.00, 0.00, -0.00, -1.00, 221.8, 10.0)">a</text><text xml:space="preserve" font-family="TrebuchetMS" font-size="40.0" fill="#000000" transform="matrix(1.00, 0.00, -0.00, -1.00, 242.8, 10.0)">c</text><text xml:space="preserve" font-family="TrebuchetMS" font-size="40.0" fill="#000000" transform="matrix(1.00, 0.00, -0.00, -1.00, 262.7, 10.0)">h</text><text xml:space="preserve" font-family="TrebuchetMS" font-size="40.0" fill="#000000" transform="matrix(1.00, 0.00, -0.00, -1.00, 284.5, 10.0)"> </text><text xml:space="preserve" font-family="TrebuchetMS" font-size="40.0" fill="#000000" transform="matrix(1.00, 0.00, -0.00, -1.00, 296.6, 10.0)">a</text><text xml:space="preserve" font-family="TrebuchetMS" font-size="40.0" fill="#000000" transform="matrix(1.00, 0.00, -0.00, -1.00, 317.6, 10.0)"> </text><text xml:space="preserve" font-family="TrebuchetMS" font-size="40.0" fill="#000000" transform="matrix(1.00, 0.00, -0.00, -1.00, 329.7, 10.0)">s</text><text xml:space="preserve" font-family="TrebuchetMS" font-size="40.0" fill="#000000" transform="matrix(1.00, 0.00, -0.00, -1.00, 345.9, 10.0)">i</text><text xml:space="preserve" font-family="TrebuchetMS" font-size="40.0" fill="#000000" transform="matrix(1.00, 0.00, -0.00, -1.00, 357.3, 10.0)">g</text><text xml:space="preserve" font-family="TrebuchetMS" font-size="40.0" fill="#000000" transform="matrix(1.00, 0.00, -0.00, -1.00, 377.4, 10.0)">n</text><text xml:space="preserve" font-family="TrebuchetMS" font-size="40.0" fill="#000000" transform="matrix(1.00, 0.00, -0.00, -1.00, 399.2, 10.0)">a</text><text xml:space="preserve" font-family="TrebuchetMS" font-size="40.0" fill="#000000" transform="matrix(1.00, 0.00, -0.00, -1.00, 420.3, 10.0)">t</text><text xml:space="preserve" font-family="TrebuchetMS" font-size="40.0" fill="#000000" transform="matrix(1.00, 0.00, -0.00, -1.00, 436.1, 10.0)">u</text><text xml:space="preserve" font-family="TrebuchetMS" font-size="40.0" fill="#000000" transform="matrix(1.00, 0.00, -0.00, -1.00, 458.0, 10.0)">r</text><text xml:space="preserve" font-family="TrebuchetMS" font-size="40.0" fill="#000000" transform="matrix(1.00, 0.00, -0.00, -1.00, 473.5, 10.0)">e</text></g></svg>