<svg width="200" height="95" viewBox="0 0 200 95" fill="none" xmlns="http://www.w3.org/2000/svg">
<mask id="mask0" mask-type="alpha" maskUnits="userSpaceOnUse" x="0" y="0" width="200" height="95">
<rect width="200" height="95" fill="#482E2E"/>
</mask>
<g mask="url(#mask0)">
</g>
<path d="M37.6505 56.8335L30.2759 60.007V59.6896C28.854 60.05 27.2788 60.2576 25.7868 60.3244C18.8515 60.2576 13.3467 56.6648 13.2826 52.3896V50.8025C15.5605 54.0812 20.1975 56.278 25.7868 56.1986C27.6777 56.278 29.6122 55.9817 31.2375 55.5638L31.8788 53.9767C29.951 54.546 27.8468 54.9422 25.7868 54.9289C18.8515 54.9422 13.3467 51.3494 13.2826 46.9948V45.7251C15.5605 48.7558 20.1876 50.9533 25.7868 50.8031C28.3058 50.9533 30.7693 50.4289 32.8404 49.5335L33.1614 47.9464C31.1378 49.0031 28.5152 49.6168 25.7868 49.5335C18.8515 49.6168 13.3467 46.024 13.2826 41.5993V40.3296C15.5605 43.4311 20.1975 45.6279 25.7868 45.7251C28.9636 45.6279 31.9752 44.7966 34.444 43.5032L34.765 41.5986C32.5241 43.2426 29.2529 44.302 25.7868 44.4554C18.8515 44.302 13.3473 40.7085 13.2826 36.2038C13.3467 31.9193 18.8515 28.3265 25.7868 28.2697C29.9213 28.3265 33.7611 29.7615 36.0476 32.078L36.2701 32.4451L37.8869 32.4517L37.6505 32.078C35.3766 29.0189 30.8287 27 25.7868 27C18.1131 27 12 31.1866 12 36.2038V52.707C12.2695 57.6045 18.2432 61.5934 25.7868 61.5934C30.7693 61.5934 35.2471 59.6539 37.6505 56.8335Z" fill="white"/>
<path d="M34.6505 68.0003L37.2395 57.1095L29.7969 60.3128L34.3276 41.4144H25.5898L27.8552 32.1253H55.6838L53.4185 41.4144H44.3584L42.4167 46.5394L52.4476 42.3753L34.6505 68.0003ZM39.1812 54.8671L37.8867 61.2736L48.5648 45.2585L39.8278 49.1026L43.7112 40.1335H52.4476L54.0657 33.4069H28.826L27.2079 40.1335H35.945L31.738 58.071L39.1812 54.8684V54.8671ZM74.8553 38.2601C74.7787 39.3221 74.387 40.158 73.6804 40.769C72.9737 41.3794 72.0424 41.6842 70.8867 41.6842C69.6232 41.6842 68.6279 41.2584 67.9041 40.406C67.1796 39.5542 66.817 38.3844 66.817 36.8972V36.2934C66.817 35.3444 66.9841 34.5079 67.3183 33.7845C67.6524 33.0617 68.1299 32.5062 68.7501 32.12C69.3709 31.7331 70.0921 31.54 70.9144 31.54C72.0517 31.54 72.9684 31.8456 73.6638 32.4559C74.3586 33.0656 74.7602 33.9227 74.8692 35.0257H72.8376C72.7881 34.3882 72.6104 33.926 72.306 33.639C72.0008 33.352 71.5372 33.2085 70.9144 33.2085C70.2368 33.2085 69.7302 33.4512 69.394 33.9372C69.0572 34.4233 68.8848 35.1771 68.8756 36.1988V36.9448C68.8756 38.0114 69.0374 38.7911 69.3597 39.2837C69.6833 39.7764 70.1919 40.0231 70.8873 40.0231C71.5147 40.0231 71.983 39.8796 72.2921 39.5926C72.6018 39.3056 72.7788 38.8612 72.8237 38.2601H74.8553ZM85.3458 36.8363C85.3458 37.8084 85.1741 38.6602 84.8307 39.3922C84.4879 40.1249 83.9972 40.6897 83.3579 41.0877C82.7192 41.4852 81.9868 41.6842 81.1606 41.6842C80.3436 41.6842 79.6145 41.4878 78.9732 41.0944C78.3325 40.7009 77.8352 40.1395 77.4832 39.4094C77.1312 38.6793 76.9529 37.8395 76.9482 36.8899V36.4018C76.9482 35.4297 77.1233 34.5747 77.4733 33.836C77.8233 33.0967 78.3174 32.5293 78.9567 32.1332C79.5953 31.7378 80.3258 31.54 81.1474 31.54C81.969 31.54 82.6994 31.7384 83.3381 32.1332C83.9767 32.5293 84.4714 33.0967 84.8208 33.8354C85.1708 34.5747 85.3458 35.4278 85.3458 36.3952V36.8363ZM83.2872 36.3886C83.2872 35.353 83.1023 34.5668 82.7324 34.0285C82.3619 33.4908 81.8336 33.2217 81.1474 33.2217C80.4651 33.2217 79.9394 33.4875 79.5689 34.0186C79.1991 34.5496 79.0115 35.3279 79.0075 36.3549V36.8363C79.0075 37.8441 79.1924 38.6264 79.5623 39.1819C79.9321 39.7381 80.4651 40.0165 81.1606 40.0165C81.8422 40.0165 82.3659 39.7486 82.7324 39.213C83.0977 38.6773 83.2826 37.8964 83.2872 36.87V36.3886ZM90.0383 41.5487H88.0068V31.6756H90.0383V41.5487ZM100.996 41.5487H98.9643L95.0095 35.0528V41.5487H92.978V31.6756H95.0095L98.9715 38.1853V31.6756H100.996V41.5487ZM111.054 33.3235H108.034V41.5487H106.002V33.3235H103.022V31.6756H111.054V33.3235ZM119.201 37.2701H115.3V39.9146H119.878V41.5487H113.268V31.6756H119.865V33.3235H115.3V35.6764H119.201V37.2701ZM124.158 39.9146H128.472V41.5487H122.127V31.6756H124.158V39.9153V39.9146ZM136.626 37.2695H132.726V39.9146H137.303V41.5487H130.694V31.6756H137.29V33.3235H132.726V35.6764H136.626V37.2701V37.2695ZM147.354 40.3008C146.988 40.7393 146.471 41.0798 145.803 41.3212C145.135 41.5632 144.394 41.6849 143.581 41.6849C142.728 41.6849 141.98 41.4977 141.337 41.1248C140.693 40.7518 140.197 40.2109 139.847 39.5007C139.497 38.7911 139.318 37.9572 139.308 36.999V36.3271C139.308 35.3418 139.474 34.4887 139.806 33.7679C140.138 33.0471 140.617 32.4949 141.242 32.1134C141.867 31.7312 142.599 31.54 143.439 31.54C144.608 31.54 145.523 31.8191 146.182 32.3779C146.841 32.936 147.232 33.7487 147.354 34.8154H145.376C145.286 34.25 145.086 33.8367 144.777 33.5742C144.468 33.3123 144.042 33.1814 143.5 33.1814C142.809 33.1814 142.284 33.4412 141.922 33.961C141.561 34.4808 141.378 35.2538 141.374 36.2802V36.9104C141.374 37.946 141.57 38.7276 141.963 39.2566C142.356 39.7857 142.932 40.0502 143.69 40.0502C144.453 40.0502 144.997 39.8875 145.322 39.5622V37.86H143.473V36.3615H147.354V40.3008ZM153.706 37.9347H152.088V41.5487H150.056V31.6756H153.72C154.884 31.6756 155.783 31.9355 156.415 32.4559C157.047 32.9757 157.363 33.7097 157.363 34.6593C157.363 35.3332 157.218 35.8946 156.926 36.3443C156.635 36.794 156.193 37.1524 155.602 37.4189L157.736 41.4534V41.5487H155.555L153.706 37.9347ZM152.088 36.2868H153.726C154.236 36.2868 154.631 36.1565 154.911 35.8966C155.191 35.6367 155.332 35.279 155.332 34.822C155.332 34.3565 155.199 33.9901 154.935 33.7236C154.671 33.4571 154.266 33.3235 153.72 33.3235H152.087V36.2868H152.088ZM165.531 39.5139H161.968L161.291 41.5487H159.131L162.802 31.6756H164.684L168.375 41.5487H166.215L165.531 39.5145V39.5139ZM162.517 37.8673H164.982L163.743 34.1707L162.517 37.8673ZM172.384 38.0703V41.5487H170.353V31.6756H174.199C174.94 31.6756 175.591 31.8112 176.153 32.083C176.715 32.3541 177.147 32.739 177.45 33.2389C177.752 33.7382 177.904 34.3069 177.904 34.9444C177.904 35.9118 177.573 36.6743 176.912 37.2324C176.25 37.7912 175.334 38.0703 174.165 38.0703H172.384ZM172.384 36.4223H174.199C174.737 36.4223 175.146 36.296 175.428 36.0428C175.711 35.7895 175.852 35.4278 175.852 34.9582C175.852 34.4742 175.71 34.0827 175.425 33.7845C175.141 33.4869 174.748 33.3328 174.247 33.3235H172.384V36.4223ZM188.38 41.5487H186.349V37.3177H182.387V41.5487H180.355V31.6756H182.387V35.6764H186.349V31.6756H188.38V41.5487Z" fill="#FABF2C"/>
<path d="M72.4048 50.6941H70.2081V56.7582H68.9942V50.6941H66.8174V49.7062H72.4048V50.6941ZM74.7692 52.0894C75.1529 51.6437 75.6383 51.4209 76.2255 51.4209C77.3416 51.4209 77.907 52.0584 77.9228 53.334V56.7582H76.7479V53.3776C76.7479 53.0159 76.6699 52.76 76.5134 52.6099C76.3569 52.4598 76.1271 52.385 75.8239 52.385C75.353 52.385 75.0017 52.5947 74.7692 53.0139V56.7582H73.5936V49.3186H74.7692V52.0894ZM81.8122 56.8547C81.0672 56.8547 80.4636 56.6199 80.0006 56.1504C79.5383 55.6809 79.3065 55.0547 79.3065 54.2737V54.1282C79.3065 53.6051 79.4075 53.1376 79.6089 52.7263C79.7952 52.3318 80.0895 51.9983 80.4576 51.7647C80.8226 51.5353 81.2459 51.4159 81.6768 51.4209C82.3894 51.4209 82.9402 51.6484 83.3286 52.1033C83.7169 52.559 83.9118 53.2031 83.9118 54.0363V54.5111H80.4913C80.527 54.9436 80.6716 55.2855 80.9245 55.5374C81.1775 55.7894 81.4958 55.9157 81.8796 55.9157C82.4185 55.9157 82.857 55.6974 83.1958 55.261L83.8299 55.8667C83.6198 56.1805 83.3297 56.4323 82.9898 56.5961C82.6397 56.7681 82.2474 56.8547 81.8122 56.8547ZM81.6722 52.3645C81.3492 52.3645 81.089 52.4783 80.8909 52.7044C80.6927 52.9299 80.5659 53.2447 80.5111 53.6488H82.75V53.5615C82.7249 53.1673 82.6199 52.8698 82.4363 52.6681C82.252 52.4664 81.9978 52.3652 81.6722 52.3652V52.3645ZM88.4966 56.7582V52.3897H87.6981V51.5174H88.4966V51.038C88.4966 50.4567 88.6577 50.0077 88.98 49.6916C89.303 49.3748 89.7541 49.2168 90.3346 49.2168C90.5413 49.2168 90.7606 49.2459 90.9924 49.3041L90.9634 50.2246C90.8151 50.197 90.6644 50.1839 90.5136 50.1856C89.9522 50.1856 89.6722 50.4746 89.6722 51.0525V51.5174H90.7355V52.3897H89.6722V56.7582H88.4966ZM95.1618 56.245C94.8171 56.6517 94.3264 56.8547 93.691 56.8547C93.1237 56.8547 92.6937 56.6887 92.4025 56.3561C92.1105 56.0235 91.9646 55.5427 91.9646 54.9125V51.5174H93.1402V54.8979C93.1402 55.5632 93.4156 55.8965 93.9671 55.8965C94.5377 55.8965 94.9234 55.6915 95.1229 55.2815V51.5174H96.2984V56.7582H95.1909L95.1618 56.245ZM99.3649 50.2438V51.5174H100.29V52.3897H99.3649V55.3146C99.3649 55.5149 99.4045 55.6597 99.4838 55.7484C99.563 55.837 99.7037 55.8813 99.9065 55.8813C100.043 55.8813 100.179 55.8654 100.318 55.833V56.7436C100.066 56.8155 99.8057 56.8529 99.5439 56.8547C98.6411 56.8547 98.19 56.3561 98.19 55.3582V52.389H97.3287V51.5174H98.1893V50.2444H99.3649V50.2438ZM104.754 56.245C104.408 56.6517 103.918 56.8547 103.283 56.8547C102.715 56.8547 102.285 56.6887 101.993 56.3561C101.702 56.0235 101.556 55.5427 101.556 54.9125V51.5174H102.731V54.8979C102.731 55.5632 103.007 55.8965 103.559 55.8965C104.129 55.8965 104.514 55.6915 104.715 55.2815V51.5174H105.89V56.7582H104.783L104.754 56.245ZM110.224 52.5927C110.066 52.5667 109.906 52.5539 109.745 52.5543C109.206 52.5543 108.844 52.7607 108.657 53.174V56.7582H107.481V51.5174H108.604L108.632 52.1033C108.916 51.6484 109.31 51.4209 109.813 51.4209C109.98 51.4209 110.119 51.4434 110.229 51.4883L110.224 52.5927ZM113.576 56.8547C112.831 56.8547 112.227 56.6199 111.764 56.1504C111.302 55.6809 111.07 55.0547 111.07 54.2737V54.1282C111.07 53.6051 111.171 53.1376 111.373 52.7263C111.559 52.3318 111.853 51.9983 112.221 51.7647C112.586 51.5353 113.009 51.4159 113.44 51.4209C114.153 51.4209 114.704 51.6484 115.092 52.1033C115.48 52.559 115.675 53.2031 115.675 54.0363V54.5111H112.255C112.291 54.9436 112.435 55.2855 112.688 55.5374C112.941 55.7894 113.259 55.9157 113.643 55.9157C114.182 55.9157 114.621 55.6974 114.959 55.261L115.593 55.8667C115.383 56.1805 115.093 56.4323 114.753 56.5961C114.403 56.7681 114.011 56.8547 113.576 56.8547ZM113.436 52.3645C113.113 52.3645 112.853 52.4783 112.654 52.7044C112.456 52.9299 112.329 53.2447 112.275 53.6488H114.514V53.5615C114.488 53.1673 114.383 52.8698 114.2 52.6681C114.016 52.4664 113.761 52.3652 113.436 52.3652V52.3645ZM119.626 54.0892C119.626 53.576 119.728 53.1138 119.931 52.7018C120.118 52.3083 120.415 51.9782 120.787 51.7522C121.155 51.5313 121.577 51.4209 122.055 51.4209C122.761 51.4209 123.334 51.6484 123.774 52.1033C124.214 52.559 124.453 53.1627 124.488 53.9153L124.493 54.191C124.493 54.7075 124.394 55.1697 124.196 55.5764C124.011 55.9683 123.714 56.2968 123.344 56.5207C122.975 56.7436 122.548 56.8547 122.064 56.8547C121.326 56.8547 120.735 56.6087 120.291 56.1167C119.849 55.624 119.626 54.9674 119.626 54.1474V54.0892ZM120.802 54.191C120.802 54.7306 120.913 55.1525 121.136 55.4574C121.358 55.7629 121.668 55.9157 122.064 55.9157C122.461 55.9157 122.77 55.7603 122.99 55.4501C123.212 55.1406 123.322 54.687 123.322 54.0892C123.322 53.5602 123.208 53.1402 122.981 52.8301C122.753 52.5199 122.445 52.3652 122.055 52.3652C121.672 52.3652 121.366 52.5173 121.141 52.8228C120.915 53.1283 120.802 53.584 120.802 54.1917V54.191ZM126.297 56.7582V52.3897H125.499V51.5174H126.297V51.038C126.297 50.4567 126.458 50.0077 126.781 49.6916C127.104 49.3748 127.555 49.2168 128.135 49.2168C128.342 49.2168 128.561 49.2459 128.793 49.3041L128.764 50.2246C128.616 50.197 128.466 50.1839 128.315 50.1856C127.754 50.1856 127.473 50.4746 127.473 51.0525V51.5174H128.537V52.3897H127.473V56.7582H126.297ZM133.76 51.5174L133.794 52.065C134.162 51.6351 134.665 51.4209 135.303 51.4209C136.003 51.4209 136.482 51.6887 136.74 52.225C137.121 51.6887 137.656 51.4209 138.346 51.4209C138.923 51.4209 139.353 51.5802 139.635 51.9003C139.917 52.2197 140.062 52.6912 140.068 53.3142V56.7582H138.893V53.3485C138.893 53.0159 138.82 52.7719 138.675 52.6172C138.529 52.4617 138.29 52.3844 137.955 52.3844C137.687 52.3844 137.468 52.4565 137.299 52.6C137.127 52.7481 137.003 52.9446 136.943 53.164L136.948 56.7582H135.773V53.3095C135.756 52.6932 135.443 52.3844 134.83 52.3844C134.359 52.3844 134.025 52.5762 133.828 52.961V56.7582H132.653V51.5174H133.76ZM141.451 54.0898C141.451 53.576 141.553 53.1138 141.756 52.7018C141.942 52.3082 142.24 51.9781 142.612 51.7522C142.98 51.5313 143.402 51.4209 143.88 51.4209C144.586 51.4209 145.159 51.6484 145.599 52.1033C146.039 52.559 146.277 53.1627 146.312 53.9153L146.317 54.191C146.317 54.7075 146.218 55.1697 146.02 55.5764C145.835 55.9683 145.539 56.2968 145.168 56.5207C144.799 56.7436 144.373 56.8547 143.889 56.8547C143.151 56.8547 142.56 56.6087 142.116 56.1167C141.673 55.624 141.451 54.9674 141.451 54.1474V54.0892V54.0898ZM142.627 54.191C142.627 54.7306 142.738 55.1525 142.96 55.4574C143.183 55.7629 143.493 55.9157 143.889 55.9157C144.285 55.9157 144.594 55.7603 144.816 55.4501C145.036 55.1406 145.147 54.687 145.147 54.0892C145.147 53.5602 145.033 53.1402 144.806 52.8301C144.578 52.5199 144.269 52.3652 143.88 52.3652C143.496 52.3652 143.191 52.5173 142.965 52.8228C142.74 53.1283 142.627 53.584 142.627 54.1917V54.191ZM148.799 51.5174L148.832 52.1232C149.219 51.655 149.727 51.4209 150.356 51.4209C151.446 51.4209 152.001 52.0458 152.02 53.295V56.7582H150.845V53.3631C150.845 53.0305 150.773 52.7838 150.63 52.6244C150.486 52.4644 150.252 52.3844 149.925 52.3844C149.452 52.3844 149.099 52.5993 148.866 53.0285V56.7582H147.691V51.5174H148.799ZM155.918 56.8547C155.174 56.8547 154.57 56.6199 154.107 56.1504C153.644 55.6809 153.413 55.0547 153.413 54.2737V54.1282C153.413 53.6051 153.514 53.1376 153.715 52.7263C153.902 52.3317 154.196 51.9982 154.564 51.7647C154.929 51.5354 155.352 51.416 155.783 51.4209C156.496 51.4209 157.046 51.6484 157.435 52.1033C157.824 52.559 158.018 53.2031 158.018 54.0363V54.5111H154.598C154.634 54.9436 154.778 55.2855 155.031 55.5374C155.284 55.7894 155.603 55.9157 155.986 55.9157C156.525 55.9157 156.964 55.6974 157.302 55.261L157.936 55.8667C157.726 56.1804 157.436 56.4322 157.097 56.5961C156.747 56.7681 156.354 56.8547 155.918 56.8547ZM155.778 52.3645C155.456 52.3645 155.196 52.4783 154.997 52.7044C154.799 52.9299 154.672 53.2447 154.617 53.6488H156.857V53.5615C156.831 53.1673 156.727 52.8698 156.543 52.6681C156.359 52.4664 156.104 52.3652 155.778 52.3652V52.3645ZM161.094 55.0725L162.158 51.5174H163.411L161.331 57.5524C161.012 58.4339 160.47 58.8749 159.706 58.8749C159.514 58.8719 159.324 58.8425 159.14 58.7877V57.8771L159.363 57.8916C159.659 57.8916 159.882 57.8374 160.032 57.7296C160.182 57.6211 160.301 57.4393 160.388 57.1847L160.557 56.7337L158.719 51.5174H159.987L161.094 55.0725Z" fill="black"/>
</svg>
