<svg width="414" height="232" viewBox="0 0 414 232" fill="none" xmlns="http://www.w3.org/2000/svg">
<rect y="118" width="414" height="94" rx="47" fill="#F5F5F5"/>
<path d="M141.75 19.9375C119.764 19.9375 101.875 37.8269 101.875 59.8125C101.875 81.7981 119.764 99.6875 141.75 99.6875C163.736 99.6875 181.625 81.7981 181.625 59.8125C181.625 37.8269 163.736 19.9375 141.75 19.9375ZM141.75 92.4375C123.759 92.4375 109.125 77.8034 109.125 59.8125C109.125 41.8216 123.759 27.1875 141.75 27.1875C159.741 27.1875 174.375 41.8216 174.375 59.8125C174.375 77.8034 159.741 92.4375 141.75 92.4375Z" fill="#DADADA"/>
<path d="M178 70.6836C175.995 70.6836 174.375 72.304 174.375 74.3086C174.375 92.2995 159.741 106.934 141.75 106.934C123.759 106.934 109.125 92.2995 109.125 74.3086C109.125 72.304 107.505 70.6836 105.5 70.6836C103.495 70.6836 101.875 72.304 101.875 74.3086C101.875 96.2942 119.764 114.184 141.75 114.184C163.736 114.184 181.625 96.2942 181.625 74.3086C181.625 72.304 180.005 70.6836 178 70.6836Z" fill="#DADADA"/>
<path d="M178 56.1875C175.995 56.1875 174.375 57.8079 174.375 59.8125V74.3089C174.375 76.3135 175.995 77.9339 178 77.9339C180.005 77.9339 181.625 76.3135 181.625 74.3089V59.8125C181.625 57.8079 180.005 56.1875 178 56.1875Z" fill="#DADADA"/>
<path d="M134.5 38.0625C132.495 38.0625 130.875 39.6829 130.875 41.6875V74.3125C130.875 76.3171 132.495 77.9375 134.5 77.9375C136.505 77.9375 138.125 76.3171 138.125 74.3125V41.6875C138.125 39.6829 136.505 38.0625 134.5 38.0625Z" fill="#DADADA"/>
<path d="M145.375 38.0625C143.37 38.0625 141.75 39.6829 141.75 41.6875C141.75 43.6921 143.37 45.3125 145.375 45.3125C147.376 45.3125 149 46.9365 149 48.9339C149 50.9349 147.376 52.5589 145.375 52.5589C143.37 52.5589 141.75 54.1792 141.75 56.1839C141.75 58.1885 143.37 59.8089 145.375 59.8089C151.371 59.8089 156.25 54.9296 156.25 48.9339C156.25 42.9417 151.371 38.0625 145.375 38.0625Z" fill="#DADADA"/>
<path d="M147.184 52.5557C145.179 52.5557 143.559 54.176 143.559 56.1807C143.559 58.1853 145.179 59.8057 147.184 59.8057C150.182 59.8057 152.625 62.2489 152.625 65.2504C152.625 68.2483 150.182 70.6879 147.184 70.6879C145.179 70.6879 143.559 72.3083 143.559 74.3129C143.559 76.3175 145.179 77.9379 147.184 77.9379C154.184 77.9379 159.875 72.2467 159.875 65.2504C159.875 58.2505 154.184 52.5557 147.184 52.5557Z" fill="#DADADA"/>
<path d="M145.375 38.0625H130.875C128.87 38.0625 127.25 39.6829 127.25 41.6875C127.25 43.6921 128.87 45.3125 130.875 45.3125H145.375C147.38 45.3125 149 43.6921 149 41.6875C149 39.6829 147.38 38.0625 145.375 38.0625Z" fill="#DADADA"/>
<path d="M147.184 70.6875H130.875C128.87 70.6875 127.25 72.3079 127.25 74.3125C127.25 76.3171 128.87 77.9375 130.875 77.9375H147.184C149.188 77.9375 150.809 76.3171 150.809 74.3125C150.809 72.3079 149.188 70.6875 147.184 70.6875Z" fill="#DADADA"/>
<path d="M147.184 52.5557C147.184 52.5557 147.184 52.5557 147.18 52.5557L134.496 52.5629C132.495 52.5629 130.875 54.1869 130.875 56.1915C130.875 58.1925 132.499 59.8129 134.5 59.8129L147.187 59.8057C149.188 59.8057 150.809 58.1817 150.809 56.177C150.809 54.176 149.185 52.5557 147.184 52.5557Z" fill="#DADADA"/>
<path d="M141.75 34.4336C139.745 34.4336 138.125 36.054 138.125 38.0586V41.6872C138.125 43.6918 139.745 45.3122 141.75 45.3122C143.755 45.3122 145.375 43.6918 145.375 41.6872V38.0586C145.375 36.054 143.755 34.4336 141.75 34.4336Z" fill="#DADADA"/>
<path d="M141.75 70.6875C139.745 70.6875 138.125 72.3079 138.125 74.3125V77.9375C138.125 79.9421 139.745 81.5625 141.75 81.5625C143.755 81.5625 145.375 79.9421 145.375 77.9375V74.3125C145.375 72.3079 143.755 70.6875 141.75 70.6875Z" fill="#DADADA"/>
<path d="M141.75 92.4375C139.745 92.4375 138.125 94.0579 138.125 96.0625V110.559C138.125 112.564 139.745 114.184 141.75 114.184C143.755 114.184 145.375 112.564 145.375 110.559V96.0625C145.375 94.0579 143.755 92.4375 141.75 92.4375Z" fill="#DADADA"/>
<path d="M159.875 87.5869C157.87 87.5869 156.25 89.2073 156.25 91.2119V105.705C156.25 107.709 157.87 109.33 159.875 109.33C161.88 109.33 163.5 107.709 163.5 105.705V91.2119C163.5 89.2073 161.88 87.5869 159.875 87.5869Z" fill="#DADADA"/>
<path d="M123.625 87.5869C121.62 87.5869 120 89.2073 120 91.2119V105.705C120 107.709 121.62 109.33 123.625 109.33C125.63 109.33 127.25 107.709 127.25 105.705V91.2119C127.25 89.2073 125.63 87.5869 123.625 87.5869Z" fill="#DADADA"/>
<path d="M105.5 56.1875C103.495 56.1875 101.875 57.8079 101.875 59.8125V74.3089C101.875 76.3135 103.495 77.9339 105.5 77.9339C107.505 77.9339 109.125 76.3135 109.125 74.3089V59.8125C109.125 57.8079 107.505 56.1875 105.5 56.1875Z" fill="#DADADA"/>
<path d="M232.375 154.062C218.386 154.062 207 165.445 207 179.434C207 181.439 208.62 183.059 210.625 183.059C212.63 183.059 214.25 181.439 214.25 179.434C214.25 169.44 222.381 161.313 232.375 161.313C234.38 161.313 236 159.692 236 157.688C236 155.683 234.38 154.062 232.375 154.062Z" fill="#DADADA"/>
<path d="M246.875 154.066L232.375 154.062C230.374 154.062 228.75 155.683 228.75 157.687C228.75 159.688 230.37 161.312 232.375 161.312L246.875 161.316C248.876 161.316 250.5 159.696 250.5 157.691C250.5 155.69 248.88 154.066 246.875 154.066Z" fill="#DADADA"/>
<path d="M210.625 176.85C208.62 176.85 207 178.47 207 180.475V190.316C207 192.321 208.62 193.941 210.625 193.941C212.63 193.941 214.25 192.321 214.25 190.316V180.475C214.25 178.47 212.63 176.85 210.625 176.85Z" fill="#DADADA"/>
<path d="M297.625 154.062C295.62 154.062 294 155.683 294 157.688C294 159.692 295.62 161.313 297.625 161.313C307.619 161.313 315.75 169.44 315.75 179.434C315.75 181.439 317.37 183.059 319.375 183.059C321.38 183.059 323 181.439 323 179.434C323 165.445 311.614 154.062 297.625 154.062Z" fill="#DADADA"/>
<path d="M297.625 154.062L283.125 154.066C281.12 154.066 279.5 155.69 279.5 157.691C279.5 159.696 281.124 161.316 283.125 161.316L297.625 161.312C299.63 161.312 301.25 159.688 301.25 157.687C301.25 155.683 299.626 154.062 297.625 154.062Z" fill="#DADADA"/>
<path d="M319.375 176.85C317.37 176.85 315.75 178.47 315.75 180.475V201.188C315.75 203.192 317.37 204.813 319.375 204.813C321.38 204.813 323 203.192 323 201.188V180.475C323 178.47 321.38 176.85 319.375 176.85Z" fill="#DADADA"/>
<path d="M312.125 204.812H225.125C223.12 204.812 221.5 206.433 221.5 208.438C221.5 210.442 223.12 212.062 225.125 212.062H312.125C314.13 212.062 315.75 210.442 315.75 208.438C315.75 206.433 314.13 204.812 312.125 204.812Z" fill="#DADADA"/>
<path d="M246.875 142.463C244.87 142.463 243.25 144.083 243.25 146.088V157.692C243.25 159.696 244.87 161.317 246.875 161.317C248.88 161.317 250.5 159.696 250.5 157.692V146.088C250.5 144.083 248.88 142.463 246.875 142.463Z" fill="#DADADA"/>
<path d="M283.125 142.463C281.12 142.463 279.5 144.083 279.5 146.088V157.688C279.5 159.693 281.12 161.313 283.125 161.313C285.13 161.313 286.75 159.693 286.75 157.688V146.088C286.75 144.083 285.13 142.463 283.125 142.463Z" fill="#DADADA"/>
<path d="M304.875 106.938C302.87 106.938 301.25 108.558 301.25 110.562C301.25 130.551 284.988 146.812 265 146.812C245.012 146.812 228.75 130.551 228.75 110.562C228.75 108.558 227.13 106.938 225.125 106.938C223.12 106.938 221.5 108.558 221.5 110.562C221.5 134.549 241.013 154.062 265 154.062C288.987 154.062 308.5 134.549 308.5 110.562C308.5 108.558 306.88 106.938 304.875 106.938Z" fill="#DADADA"/>
<path d="M225.125 74.3125C223.12 74.3125 221.5 75.9329 221.5 77.9375V110.566C221.5 112.571 223.12 114.191 225.125 114.191C227.13 114.191 228.75 112.571 228.75 110.566V77.9375C228.75 75.9329 227.13 74.3125 225.125 74.3125Z" fill="#DADADA"/>
<path d="M304.875 74.3125C302.87 74.3125 301.25 75.9329 301.25 77.9375V110.57C301.25 112.574 302.87 114.195 304.875 114.195C306.88 114.195 308.5 112.574 308.5 110.57V77.9375C308.5 75.9329 306.88 74.3125 304.875 74.3125Z" fill="#DADADA"/>
<path d="M286.75 56.1875C284.745 56.1875 283.125 57.8079 283.125 59.8125C283.125 61.8171 284.745 63.4375 286.75 63.4375C294.747 63.4375 301.25 69.9408 301.25 77.9375C301.25 79.9421 302.87 81.5625 304.875 81.5625C306.88 81.5625 308.5 79.9421 308.5 77.9375C308.5 65.9424 298.745 56.1875 286.75 56.1875Z" fill="#DADADA"/>
<path d="M286.75 41.6875C284.745 41.6875 283.125 43.3079 283.125 45.3125V59.8125C283.125 61.8171 284.745 63.4375 286.75 63.4375C288.755 63.4375 290.375 61.8171 290.375 59.8125V45.3125C290.375 43.3079 288.755 41.6875 286.75 41.6875Z" fill="#DADADA"/>
<path d="M286.75 41.6875H257.75C255.745 41.6875 254.125 43.3079 254.125 45.3125C254.125 47.3171 255.745 48.9375 257.75 48.9375H286.75C288.755 48.9375 290.375 47.3171 290.375 45.3125C290.375 43.3079 288.755 41.6875 286.75 41.6875Z" fill="#DADADA"/>
<path d="M257.75 41.6914C237.762 41.6914 221.5 57.9495 221.5 77.9378C221.5 79.9424 223.12 81.5628 225.125 81.5628C227.13 81.5628 228.75 79.9424 228.75 77.9378C228.75 61.9479 241.76 48.9414 257.75 48.9414C259.755 48.9414 261.375 47.321 261.375 45.3164C261.375 43.3118 259.755 41.6914 257.75 41.6914Z" fill="#DADADA"/>
<path d="M307.438 93.4996L296.563 82.6246C295.145 81.2072 292.854 81.2072 291.437 82.6246C290.02 84.0419 290.02 86.3329 291.437 87.7503L302.312 98.6253C303.019 99.3322 303.947 99.6874 304.875 99.6874C305.803 99.6874 306.731 99.3322 307.438 98.6253C308.855 97.2079 308.855 94.9169 307.438 93.4996Z" fill="#DADADA"/>
<path d="M297.19 83.4693C296.244 81.7075 294.036 81.0478 292.282 81.9939C292.155 82.0664 279.453 88.8125 265 88.8125C250.616 88.8125 237.842 82.0628 237.715 81.9939C235.942 81.0405 233.756 81.7111 232.806 83.4729C231.86 85.2383 232.52 87.4314 234.282 88.3811C234.865 88.6929 248.742 96.0625 265 96.0625C281.258 96.0625 295.135 88.6929 295.715 88.3775C297.476 87.4314 298.136 85.231 297.19 83.4693Z" fill="#DADADA"/>
<path d="M238.563 82.6246C237.145 81.2072 234.854 81.2072 233.437 82.6246L222.562 93.4996C221.145 94.9169 221.145 97.2079 222.562 98.6253C223.269 99.3322 224.197 99.6874 225.125 99.6874C226.053 99.6874 226.981 99.3322 227.688 98.6253L238.563 87.7503C239.98 86.3329 239.98 84.0419 238.563 82.6246Z" fill="#DADADA"/>
<path d="M256.688 162.375L249.438 155.128C248.02 153.711 245.729 153.711 244.312 155.128C242.895 156.546 242.895 158.837 244.312 160.254L251.562 167.501C252.269 168.207 253.197 168.563 254.125 168.563C255.053 168.563 255.981 168.207 256.688 167.501C258.105 166.083 258.105 163.792 256.688 162.375Z" fill="#DADADA"/>
<path d="M268.44 160.164C267.806 158.264 265.772 157.235 263.854 157.873L252.979 161.498C251.08 162.128 250.054 164.184 250.688 166.083C251.192 167.602 252.606 168.563 254.125 168.563C254.502 168.563 254.89 168.501 255.274 168.374L266.149 164.749C268.049 164.119 269.074 162.063 268.44 160.164Z" fill="#DADADA"/>
<path d="M285.688 155.128C284.27 153.711 281.979 153.711 280.562 155.128L273.312 162.375C271.895 163.792 271.895 166.083 273.312 167.501C274.019 168.207 274.947 168.563 275.875 168.563C276.803 168.563 277.731 168.207 278.438 167.501L285.688 160.254C287.105 158.837 287.105 156.546 285.688 155.128Z" fill="#DADADA"/>
<path d="M277.024 161.497L266.149 157.872C264.228 157.234 262.198 158.267 261.563 160.163C260.929 162.066 261.959 164.118 263.854 164.749L274.729 168.374C275.11 168.501 275.498 168.562 275.875 168.562C277.394 168.562 278.808 167.602 279.315 166.083C279.949 164.18 278.92 162.128 277.024 161.497Z" fill="#DADADA"/>
<path d="M319.375 197.562C317.37 197.562 315.75 199.183 315.75 201.188C315.75 203.188 314.126 204.812 312.125 204.812C310.12 204.812 308.5 206.433 308.5 208.438C308.5 210.442 310.12 212.062 312.125 212.062C318.121 212.062 323 207.183 323 201.188C323 199.183 321.38 197.562 319.375 197.562Z" fill="#DADADA"/>
<path d="M101.875 125.062C95.8793 125.062 91 129.942 91 135.938C91 137.942 92.6204 139.562 94.625 139.562C96.6296 139.562 98.25 137.942 98.25 135.938C98.25 133.936 99.874 132.312 101.875 132.312C103.88 132.312 105.5 130.692 105.5 128.688C105.5 126.683 103.88 125.062 101.875 125.062Z" fill="#DADADA"/>
<path d="M101.875 204.812C99.874 204.812 98.25 203.188 98.25 201.188C98.25 199.183 96.6296 197.562 94.625 197.562C92.6204 197.562 91 199.183 91 201.188C91 207.183 95.8793 212.062 101.875 212.062C103.88 212.062 105.5 210.442 105.5 208.438C105.5 206.433 103.88 204.812 101.875 204.812Z" fill="#DADADA"/>
<path d="M94.625 132.312C92.6204 132.312 91 133.933 91 135.938V201.188C91 203.192 92.6204 204.812 94.625 204.812C96.6296 204.812 98.25 203.192 98.25 201.188V135.938C98.25 133.933 96.6296 132.312 94.625 132.312Z" fill="#DADADA"/>
<path d="M181.625 125.062C179.62 125.062 178 126.683 178 128.688C178 130.692 179.62 132.312 181.625 132.312C183.626 132.312 185.25 133.936 185.25 135.938C185.25 137.942 186.87 139.562 188.875 139.562C190.88 139.562 192.5 137.942 192.5 135.938C192.5 129.942 187.621 125.062 181.625 125.062Z" fill="#DADADA"/>
<path d="M188.875 197.562C186.87 197.562 185.25 199.183 185.25 201.188C185.25 203.188 183.626 204.812 181.625 204.812C179.62 204.812 178 206.433 178 208.438C178 210.442 179.62 212.062 181.625 212.062C187.621 212.062 192.5 207.183 192.5 201.188C192.5 199.183 190.88 197.562 188.875 197.562Z" fill="#DADADA"/>
<path d="M232.375 197.562C230.37 197.562 228.75 199.183 228.75 201.188C228.75 203.188 227.126 204.812 225.125 204.812C223.12 204.812 221.5 206.433 221.5 208.438C221.5 210.442 223.12 212.062 225.125 212.062C231.121 212.062 236 207.183 236 201.188C236 199.183 234.38 197.562 232.375 197.562Z" fill="#DADADA"/>
<path d="M188.875 132.312C186.87 132.312 185.25 133.933 185.25 135.938V201.188C185.25 203.192 186.87 204.812 188.875 204.812C190.88 204.812 192.5 203.192 192.5 201.188V135.938C192.5 133.933 190.88 132.312 188.875 132.312Z" fill="#DADADA"/>
<path d="M181.625 204.812H101.875C99.8704 204.812 98.25 206.433 98.25 208.438C98.25 210.442 99.8704 212.062 101.875 212.062H181.625C183.63 212.062 185.25 210.442 185.25 208.438C185.25 206.433 183.63 204.812 181.625 204.812Z" fill="#DADADA"/>
<path d="M181.625 125.062H101.875C99.8704 125.062 98.25 126.683 98.25 128.688C98.25 130.692 99.8704 132.312 101.875 132.312H181.625C183.63 132.312 185.25 130.692 185.25 128.688C185.25 126.683 183.63 125.062 181.625 125.062Z" fill="#DADADA"/>
<path d="M232.375 186.688C230.37 186.688 228.75 188.308 228.75 190.312V201.188C228.75 203.192 230.37 204.812 232.375 204.812C234.38 204.812 236 203.192 236 201.188V190.312C236 188.308 234.38 186.688 232.375 186.688Z" fill="#DADADA"/>
<path d="M232.375 186.688H188.875C186.87 186.688 185.25 188.308 185.25 190.312C185.25 192.317 186.87 193.938 188.875 193.938H232.375C234.38 193.938 236 192.317 236 190.312C236 188.308 234.38 186.688 232.375 186.688Z" fill="#DADADA"/>
<path d="M225.125 204.812H181.625C179.62 204.812 178 206.433 178 208.438C178 210.442 179.62 212.062 181.625 212.062H225.125C227.13 212.062 228.75 210.442 228.75 208.438C228.75 206.433 227.13 204.812 225.125 204.812Z" fill="#DADADA"/>
<path d="M141.75 157.688C135.754 157.688 130.875 162.567 130.875 168.562C130.875 174.558 135.754 179.438 141.75 179.438C147.746 179.438 152.625 174.558 152.625 168.562C152.625 162.567 147.746 157.688 141.75 157.688ZM141.75 172.188C139.749 172.188 138.125 170.564 138.125 168.562C138.125 166.561 139.749 164.938 141.75 164.938C143.751 164.938 145.375 166.561 145.375 168.562C145.375 170.564 143.751 172.188 141.75 172.188Z" fill="#DADADA"/>
</svg>
