<svg width="414" height="232" viewBox="0 0 414 232" fill="none" xmlns="http://www.w3.org/2000/svg">
<rect y="138" width="414" height="94" rx="47" fill="#F5F5F5"/>
<path d="M286.75 97.875C284.745 97.875 283.125 99.4954 283.125 101.5C283.125 103.505 284.745 105.125 286.75 105.125C287.747 105.125 288.562 105.941 288.562 106.938C288.562 107.934 287.747 108.75 286.75 108.75C284.745 108.75 283.125 110.37 283.125 112.375C283.125 114.38 284.745 116 286.75 116C291.749 116 295.812 111.936 295.812 106.938C295.812 101.939 291.749 97.875 286.75 97.875Z" fill="#DADADA"/>
<path d="M288.562 108.75C286.558 108.75 284.938 110.37 284.938 112.375C284.938 114.38 286.558 116 288.562 116C290.563 116 292.188 117.624 292.188 119.625C292.188 121.626 290.563 123.25 288.562 123.25C286.558 123.25 284.938 124.87 284.938 126.875C284.938 128.88 286.558 130.5 288.562 130.5C294.558 130.5 299.438 125.621 299.438 119.625C299.438 113.629 294.558 108.75 288.562 108.75Z" fill="#DADADA"/>
<path d="M288.562 108.75H277.688C275.683 108.75 274.062 110.37 274.062 112.375C274.062 114.38 275.683 116 277.688 116H288.562C290.567 116 292.188 114.38 292.188 112.375C292.188 110.37 290.567 108.75 288.562 108.75Z" fill="#DADADA"/>
<path d="M288.562 123.25H274.062C272.058 123.25 270.438 124.87 270.438 126.875C270.438 128.88 272.058 130.5 274.062 130.5H288.562C290.567 130.5 292.188 128.88 292.188 126.875C292.188 124.87 290.567 123.25 288.562 123.25Z" fill="#DADADA"/>
<path d="M286.75 97.875H274.062C272.058 97.875 270.438 99.4954 270.438 101.5C270.438 103.505 272.058 105.125 274.062 105.125H286.75C288.755 105.125 290.375 103.505 290.375 101.5C290.375 99.4954 288.755 97.875 286.75 97.875Z" fill="#DADADA"/>
<path d="M277.688 97.875C275.683 97.875 274.062 99.4954 274.062 101.5V126.875C274.062 128.88 275.683 130.5 277.688 130.5C279.692 130.5 281.312 128.88 281.312 126.875V101.5C281.312 99.4954 279.692 97.875 277.688 97.875Z" fill="#DADADA"/>
<path d="M281.312 94.25C279.308 94.25 277.688 95.8704 277.688 97.875V101.5C277.688 103.505 279.308 105.125 281.312 105.125C283.317 105.125 284.938 103.505 284.938 101.5V97.875C284.938 95.8704 283.317 94.25 281.312 94.25Z" fill="#DADADA"/>
<path d="M281.312 123.25C279.308 123.25 277.688 124.87 277.688 126.875V130.5C277.688 132.505 279.308 134.125 281.312 134.125C283.317 134.125 284.938 132.505 284.938 130.5V126.875C284.938 124.87 283.317 123.25 281.312 123.25Z" fill="#DADADA"/>
<path d="M284.938 83.375C266.947 83.375 252.312 98.0091 252.312 116C252.312 133.991 266.947 148.625 284.938 148.625C302.928 148.625 317.562 133.991 317.562 116C317.562 98.0091 302.928 83.375 284.938 83.375ZM284.938 141.375C270.949 141.375 259.562 129.989 259.562 116C259.562 102.011 270.949 90.625 284.938 90.625C298.926 90.625 310.312 102.011 310.312 116C310.312 129.989 298.926 141.375 284.938 141.375Z" fill="#DADADA"/>
<path d="M207 54.375C204.995 54.375 203.375 55.9954 203.375 58C203.375 60.0046 204.995 61.625 207 61.625C207.997 61.625 208.812 62.4406 208.812 63.4375C208.812 64.4344 207.997 65.25 207 65.25C204.995 65.25 203.375 66.8704 203.375 68.875C203.375 70.8796 204.995 72.5 207 72.5C211.999 72.5 216.062 68.4364 216.062 63.4375C216.062 58.4386 211.999 54.375 207 54.375Z" fill="#DADADA"/>
<path d="M208.812 65.25C206.808 65.25 205.188 66.8704 205.188 68.875C205.188 70.8796 206.808 72.5 208.812 72.5C210.813 72.5 212.438 74.124 212.438 76.125C212.438 78.126 210.813 79.75 208.812 79.75C206.808 79.75 205.188 81.3704 205.188 83.375C205.188 85.3796 206.808 87 208.812 87C214.808 87 219.688 82.1208 219.688 76.125C219.688 70.1293 214.808 65.25 208.812 65.25Z" fill="#DADADA"/>
<path d="M208.812 65.25H197.938C195.933 65.25 194.312 66.8704 194.312 68.875C194.312 70.8796 195.933 72.5 197.938 72.5H208.812C210.817 72.5 212.438 70.8796 212.438 68.875C212.438 66.8704 210.817 65.25 208.812 65.25Z" fill="#DADADA"/>
<path d="M208.812 79.75H194.312C192.308 79.75 190.688 81.3704 190.688 83.375C190.688 85.3796 192.308 87 194.312 87H208.812C210.817 87 212.438 85.3796 212.438 83.375C212.438 81.3704 210.817 79.75 208.812 79.75Z" fill="#DADADA"/>
<path d="M207 54.375H194.312C192.308 54.375 190.688 55.9954 190.688 58C190.688 60.0046 192.308 61.625 194.312 61.625H207C209.005 61.625 210.625 60.0046 210.625 58C210.625 55.9954 209.005 54.375 207 54.375Z" fill="#DADADA"/>
<path d="M197.938 54.375C195.933 54.375 194.312 55.9954 194.312 58V83.375C194.312 85.3796 195.933 87 197.938 87C199.942 87 201.562 85.3796 201.562 83.375V58C201.562 55.9954 199.942 54.375 197.938 54.375Z" fill="#DADADA"/>
<path d="M201.562 50.75C199.558 50.75 197.938 52.3704 197.938 54.375V58C197.938 60.0046 199.558 61.625 201.562 61.625C203.567 61.625 205.188 60.0046 205.188 58V54.375C205.188 52.3704 203.567 50.75 201.562 50.75Z" fill="#DADADA"/>
<path d="M201.562 79.75C199.558 79.75 197.938 81.3704 197.938 83.375V87C197.938 89.0046 199.558 90.625 201.562 90.625C203.567 90.625 205.188 89.0046 205.188 87V83.375C205.188 81.3704 203.567 79.75 201.562 79.75Z" fill="#DADADA"/>
<path d="M205.184 39.8789C187.193 39.8789 172.559 54.513 172.559 72.5039C172.559 90.4948 187.193 105.129 205.184 105.129C223.175 105.129 237.809 90.4948 237.809 72.5039C237.809 54.513 223.175 39.8789 205.184 39.8789ZM205.184 97.8789C191.195 97.8789 179.809 86.4928 179.809 72.5039C179.809 58.515 191.195 47.1289 205.184 47.1289C219.173 47.1289 230.559 58.515 230.559 72.5039C230.559 86.4928 219.173 97.8789 205.184 97.8789Z" fill="#DADADA"/>
<path d="M284.938 141.375C282.933 141.375 281.312 142.995 281.312 145V163.125C281.312 165.13 282.933 166.75 284.938 166.75C286.942 166.75 288.562 165.13 288.562 163.125V145C288.562 142.995 286.942 141.375 284.938 141.375Z" fill="#DADADA"/>
<path d="M284.938 65.25C282.933 65.25 281.312 66.8704 281.312 68.875V87C281.312 89.0046 282.933 90.625 284.938 90.625C286.942 90.625 288.562 89.0046 288.562 87V68.875C288.562 66.8704 286.942 65.25 284.938 65.25Z" fill="#DADADA"/>
<path d="M257.884 46.7629C256.963 44.9866 254.759 44.2942 252.994 45.2295L229.91 57.2971C228.134 58.2251 227.449 60.4146 228.377 62.1872C229.022 63.427 230.287 64.1339 231.592 64.1339C232.158 64.1339 232.734 64.0033 233.267 63.7206L256.351 51.653C258.127 50.725 258.812 48.5355 257.884 46.7629Z" fill="#DADADA"/>
<path d="M183.481 85.659C182.557 83.8827 180.356 83.1867 178.591 84.1256L155.478 96.2077C153.702 97.1357 153.017 99.3252 153.945 101.098C154.59 102.338 155.855 103.044 157.16 103.044C157.725 103.044 158.298 102.914 158.835 102.631L181.948 90.5491C183.724 89.6211 184.409 87.4316 183.481 85.659Z" fill="#DADADA"/>
<path d="M207 141.375C204.995 141.375 203.375 142.995 203.375 145C203.375 147.005 204.995 148.625 207 148.625C207.997 148.625 208.812 149.441 208.812 150.438C208.812 151.434 207.997 152.25 207 152.25C204.995 152.25 203.375 153.87 203.375 155.875C203.375 157.88 204.995 159.5 207 159.5C211.999 159.5 216.062 155.436 216.062 150.438C216.062 145.439 211.999 141.375 207 141.375Z" fill="#DADADA"/>
<path d="M208.812 152.25C206.808 152.25 205.188 153.87 205.188 155.875C205.188 157.88 206.808 159.5 208.812 159.5C210.813 159.5 212.438 161.124 212.438 163.125C212.438 165.126 210.813 166.75 208.812 166.75C206.808 166.75 205.188 168.37 205.188 170.375C205.188 172.38 206.808 174 208.812 174C214.808 174 219.688 169.121 219.688 163.125C219.688 157.129 214.808 152.25 208.812 152.25Z" fill="#DADADA"/>
<path d="M208.812 152.25H197.938C195.933 152.25 194.312 153.87 194.312 155.875C194.312 157.88 195.933 159.5 197.938 159.5H208.812C210.817 159.5 212.438 157.88 212.438 155.875C212.438 153.87 210.817 152.25 208.812 152.25Z" fill="#DADADA"/>
<path d="M208.812 166.75H194.312C192.308 166.75 190.688 168.37 190.688 170.375C190.688 172.38 192.308 174 194.312 174H208.812C210.817 174 212.438 172.38 212.438 170.375C212.438 168.37 210.817 166.75 208.812 166.75Z" fill="#DADADA"/>
<path d="M207 141.375H194.312C192.308 141.375 190.688 142.995 190.688 145C190.688 147.005 192.308 148.625 194.312 148.625H207C209.005 148.625 210.625 147.005 210.625 145C210.625 142.995 209.005 141.375 207 141.375Z" fill="#DADADA"/>
<path d="M197.938 141.375C195.933 141.375 194.312 142.995 194.312 145V170.375C194.312 172.38 195.933 174 197.938 174C199.942 174 201.562 172.38 201.562 170.375V145C201.562 142.995 199.942 141.375 197.938 141.375Z" fill="#DADADA"/>
<path d="M201.562 137.75C199.558 137.75 197.938 139.37 197.938 141.375V145C197.938 147.005 199.558 148.625 201.562 148.625C203.567 148.625 205.188 147.005 205.188 145V141.375C205.188 139.37 203.567 137.75 201.562 137.75Z" fill="#DADADA"/>
<path d="M201.562 166.75C199.558 166.75 197.938 168.37 197.938 170.375V174C197.938 176.005 199.558 177.625 201.562 177.625C203.567 177.625 205.188 176.005 205.188 174V170.375C205.188 168.37 203.567 166.75 201.562 166.75Z" fill="#DADADA"/>
<path d="M205.173 126.871C187.182 126.871 172.548 141.505 172.548 159.496C172.548 177.487 187.182 192.121 205.173 192.121C223.164 192.121 237.798 177.487 237.798 159.496C237.798 141.505 223.164 126.871 205.173 126.871ZM205.173 184.871C191.184 184.871 179.798 173.485 179.798 159.496C179.798 145.507 191.184 134.121 205.173 134.121C219.162 134.121 230.548 145.507 230.548 159.496C230.548 173.485 219.162 184.871 205.173 184.871Z" fill="#DADADA"/>
<path d="M256.34 180.348L233.256 168.28C231.483 167.341 229.29 168.037 228.366 169.813C227.438 171.59 228.123 173.775 229.899 174.703L252.983 186.771C253.52 187.054 254.092 187.184 254.658 187.184C255.966 187.184 257.228 186.474 257.873 185.238C258.801 183.461 258.116 181.276 256.34 180.348Z" fill="#DADADA"/>
<path d="M181.937 141.451L158.824 129.369C157.051 128.43 154.858 129.126 153.934 130.902C153.006 132.678 153.691 134.864 155.467 135.792L178.58 147.874C179.116 148.157 179.689 148.288 180.255 148.288C181.56 148.288 182.825 147.581 183.47 146.341C184.398 144.565 183.713 142.379 181.937 141.451Z" fill="#DADADA"/>
<path d="M129.062 79.75C109.074 79.75 92.8125 96.0117 92.8125 116C92.8125 135.988 109.074 152.25 129.062 152.25C149.051 152.25 165.312 135.988 165.312 116C165.312 96.0117 149.051 79.75 129.062 79.75ZM129.062 145C113.073 145 100.062 131.99 100.062 116C100.062 100.01 113.073 87 129.062 87C145.052 87 158.062 100.01 158.062 116C158.062 131.99 145.052 145 129.062 145Z" fill="#DADADA"/>
<path d="M129.062 97.875C121.066 97.875 114.562 104.378 114.562 112.375C114.562 120.372 121.066 126.875 129.062 126.875C137.059 126.875 143.562 120.372 143.562 112.375C143.562 104.378 137.059 97.875 129.062 97.875ZM129.062 119.625C125.064 119.625 121.812 116.373 121.812 112.375C121.812 108.377 125.064 105.125 129.062 105.125C133.061 105.125 136.312 108.377 136.312 112.375C136.312 116.373 133.061 119.625 129.062 119.625Z" fill="#DADADA"/>
<path d="M129.062 119.625C117.067 119.625 107.312 129.38 107.312 141.375C107.312 143.38 108.933 145 110.938 145C112.942 145 114.562 143.38 114.562 141.375C114.562 133.378 121.066 126.875 129.062 126.875C137.059 126.875 143.562 133.378 143.562 141.375C143.562 143.38 145.183 145 147.188 145C149.192 145 150.812 143.38 150.812 141.375C150.812 129.38 141.058 119.625 129.062 119.625Z" fill="#DADADA"/>
<path d="M147.188 137.75C145.183 137.75 143.562 139.37 143.562 141.375V143.188C143.562 145.192 145.183 146.812 147.188 146.812C149.192 146.812 150.812 145.192 150.812 143.188V141.375C150.812 139.37 149.192 137.75 147.188 137.75Z" fill="#DADADA"/>
<path d="M110.938 137.75C108.933 137.75 107.312 139.37 107.312 141.375V143.126C107.312 145.131 108.933 146.751 110.938 146.751C112.942 146.751 114.562 145.131 114.562 143.126V141.375C114.562 139.37 112.942 137.75 110.938 137.75Z" fill="#DADADA"/>
<path d="M284.938 0C264.949 0 248.688 16.2617 248.688 36.25C248.688 56.2383 264.949 72.5 284.938 72.5C304.926 72.5 321.188 56.2383 321.188 36.25C321.188 16.2617 304.926 0 284.938 0ZM284.938 65.25C268.948 65.25 255.938 52.2399 255.938 36.25C255.938 20.2601 268.948 7.25 284.938 7.25C300.927 7.25 313.938 20.2601 313.938 36.25C313.938 52.2399 300.927 65.25 284.938 65.25Z" fill="#DADADA"/>
<path d="M284.938 18.125C276.941 18.125 270.438 24.6282 270.438 32.625C270.438 40.6217 276.941 47.125 284.938 47.125C292.934 47.125 299.438 40.6217 299.438 32.625C299.438 24.6282 292.934 18.125 284.938 18.125ZM284.938 39.875C280.939 39.875 277.688 36.6234 277.688 32.625C277.688 28.6266 280.939 25.375 284.938 25.375C288.936 25.375 292.188 28.6266 292.188 32.625C292.188 36.6234 288.936 39.875 284.938 39.875Z" fill="#DADADA"/>
<path d="M284.938 39.875C272.942 39.875 263.188 49.6299 263.188 61.625C263.188 63.6296 264.808 65.25 266.812 65.25C268.817 65.25 270.438 63.6296 270.438 61.625C270.438 53.6283 276.941 47.125 284.938 47.125C292.934 47.125 299.438 53.6283 299.438 61.625C299.438 63.6296 301.058 65.25 303.062 65.25C305.067 65.25 306.688 63.6296 306.688 61.625C306.688 49.6299 296.933 39.875 284.938 39.875Z" fill="#DADADA"/>
<path d="M303.062 58C301.058 58 299.438 59.6204 299.438 61.625V63.4375C299.438 65.4421 301.058 67.0625 303.062 67.0625C305.067 67.0625 306.688 65.4421 306.688 63.4375V61.625C306.688 59.6204 305.067 58 303.062 58Z" fill="#DADADA"/>
<path d="M266.812 58C264.808 58 263.188 59.6204 263.188 61.625V63.3759C263.188 65.3805 264.808 67.0009 266.812 67.0009C268.817 67.0009 270.438 65.3805 270.438 63.3759V61.625C270.438 59.6204 268.817 58 266.812 58Z" fill="#DADADA"/>
<path d="M284.938 159.5C264.949 159.5 248.688 175.762 248.688 195.75C248.688 215.738 264.949 232 284.938 232C304.926 232 321.188 215.738 321.188 195.75C321.188 175.762 304.926 159.5 284.938 159.5ZM284.938 224.75C268.948 224.75 255.938 211.74 255.938 195.75C255.938 179.76 268.948 166.75 284.938 166.75C300.927 166.75 313.938 179.76 313.938 195.75C313.938 211.74 300.927 224.75 284.938 224.75Z" fill="#DADADA"/>
<path d="M284.938 177.625C276.941 177.625 270.438 184.128 270.438 192.125C270.438 200.122 276.941 206.625 284.938 206.625C292.934 206.625 299.438 200.122 299.438 192.125C299.438 184.128 292.934 177.625 284.938 177.625ZM284.938 199.375C280.939 199.375 277.688 196.123 277.688 192.125C277.688 188.127 280.939 184.875 284.938 184.875C288.936 184.875 292.188 188.127 292.188 192.125C292.188 196.123 288.936 199.375 284.938 199.375Z" fill="#DADADA"/>
<path d="M284.938 199.375C272.942 199.375 263.188 209.13 263.188 221.125C263.188 223.13 264.808 224.75 266.812 224.75C268.817 224.75 270.438 223.13 270.438 221.125C270.438 213.128 276.941 206.625 284.938 206.625C292.934 206.625 299.438 213.128 299.438 221.125C299.438 223.13 301.058 224.75 303.062 224.75C305.067 224.75 306.688 223.13 306.688 221.125C306.688 209.13 296.933 199.375 284.938 199.375Z" fill="#DADADA"/>
<path d="M303.062 217.5C301.058 217.5 299.438 219.12 299.438 221.125V222.938C299.438 224.942 301.058 226.562 303.062 226.562C305.067 226.562 306.688 224.942 306.688 222.938V221.125C306.688 219.12 305.067 217.5 303.062 217.5Z" fill="#DADADA"/>
<path d="M266.812 217.5C264.808 217.5 263.188 219.12 263.188 221.125V222.876C263.188 224.881 264.808 226.501 266.812 226.501C268.817 226.501 270.438 224.881 270.438 222.876V221.125C270.438 219.12 268.817 217.5 266.812 217.5Z" fill="#DADADA"/>
</svg>
