<svg width="94" height="94" viewBox="0 0 94 94" fill="none" xmlns="http://www.w3.org/2000/svg">
<path d="M88.125 19.0938H61.6875C60.5189 19.0938 59.3981 19.558 58.5718 20.3843C57.7455 21.2106 57.2812 22.3314 57.2812 23.5V91.0625C57.2812 91.452 57.436 91.8256 57.7114 92.1011C57.9869 92.3765 58.3605 92.5312 58.75 92.5312H91.0625C91.452 92.5312 91.8256 92.3765 92.1011 92.1011C92.3765 91.8256 92.5312 91.452 92.5312 91.0625V23.5C92.5312 22.3314 92.067 21.2106 91.2407 20.3843C90.4144 19.558 89.2936 19.0938 88.125 19.0938ZM61.6875 27.9062C61.6875 27.5167 61.8422 27.1431 62.1177 26.8677C62.3931 26.5922 62.7667 26.4375 63.1562 26.4375H71.9688C72.3583 26.4375 72.7319 26.5922 73.0073 26.8677C73.2828 27.1431 73.4375 27.5167 73.4375 27.9062V36.7188C73.4375 37.1083 73.2828 37.4819 73.0073 37.7573C72.7319 38.0328 72.3583 38.1875 71.9688 38.1875H63.1562C62.7667 38.1875 62.3931 38.0328 62.1177 37.7573C61.8422 37.4819 61.6875 37.1083 61.6875 36.7188V27.9062ZM61.6875 45.5312C61.6875 45.1417 61.8422 44.7681 62.1177 44.4927C62.3931 44.2172 62.7667 44.0625 63.1562 44.0625H71.9688C72.3583 44.0625 72.7319 44.2172 73.0073 44.4927C73.2828 44.7681 73.4375 45.1417 73.4375 45.5312V54.3438C73.4375 54.7333 73.2828 55.1069 73.0073 55.3823C72.7319 55.6578 72.3583 55.8125 71.9688 55.8125H63.1562C62.7667 55.8125 62.3931 55.6578 62.1177 55.3823C61.8422 55.1069 61.6875 54.7333 61.6875 54.3438V45.5312ZM63.1562 73.4375C62.7667 73.4375 62.3931 73.2828 62.1177 73.0073C61.8422 72.7319 61.6875 72.3583 61.6875 71.9688V63.1562C61.6875 62.7667 61.8422 62.3931 62.1177 62.1177C62.3931 61.8422 62.7667 61.6875 63.1562 61.6875H71.9688C72.3583 61.6875 72.7319 61.8422 73.0073 62.1177C73.2828 62.3931 73.4375 62.7667 73.4375 63.1562V71.9688C73.4375 72.3583 73.2828 72.7319 73.0073 73.0073C72.7319 73.2828 72.3583 73.4375 71.9688 73.4375H63.1562ZM80.7812 89.5938H69.0312V79.3125C69.0312 78.923 69.186 78.5494 69.4614 78.2739C69.7369 77.9985 70.1105 77.8438 70.5 77.8438H79.3125C79.702 77.8438 80.0756 77.9985 80.3511 78.2739C80.6265 78.5494 80.7812 78.923 80.7812 79.3125V89.5938ZM88.125 71.9688C88.125 72.3583 87.9703 72.7319 87.6948 73.0073C87.4194 73.2828 87.0458 73.4375 86.6562 73.4375H77.8438C77.4542 73.4375 77.0806 73.2828 76.8052 73.0073C76.5297 72.7319 76.375 72.3583 76.375 71.9688V63.1562C76.375 62.7667 76.5297 62.3931 76.8052 62.1177C77.0806 61.8422 77.4542 61.6875 77.8438 61.6875H86.6562C87.0458 61.6875 87.4194 61.8422 87.6948 62.1177C87.9703 62.3931 88.125 62.7667 88.125 63.1562V71.9688ZM88.125 54.3438C88.125 54.7333 87.9703 55.1069 87.6948 55.3823C87.4194 55.6578 87.0458 55.8125 86.6562 55.8125H77.8438C77.4542 55.8125 77.0806 55.6578 76.8052 55.3823C76.5297 55.1069 76.375 54.7333 76.375 54.3438V45.5312C76.375 45.1417 76.5297 44.7681 76.8052 44.4927C77.0806 44.2172 77.4542 44.0625 77.8438 44.0625H86.6562C87.0458 44.0625 87.4194 44.2172 87.6948 44.4927C87.9703 44.7681 88.125 45.1417 88.125 45.5312V54.3438ZM88.125 36.7188C88.125 37.1083 87.9703 37.4819 87.6948 37.7573C87.4194 38.0328 87.0458 38.1875 86.6562 38.1875H77.8438C77.4542 38.1875 77.0806 38.0328 76.8052 37.7573C76.5297 37.4819 76.375 37.1083 76.375 36.7188V27.9062C76.375 27.5167 76.5297 27.1431 76.8052 26.8677C77.0806 26.5922 77.4542 26.4375 77.8438 26.4375H86.6562C87.0458 26.4375 87.4194 26.5922 87.6948 26.8677C87.9703 27.1431 88.125 27.5167 88.125 27.9062V36.7188Z" fill="#F5F5F5"/>
<path d="M49.9375 36.7188H23.5C22.3314 36.7188 21.2106 37.183 20.3843 38.0093C19.558 38.8356 19.0938 39.9564 19.0938 41.125V91.0625C19.0938 91.452 19.2485 91.8256 19.5239 92.1011C19.7994 92.3765 20.173 92.5312 20.5625 92.5312H52.875C53.2645 92.5312 53.6381 92.3765 53.9136 92.1011C54.189 91.8256 54.3438 91.452 54.3438 91.0625V41.125C54.3438 39.9564 53.8795 38.8356 53.0532 38.0093C52.2269 37.183 51.1061 36.7188 49.9375 36.7188ZM29.375 47C29.375 46.2209 29.6845 45.4738 30.2354 44.9229C30.7863 44.372 31.5334 44.0625 32.3125 44.0625H41.125C41.9041 44.0625 42.6512 44.372 43.2021 44.9229C43.753 45.4738 44.0625 46.2209 44.0625 47V52.875C44.0625 53.6541 43.753 54.4012 43.2021 54.9521C42.6512 55.503 41.9041 55.8125 41.125 55.8125H32.3125C31.5334 55.8125 30.7863 55.503 30.2354 54.9521C29.6845 54.4012 29.375 53.6541 29.375 52.875V47ZM24.9688 73.4375C24.5792 73.4375 24.2056 73.2828 23.9302 73.0073C23.6547 72.7319 23.5 72.3583 23.5 71.9688V63.1562C23.5 62.7667 23.6547 62.3931 23.9302 62.1177C24.2056 61.8422 24.5792 61.6875 24.9688 61.6875H33.7812C34.1708 61.6875 34.5444 61.8422 34.8198 62.1177C35.0953 62.3931 35.25 62.7667 35.25 63.1562V71.9688C35.25 72.3583 35.0953 72.7319 34.8198 73.0073C34.5444 73.2828 34.1708 73.4375 33.7812 73.4375H24.9688ZM42.5938 89.5938H30.8438V79.3125C30.8438 78.923 30.9985 78.5494 31.2739 78.2739C31.5494 77.9985 31.923 77.8438 32.3125 77.8438H41.125C41.5145 77.8438 41.8881 77.9985 42.1636 78.2739C42.439 78.5494 42.5938 78.923 42.5938 79.3125V89.5938ZM49.9375 71.9688C49.9375 72.3583 49.7828 72.7319 49.5073 73.0073C49.2319 73.2828 48.8583 73.4375 48.4688 73.4375H39.6562C39.2667 73.4375 38.8931 73.2828 38.6177 73.0073C38.3422 72.7319 38.1875 72.3583 38.1875 71.9688V63.1562C38.1875 62.7667 38.3422 62.3931 38.6177 62.1177C38.8931 61.8422 39.2667 61.6875 39.6562 61.6875H48.4688C48.8583 61.6875 49.2319 61.8422 49.5073 62.1177C49.7828 62.3931 49.9375 62.7667 49.9375 63.1562V71.9688Z" fill="#F5F5F5"/>
<path d="M39.6562 51.4064V30.8439C39.6539 28.897 38.8795 27.0304 37.5027 25.6537C36.126 24.277 34.2595 23.5025 32.3125 23.5002H30.387C32.0966 21.601 33.2192 19.2469 33.6187 16.723C34.0182 14.199 33.6776 11.6134 32.6381 9.279C31.5986 6.94461 29.9048 4.96156 27.7616 3.56987C25.6185 2.17817 23.1179 1.4375 20.5625 1.4375C18.0071 1.4375 15.5065 2.17817 13.3634 3.56987C11.2202 4.96156 9.52638 6.94461 8.48688 9.279C7.44738 11.6134 7.10679 14.199 7.50632 16.723C7.90585 19.2469 9.02837 21.601 10.738 23.5002H8.8125C6.86553 23.5025 4.99898 24.277 3.62226 25.6537C2.24555 27.0304 1.47108 28.897 1.46875 30.8439V51.4064C1.46875 52.9646 2.08772 54.4589 3.1895 55.5607C4.29127 56.6625 5.7856 57.2814 7.34375 57.2814C8.38256 57.2811 9.40039 56.989 10.2812 56.4384V69.0314C10.2759 70.2276 10.6374 71.3966 11.317 72.381C11.9966 73.3653 12.9616 74.1177 14.0819 74.5367C15.2023 74.9557 16.4242 75.0212 17.5829 74.7244C18.7417 74.4276 19.7816 73.7827 20.5625 72.8766C21.3434 73.7827 22.3833 74.4276 23.5421 74.7244C24.7008 75.0212 25.9227 74.9557 27.0431 74.5367C28.1634 74.1177 29.1284 73.3653 29.808 72.381C30.4876 71.3966 30.8491 70.2276 30.8438 69.0314V56.4384C31.7247 56.9887 32.7425 57.2808 33.7812 57.2814C35.3394 57.2814 36.8337 56.6625 37.9355 55.5607C39.0373 54.4589 39.6562 52.9646 39.6562 51.4064ZM10.2812 14.6877C10.2812 12.6542 10.8842 10.6665 12.014 8.97573C13.1437 7.28498 14.7494 5.96721 16.628 5.18905C18.5067 4.41088 20.5739 4.20728 22.5683 4.60399C24.5626 5.00069 26.3946 5.97988 27.8324 7.41774C29.2703 8.8556 30.2495 10.6875 30.6462 12.6819C31.0429 14.6763 30.8393 16.7435 30.0611 18.6221C29.283 20.5008 27.9652 22.1065 26.2745 23.2362C24.5837 24.3659 22.5959 24.9689 20.5625 24.9689C17.8368 24.9654 15.2238 23.8811 13.2964 21.9538C11.3691 20.0264 10.2847 17.4134 10.2812 14.6877ZM36.7188 51.4064C36.7193 51.8059 36.6384 52.2013 36.481 52.5685C36.3235 52.9356 36.0929 53.2668 35.8031 53.5417C35.5133 53.8167 35.1704 54.0296 34.7955 54.1676C34.4206 54.3055 34.0215 54.3655 33.6226 54.3439C32.8432 54.2603 32.124 53.8856 31.6088 53.2947C31.0936 52.7039 30.8204 51.9403 30.8438 51.1567V42.5939C30.8438 42.2044 30.689 41.8308 30.4136 41.5554C30.1381 41.2799 29.7645 41.1252 29.375 41.1252C28.9855 41.1252 28.6119 41.2799 28.3364 41.5554C28.061 41.8308 27.9062 42.2044 27.9062 42.5939V69.0314C27.9062 69.8105 27.5968 70.5577 27.0459 71.1086C26.495 71.6594 25.7478 71.9689 24.9688 71.9689C24.1897 71.9689 23.4425 71.6594 22.8916 71.1086C22.3407 70.5577 22.0312 69.8105 22.0312 69.0314V57.2814C22.0312 56.8919 21.8765 56.5183 21.6011 56.2429C21.3256 55.9674 20.952 55.8127 20.5625 55.8127C20.173 55.8127 19.7994 55.9674 19.5239 56.2429C19.2485 56.5183 19.0938 56.8919 19.0938 57.2814V69.0314C19.0938 69.8105 18.7843 70.5577 18.2334 71.1086C17.6825 71.6594 16.9353 71.9689 16.1562 71.9689C15.3772 71.9689 14.63 71.6594 14.0791 71.1086C13.5282 70.5577 13.2188 69.8105 13.2188 69.0314V42.5939C13.2188 42.2044 13.064 41.8308 12.7886 41.5554C12.5131 41.2799 12.1395 41.1252 11.75 41.1252C11.3605 41.1252 10.9869 41.2799 10.7114 41.5554C10.436 41.8308 10.2812 42.2044 10.2812 42.5939V51.1567C10.3046 51.9401 10.0316 52.7034 9.51673 53.2943C9.00186 53.8851 8.28303 54.26 7.50384 54.3439C7.10483 54.3657 6.70557 54.3058 6.33049 54.168C5.9554 54.0302 5.61239 53.8172 5.32243 53.5423C5.03247 53.2673 4.80167 52.9361 4.64413 52.5688C4.4866 52.2016 4.40566 51.806 4.40625 51.4064V30.8439C4.40625 29.6753 4.87048 28.5546 5.69681 27.7282C6.52314 26.9019 7.64389 26.4377 8.8125 26.4377H14.5406C16.4039 27.4027 18.4715 27.9063 20.5698 27.9063C22.6682 27.9063 24.7358 27.4027 26.5991 26.4377H32.3125C33.4811 26.4377 34.6019 26.9019 35.4282 27.7282C36.2545 28.5546 36.7188 29.6753 36.7188 30.8439V51.4064Z" fill="#DADADA"/>
<path d="M20.5625 33.7812C21.3737 33.7812 22.0312 33.1237 22.0312 32.3125C22.0312 31.5013 21.3737 30.8438 20.5625 30.8438C19.7513 30.8438 19.0938 31.5013 19.0938 32.3125C19.0938 33.1237 19.7513 33.7812 20.5625 33.7812Z" fill="#DADADA"/>
<path d="M20.5625 39.6562C21.3737 39.6562 22.0312 38.9987 22.0312 38.1875C22.0312 37.3763 21.3737 36.7188 20.5625 36.7188C19.7513 36.7188 19.0938 37.3763 19.0938 38.1875C19.0938 38.9987 19.7513 39.6562 20.5625 39.6562Z" fill="#DADADA"/>
<path d="M42.5938 58.75V57.2812C42.5938 56.8917 42.439 56.5181 42.1636 56.2427C41.8881 55.9672 41.5145 55.8125 41.125 55.8125C40.7355 55.8125 40.3619 55.9672 40.0864 56.2427C39.811 56.5181 39.6562 56.8917 39.6562 57.2812V58.75C38.4876 58.75 37.3669 59.2142 36.5406 60.0406C35.7142 60.8669 35.25 61.9876 35.25 63.1562V73.4375C35.25 73.827 35.4047 74.2006 35.6802 74.4761C35.9556 74.7515 36.3292 74.9062 36.7188 74.9062H45.5312C45.9208 74.9062 46.2944 74.7515 46.5698 74.4761C46.8453 74.2006 47 73.827 47 73.4375V63.1562C47 61.9876 46.5358 60.8669 45.7094 60.0406C44.8831 59.2142 43.7624 58.75 42.5938 58.75ZM44.0625 71.9688H38.1875V63.1562C38.1875 62.7667 38.3422 62.3931 38.6177 62.1177C38.8931 61.8422 39.2667 61.6875 39.6562 61.6875H42.5938C42.9833 61.6875 43.3569 61.8422 43.6323 62.1177C43.9078 62.3931 44.0625 62.7667 44.0625 63.1562V71.9688Z" fill="#DADADA"/>
</svg>
