<svg width="18" height="25" viewBox="0 0 18 25" fill="none" xmlns="http://www.w3.org/2000/svg">
<path d="M16.25 0.5H2.25C1.85218 0.5 1.47064 0.658035 1.18934 0.93934C0.908035 1.22064 0.75 1.60218 0.75 2V23C0.75 23.3978 0.908035 23.7794 1.18934 24.0607C1.47064 24.342 1.85218 24.5 2.25 24.5H16.25C16.6478 24.5 17.0294 24.342 17.3107 24.0607C17.592 23.7794 17.75 23.3978 17.75 23V2C17.75 1.60218 17.592 1.22064 17.3107 0.93934C17.0294 0.658035 16.6478 0.5 16.25 0.5ZM16.75 23C16.75 23.1326 16.6973 23.2598 16.6036 23.3536C16.5098 23.4473 16.3826 23.5 16.25 23.5H2.25C2.11739 23.5 1.99021 23.4473 1.89645 23.3536C1.80268 23.2598 1.75 23.1326 1.75 23V2C1.75 1.86739 1.80268 1.74021 1.89645 1.64645C1.99021 1.55268 2.11739 1.5 2.25 1.5H16.25C16.3826 1.5 16.5098 1.55268 16.6036 1.64645C16.6973 1.74021 16.75 1.86739 16.75 2V23Z" fill="#656565"/>
<path d="M6.57 5.38577C6.79048 5.13247 6.93342 4.82108 6.98177 4.48877C7.03012 4.15645 6.98183 3.81724 6.84267 3.51162C6.70351 3.20599 6.47935 2.94686 6.19694 2.76515C5.91454 2.58344 5.58581 2.48682 5.25 2.48682C4.91419 2.48682 4.58546 2.58344 4.30306 2.76515C4.02065 2.94686 3.7965 3.20599 3.65733 3.51162C3.51817 3.81724 3.46988 4.15645 3.51823 4.48877C3.56658 4.82108 3.70952 5.13247 3.93 5.38577C3.56998 5.60894 3.27273 5.92012 3.06628 6.28998C2.85983 6.65984 2.75098 7.07619 2.75 7.49977V7.99977C2.75 8.13238 2.80268 8.25955 2.89645 8.35332C2.99021 8.44709 3.11739 8.49977 3.25 8.49977H7.25C7.38261 8.49977 7.50979 8.44709 7.60355 8.35332C7.69732 8.25955 7.75 8.13238 7.75 7.99977V7.49977C7.74902 7.07619 7.64017 6.65984 7.43372 6.28998C7.22727 5.92012 6.93002 5.60894 6.57 5.38577ZM5.25 3.49977C5.39834 3.49977 5.54334 3.54376 5.66668 3.62617C5.79001 3.70858 5.88614 3.82571 5.94291 3.96276C5.99968 4.0998 6.01453 4.2506 5.98559 4.39609C5.95665 4.54158 5.88522 4.67521 5.78033 4.7801C5.67544 4.88499 5.5418 4.95642 5.39632 4.98536C5.25083 5.0143 5.10003 4.99945 4.96299 4.94268C4.82594 4.88592 4.70881 4.78979 4.6264 4.66645C4.54399 4.54311 4.5 4.39811 4.5 4.24977C4.5 4.05086 4.57902 3.86009 4.71967 3.71944C4.86032 3.57879 5.05109 3.49977 5.25 3.49977ZM3.75 7.49977C3.75 7.10195 3.90804 6.72041 4.18934 6.43911C4.47064 6.15781 4.85218 5.99977 5.25 5.99977C5.64782 5.99977 6.02936 6.15781 6.31066 6.43911C6.59196 6.72041 6.75 7.10195 6.75 7.49977H3.75Z" fill="#656565"/>
<path d="M8.75 5H11.75C11.8826 5 12.0098 4.94732 12.1036 4.85355C12.1973 4.75979 12.25 4.63261 12.25 4.5C12.25 4.36739 12.1973 4.24021 12.1036 4.14645C12.0098 4.05268 11.8826 4 11.75 4H8.75C8.61739 4 8.49021 4.05268 8.39645 4.14645C8.30268 4.24021 8.25 4.36739 8.25 4.5C8.25 4.63261 8.30268 4.75979 8.39645 4.85355C8.49021 4.94732 8.61739 5 8.75 5Z" fill="#656565"/>
<path d="M15.25 6H8.75C8.61739 6 8.49021 6.05268 8.39645 6.14645C8.30268 6.24021 8.25 6.36739 8.25 6.5C8.25 6.63261 8.30268 6.75979 8.39645 6.85355C8.49021 6.94732 8.61739 7 8.75 7H15.25C15.3826 7 15.5098 6.94732 15.6036 6.85355C15.6973 6.75979 15.75 6.63261 15.75 6.5C15.75 6.36739 15.6973 6.24021 15.6036 6.14645C15.5098 6.05268 15.3826 6 15.25 6Z" fill="#656565"/>
<path d="M6.57 12.3858C6.79048 12.1325 6.93342 11.8211 6.98177 11.4888C7.03012 11.1565 6.98183 10.8172 6.84267 10.5116C6.70351 10.206 6.47935 9.94686 6.19694 9.76515C5.91454 9.58344 5.58581 9.48682 5.25 9.48682C4.91419 9.48682 4.58546 9.58344 4.30306 9.76515C4.02065 9.94686 3.7965 10.206 3.65733 10.5116C3.51817 10.8172 3.46988 11.1565 3.51823 11.4888C3.56658 11.8211 3.70952 12.1325 3.93 12.3858C3.56998 12.6089 3.27273 12.9201 3.06628 13.29C2.85983 13.6598 2.75098 14.0762 2.75 14.4998V14.9998C2.75 15.1324 2.80268 15.2596 2.89645 15.3533C2.99021 15.4471 3.11739 15.4998 3.25 15.4998H7.25C7.38261 15.4998 7.50979 15.4471 7.60355 15.3533C7.69732 15.2596 7.75 15.1324 7.75 14.9998V14.4998C7.74902 14.0762 7.64017 13.6598 7.43372 13.29C7.22727 12.9201 6.93002 12.6089 6.57 12.3858ZM5.25 10.4998C5.39834 10.4998 5.54334 10.5438 5.66668 10.6262C5.79001 10.7086 5.88614 10.8257 5.94291 10.9628C5.99968 11.0998 6.01453 11.2506 5.98559 11.3961C5.95665 11.5416 5.88522 11.6752 5.78033 11.7801C5.67544 11.885 5.5418 11.9564 5.39632 11.9854C5.25083 12.0143 5.10003 11.9994 4.96299 11.9427C4.82594 11.8859 4.70881 11.7898 4.6264 11.6665C4.54399 11.5431 4.5 11.3981 4.5 11.2498C4.5 11.0509 4.57902 10.8601 4.71967 10.7194C4.86032 10.5788 5.05109 10.4998 5.25 10.4998ZM3.75 14.4998C3.75 14.1019 3.90804 13.7204 4.18934 13.4391C4.47064 13.1578 4.85218 12.9998 5.25 12.9998C5.64782 12.9998 6.02936 13.1578 6.31066 13.4391C6.59196 13.7204 6.75 14.1019 6.75 14.4998H3.75Z" fill="#656565"/>
<path d="M8.75 12H11.75C11.8826 12 12.0098 11.9473 12.1036 11.8536C12.1973 11.7598 12.25 11.6326 12.25 11.5C12.25 11.3674 12.1973 11.2402 12.1036 11.1464C12.0098 11.0527 11.8826 11 11.75 11H8.75C8.61739 11 8.49021 11.0527 8.39645 11.1464C8.30268 11.2402 8.25 11.3674 8.25 11.5C8.25 11.6326 8.30268 11.7598 8.39645 11.8536C8.49021 11.9473 8.61739 12 8.75 12Z" fill="#656565"/>
<path d="M15.25 13H8.75C8.61739 13 8.49021 13.0527 8.39645 13.1464C8.30268 13.2402 8.25 13.3674 8.25 13.5C8.25 13.6326 8.30268 13.7598 8.39645 13.8536C8.49021 13.9473 8.61739 14 8.75 14H15.25C15.3826 14 15.5098 13.9473 15.6036 13.8536C15.6973 13.7598 15.75 13.6326 15.75 13.5C15.75 13.3674 15.6973 13.2402 15.6036 13.1464C15.5098 13.0527 15.3826 13 15.25 13Z" fill="#656565"/>
<path d="M6.57 19.3858C6.79048 19.1325 6.93342 18.8211 6.98177 18.4888C7.03012 18.1565 6.98183 17.8172 6.84267 17.5116C6.70351 17.206 6.47935 16.9469 6.19694 16.7652C5.91454 16.5834 5.58581 16.4868 5.25 16.4868C4.91419 16.4868 4.58546 16.5834 4.30306 16.7652C4.02065 16.9469 3.7965 17.206 3.65733 17.5116C3.51817 17.8172 3.46988 18.1565 3.51823 18.4888C3.56658 18.8211 3.70952 19.1325 3.93 19.3858C3.56998 19.6089 3.27273 19.9201 3.06628 20.29C2.85983 20.6598 2.75098 21.0762 2.75 21.4998V21.9998C2.75 22.1324 2.80268 22.2596 2.89645 22.3533C2.99021 22.4471 3.11739 22.4998 3.25 22.4998H7.25C7.38261 22.4998 7.50979 22.4471 7.60355 22.3533C7.69732 22.2596 7.75 22.1324 7.75 21.9998V21.4998C7.74902 21.0762 7.64017 20.6598 7.43372 20.29C7.22727 19.9201 6.93002 19.6089 6.57 19.3858ZM5.25 17.4998C5.39834 17.4998 5.54334 17.5438 5.66668 17.6262C5.79001 17.7086 5.88614 17.8257 5.94291 17.9628C5.99968 18.0998 6.01453 18.2506 5.98559 18.3961C5.95665 18.5416 5.88522 18.6752 5.78033 18.7801C5.67544 18.885 5.5418 18.9564 5.39632 18.9854C5.25083 19.0143 5.10003 18.9994 4.96299 18.9427C4.82594 18.8859 4.70881 18.7898 4.6264 18.6665C4.54399 18.5431 4.5 18.3981 4.5 18.2498C4.5 18.0509 4.57902 17.8601 4.71967 17.7194C4.86032 17.5788 5.05109 17.4998 5.25 17.4998ZM3.75 21.4998C3.75 21.1019 3.90804 20.7204 4.18934 20.4391C4.47064 20.1578 4.85218 19.9998 5.25 19.9998C5.64782 19.9998 6.02936 20.1578 6.31066 20.4391C6.59196 20.7204 6.75 21.1019 6.75 21.4998H3.75Z" fill="#656565"/>
<path d="M8.75 19H11.75C11.8826 19 12.0098 18.9473 12.1036 18.8536C12.1973 18.7598 12.25 18.6326 12.25 18.5C12.25 18.3674 12.1973 18.2402 12.1036 18.1464C12.0098 18.0527 11.8826 18 11.75 18H8.75C8.61739 18 8.49021 18.0527 8.39645 18.1464C8.30268 18.2402 8.25 18.3674 8.25 18.5C8.25 18.6326 8.30268 18.7598 8.39645 18.8536C8.49021 18.9473 8.61739 19 8.75 19Z" fill="#656565"/>
<path d="M15.25 20H8.75C8.61739 20 8.49021 20.0527 8.39645 20.1464C8.30268 20.2402 8.25 20.3674 8.25 20.5C8.25 20.6326 8.30268 20.7598 8.39645 20.8536C8.49021 20.9473 8.61739 21 8.75 21H15.25C15.3826 21 15.5098 20.9473 15.6036 20.8536C15.6973 20.7598 15.75 20.6326 15.75 20.5C15.75 20.3674 15.6973 20.2402 15.6036 20.1464C15.5098 20.0527 15.3826 20 15.25 20Z" fill="#656565"/>
</svg>
