<svg width="26" height="23" viewBox="0 0 26 23" fill="none" xmlns="http://www.w3.org/2000/svg">
<path d="M24 6.5H17.5V5C17.5 4.60218 17.342 4.22064 17.0607 3.93934C16.7794 3.65804 16.3978 3.5 16 3.5H15.5V1.5C15.5 1.10218 15.342 0.720644 15.0607 0.43934C14.7794 0.158035 14.3978 0 14 0H12C11.6022 0 11.2206 0.158035 10.9393 0.43934C10.658 0.720644 10.5 1.10218 10.5 1.5V3.5H10C9.60218 3.5 9.22064 3.65804 8.93934 3.93934C8.65804 4.22064 8.5 4.60218 8.5 5V6.5H2C1.60218 6.5 1.22064 6.65804 0.93934 6.93934C0.658035 7.22064 0.5 7.60218 0.5 8V21C0.5 21.3978 0.658035 21.7794 0.93934 22.0607C1.22064 22.342 1.60218 22.5 2 22.5H24C24.3978 22.5 24.7794 22.342 25.0607 22.0607C25.342 21.7794 25.5 21.3978 25.5 21V8C25.5 7.60218 25.342 7.22064 25.0607 6.93934C24.7794 6.65804 24.3978 6.5 24 6.5ZM11.5 1.5C11.5 1.36739 11.5527 1.24021 11.6464 1.14645C11.7402 1.05268 11.8674 1 12 1H14C14.1326 1 14.2598 1.05268 14.3536 1.14645C14.4473 1.24021 14.5 1.36739 14.5 1.5V4.5H11.5V1.5ZM9.5 5C9.5 4.86739 9.55268 4.74021 9.64645 4.64645C9.74021 4.55268 9.86739 4.5 10 4.5H10.5V5C10.5 5.13261 10.5527 5.25979 10.6464 5.35355C10.7402 5.44732 10.8674 5.5 11 5.5H15C15.1326 5.5 15.2598 5.44732 15.3536 5.35355C15.4473 5.25979 15.5 5.13261 15.5 5V4.5H16C16.1326 4.5 16.2598 4.55268 16.3536 4.64645C16.4473 4.74021 16.5 4.86739 16.5 5V6.5H9.5V5ZM24.5 21C24.5 21.1326 24.4473 21.2598 24.3536 21.3536C24.2598 21.4473 24.1326 21.5 24 21.5H2C1.86739 21.5 1.74021 21.4473 1.64645 21.3536C1.55268 21.2598 1.5 21.1326 1.5 21V8C1.5 7.86739 1.55268 7.74021 1.64645 7.64645C1.74021 7.55268 1.86739 7.5 2 7.5H24C24.1326 7.5 24.2598 7.55268 24.3536 7.64645C24.4473 7.74021 24.5 7.86739 24.5 8V21Z" fill="#656565"/>
<path d="M8.813 14.8843C9.31355 14.5047 9.68227 13.9774 9.86716 13.377C10.052 12.7765 10.0438 12.1332 9.84346 11.5377C9.64318 10.9423 9.26099 10.4247 8.75083 10.058C8.24066 9.69138 7.62826 9.49414 7 9.49414C6.37174 9.49414 5.75934 9.69138 5.24917 10.058C4.73901 10.4247 4.35682 10.9423 4.15654 11.5377C3.95625 12.1332 3.94796 12.7765 4.13284 13.377C4.31772 13.9774 4.68645 14.5047 5.187 14.8843C4.38869 15.2364 3.7098 15.8128 3.23281 16.5434C2.75581 17.2739 2.50124 18.1273 2.5 18.9998C2.5 19.1324 2.55268 19.2596 2.64645 19.3534C2.74021 19.4472 2.86739 19.4998 3 19.4998H11C11.1326 19.4998 11.2598 19.4472 11.3536 19.3534C11.4473 19.2596 11.5 19.1324 11.5 18.9998C11.4988 18.1273 11.2442 17.2739 10.7672 16.5434C10.2902 15.8128 9.61131 15.2364 8.813 14.8843ZM5 12.4998C5 12.1043 5.1173 11.7176 5.33706 11.3887C5.55682 11.0598 5.86918 10.8035 6.23463 10.6521C6.60009 10.5007 7.00222 10.4611 7.39018 10.5383C7.77814 10.6154 8.13451 10.8059 8.41421 11.0856C8.69392 11.3653 8.8844 11.7217 8.96157 12.1097C9.03874 12.4976 8.99913 12.8997 8.84776 13.2652C8.69638 13.6307 8.44004 13.943 8.11114 14.1628C7.78224 14.3825 7.39556 14.4998 7 14.4998C6.46957 14.4998 5.96086 14.2891 5.58579 13.914C5.21071 13.539 5 13.0303 5 12.4998ZM3.5355 18.4998C3.65514 17.6663 4.0713 16.9038 4.70766 16.3522C5.34401 15.8007 6.15789 15.4971 7 15.4971C7.84211 15.4971 8.65599 15.8007 9.29235 16.3522C9.9287 16.9038 10.3449 17.6663 10.4645 18.4998H3.5355Z" fill="#656565"/>
<path d="M22.5 18.5H13.5C13.3674 18.5 13.2402 18.5527 13.1464 18.6464C13.0527 18.7402 13 18.8674 13 19C13 19.1326 13.0527 19.2598 13.1464 19.3536C13.2402 19.4473 13.3674 19.5 13.5 19.5H22.5C22.6326 19.5 22.7598 19.4473 22.8536 19.3536C22.9473 19.2598 23 19.1326 23 19C23 18.8674 22.9473 18.7402 22.8536 18.6464C22.7598 18.5527 22.6326 18.5 22.5 18.5Z" fill="#656565"/>
<path d="M22.5 15.5H13.5C13.3674 15.5 13.2402 15.5527 13.1464 15.6464C13.0527 15.7402 13 15.8674 13 16C13 16.1326 13.0527 16.2598 13.1464 16.3536C13.2402 16.4473 13.3674 16.5 13.5 16.5H22.5C22.6326 16.5 22.7598 16.4473 22.8536 16.3536C22.9473 16.2598 23 16.1326 23 16C23 15.8674 22.9473 15.7402 22.8536 15.6464C22.7598 15.5527 22.6326 15.5 22.5 15.5Z" fill="#656565"/>
<path d="M22.5 12.5H13.5C13.3674 12.5 13.2402 12.5527 13.1464 12.6464C13.0527 12.7402 13 12.8674 13 13C13 13.1326 13.0527 13.2598 13.1464 13.3536C13.2402 13.4473 13.3674 13.5 13.5 13.5H22.5C22.6326 13.5 22.7598 13.4473 22.8536 13.3536C22.9473 13.2598 23 13.1326 23 13C23 12.8674 22.9473 12.7402 22.8536 12.6464C22.7598 12.5527 22.6326 12.5 22.5 12.5Z" fill="#656565"/>
<path d="M22.5 9.5H13.5C13.3674 9.5 13.2402 9.55268 13.1464 9.64645C13.0527 9.74021 13 9.86739 13 10C13 10.1326 13.0527 10.2598 13.1464 10.3536C13.2402 10.4473 13.3674 10.5 13.5 10.5H22.5C22.6326 10.5 22.7598 10.4473 22.8536 10.3536C22.9473 10.2598 23 10.1326 23 10C23 9.86739 22.9473 9.74021 22.8536 9.64645C22.7598 9.55268 22.6326 9.5 22.5 9.5Z" fill="#656565"/>
</svg>
