<svg width="25" height="25" viewBox="0 0 25 25" fill="none" xmlns="http://www.w3.org/2000/svg">
<path d="M24.129 2.51756L16.629 0.517558C16.5459 0.508332 16.4621 0.508332 16.379 0.517558L11.973 1.61756C10.9616 0.892363 9.74858 0.501937 8.50405 0.501041C7.25953 0.500144 6.04594 0.888821 5.0335 1.61256L1.135 0.519058C1.06072 0.498228 0.982624 0.49487 0.906828 0.509246C0.831032 0.523622 0.759591 0.555342 0.698095 0.601924C0.636599 0.648506 0.586716 0.708687 0.55235 0.777756C0.517984 0.846826 0.500066 0.922911 0.5 1.00006V22.0001C0.500016 22.1102 0.53639 22.2172 0.603474 22.3046C0.670559 22.3919 0.764601 22.4546 0.871 22.4831L8.371 24.4831C8.45299 24.5042 8.53901 24.5042 8.621 24.4831L16.496 22.5141L23.871 24.4811C23.9449 24.5008 24.0223 24.5033 24.0974 24.4884C24.1724 24.4735 24.243 24.4416 24.3037 24.3952C24.3645 24.3487 24.4138 24.2889 24.4478 24.2204C24.4818 24.1519 24.4997 24.0765 24.5 24.0001V3.00006C24.4999 2.89002 24.4634 2.78309 24.3964 2.69585C24.3293 2.60862 24.2353 2.54595 24.129 2.51756ZM8 23.3501L1.5 21.6166V1.66006L4.1335 2.40006C3.08567 3.50815 2.50126 4.975 2.5 6.50006C2.5 11.7201 7.14 17.2181 8 18.1916V23.3501ZM8.5 17.2371C7.287 15.7911 3.5 10.9226 3.5 6.50006C3.5 5.17398 4.02678 3.90221 4.96447 2.96452C5.90215 2.02684 7.17392 1.50006 8.5 1.50006C9.82608 1.50006 11.0979 2.02684 12.0355 2.96452C12.9732 3.90221 13.5 5.17398 13.5 6.50006C13.5 10.9226 9.713 15.7911 8.5 17.2366V17.2371ZM16 21.6101L9 23.3601V18.1916C9.86 17.2181 14.5 11.7201 14.5 6.50006C14.4994 4.98418 13.9224 3.52525 12.886 2.41906L16 1.64106V21.6101ZM23.5 23.3501L17 21.6166V1.65006L23.5 3.38456V23.3501Z" fill="#656565"/>
<path d="M8.5 3.5C7.90666 3.5 7.32664 3.67595 6.83329 4.00559C6.33994 4.33524 5.95543 4.80377 5.72836 5.35195C5.5013 5.90013 5.44189 6.50333 5.55765 7.08527C5.6734 7.66721 5.95912 8.20176 6.37868 8.62132C6.79824 9.04088 7.33279 9.3266 7.91473 9.44235C8.49667 9.55811 9.09987 9.4987 9.64805 9.27164C10.1962 9.04457 10.6648 8.66006 10.9944 8.16671C11.3241 7.67336 11.5 7.09334 11.5 6.5C11.4991 5.70463 11.1827 4.94211 10.6203 4.3797C10.0579 3.81729 9.29537 3.50093 8.5 3.5ZM8.5 8.5C8.10444 8.5 7.71776 8.3827 7.38886 8.16294C7.05996 7.94317 6.80362 7.63082 6.65224 7.26537C6.50087 6.89991 6.46126 6.49778 6.53843 6.10982C6.6156 5.72186 6.80608 5.36549 7.08579 5.08579C7.36549 4.80608 7.72186 4.6156 8.10982 4.53843C8.49778 4.46126 8.89992 4.50086 9.26537 4.65224C9.63082 4.80362 9.94318 5.05996 10.1629 5.38886C10.3827 5.71776 10.5 6.10444 10.5 6.5C10.5 7.03043 10.2893 7.53914 9.91421 7.91421C9.53914 8.28928 9.03043 8.5 8.5 8.5Z" fill="#656565"/>
</svg>
