<svg width="144" height="144" viewBox="0 0 144 144" fill="none" xmlns="http://www.w3.org/2000/svg">
<path d="M66.793 105.591V136.227C63.0977 134.581 59.5799 131.229 56.4229 126.547C53.1542 121.698 50.2986 115.461 48.0502 108.321C54.1065 106.849 60.3701 105.918 66.793 105.591Z" stroke="#EEEEEE"/>
<path d="M98.5802 98.2414C91.6831 96.5541 84.5657 95.5117 77.2379 95.1739V77.1748H101.193C100.896 84.4631 99.9896 91.603 98.5802 98.2414Z" stroke="#EEEEEE"/>
<path d="M77.2379 7.77286C80.9323 9.41942 84.4428 12.7704 87.5924 17.4531C90.8536 22.3016 93.7015 28.5395 95.9495 35.6802C89.8946 37.1517 83.6592 38.0827 77.2379 38.4093V7.77286Z" stroke="#EEEEEE"/>
<path d="M77.2382 66.7299V48.825C84.5658 48.4875 91.6832 47.4451 98.5806 45.7575C99.99 52.3923 100.896 59.4462 101.193 66.7299H77.2382Z" stroke="#EEEEEE"/>
<path d="M66.793 7.77284V38.4088C60.3703 38.0822 54.1067 37.1511 48.0502 35.6799C50.2986 28.5397 53.1541 22.302 56.4228 17.4535C59.5797 12.7707 63.0976 9.41951 66.793 7.77284Z" stroke="#EEEEEE"/>
<path d="M45.4192 98.2417C44.0101 91.6028 43.1036 84.4631 42.8065 77.1748H66.793V95.1742C59.4641 95.5117 52.3181 96.5541 45.4192 98.2417Z" stroke="#EEEEEE"/>
<path d="M66.793 66.7302H42.8065C43.1036 59.4467 44.01 52.3923 45.4191 45.7575C52.3181 47.4449 59.4643 48.4872 66.793 48.825V66.7302Z" stroke="#EEEEEE"/>
<path d="M77.2382 105.591C83.6592 105.918 89.8947 106.849 95.9498 108.321C93.7017 115.461 90.8536 121.699 87.5924 126.547C84.4428 131.23 80.9324 134.581 77.2382 136.228V105.591Z" stroke="#EEEEEE"/>
<path d="M131.338 112.133C124.253 107.681 116.639 104.006 108.608 101.217C110.272 93.6926 111.312 85.5713 111.619 77.1748H143.465C142.535 90.0519 138.197 102.024 131.338 112.133Z" stroke="#EEEEEE"/>
<path d="M56.8028 142.026C42.0589 138.83 28.9889 131.096 19.1472 120.346C25.0882 116.707 31.4311 113.668 38.0921 111.3C42.4165 124.837 48.9261 135.765 56.8028 142.026Z" stroke="#EEEEEE"/>
<path d="M124.853 120.347C115.011 131.097 101.941 138.831 87.1969 142.027C95.0734 135.766 101.583 124.838 105.908 111.301C112.569 113.67 118.912 116.708 124.853 120.347Z" stroke="#EEEEEE"/>
<path d="M111.619 66.7304C111.312 58.3371 110.272 50.303 108.608 42.7821C116.639 39.9933 124.253 36.3181 131.338 31.8667C138.197 41.9739 142.535 53.8565 143.465 66.7304H111.619Z" stroke="#EEEEEE"/>
<path d="M32.3812 66.7304H0.535397C1.46466 53.8565 5.80278 41.9742 12.6617 31.8667C19.7472 36.3181 27.3615 39.9933 35.392 42.7821C33.7287 50.303 32.6879 58.3368 32.3812 66.7304Z" stroke="#EEEEEE"/>
<path d="M12.6618 112.134C5.80324 102.025 1.46471 90.0529 0.535393 77.1758H32.3812C32.6882 85.5723 33.7283 93.6936 35.392 101.218C27.3615 104.007 19.7472 107.682 12.6618 112.134Z" stroke="#EEEEEE"/>
<path d="M56.803 1.97322C48.9263 8.23407 42.4165 19.162 38.0921 32.6995C31.4308 30.3305 25.0882 27.2923 19.1472 23.6528C28.9889 12.9029 42.0589 5.16892 56.803 1.97322Z" stroke="#EEEEEE"/>
<path d="M87.1972 1.97326C101.941 5.16922 115.011 12.9031 124.853 23.6528C118.912 27.2928 112.569 30.331 105.908 32.6995C101.584 19.1623 95.0737 8.23415 87.1972 1.97326Z" stroke="#EEEEEE"/>
</svg>
