<svg width="136" height="115" viewBox="0 0 136 115" fill="none" xmlns="http://www.w3.org/2000/svg">
<g opacity="0.05">
<path d="M19.429 57.3671C19.4299 44.1095 25.1168 32.1124 34.3225 23.4164C43.5298 14.7229 56.2464 9.34351 70.3031 9.34351C84.3598 9.34351 97.0781 14.7229 106.285 23.4164C115.491 32.1116 121.177 44.1087 121.178 57.3671H122.673C122.673 43.7006 116.803 31.3234 107.325 22.374C97.8489 13.4237 84.7566 7.88965 70.3031 7.88965C55.8513 7.88965 42.7573 13.4237 33.281 22.374C23.803 31.3234 17.9332 43.7006 17.9349 57.3671H19.429Z" fill="black"/>
<path d="M47.8148 21.5203L69.391 57.5979L69.9663 57.2778L48.391 21.2002" fill="black"/>
<path d="M51.3335 19.745L69.3775 57.5717L69.9807 57.3034L51.9367 19.4775" fill="black"/>
<path d="M54.6795 18.4008L69.3665 57.5457L69.9926 57.3285L55.3039 18.1836" fill="black"/>
<path d="M58.5695 17.219L69.3581 57.5182L70.001 57.3587L59.2125 17.0586" fill="black"/>
<path d="M44.6084 23.5172L69.4071 57.6226L69.9511 57.2548L45.1533 23.1494" fill="black"/>
<path d="M41.611 25.7607L69.4241 57.6436L69.9325 57.2306L42.1194 25.3477" fill="black"/>
<path d="M26.9561 50.6054L69.622 57.7537L69.7363 57.1226L27.0695 49.9727" fill="black"/>
<path d="M27.8072 46.7976L69.5907 57.7463L69.7658 57.1276L27.9806 46.1797" fill="black"/>
<path d="M28.9121 43.3749L69.5645 57.7399L69.7921 57.1368L29.1413 42.7734" fill="black"/>
<path d="M30.5034 39.6878L69.5349 57.7274L69.8225 57.1482L30.7903 39.1094" fill="black"/>
<path d="M32.1295 36.71L69.5112 57.7157L69.8454 57.162L32.4629 36.1562" fill="black"/>
<path d="M34.2573 33.504L69.4866 57.699L69.8716 57.1766L34.643 32.9824" fill="black"/>
<path d="M36.4688 30.7433L69.4638 57.683L69.8936 57.1927L36.9003 30.2529" fill="black"/>
<path d="M38.8749 28.2004L69.4435 57.6646L69.9131 57.2112L39.3436 27.7471" fill="black"/>
<path d="M62.0078 16.4906L69.3513 57.4942L70.0053 57.3848L62.6626 16.3828" fill="black"/>
<path d="M65.6753 15.864L69.3479 57.4658L70.0095 57.4098L66.3369 15.8105" fill="black"/>
<path d="M69.3462 15.8379V57.4379H70.0103V15.8379" fill="black"/>
<path d="M26.3478 54.1823L69.6499 57.7565L69.7075 57.1188L26.4036 53.543" fill="black"/>
<path d="M26.3757 57.7599H69.6787V57.1182H26.3757" fill="black"/>
<path d="M90.9681 21.2002L69.3911 57.2778L69.9663 57.5979L91.5425 21.5203" fill="black"/>
<path d="M87.4199 19.4775L69.3775 57.3034L69.9808 57.5717L88.0239 19.745" fill="black"/>
<path d="M84.0535 18.1836L69.3665 57.3285L69.9926 57.5457L84.6779 18.4008" fill="black"/>
<path d="M80.1457 17.0586L69.3581 57.3587L70.0011 57.5182L80.7887 17.219" fill="black"/>
<path d="M94.205 23.1494L69.4071 57.2548L69.9511 57.6226L94.7481 23.5172" fill="black"/>
<path d="M97.2389 25.3477L69.4241 57.2306L69.9325 57.6436L97.7473 25.7607" fill="black"/>
<path d="M112.289 49.9727L69.622 57.1226L69.7363 57.7537L112.403 50.6054" fill="black"/>
<path d="M111.378 46.1797L69.5908 57.1276L69.7659 57.7463L111.551 46.7976" fill="black"/>
<path d="M110.217 42.7734L69.5645 57.1368L69.7921 57.7399L110.446 43.3749" fill="black"/>
<path d="M108.567 39.1094L69.5349 57.1482L69.8226 57.7274L108.855 39.6878" fill="black"/>
<path d="M106.894 36.1562L69.5112 57.162L69.8454 57.7157L107.228 36.71" fill="black"/>
<path d="M104.716 32.9824L69.4866 57.1766L69.8716 57.699L105.103 33.504" fill="black"/>
<path d="M102.459 30.2529L69.4638 57.1927L69.8936 57.683L102.889 30.7433" fill="black"/>
<path d="M100.015 27.7471L69.4435 57.2112L69.9131 57.6646L100.484 28.2004" fill="black"/>
<path d="M76.6965 16.3828L69.3513 57.3848L70.0053 57.4942L77.3505 16.4906" fill="black"/>
<path d="M73.0196 15.8105L69.3479 57.4098L70.0095 57.4658L73.6812 15.864" fill="black"/>
<path d="M112.955 53.543L69.6499 57.1188L69.7075 57.7565L113.01 54.1823" fill="black"/>
<path d="M112.983 57.1182H69.6787V57.7599H112.983" fill="black"/>
<path d="M48.391 93.6753L69.9663 57.5984L69.391 57.2783L47.8148 93.356" fill="black"/>
<path d="M51.9367 95.3987L69.9807 57.5719L69.3775 57.3037L51.3335 95.1313" fill="black"/>
<path d="M55.3039 96.6921L69.9926 57.5463L69.3665 57.3291L54.6795 96.474" fill="black"/>
<path d="M59.2125 97.8182L70.001 57.518L69.3581 57.3584L58.5695 97.6577" fill="black"/>
<path d="M45.1533 91.7271L69.9511 57.6217L69.4071 57.2539L44.6084 91.3592" fill="black"/>
<path d="M42.1194 89.5268L69.9325 57.6445L69.4241 57.2314L41.611 89.1145" fill="black"/>
<path d="M27.0695 64.9023L69.7363 57.7531L69.622 57.1221L26.9561 64.2704" fill="black"/>
<path d="M27.9806 68.6964L69.7658 57.7476L69.5907 57.1289L27.8072 68.0777" fill="black"/>
<path d="M29.1413 72.1042L69.7921 57.7408L69.5645 57.1377L28.9121 71.5011" fill="black"/>
<path d="M30.7903 75.7656L69.8225 57.7277L69.5349 57.1484L30.5034 75.1871" fill="black"/>
<path d="M32.4629 78.7207L69.8454 57.7148L69.5112 57.1611L32.1295 78.1661" fill="black"/>
<path d="M34.643 81.8942L69.8716 57.7002L69.4866 57.1777L34.2573 81.3717" fill="black"/>
<path d="M36.9003 84.6226L69.8936 57.6828L69.4638 57.1924L36.4688 84.133" fill="black"/>
<path d="M39.3436 87.1285L69.9131 57.6653L69.4435 57.2119L38.8749 86.6752" fill="black"/>
<path d="M62.6626 98.4943L70.0053 57.4922L69.3513 57.3828L62.0078 98.3848" fill="black"/>
<path d="M66.3369 99.0663L70.0095 57.4661L69.3479 57.4102L65.6753 99.0128" fill="black"/>
<path d="M70.0103 99.0383V57.4375H69.3462V99.0383" fill="black"/>
<path d="M26.4036 61.332L69.7075 57.7578L69.6499 57.1201L26.3478 60.6935" fill="black"/>
<path d="M91.5425 93.356L69.9663 57.2783L69.3911 57.5984L90.9681 93.6753" fill="black"/>
<path d="M88.0239 95.1313L69.9808 57.3037L69.3775 57.5719L87.4199 95.3987" fill="black"/>
<path d="M84.6779 96.474L69.9926 57.3291L69.3665 57.5463L84.0535 96.6921" fill="black"/>
<path d="M80.7887 97.6577L70.0011 57.3584L69.3581 57.518L80.1457 97.8182" fill="black"/>
<path d="M94.7481 91.3592L69.9511 57.2539L69.4071 57.6217L94.205 91.7271" fill="black"/>
<path d="M97.7473 89.1145L69.9325 57.2314L69.4241 57.6445L97.2389 89.5268" fill="black"/>
<path d="M112.403 64.2704L69.7363 57.1221L69.622 57.7531L112.289 64.9023" fill="black"/>
<path d="M111.551 68.0777L69.7659 57.1289L69.5908 57.7476L111.378 68.6964" fill="black"/>
<path d="M110.446 71.5011L69.7921 57.1377L69.5645 57.7408L110.217 72.1042" fill="black"/>
<path d="M108.855 75.1871L69.8226 57.1484L69.5349 57.7277L108.567 75.7656" fill="black"/>
<path d="M107.228 78.1661L69.8454 57.1611L69.5112 57.7148L106.894 78.7207" fill="black"/>
<path d="M105.103 81.3717L69.8716 57.1777L69.4866 57.7002L104.716 81.8942" fill="black"/>
<path d="M102.889 84.133L69.8936 57.1924L69.4638 57.6828L102.459 84.6226" fill="black"/>
<path d="M100.484 86.6752L69.9131 57.2119L69.4435 57.6653L100.015 87.1285" fill="black"/>
<path d="M77.3505 98.3848L70.0053 57.3828L69.3513 57.4922L76.6965 98.4943" fill="black"/>
<path d="M73.6812 99.0128L70.0095 57.4102L69.3479 57.4661L73.0196 99.0663" fill="black"/>
<path d="M113.01 60.6935L69.7075 57.1201L69.6499 57.7578L112.955 61.332" fill="black"/>
<path d="M115.944 57.3671H115.247C115.247 69.2284 110.24 79.9624 102.137 87.7402C94.0324 95.5156 82.8412 100.326 70.4714 100.326C58.1017 100.326 46.9113 95.5156 38.8064 87.7402C30.7031 79.9624 25.6947 69.2284 25.6947 57.3671C25.6947 45.5041 30.7031 34.77 38.8064 26.9922C46.9113 19.2161 58.1017 14.4069 70.4714 14.4061C82.8412 14.4069 94.0324 19.2161 102.137 26.9922C110.24 34.77 115.247 45.5041 115.247 57.3671H115.944H116.64C116.641 45.1281 111.47 34.0435 103.116 26.0279C94.76 18.0107 83.2151 13.0518 70.4714 13.0518C57.7277 13.0518 46.1812 18.0107 37.8267 26.0279C29.4722 34.0435 24.3021 45.1281 24.3021 57.3671C24.3021 69.6036 29.4722 80.689 37.8267 88.7054C46.1812 96.7226 57.7269 101.682 70.4714 101.682C83.2143 101.682 94.76 96.7235 103.116 88.7054C111.47 80.689 116.641 69.6036 116.64 57.3671H115.944Z" fill="black"/>
<path d="M113.58 57.367H113.115C113.115 68.705 108.328 78.966 100.583 86.3982C92.8378 93.8296 82.1415 98.4265 70.3217 98.4265C58.501 98.4265 47.8047 93.8296 40.0585 86.3982C32.3157 78.966 27.5271 68.705 27.5271 57.367C27.5271 46.0273 32.3148 35.7663 40.0585 28.3341C47.8039 20.9019 58.501 16.3074 70.3217 16.3058C82.1415 16.3074 92.837 20.9019 100.583 28.3341C108.327 35.7663 113.115 46.0273 113.115 57.367H113.58H114.045C114.045 45.778 109.149 35.2825 101.235 27.6915C93.3243 20.098 82.3937 15.4023 70.3226 15.4023C58.2515 15.4023 47.3199 20.098 39.4079 27.6915C31.495 35.2834 26.5982 45.778 26.5982 57.367C26.5982 68.9551 31.495 79.4498 39.4079 87.0408C47.3199 94.6335 58.2515 99.33 70.3226 99.33C82.3937 99.33 93.3243 94.6335 101.235 87.0408C109.149 79.449 114.045 68.9551 114.045 57.367H113.58Z" fill="black"/>
<path d="M65.6517 24.8583C65.6517 24.836 65.65 24.8086 65.65 24.7871L65.6517 24.8583Z" fill="#BA2326"/>
<path d="M65.6517 24.8583C65.6517 24.836 65.65 24.8086 65.65 24.7871" stroke="white"/>
<path d="M94.1847 38.0597C94.2075 38.0504 94.2311 38.042 94.2548 38.0361L94.1847 38.0597Z" fill="#BA2326"/>
<path d="M94.1847 38.0597C94.2075 38.0504 94.2311 38.042 94.2548 38.0361" stroke="white"/>
<path d="M89.727 68.3105C89.7424 68.3308 89.7579 68.3501 89.7742 68.3695L89.727 68.3105Z" fill="#BA2326"/>
<path d="M89.727 68.3105C89.7424 68.3308 89.7579 68.3501 89.7742 68.3695" stroke="white"/>
<path d="M58.3824 73.5518C58.3652 73.5719 58.3498 73.5922 58.336 73.609L58.3824 73.5518Z" fill="#BA2326"/>
<path d="M58.3824 73.5518C58.3652 73.5719 58.3498 73.5922 58.336 73.609" stroke="white"/>
<path d="M69.2531 49.9341C69.2531 49.9341 52.0205 45.2639 54.9968 26.1457C59.4951 7.67986 74.6 7.12035 78.0755 6.75586C77.1804 7.61732 76.4342 8.47549 76.0645 9.541C75.3377 11.4548 75.9477 13.2707 76.9993 15.0742C78.3344 17.1625 79.1491 19.3346 79.4579 22.1625C80.0171 26.1448 78.3488 30.0259 75.1626 32.426C73.1474 34.0074 70.7387 34.5883 68.7988 36.3852C67.3022 37.8843 66.3944 39.3687 66.1059 41.9226C66.1651 46.7762 67.5399 47.4221 69.2531 49.9341Z" fill="#0C101A"/>
<path d="M70.5891 48.7551C70.5891 48.7551 72.1127 31.8616 89.7989 28.5318C98.667 27.9608 105.46 29.8046 110.72 35.4037C112.756 38.1674 114.247 41.1821 115.624 44.3079C114.513 43.7278 113.452 43.286 112.296 43.2523C110.199 43.1412 108.595 44.2372 107.13 45.7462C105.467 47.5974 103.574 48.992 100.882 50.1077C97.1297 51.7953 92.8251 51.3831 89.5332 49.1212C87.3886 47.7135 86.1111 45.6425 83.776 44.3664C81.864 43.4136 80.1356 43.0038 77.5434 43.4851C72.7862 44.9595 72.5569 46.4291 70.5891 48.7551Z" fill="#0C101A"/>
<path d="M71.8031 49.9474C71.8031 49.9474 88.76 45.9857 97.6238 61.2393C100.999 69.2335 101.362 76.084 97.568 82.7157C95.5198 85.4696 93.057 87.8022 90.4445 90.0648C90.6593 88.8561 90.7533 87.738 90.4182 86.6601C89.8632 84.6953 88.282 83.559 86.3454 82.6877C84.0104 81.744 82.051 80.4407 80.1077 78.3138C77.2735 75.3929 76.3056 71.2897 77.4638 67.5353C78.1593 65.1064 79.7726 63.2724 80.276 60.716C80.5984 58.6475 80.4461 56.9279 79.1525 54.685C76.205 50.7677 74.6965 51.0211 71.8031 49.9474Z" fill="#0C101A"/>
<path d="M71.4664 51.667C71.4664 51.667 80.1399 66.3776 67.573 78.9367C60.6305 84.3301 53.9723 86.5944 46.3648 84.9192C43.0712 83.7747 40.0754 82.1324 37.1118 80.3264C38.3631 80.1882 39.4951 79.9636 40.4638 79.3489C42.248 78.276 42.9206 76.4839 43.2362 74.4327C43.5162 71.9899 44.254 69.7914 45.8056 67.379C47.8944 63.915 51.6702 61.8605 55.6982 61.8852C58.2887 61.8523 60.5526 62.843 63.2185 62.5928C65.3488 62.3156 67.0061 61.6902 68.8522 59.8571C71.8936 56.0023 71.2185 54.6718 71.4664 51.667Z" fill="#0C101A"/>
<path d="M69.573 51.3837C69.573 51.3837 58.1829 64.2266 41.8292 56.8725C34.292 52.2962 29.8867 46.9398 28.9798 39.4056C28.9933 36.0042 29.5931 32.7097 30.3579 29.3906C30.907 30.4923 31.5035 31.4583 32.4231 32.1412C34.0543 33.4247 36.0187 33.4461 38.1143 33.052C40.5763 32.4941 42.9502 32.4407 45.803 33.0652C49.8631 33.8304 53.1051 36.6105 54.4206 40.3156C55.3132 42.6811 55.1034 45.0853 56.232 47.4492C57.21 49.3087 58.3656 50.621 60.7599 51.7062C65.507 53.2119 66.5755 52.153 69.573 51.3837Z" fill="#0C101A"/>
<path d="M43.9983 46.6503C43.9721 46.6402 43.9485 46.6351 43.9248 46.625L43.9983 46.6503Z" fill="#BA2326"/>
<path d="M43.9983 46.6503C43.9721 46.6402 43.9485 46.6351 43.9248 46.625" stroke="white"/>
<path d="M71.9774 54.2939C73.6474 62.2149 64.891 72.6833 58.3208 73.5094" stroke="white"/>
<path d="M67.1914 52.7209C60.0628 56.8874 47.0027 52.3309 44.0162 46.5771" stroke="white"/>
<path d="M74.5392 50.21C82.8285 50.874 90.7008 61.9882 89.6695 68.3549" stroke="white"/>
<path d="M88.238 75.0092L88.4664 72.9966L86.617 72.2594L88.6043 71.755L88.8268 69.7441L89.8277 71.4465L91.8108 70.9355L90.4462 72.4939L91.4445 74.1929L89.6035 73.45L88.238 75.0092Z" fill="white"/>
<path d="M127.493 57.271H125.787C125.787 64.6728 124.226 71.7175 121.402 78.1278C117.165 87.7438 110.081 95.9322 101.164 101.714C92.2456 107.496 81.5028 110.872 69.9207 110.874C54.4807 110.872 40.5213 104.87 30.4079 95.1661C25.3537 90.3142 21.264 84.5365 18.44 78.1278C15.6143 71.7175 14.0534 64.6728 14.0534 57.271C14.0534 49.8692 15.6143 42.8245 18.44 36.4142C22.6769 26.7991 29.759 18.6107 38.6786 12.8281C47.5966 7.04638 58.3394 3.66966 69.9207 3.66884C85.3606 3.66966 99.3201 9.6719 109.433 19.3767C114.488 24.2278 118.577 30.0038 121.401 36.4142C124.225 42.8245 125.786 49.8692 125.786 57.271H127.493H129.197C129.197 49.4142 127.537 41.9211 124.534 35.1092C120.031 24.8918 112.515 16.2048 103.055 10.071C93.5967 3.93625 82.1872 0.353824 69.9215 0.355469C53.5645 0.353824 38.7395 6.72221 28.0153 17.0177C22.6541 22.1659 18.3105 28.2965 15.3097 35.1084C12.3063 41.9194 10.6464 49.4133 10.6464 57.2701C10.6464 65.1269 12.3063 72.6209 15.3097 79.4319C19.8106 89.6501 27.3284 98.3371 36.7878 104.471C46.2463 110.605 57.6559 114.187 69.9215 114.187C86.2769 114.187 101.103 107.821 111.826 97.5242C117.19 92.376 121.533 86.2446 124.534 79.4328C127.537 72.6226 129.197 65.1278 129.197 57.271H127.493Z" fill="#0C101A"/>
<path d="M65.65 24.502C65.65 24.502 62.6144 26.9358 62.1271 33.249C61.639 39.5615 63.1483 42.2371 63.1483 42.2371L63.7599 41.7097C63.7599 41.7097 62.3936 38.4573 62.7041 33.249C63.0146 28.04 65.65 24.502 65.65 24.502Z" fill="#F1F2F2"/>
<path d="M94.095 39.0549C94.095 39.0549 90.6322 37.2415 84.4376 39.1849C78.2422 41.1267 76.265 43.4963 76.265 43.4963L76.9976 43.8485C76.9976 43.8485 79.578 41.39 84.6559 39.7033C89.7312 38.0174 94.095 39.0549 94.095 39.0549Z" fill="#F1F2F2"/>
<path d="M69.1939 20.4572C69.1939 20.4572 69.8615 20.3897 69.974 19.7636C70.1178 18.9638 69.1178 18.5384 69.1178 18.5384L69.4698 17.7831L69.0019 17.5791L68.65 18.3344L68.3098 18.1863L68.6584 17.4293L68.1855 17.2236L67.8352 17.9806L66.8623 17.5552L66.6423 18.0316L67.0459 18.2102C67.0459 18.2102 67.1466 18.2538 67.1762 18.3253C67.2117 18.4084 67.1694 18.4743 67.1694 18.4743L66.6635 19.5817L66.1872 20.6102C66.1872 20.6102 66.1516 20.6908 66.078 20.7295C65.9884 20.7781 65.9342 20.7484 65.9342 20.7484L65.5205 20.5674L65.2955 21.0562L66.2261 21.4618L65.8691 22.2385L66.3462 22.4467L66.7016 21.6691L67.045 21.8189L66.6897 22.5964L67.1525 22.7988L67.5112 22.0221C67.5112 22.0221 68.6212 22.6853 69.2693 21.8715C69.9529 21.015 69.1939 20.4572 69.1939 20.4572ZM68.0636 18.6972L68.5823 18.9235C68.5823 18.9235 69.1601 19.1761 68.9444 19.6401C68.743 20.0705 68.2828 19.9117 68.2828 19.9117L67.6339 19.6286L68.0636 18.6972ZM68.5053 21.2059C68.1601 21.7506 67.5358 21.3853 67.5358 21.3853L66.9444 21.1277L67.4156 20.1058L68.007 20.3626C68.0061 20.3626 68.8344 20.6876 68.5053 21.2059Z" fill="#F1F2F2"/>
<path d="M98.3759 41.1721C98.3759 41.1721 98.4893 41.8147 99.1399 41.8822C99.969 41.9678 100.338 40.9689 100.338 40.9689L101.138 41.2602L101.316 40.7936L100.518 40.5024L100.646 40.1617L101.446 40.4513L101.626 39.9791L100.826 39.6886L101.197 38.7153L100.693 38.5334L100.537 38.9366C100.537 38.9366 100.499 39.0386 100.428 39.0723C100.345 39.1118 100.274 39.0748 100.274 39.0748L99.1043 38.6569L98.0172 38.2636C98.0172 38.2636 97.9326 38.2339 97.8886 38.1656C97.8336 38.0825 97.859 38.0274 97.859 38.0274L98.0172 37.6144L97.5012 37.4268L97.1475 38.3574L96.326 38.0644L96.1441 38.54L96.9664 38.8346L96.8362 39.176L96.0138 38.884L95.837 39.3472L96.6585 39.6417C96.6585 39.6417 96.0528 40.764 96.9301 41.3391C97.8523 41.9439 98.3759 41.1721 98.3759 41.1721ZM100.106 39.9577L99.9081 40.4744C99.9081 40.4744 99.6873 41.0528 99.1966 40.8742C98.7414 40.7072 98.8742 40.2506 98.8742 40.2506L99.1205 39.6022L100.106 39.9577ZM97.562 40.5517C96.98 40.2547 97.3133 39.6228 97.3133 39.6228L97.5392 39.0329L98.6187 39.4221L98.3937 40.0128C98.3937 40.0128 98.1153 40.8381 97.562 40.5517Z" fill="#F1F2F2"/>
<path d="M91.2177 70.5936C91.2177 70.5936 90.6923 66.8013 85.436 63.0683C80.1788 59.3353 77.0459 59.1699 77.0459 59.1699L77.183 59.9532C77.183 59.9532 80.7448 60.5407 85.1323 63.5447C89.5172 66.5487 91.2177 70.5936 91.2177 70.5936Z" fill="white"/>
<path d="M91.3218 75.7325C91.3218 75.7325 90.853 76.1999 91.1788 76.7511C91.5942 77.4546 92.6424 77.1584 92.6424 77.1584L92.87 77.9581L93.3624 77.8232L93.1373 77.0243L93.4952 76.9264L93.7253 77.7245L94.2245 77.5887L93.9952 76.7898L95.0231 76.5092L94.8776 76.0065L94.4512 76.1217C94.4512 76.1217 94.3446 76.1505 94.2744 76.1143C94.1923 76.0732 94.1813 75.9942 94.1813 75.9942L93.8421 74.8299L93.5316 73.7438C93.5316 73.7438 93.507 73.6591 93.5366 73.585C93.573 73.4921 93.6356 73.4797 93.6356 73.4797L94.0713 73.3605L93.9233 72.8462L92.9419 73.1128L92.7041 72.2949L92.2 72.4315L92.4393 73.251L92.0764 73.3489L91.8378 72.5302L91.348 72.6644L91.5848 73.4822C91.5848 73.4822 90.2947 73.6649 90.3327 74.6942C90.3717 75.7753 91.3218 75.7325 91.3218 75.7325ZM93.3471 76.3801L92.8006 76.5298C92.8006 76.5298 92.1906 76.696 92.051 76.204C91.9216 75.7473 92.381 75.5844 92.381 75.5844L93.0654 75.3968L93.3471 76.3801ZM91.3582 74.7279C91.2651 74.0944 91.9859 73.9866 91.9859 73.9866L92.6077 73.8162L92.9191 74.8957L92.2964 75.0661C92.2964 75.0653 91.4453 75.3318 91.3582 74.7279Z" fill="#F1F2F2"/>
<path d="M54.7734 73.017C54.7734 73.017 58.3157 71.3534 60.3301 65.3339C62.3462 59.3144 61.534 56.3672 61.534 56.3672L60.8115 56.7383C60.8115 56.7383 61.3445 60.2129 59.7709 65.2006C58.1973 70.1883 54.7734 73.017 54.7734 73.017Z" fill="white"/>
<path d="M50.083 74.4193C50.083 74.4193 49.4807 74.1305 49.0433 74.6036C48.4857 75.2059 49.1 76.0846 49.1 76.0846L48.3876 76.5421L48.6736 76.9568L49.3842 76.4985L49.5924 76.8004L48.8834 77.2621L49.171 77.68L49.8817 77.2201L50.4739 78.0832L50.9206 77.7928L50.6761 77.4332C50.6761 77.4332 50.6135 77.3435 50.627 77.267C50.6431 77.1798 50.715 77.1444 50.715 77.1444L51.7489 76.4697L52.7142 75.8444C52.7142 75.8444 52.7895 75.7942 52.8716 75.7991C52.9739 75.8041 53.0036 75.8575 53.0036 75.8575L53.2556 76.2229L53.7134 75.9258L53.1465 75.1022L53.8724 74.6275L53.5814 74.2054L52.8563 74.6801L52.6482 74.3765L53.3733 73.9009L53.0907 73.4904L52.364 73.9635C52.364 73.9635 51.7844 72.8272 50.7912 73.1819C49.7455 73.5546 50.083 74.4193 50.083 74.4193ZM50.0797 76.4928L49.7641 76.0328C49.7641 76.0328 49.4122 75.5219 49.8487 75.2396C50.2548 74.9772 50.5577 75.3515 50.5577 75.3515L50.9528 75.925L50.0797 76.4928ZM51.0755 74.1404C51.6651 73.8573 51.9951 74.4901 51.9951 74.4901L52.3546 75.0133L51.397 75.637L51.0374 75.1137C51.0374 75.1137 50.5129 74.4103 51.0755 74.1404Z" fill="white"/>
<path d="M39.3766 40.6996C39.3766 40.6996 39.4874 40.0553 38.8969 39.783C38.1422 39.4349 37.4544 40.2594 37.4544 40.2594L36.7996 39.7278L36.4739 40.1121L37.127 40.6436L36.8901 40.9233L36.2328 40.3943L35.902 40.7818L36.5593 41.3125L35.8783 42.1123L36.2911 42.4455L36.5754 42.1148C36.5754 42.1148 36.6448 42.0309 36.7251 42.0235C36.8148 42.0119 36.8715 42.0695 36.8715 42.0695L37.8334 42.8396L38.7243 43.5604C38.7243 43.5604 38.7954 43.6147 38.8131 43.6937C38.8377 43.7908 38.7937 43.8344 38.7937 43.8344L38.5052 44.1726L38.9291 44.5148L39.5788 43.7513L40.2547 44.2911L40.5881 43.8994L39.913 43.3596L40.1524 43.0774L40.8284 43.6172L41.1524 43.2362L40.4781 42.6948C40.4781 42.6948 41.4316 41.8309 40.7979 41.0057C40.1304 40.1384 39.3766 40.6996 39.3766 40.6996ZM37.3301 41.2887L37.693 40.8633C37.693 40.8633 38.0966 40.3886 38.4993 40.7144C38.8741 41.018 38.5915 41.4072 38.5915 41.4072L38.1389 41.9387L37.3301 41.2887ZM39.9341 41.5454C40.3808 42.0135 39.8521 42.5023 39.8521 42.5023L39.4392 42.9878L38.5517 42.2727L38.9646 41.7881C38.9654 41.7881 39.5086 41.0978 39.9341 41.5454Z" fill="#F1F2F2"/>
<path d="M3.79612 41.2376H135.286V75.5659L122.63 80.069L122.911 78.1552L131.995 75.2014H0V41.2376L15.8698 35.2461L17.0254 36.3683L3.79612 41.2376Z" fill="#0C101A"/>
<path d="M26.3241 52.6413V53.3612C26.3241 55.4355 25.6727 56.7602 24.2217 57.4225C25.9688 58.0857 26.6507 59.6111 26.6507 61.743V63.3844C26.6507 66.4946 24.9629 68.1656 21.7048 68.1656H16.5813V48.0049H21.4976C24.8732 48.0041 26.3241 49.5312 26.3241 52.6413ZM19.8393 50.8846V56.213H21.1126C22.3266 56.213 23.0677 55.6947 23.0677 54.0812V52.9581C23.0677 51.5182 22.5635 50.8846 21.4087 50.8846H19.8393ZM19.8393 59.0928V65.2851H21.7048C22.8004 65.2851 23.3926 64.7947 23.3926 63.2972V61.5406C23.3926 59.6687 22.7708 59.0919 21.2903 59.0919H19.8393V59.0928Z" fill="white"/>
<path d="M29.3436 48.0039H32.6016V68.1647H29.3436V48.0039Z" fill="white"/>
<path d="M34.7615 48.0039H44.8301V50.8845H41.4248V68.1647H38.1668V50.8845H34.7615V48.0039Z" fill="white"/>
<path d="M56.4376 60.6496V63.3278C56.4376 66.5539 54.7793 68.397 51.5814 68.397C48.3825 68.397 46.7243 66.5539 46.7243 63.3278V52.8438C46.7243 49.6185 48.3825 47.7754 51.5814 47.7754C54.7793 47.7754 56.4376 49.6185 56.4376 52.8438V54.802H53.3572V52.6422C53.3572 51.2023 52.7057 50.6551 51.6694 50.6551C50.633 50.6551 49.9815 51.2023 49.9815 52.6422V63.5285C49.9815 64.9684 50.6338 65.4876 51.6694 65.4876C52.7066 65.4876 53.3572 64.9684 53.3572 63.5285V60.6488H56.4376V60.6496Z" fill="white"/>
<path d="M58.8945 52.8438C58.8945 49.6185 60.6415 47.7754 63.8403 47.7754C67.0391 47.7754 68.7861 49.6185 68.7861 52.8438V63.3269C68.7861 66.553 67.0391 68.3961 63.8403 68.3961C60.6415 68.3961 58.8945 66.553 58.8945 63.3269V52.8438ZM62.1516 63.5293C62.1516 64.9692 62.8039 65.5163 63.8394 65.5163C64.8767 65.5163 65.5273 64.9692 65.5273 63.5293V52.643C65.5273 51.2031 64.8758 50.656 63.8394 50.656C62.8031 50.656 62.1516 51.2031 62.1516 52.643V63.5293Z" fill="white"/>
<path d="M71.6271 48.0039H74.8852V68.1647H71.6271V48.0039Z" fill="white"/>
<path d="M80.8945 53.5626V68.1647H77.963V48.0039H82.0493L85.3962 60.0717V48.0039H88.2981V68.1647H84.952L80.8945 53.5626Z" fill="white"/>
<path d="M99.9648 68.1647H96.7067V48.0039H99.9648V56.644H103.666V48.0039H106.983V68.1647H103.666V59.5245H99.9648V68.1647Z" fill="white"/>
<path d="M114.354 60.1301L113.348 61.9732V68.1647H110.09V48.0039H113.348V56.7888L117.612 48.0039H120.87L116.34 56.9904L120.87 68.1647H117.524L114.354 60.1301Z" fill="white"/>
<path d="M29.9959 82.6859C30.4392 83.3367 30.2962 83.8008 29.6634 84.208L29.4603 84.3397C29.006 84.6317 28.6372 84.6901 28.2725 84.4005C28.4333 84.881 28.2074 85.2505 27.7336 85.5557L27.3715 85.7902C26.726 86.2049 26.1549 86.1342 25.7116 85.4833L25.0559 84.5206L29.3571 81.7471L29.9959 82.6859ZM26.149 85.2019C26.3817 85.5425 26.671 85.5779 27.0703 85.3212L27.4519 85.0752C27.9307 84.7667 27.9637 84.4787 27.6913 84.0788L27.4138 83.6724L25.8097 84.7058L26.149 85.2019ZM28.094 83.7497C28.347 84.1192 28.6008 84.2319 29.0483 83.9423L29.3013 83.7802C29.682 83.5342 29.7793 83.2898 29.5526 82.9557L29.2387 82.4942L27.8503 83.391L28.094 83.7497Z" fill="black"/>
<path d="M31.6896 85.005L27.5542 88.0082L27.2116 87.5598L31.3453 84.5566L31.6896 85.005Z" fill="black"/>
<path d="M28.9375 89.7192L32.5018 86.8394L31.8944 86.1277L32.297 85.8027L33.8792 87.6556L33.4764 87.9807L32.869 87.269L29.3029 90.1487L28.9375 89.7192Z" fill="black"/>
<path d="M35.2057 90.8028L34.8707 91.1147L34.4942 90.7305L34.8512 90.398C35.1871 90.0861 35.2632 89.7694 34.9739 89.474C34.6888 89.1827 34.3546 89.2362 34.017 89.5481L32.0433 91.3771C31.7082 91.689 31.638 92.0115 31.9214 92.3028C32.2116 92.5982 32.5407 92.5406 32.8774 92.2288L33.3622 91.7787L33.7387 92.1629L33.2742 92.5916C32.7091 93.1174 32.0813 93.2038 31.5314 92.6427C30.9866 92.0881 31.1059 91.4825 31.6727 90.9567L33.6033 89.1679C34.1693 88.6421 34.797 88.5557 35.3419 89.1119C35.8893 89.6731 35.7709 90.277 35.2057 90.8028Z" fill="black"/>
<path d="M36.0331 91.5902C36.5627 91.0233 37.1939 90.9122 37.7776 91.4281C38.3656 91.9489 38.3132 92.571 37.7827 93.1379L35.9883 95.0583C35.4621 95.6194 34.8267 95.7346 34.237 95.2138C33.6541 94.6979 33.7125 94.0709 34.2379 93.5106L36.0331 91.5902ZM34.6389 93.9031C34.3216 94.2421 34.2852 94.5687 34.5898 94.8386C34.9011 95.1134 35.226 95.0427 35.5433 94.7037L37.3774 92.7413C37.6896 92.4072 37.737 92.079 37.4257 91.8041C37.1211 91.5343 36.7844 91.6066 36.4731 91.9407L34.6389 93.9031Z" fill="black"/>
<path d="M39.9739 93.3195L36.7108 97.2104L36.2649 96.8567L39.5281 92.9648L39.9739 93.3195Z" fill="black"/>
<path d="M38.2945 98.4103L37.8783 98.1149L40.9113 94.0537L41.501 94.47L40.2759 98.0886L42.468 95.1529L42.8792 95.4442L39.847 99.5071L39.3639 99.1648L40.7472 95.1266L38.2945 98.4103Z" fill="black"/>
<path d="M45.5576 99.988C45.3444 100.349 44.8707 100.473 44.5001 100.266C44.1295 100.059 44.0009 99.5988 44.2141 99.2376C44.4265 98.8773 44.9011 98.7522 45.2717 98.9595C45.6422 99.1669 45.7708 99.6285 45.5576 99.988Z" fill="black"/>
<path d="M48.4841 103.104L47.8826 103.951L47.3969 103.742L50.3859 99.54L51.1473 99.8659L49.9663 104.846L49.4401 104.621L49.6778 103.617L48.4841 103.104ZM48.7522 102.695L49.8039 103.146L50.4748 100.268L48.7522 102.695Z" fill="black"/>
<path d="M54.7041 102.489L54.6559 102.618L54.144 102.437L54.2007 102.283C54.358 101.857 54.2836 101.55 53.8944 101.413C53.5061 101.278 53.2472 101.469 53.0941 101.889C52.7032 102.948 54.2963 103.616 53.8064 104.945C53.5433 105.66 53.018 106.002 52.276 105.744C51.5332 105.486 51.3581 104.899 51.622 104.184L51.7218 103.914L52.2278 104.091L52.1186 104.388C51.9613 104.813 52.0501 105.125 52.4393 105.261C52.8276 105.396 53.1 105.21 53.2565 104.786C53.644 103.733 52.0586 103.066 52.5476 101.737C52.8158 101.007 53.3301 100.678 54.0577 100.931C54.7929 101.188 54.9689 101.774 54.7041 102.489Z" fill="black"/>
<path d="M57.9824 103.427L57.9443 103.559L57.4189 103.414L57.4646 103.255C57.5907 102.82 57.4959 102.519 57.0991 102.411C56.7007 102.301 56.4562 102.508 56.3318 102.938C56.0171 104.021 57.6533 104.582 57.2599 105.941C57.0467 106.672 56.5458 107.05 55.7869 106.841C55.028 106.632 54.8123 106.059 55.0247 105.327L55.1059 105.051L55.6228 105.194L55.5348 105.496C55.4088 105.931 55.5179 106.238 55.9147 106.346C56.3132 106.457 56.5712 106.251 56.6981 105.817C57.0112 104.74 55.38 104.179 55.7759 102.821C55.9925 102.076 56.4815 101.71 57.2269 101.914C57.9799 102.123 58.1948 102.696 57.9824 103.427Z" fill="black"/>
<path d="M59.0823 103.701C59.243 102.949 59.7312 102.544 60.5036 102.7C61.2828 102.859 61.5611 103.422 61.4004 104.174L60.853 106.714C60.6923 107.458 60.2032 107.871 59.4249 107.712C58.6525 107.555 58.3758 106.986 58.5366 106.242L59.0823 103.701ZM59.0848 106.384C58.9884 106.834 59.1271 107.132 59.5306 107.215C59.941 107.299 60.1863 107.078 60.2828 106.628L60.842 104.031C60.9376 103.588 60.8073 103.284 60.3961 103.199C59.9909 103.116 59.7404 103.345 59.6431 103.787L59.0848 106.384Z" fill="black"/>
<path d="M64.8623 104.666L64.8005 105.115L64.2591 105.044L64.3251 104.567C64.3877 104.12 64.2421 103.825 63.8259 103.77C63.4173 103.717 63.1888 103.96 63.1262 104.409L62.7599 107.039C62.6964 107.488 62.8487 107.781 63.2599 107.836C63.6745 107.891 63.8961 107.646 63.9579 107.197L64.0484 106.551L64.5899 106.622L64.5027 107.241C64.3978 107.994 63.963 108.444 63.1736 108.34C62.391 108.237 62.0958 107.691 62.1998 106.937L62.5594 104.363C62.6643 103.611 63.1 103.161 63.8809 103.264C64.6719 103.368 64.968 103.914 64.8623 104.666Z" fill="black"/>
<path d="M66.7489 103.612L66.3285 108.615L65.7549 108.568L66.1753 103.565L66.7489 103.612Z" fill="black"/>
<path d="M68.4393 107.72L68.2151 108.726L67.683 108.713L68.7946 103.719L69.6279 103.738L70.4918 108.779L69.9173 108.766L69.743 107.751L68.4393 107.72ZM68.523 107.241L69.6736 107.268L69.1626 104.358L68.523 107.241Z" fill="black"/>
<path d="M72.6474 108.715L72.4241 104.206L71.4723 104.251L71.4478 103.742L73.9241 103.626L73.9495 104.134L72.9985 104.179L73.2227 108.688L72.6474 108.715Z" fill="black"/>
<path d="M75.5019 103.478L76.0154 108.47L75.4427 108.526L74.9283 103.534L75.5019 103.478Z" fill="black"/>
<path d="M76.8521 104.55C76.7312 103.791 77.04 103.243 77.82 103.126C78.6077 103.007 79.0713 103.438 79.1931 104.197L79.6017 106.763C79.7219 107.515 79.4139 108.069 78.6271 108.188C77.8471 108.306 77.3809 107.868 77.2616 107.116L76.8521 104.55ZM77.8276 107.06C77.9004 107.513 78.139 107.746 78.5476 107.685C78.963 107.623 79.1111 107.331 79.0383 106.877L78.6204 104.254C78.5493 103.807 78.3175 103.566 77.9004 103.629C77.4926 103.691 77.3386 103.99 77.4097 104.437L77.8276 107.06Z" fill="black"/>
<path d="M81.7591 107.576L81.2574 107.689L80.1026 102.796L80.8132 102.639L82.8124 105.913L81.9774 102.378L82.4732 102.267L83.628 107.158L83.0459 107.288L80.8251 103.619L81.7591 107.576Z" fill="black"/>
<path d="M87.7718 103.298C87.9097 103.692 87.694 104.119 87.2896 104.252C86.8844 104.387 86.4453 104.177 86.3074 103.783C86.1695 103.391 86.3861 102.964 86.7896 102.829C87.1931 102.694 87.6339 102.904 87.7718 103.298Z" fill="black"/>
<path d="M91.5663 102.079L92.5383 104.129L92.0163 104.364L89.8556 99.8045L90.3767 99.57L91.3488 101.622L92.5003 101.106L91.5282 99.0541L92.051 98.8213L94.2109 103.379L93.6898 103.613L92.7177 101.561L91.5663 102.079Z" fill="black"/>
<path d="M93.6678 99.3822C93.2888 98.7108 93.3852 98.0953 94.0747 97.7251C94.7727 97.3523 95.3598 97.6017 95.7397 98.2731L97.0265 100.547C97.403 101.213 97.3091 101.836 96.6119 102.209C95.9207 102.579 95.3302 102.322 94.9529 101.656L93.6678 99.3822ZM95.4647 101.415C95.6915 101.817 95.9977 101.955 96.359 101.763C96.7278 101.567 96.7642 101.243 96.5375 100.842L95.2228 98.5182C94.9986 98.1233 94.6957 97.9752 94.3277 98.171C93.9656 98.3652 93.9266 98.6968 94.1508 99.0917L95.4647 101.415Z" fill="black"/>
<path d="M99.3302 100.598L98.897 100.871L96.0984 96.6528L96.7126 96.2686L99.7372 98.6867L97.716 95.6383L98.1441 95.3701L100.94 99.5869L100.439 99.902L97.0688 97.1876L99.3302 100.598Z" fill="black"/>
<path d="M101.68 94.3453L101.945 94.6893L101.508 95.0093L101.225 94.6416C100.945 94.2804 100.631 94.1693 100.293 94.4153C99.9614 94.6564 99.9783 94.9855 100.257 95.3475L101.895 97.4719C102.175 97.8331 102.497 97.9376 102.828 97.6965C103.164 97.4505 103.143 97.1263 102.863 96.7643L102.244 95.9605L101.818 96.2707L101.509 95.8692L102.371 95.2405L103.284 96.4221C103.753 97.0309 103.768 97.648 103.13 98.1129C102.499 98.5745 101.894 98.3877 101.424 97.7805L99.8201 95.7029C99.3514 95.0941 99.3361 94.4786 99.9673 94.017C100.605 93.5497 101.21 93.7365 101.68 94.3453Z" fill="black"/>
<path d="M105.822 93.0327L105.947 93.5954L107.13 94.8296L106.708 95.2106L103.186 91.5368L103.608 91.1559L105.308 92.9282L104.612 90.2443L105.039 89.8584L105.688 92.3975L108.593 93.5033L108.162 93.8941L105.822 93.0327Z" fill="black"/>
<path d="M106.628 90.0212C106.049 89.4971 105.945 88.8816 106.483 88.3213C107.027 87.7544 107.664 87.8136 108.242 88.3377L110.196 90.1084C110.768 90.6276 110.879 91.2479 110.335 91.8148C109.796 92.3759 109.153 92.3118 108.581 91.7926L106.628 90.0212ZM108.989 91.4075C109.335 91.721 109.67 91.7597 109.951 91.4651C110.239 91.1681 110.17 90.8497 109.824 90.5362L107.829 88.7269C107.49 88.4184 107.154 88.3682 106.867 88.6677C106.585 88.9614 106.654 89.2897 106.994 89.5966L108.989 91.4075Z" fill="black"/>
<path d="M112.409 89.4538L112.085 89.843L108.076 86.6851L108.534 86.1339L112.184 87.5145L109.286 85.2329L109.607 84.8486L113.614 88.0065L113.239 88.4566L109.168 86.9007L112.409 89.4538Z" fill="black"/>
<path d="M112.632 82.8137L112.995 83.0597L112.682 83.495L112.296 83.2317C111.916 82.9733 111.581 82.9634 111.34 83.2991C111.104 83.6266 111.223 83.9352 111.604 84.1944L113.838 85.7149C114.219 85.9733 114.559 85.9766 114.796 85.6491C115.037 85.3134 114.913 85.0114 114.532 84.7522L113.686 84.1771L113.384 84.6L112.96 84.312L113.576 83.4538L114.82 84.3005C115.461 84.7358 115.672 85.3175 115.216 85.9527C114.765 86.5813 114.131 86.5863 113.49 86.1518L111.304 84.6634C110.663 84.2281 110.451 83.6464 110.904 83.0178C111.358 82.3834 111.992 82.3784 112.632 82.8137Z" fill="black"/>
</g>
</svg>
