<svg width="24" height="24" viewBox="0 0 24 24" fill="none" xmlns="http://www.w3.org/2000/svg">
<path d="M12.7407 15.7238C12.501 15.7714 12.2534 15.7969 12 15.7969C9.90637 15.7969 8.20312 14.0936 8.20312 12C8.20312 9.90637 9.90637 8.20312 12 8.20312C14.0936 8.20312 15.7969 9.90637 15.7969 12C15.7969 12.2534 15.7714 12.501 15.7238 12.7407L13.4916 10.5084C13.0931 10.11 12.5634 9.89062 12 9.89062C11.4366 9.89062 10.9069 10.11 10.5084 10.5084C10.11 10.9069 9.89062 11.4366 9.89062 12C9.89062 12.5634 10.11 13.0931 10.5084 13.4916L12.7407 15.7238Z" fill="#DADADA"/>
<path d="M22.9261 16.96L21.4133 15.4471C21.2618 15.2957 21.0912 15.1701 20.907 15.0727C21.2402 14.109 21.4219 13.0754 21.4219 12C21.4219 6.80475 17.1953 2.57812 12 2.57812C6.80475 2.57812 2.57812 6.80475 2.57812 12C2.57812 17.1953 6.80475 21.4219 12 21.4219C13.0757 21.4219 14.1099 21.2401 15.0738 20.9066C15.1714 21.091 15.2961 21.2624 15.4473 21.4135L16.96 22.9261C15.4473 23.6155 13.7679 24 12 24C5.38312 24 0 18.6169 0 12C0 5.38312 5.38312 0 12 0C18.6169 0 24 5.38312 24 12C24 13.7679 23.6155 15.4473 22.9261 16.96Z" fill="#DADADA"/>
<path d="M14.9865 17.9696L14.8583 19.4886C13.97 19.829 13.0065 20.0156 12 20.0156C7.5802 20.0156 3.98438 16.4198 3.98438 12C3.98438 7.5802 7.5802 3.98438 12 3.98438C16.4198 3.98438 20.0156 7.5802 20.0156 12C20.0156 13.0065 19.829 13.97 19.4886 14.8583L17.9696 14.9865L16.8547 13.8717C17.0795 13.2905 17.2031 12.6595 17.2031 12C17.2031 9.13092 14.8691 6.79688 12 6.79688C9.13092 6.79688 6.79688 9.13092 6.79688 12C6.79688 14.8691 9.13092 17.2031 12 17.2031C12.6595 17.2031 13.2905 17.0795 13.8717 16.8547L14.9865 17.9696Z" fill="#DADADA"/>
<path d="M16.238 19.863L16.4427 17.4372L11.5029 12.4974C11.2282 12.2229 11.2282 11.7776 11.5029 11.5031C11.64 11.3658 11.82 11.2971 12 11.2971C12.18 11.2971 12.36 11.3658 12.4971 11.5031L17.437 16.443L19.8627 16.2384C19.8825 16.2368 19.9021 16.2359 19.9219 16.2359C20.1075 16.2359 20.2866 16.3095 20.419 16.4419L23.402 19.425C23.5955 19.6184 23.6592 19.9066 23.5653 20.1637C23.4712 20.4207 23.2366 20.5998 22.964 20.6227L20.8044 20.8049L20.6224 22.9643C20.5994 23.2371 20.4203 23.4716 20.1634 23.5656C19.9063 23.6597 19.6181 23.5958 19.4246 23.4024L16.4416 20.4193C16.2951 20.2728 16.2206 20.0694 16.238 19.863Z" fill="#DADADA"/>
</svg>
