<svg width="24" height="24" viewBox="0 0 24 24" fill="none" xmlns="http://www.w3.org/2000/svg">
<path d="M21.8438 19.7812H3.5625C2.39941 19.7812 1.45312 20.7275 1.45312 21.8906C1.45312 23.0537 2.39941 24 3.5625 24H21.8438C22.2321 24 22.5469 23.6852 22.5469 23.2969V20.4844C22.5469 20.096 22.2321 19.7812 21.8438 19.7812Z" fill="#FF0700"/>
<path d="M19.7344 0V5.01434L21.1406 4.07684L22.5469 5.01434V0H19.7344Z" fill="#FF0700"/>
<path d="M19.4213 6.91315C19.2056 7.05707 18.9282 7.07043 18.6995 6.94812C18.4709 6.82562 18.3281 6.5874 18.3281 6.32812V0H3.5625C2.39941 0 1.45312 0.946289 1.45312 2.10938V19.08C2.04108 18.6376 2.77167 18.375 3.5625 18.375H21.8438C22.0902 18.375 22.3268 18.4178 22.5469 18.4958V6.70441L21.1406 5.76691L19.4213 6.91315Z" fill="#FF0700"/>
</svg>
