<svg width="94" height="94" viewBox="0 0 94 94" fill="none" xmlns="http://www.w3.org/2000/svg">
<path d="M89.5938 63.0652L86.3024 61.1646C86.0529 61.0221 85.8515 60.8086 85.7239 60.5512C85.5962 60.2938 85.5481 60.0042 85.5856 59.7194C85.9303 57.1262 85.9303 54.4988 85.5856 51.9056C85.5481 51.6208 85.5962 51.3312 85.7239 51.0738C85.8515 50.8164 86.0529 50.6029 86.3024 50.4604L89.5938 48.5598C90.0956 48.2707 90.5354 47.8856 90.8882 47.4264C91.2409 46.9672 91.4998 46.443 91.6498 45.8837C91.7999 45.3245 91.8382 44.7411 91.7626 44.167C91.6871 43.5929 91.4991 43.0393 91.2095 42.5379L85.3345 32.3624C85.0454 31.8607 84.6602 31.4209 84.2011 31.0681C83.7419 30.7153 83.2177 30.4565 82.6584 30.3065C82.0991 30.1564 81.5158 30.1181 80.9417 30.1936C80.3676 30.2692 79.814 30.4572 79.3126 30.7468L75.9932 32.6562C75.75 32.801 75.4691 32.8703 75.1864 32.8551C74.9037 32.8399 74.6319 32.741 74.4055 32.571C72.3266 30.9606 70.0409 29.6367 67.6096 28.6348C67.3517 28.5241 67.1324 28.3394 66.9795 28.1041C66.8265 27.8688 66.7468 27.5935 66.7504 27.3129V23.5C66.7504 22.3314 66.2861 21.2106 65.4598 20.3843C64.6335 19.558 63.5127 19.0938 62.3441 19.0938H50.5941C49.4255 19.0937 48.3048 19.558 47.4784 20.3843C46.6521 21.2106 46.1879 22.3314 46.1879 23.5V27.3188C46.1914 27.5994 46.1117 27.8747 45.9588 28.11C45.8058 28.3453 45.5865 28.53 45.3287 28.6406C42.8972 29.6423 40.6115 30.9663 38.5328 32.5769C38.3063 32.7469 38.0344 32.8456 37.7516 32.8605C37.4689 32.8754 37.1881 32.8058 36.945 32.6606L33.6257 30.7512C33.1243 30.4616 32.5707 30.2736 31.9966 30.198C31.4225 30.1225 30.8391 30.1608 30.2799 30.3109C29.7206 30.4609 29.1964 30.7197 28.7372 31.0725C28.278 31.4253 27.8929 31.8651 27.6038 32.3668L21.7288 42.5423C21.4391 43.0437 21.2512 43.5973 21.1756 44.1714C21.1001 44.7455 21.1384 45.3289 21.2884 45.8882C21.4385 46.4474 21.6973 46.9716 22.0501 47.4308C22.4029 47.89 22.8427 48.2751 23.3444 48.5642L26.6373 50.4648C26.8865 50.6075 27.0876 50.8211 27.215 51.0785C27.3424 51.3359 27.3903 51.6253 27.3526 51.91C27.008 54.5032 27.008 57.1306 27.3526 59.7238C27.3903 60.0085 27.3424 60.2979 27.215 60.5553C27.0876 60.8127 26.8865 61.0263 26.6373 61.169L23.3444 63.0696C22.8427 63.3587 22.4029 63.7438 22.0501 64.203C21.6973 64.6622 21.4385 65.1864 21.2884 65.7457C21.1384 66.3049 21.1001 66.8883 21.1756 67.4624C21.2512 68.0365 21.4391 68.5901 21.7288 69.0915L27.6038 79.267C28.189 80.2788 29.1517 81.0171 30.2806 81.32C31.4096 81.6229 32.6126 81.4656 33.6257 80.8826L36.945 78.9732C37.1877 78.8268 37.4687 78.7566 37.7517 78.7715C38.0348 78.7864 38.3068 78.8858 38.5328 79.0569C40.6112 80.668 42.897 81.992 45.3287 82.9932C45.5863 83.1062 45.8051 83.2925 45.9579 83.5288C46.1106 83.7651 46.1906 84.041 46.1879 84.3224V88.125C46.1879 89.2936 46.6521 90.4144 47.4784 91.2407C48.3048 92.067 49.4255 92.5312 50.5941 92.5312H62.3441C63.5127 92.5312 64.6335 92.067 65.4598 91.2407C66.2861 90.4144 66.7504 89.2936 66.7504 88.125V84.3063C66.7477 84.0249 66.8276 83.7489 66.9804 83.5126C67.1331 83.2763 67.3519 83.0901 67.6096 82.977C70.0411 81.9755 72.3269 80.6515 74.4055 79.0408C74.6314 78.8697 74.9035 78.7703 75.1865 78.7553C75.4695 78.7404 75.7505 78.8107 75.9932 78.9571L79.3126 80.8664C79.814 81.1561 80.3676 81.3441 80.9417 81.4196C81.5158 81.4952 82.0991 81.4568 82.6584 81.3068C83.2177 81.1567 83.7419 80.8979 84.2011 80.5451C84.6602 80.1924 85.0454 79.7525 85.3345 79.2508L91.2095 69.0753C91.7907 68.0637 91.947 66.8629 91.6442 65.7362C91.3413 64.6096 90.604 63.649 89.5938 63.0652ZM56.4691 73.4375C52.9832 73.4375 49.5756 72.4038 46.6772 70.4672C43.7788 68.5305 41.5197 65.7778 40.1857 62.5573C38.8518 59.3367 38.5027 55.7929 39.1828 52.374C39.8629 48.9551 41.5415 45.8146 44.0064 43.3497C46.4713 40.8848 49.6117 39.2062 53.0307 38.5262C56.4496 37.8461 59.9934 38.1951 63.2139 39.5291C66.4345 40.8631 69.1871 43.1222 71.1238 46.0206C73.0604 48.919 74.0941 52.3266 74.0941 55.8125C74.0891 60.4854 72.2305 64.9654 68.9263 68.2697C65.6221 71.5739 61.142 73.4324 56.4691 73.4375Z" fill="#F5F5F5"/>
<path d="M47.7344 1.46875H6.60938C5.44076 1.46875 4.32002 1.93298 3.49369 2.75931C2.66735 3.58564 2.20313 4.70639 2.20312 5.875V67.5625C2.20313 68.7311 2.66735 69.8519 3.49369 70.6782C4.32002 71.5045 5.44076 71.9688 6.60938 71.9688H47.7344C48.903 71.9688 50.0237 71.5045 50.8501 70.6782C51.6764 69.8519 52.1406 68.7311 52.1406 67.5625V5.875C52.1406 4.70639 51.6764 3.58564 50.8501 2.75931C50.0237 1.93298 48.903 1.46875 47.7344 1.46875ZM49.2031 67.5625C49.2031 67.952 49.0484 68.3256 48.7729 68.6011C48.4975 68.8765 48.1239 69.0312 47.7344 69.0312H6.60938C6.21984 69.0312 5.84626 68.8765 5.57081 68.6011C5.29537 68.3256 5.14062 67.952 5.14062 67.5625V5.875C5.14062 5.48546 5.29537 5.11188 5.57081 4.83644C5.84626 4.56099 6.21984 4.40625 6.60938 4.40625H47.7344C48.1239 4.40625 48.4975 4.56099 48.7729 4.83644C49.0484 5.11188 49.2031 5.48546 49.2031 5.875V67.5625Z" fill="#DADADA"/>
<path d="M19.2994 15.8213C19.947 15.0773 20.3669 14.1626 20.5089 13.1864C20.651 12.2102 20.5091 11.2138 20.1003 10.316C19.6915 9.41825 19.0331 8.65705 18.2035 8.12327C17.374 7.58949 16.4083 7.30566 15.4219 7.30566C14.4354 7.30566 13.4698 7.58949 12.6402 8.12327C11.8107 8.65705 11.1522 9.41825 10.7434 10.316C10.3346 11.2138 10.1928 12.2102 10.3348 13.1864C10.4768 14.1626 10.8967 15.0773 11.5444 15.8213C10.4868 16.4769 9.61364 17.391 9.00719 18.4775C8.40075 19.5639 8.08101 20.787 8.07812 22.0312V23.5C8.07812 23.8895 8.23287 24.2631 8.50831 24.5385C8.78376 24.814 9.15734 24.9687 9.54688 24.9687H21.2969C21.6864 24.9687 22.06 24.814 22.3354 24.5385C22.6109 24.2631 22.7656 23.8895 22.7656 23.5V22.0312C22.7627 20.787 22.443 19.5639 21.8366 18.4775C21.2301 17.391 20.3569 16.4769 19.2994 15.8213ZM15.4219 10.2812C15.8576 10.2812 16.2836 10.4104 16.6459 10.6525C17.0082 10.8946 17.2905 11.2387 17.4573 11.6412C17.624 12.0438 17.6677 12.4868 17.5827 12.9142C17.4977 13.3415 17.2878 13.7341 16.9797 14.0422C16.6716 14.3503 16.279 14.5601 15.8517 14.6451C15.4243 14.7301 14.9813 14.6865 14.5788 14.5198C14.1762 14.353 13.8321 14.0706 13.59 13.7083C13.348 13.346 13.2188 12.9201 13.2188 12.4843C13.2188 11.9 13.4509 11.3397 13.864 10.9265C14.2772 10.5133 14.8376 10.2812 15.4219 10.2812ZM11.0156 22.0312C11.0156 20.8626 11.4799 19.7419 12.3062 18.9155C13.1325 18.0892 14.2533 17.625 15.4219 17.625C16.5905 17.625 17.7112 18.0892 18.5376 18.9155C19.3639 19.7419 19.8281 20.8626 19.8281 22.0312H11.0156Z" fill="#DADADA"/>
<path d="M25.7031 14.6875H34.5156C34.9052 14.6875 35.2787 14.5328 35.5542 14.2573C35.8296 13.9819 35.9844 13.6083 35.9844 13.2188C35.9844 12.8292 35.8296 12.4556 35.5542 12.1802C35.2787 11.9047 34.9052 11.75 34.5156 11.75H25.7031C25.3136 11.75 24.94 11.9047 24.6646 12.1802C24.3891 12.4556 24.2344 12.8292 24.2344 13.2188C24.2344 13.6083 24.3891 13.9819 24.6646 14.2573C24.94 14.5328 25.3136 14.6875 25.7031 14.6875Z" fill="#DADADA"/>
<path d="M44.7969 17.625H25.7031C25.3136 17.625 24.94 17.7797 24.6646 18.0552C24.3891 18.3306 24.2344 18.7042 24.2344 19.0938C24.2344 19.4833 24.3891 19.8569 24.6646 20.1323C24.94 20.4078 25.3136 20.5625 25.7031 20.5625H44.7969C45.1864 20.5625 45.56 20.4078 45.8354 20.1323C46.1109 19.8569 46.2656 19.4833 46.2656 19.0938C46.2656 18.7042 46.1109 18.3306 45.8354 18.0552C45.56 17.7797 45.1864 17.625 44.7969 17.625Z" fill="#DADADA"/>
<path d="M19.2994 36.3838C19.947 35.6398 20.3669 34.7251 20.5089 33.7489C20.651 32.7727 20.5091 31.7763 20.1003 30.8785C19.6915 29.9807 19.0331 29.2196 18.2035 28.6858C17.374 28.152 16.4083 27.8682 15.4219 27.8682C14.4354 27.8682 13.4698 28.152 12.6402 28.6858C11.8107 29.2196 11.1522 29.9807 10.7434 30.8785C10.3346 31.7763 10.1928 32.7727 10.3348 33.7489C10.4768 34.7251 10.8967 35.6398 11.5444 36.3838C10.4868 37.0394 9.61364 37.9535 9.00719 39.04C8.40075 40.1264 8.08101 41.3495 8.07812 42.5937V44.0625C8.07812 44.452 8.23287 44.8256 8.50831 45.101C8.78376 45.3765 9.15734 45.5312 9.54688 45.5312H21.2969C21.6864 45.5312 22.06 45.3765 22.3354 45.101C22.6109 44.8256 22.7656 44.452 22.7656 44.0625V42.5937C22.7627 41.3495 22.443 40.1264 21.8366 39.04C21.2301 37.9535 20.3569 37.0394 19.2994 36.3838ZM15.4219 30.8437C15.8576 30.8437 16.2836 30.9729 16.6459 31.215C17.0082 31.4571 17.2905 31.8012 17.4573 32.2038C17.624 32.6063 17.6677 33.0493 17.5827 33.4767C17.4977 33.904 17.2878 34.2966 16.9797 34.6047C16.6716 34.9128 16.279 35.1226 15.8517 35.2076C15.4243 35.2927 14.9813 35.249 14.5788 35.0823C14.1762 34.9155 13.8321 34.6331 13.59 34.2708C13.348 33.9085 13.2188 33.4826 13.2188 33.0468C13.2188 32.4625 13.4509 31.9022 13.864 31.489C14.2772 31.0758 14.8376 30.8437 15.4219 30.8437ZM11.0156 42.5937C11.0156 41.4251 11.4799 40.3044 12.3062 39.478C13.1325 38.6517 14.2533 38.1875 15.4219 38.1875C16.5905 38.1875 17.7112 38.6517 18.5376 39.478C19.3639 40.3044 19.8281 41.4251 19.8281 42.5937H11.0156Z" fill="#DADADA"/>
<path d="M25.7031 35.25H34.5156C34.9052 35.25 35.2787 35.0953 35.5542 34.8198C35.8296 34.5444 35.9844 34.1708 35.9844 33.7812C35.9844 33.3917 35.8296 33.0181 35.5542 32.7427C35.2787 32.4672 34.9052 32.3125 34.5156 32.3125H25.7031C25.3136 32.3125 24.94 32.4672 24.6646 32.7427C24.3891 33.0181 24.2344 33.3917 24.2344 33.7812C24.2344 34.1708 24.3891 34.5444 24.6646 34.8198C24.94 35.0953 25.3136 35.25 25.7031 35.25Z" fill="#DADADA"/>
<path d="M44.7969 38.1875H25.7031C25.3136 38.1875 24.94 38.3422 24.6646 38.6177C24.3891 38.8931 24.2344 39.2667 24.2344 39.6562C24.2344 40.0458 24.3891 40.4194 24.6646 40.6948C24.94 40.9703 25.3136 41.125 25.7031 41.125H44.7969C45.1864 41.125 45.56 40.9703 45.8354 40.6948C46.1109 40.4194 46.2656 40.0458 46.2656 39.6562C46.2656 39.2667 46.1109 38.8931 45.8354 38.6177C45.56 38.3422 45.1864 38.1875 44.7969 38.1875Z" fill="#DADADA"/>
<path d="M19.2994 56.9463C19.947 56.2023 20.3669 55.2876 20.5089 54.3114C20.651 53.3352 20.5091 52.3388 20.1003 51.441C19.6915 50.5432 19.0331 49.7821 18.2035 49.2483C17.374 48.7145 16.4083 48.4307 15.4219 48.4307C14.4354 48.4307 13.4698 48.7145 12.6402 49.2483C11.8107 49.7821 11.1522 50.5432 10.7434 51.441C10.3346 52.3388 10.1928 53.3352 10.3348 54.3114C10.4768 55.2876 10.8967 56.2023 11.5444 56.9463C10.4868 57.6019 9.61364 58.516 9.00719 59.6025C8.40075 60.6889 8.08101 61.912 8.07812 63.1562V64.625C8.07812 65.0145 8.23287 65.3881 8.50831 65.6635C8.78376 65.939 9.15734 66.0937 9.54688 66.0937H21.2969C21.6864 66.0937 22.06 65.939 22.3354 65.6635C22.6109 65.3881 22.7656 65.0145 22.7656 64.625V63.1562C22.7627 61.912 22.443 60.6889 21.8366 59.6025C21.2301 58.516 20.3569 57.6019 19.2994 56.9463ZM15.4219 51.4062C15.8576 51.4062 16.2836 51.5354 16.6459 51.7775C17.0082 52.0196 17.2905 52.3637 17.4573 52.7663C17.624 53.1688 17.6677 53.6118 17.5827 54.0392C17.4977 54.4665 17.2878 54.8591 16.9797 55.1672C16.6716 55.4753 16.279 55.6851 15.8517 55.7701C15.4243 55.8551 14.9813 55.8115 14.5788 55.6448C14.1762 55.478 13.8321 55.1956 13.59 54.8333C13.348 54.471 13.2188 54.0451 13.2188 53.6093C13.2188 53.025 13.4509 52.4647 13.864 52.0515C14.2772 51.6383 14.8376 51.4062 15.4219 51.4062ZM11.0156 63.1562C11.0156 61.9876 11.4799 60.8669 12.3062 60.0405C13.1325 59.2142 14.2533 58.75 15.4219 58.75C16.5905 58.75 17.7112 59.2142 18.5376 60.0405C19.3639 60.8669 19.8281 61.9876 19.8281 63.1562H11.0156Z" fill="#DADADA"/>
<path d="M25.7031 55.8125H34.5156C34.9052 55.8125 35.2787 55.6578 35.5542 55.3823C35.8296 55.1069 35.9844 54.7333 35.9844 54.3438C35.9844 53.9542 35.8296 53.5806 35.5542 53.3052C35.2787 53.0297 34.9052 52.875 34.5156 52.875H25.7031C25.3136 52.875 24.94 53.0297 24.6646 53.3052C24.3891 53.5806 24.2344 53.9542 24.2344 54.3438C24.2344 54.7333 24.3891 55.1069 24.6646 55.3823C24.94 55.6578 25.3136 55.8125 25.7031 55.8125Z" fill="#DADADA"/>
<path d="M44.7969 58.75H25.7031C25.3136 58.75 24.94 58.9047 24.6646 59.1802C24.3891 59.4556 24.2344 59.8292 24.2344 60.2188C24.2344 60.6083 24.3891 60.9819 24.6646 61.2573C24.94 61.5328 25.3136 61.6875 25.7031 61.6875H44.7969C45.1864 61.6875 45.56 61.5328 45.8354 61.2573C46.1109 60.9819 46.2656 60.6083 46.2656 60.2188C46.2656 59.8292 46.1109 59.4556 45.8354 59.1802C45.56 58.9047 45.1864 58.75 44.7969 58.75Z" fill="#DADADA"/>
</svg>
