<svg width="16" height="16" viewBox="0 0 16 16" fill="none" xmlns="http://www.w3.org/2000/svg">
<path d="M0.333768 2.97362C2.52971 4.83334 6.38289 8.10516 7.51539 9.12531C7.66743 9.263 7.83049 9.333 7.99977 9.333C8.16871 9.333 8.33149 9.26366 8.48318 9.12663C9.61664 8.10547 13.4698 4.83334 15.6658 2.97362C15.8025 2.85806 15.8234 2.65494 15.7127 2.51366C15.4568 2.18719 15.0753 2 14.6664 2H1.33311C0.924268 2 0.542737 2.18719 0.286893 2.51369C0.176205 2.65494 0.197049 2.85806 0.333768 2.97362Z" fill="#FFBEBC"/>
<path d="M15.8067 3.98127C15.6885 3.92627 15.5495 3.94546 15.4512 4.02946C13.0159 6.0939 9.90788 8.74009 8.93 9.62124C8.38116 10.1167 7.61944 10.1167 7.06931 9.62058C6.027 8.68146 2.53675 5.71433 0.548813 4.02943C0.449844 3.94543 0.310531 3.9269 0.193344 3.98124C0.0755312 4.03596 0 4.1538 0 4.28368V12.6665C0 13.4019 0.597969 13.9998 1.33334 13.9998H14.6667C15.402 13.9998 16 13.4019 16 12.6665V4.28368C16 4.1538 15.9245 4.03565 15.8067 3.98127Z" fill="#FFBEBC"/>
</svg>
