<svg width="24" height="25" viewBox="0 0 24 25" fill="none" xmlns="http://www.w3.org/2000/svg">
<path d="M15.4965 13.5549C16.8317 12.785 17.8756 11.596 18.466 10.1723C19.0564 8.7486 19.1605 7.16982 18.762 5.68094C18.3635 4.19206 17.4848 2.87632 16.2621 1.93786C15.0395 0.999413 13.5413 0.490723 12 0.490723C10.4587 0.490723 8.96052 0.999413 7.73787 1.93786C6.51522 2.87632 5.63648 4.19206 5.238 5.68094C4.83951 7.16982 4.94356 8.7486 5.534 10.1723C6.12444 11.596 7.16826 12.785 8.5035 13.5549C6.18214 14.2964 4.1562 15.7558 2.71778 17.7229C1.27936 19.69 0.502781 22.063 0.5 24.4999C0.5 24.6325 0.552678 24.7597 0.646447 24.8535C0.740215 24.9472 0.867392 24.9999 1 24.9999H23C23.1326 24.9999 23.2598 24.9472 23.3536 24.8535C23.4473 24.7597 23.5 24.6325 23.5 24.4999C23.4971 22.063 22.7205 19.69 21.2821 17.723C19.8437 15.7559 17.8178 14.2964 15.4965 13.5549ZM6 7.49992C6 6.31323 6.35189 5.15319 7.01118 4.1665C7.67047 3.1798 8.60754 2.41077 9.7039 1.95664C10.8003 1.50252 12.0067 1.3837 13.1705 1.61521C14.3344 1.84672 15.4035 2.41816 16.2426 3.25728C17.0818 4.09639 17.6532 5.16549 17.8847 6.32938C18.1162 7.49326 17.9974 8.69966 17.5433 9.79602C17.0892 10.8924 16.3201 11.8294 15.3334 12.4887C14.3467 13.148 13.1867 13.4999 12 13.4999C10.4092 13.4982 8.88411 12.8655 7.75926 11.7407C6.63441 10.6158 6.00172 9.09069 6 7.49992ZM9.9835 14.1999C11.2983 14.5985 12.7017 14.5985 14.0165 14.1999C16.2609 14.6352 18.3006 15.7944 19.823 17.4999H4.177C5.69942 15.7944 7.73913 14.6352 9.9835 14.1999ZM1.5115 23.9999C1.60594 22.026 2.25722 20.1192 3.39 18.4999H20.61C21.7428 20.1192 22.3941 22.026 22.4885 23.9999H1.5115Z" fill="#656565"/>
</svg>
