<svg width="25" height="26" viewBox="0 0 25 26" fill="none" xmlns="http://www.w3.org/2000/svg">
<path d="M21.3403 11.8755C21.9616 11.3841 22.4616 10.7565 22.8019 10.0412C23.1422 9.32594 23.3135 8.54203 23.3028 7.75C23.3028 4.993 21.2838 2.75 18.8028 2.75C17.9806 2.75459 17.178 3.00194 16.4958 3.461C16.1588 2.6743 15.6031 2.00077 14.8949 1.52026C14.1866 1.03976 13.3554 0.772437 12.4998 0.75C11.6442 0.772376 10.813 1.03967 10.1047 1.52018C9.39647 2.0007 8.84087 2.67426 8.50384 3.461C7.82148 3.00193 7.01874 2.75458 6.19634 2.75C3.71484 2.75 1.69634 4.993 1.69634 7.75C1.68558 8.54199 1.85689 9.32587 2.19707 10.0412C2.53724 10.7565 3.03719 11.384 3.65834 11.8755C2.6194 12.1318 1.71949 12.7792 1.14622 13.6828C0.572963 14.5864 0.370606 15.6764 0.581344 16.7255L1.74534 22.5445C1.81412 22.8841 1.99808 23.1896 2.26611 23.4093C2.53414 23.6289 2.8698 23.7493 3.21634 23.75H8.68934L8.84834 24.5445C8.91712 24.8841 9.10108 25.1896 9.36911 25.4093C9.63714 25.6289 9.9728 25.7493 10.3193 25.75H14.6798C15.0262 25.749 15.3616 25.6285 15.6294 25.4088C15.8972 25.1892 16.081 24.8839 16.1498 24.5445L16.3083 23.75H21.7828C22.1294 23.7492 22.465 23.6288 22.733 23.4092C23.001 23.1895 23.185 22.8841 23.2538 22.5445L24.4173 16.725C24.6281 15.6759 24.4257 14.586 23.8524 13.6825C23.2792 12.779 22.3792 12.1317 21.3403 11.8755ZM16.8403 4.442C17.3977 3.99645 18.0893 3.75256 18.8028 3.75C20.7328 3.75 22.3028 5.5445 22.3028 7.75C22.3028 9.9555 20.7323 11.75 18.8028 11.75C18.2856 11.7486 17.7769 11.6176 17.3233 11.369C16.7547 10.6245 15.948 10.0974 15.0378 9.8755C15.659 9.38404 16.1589 8.75645 16.4991 8.04116C16.8393 7.32587 17.0106 6.54199 16.9998 5.75C16.9987 5.30907 16.9443 4.86989 16.8378 4.442H16.8403ZM12.4998 1.75C14.4298 1.75 15.9998 3.5445 15.9998 5.75C15.9998 7.9555 14.4298 9.75 12.4998 9.75C10.5698 9.75 8.99984 7.9555 8.99984 5.75C8.99984 3.5445 10.5693 1.75 12.4998 1.75ZM2.69634 7.75C2.69634 5.5445 4.26634 3.75 6.19634 3.75C6.91057 3.75199 7.60305 3.99592 8.16084 4.442C8.05497 4.86998 8.00092 5.30912 7.99984 5.75C7.98913 6.54203 8.16052 7.32594 8.50079 8.04123C8.84105 8.75653 9.3411 9.38409 9.96234 9.8755C9.05208 10.0972 8.24537 10.6244 7.67684 11.369C7.22311 11.6177 6.71427 11.7487 6.19684 11.75C4.26634 11.75 2.69634 9.9555 2.69634 7.75ZM3.21634 22.75C3.10099 22.7501 2.98914 22.7104 2.89975 22.6375C2.81035 22.5646 2.74891 22.463 2.72584 22.35L1.56184 16.529C1.47016 16.0705 1.48139 15.5973 1.59473 15.1437C1.70807 14.69 1.9207 14.2672 2.21726 13.9057C2.51383 13.5441 2.88694 13.2529 3.30968 13.0531C3.73242 12.8533 4.19425 12.7497 4.66184 12.75H6.97484C6.78636 13.3915 6.756 14.0692 6.88634 14.725L8.48934 22.75H3.21634ZM15.1703 24.35C15.1473 24.463 15.0858 24.5646 14.9964 24.6375C14.907 24.7104 14.7952 24.7501 14.6798 24.75H10.3193C10.204 24.7501 10.0921 24.7104 10.0027 24.6375C9.91335 24.5646 9.85191 24.463 9.82884 24.35L7.86534 14.529C7.77385 14.0705 7.78522 13.5974 7.89863 13.1438C8.01204 12.6903 8.22468 12.2675 8.52121 11.906C8.81773 11.5445 9.19077 11.2534 9.61342 11.0535C10.0361 10.8536 10.4978 10.7499 10.9653 10.75H14.0378C14.5051 10.7508 14.9664 10.855 15.3886 11.0552C15.8108 11.2554 16.1834 11.5466 16.4798 11.9078C16.7761 12.2691 16.9888 12.6915 17.1026 13.1447C17.2164 13.5979 17.2284 14.0706 17.1378 14.529L15.1703 24.35ZM23.4368 16.529L22.2733 22.35C22.2503 22.463 22.1888 22.5646 22.0994 22.6375C22.01 22.7104 21.8982 22.7501 21.7828 22.75H16.5093L18.1143 14.725C18.2447 14.0692 18.2143 13.3915 18.0258 12.75H20.3388C20.8063 12.7499 21.2679 12.8536 21.6905 13.0536C22.113 13.2535 22.4859 13.5447 22.7823 13.9062C23.0786 14.2678 23.2911 14.6905 23.4043 15.1441C23.5175 15.5976 23.5286 16.0706 23.4368 16.529Z" fill="#656565"/>
</svg>
