<svg width="30" height="30" viewBox="0 0 30 30" fill="none" xmlns="http://www.w3.org/2000/svg">
<path d="M27.3633 3.57422H9.66797C8.21367 3.57422 7.03125 4.75723 7.03125 6.21094C7.03125 7.66523 8.21367 8.84766 9.66797 8.84766H27.3633C28.817 8.84766 30 7.66523 30 6.21094C30 4.75723 28.817 3.57422 27.3633 3.57422Z" fill="white"/>
<path d="M27.3633 12.3633H9.66797C8.21367 12.3633 7.03125 13.5463 7.03125 15C7.03125 16.4543 8.21367 17.6367 9.66797 17.6367H27.3633C28.817 17.6367 30 16.4543 30 15C30 13.5463 28.817 12.3633 27.3633 12.3633Z" fill="white"/>
<path d="M27.3633 21.1523H9.66797C8.21367 21.1523 7.03125 22.3354 7.03125 23.7891C7.03125 25.2434 8.21367 26.4258 9.66797 26.4258H27.3633C28.817 26.4258 30 25.2434 30 23.7891C30 22.3354 28.817 21.1523 27.3633 21.1523Z" fill="white"/>
<path d="M2.63672 3.57422C1.18242 3.57422 0 4.75723 0 6.21094C0 7.66523 1.18242 8.84766 2.63672 8.84766C4.09043 8.84766 5.27344 7.66523 5.27344 6.21094C5.27344 4.75723 4.09043 3.57422 2.63672 3.57422Z" fill="white"/>
<path d="M2.63672 12.3633C1.18242 12.3633 0 13.5463 0 15C0 16.4543 1.18242 17.6367 2.63672 17.6367C4.09043 17.6367 5.27344 16.4543 5.27344 15C5.27344 13.5463 4.09043 12.3633 2.63672 12.3633Z" fill="white"/>
<path d="M2.63672 21.1523C1.18242 21.1523 0 22.3354 0 23.7891C0 25.2434 1.18242 26.4258 2.63672 26.4258C4.09043 26.4258 5.27344 25.2434 5.27344 23.7891C5.27344 22.3354 4.09043 21.1523 2.63672 21.1523Z" fill="white"/>
</svg>
