<svg width="32" height="32" viewBox="0 0 32 32" fill="none" xmlns="http://www.w3.org/2000/svg">
<path d="M30.5 21.469L29.3795 20.822C29.2946 20.7735 29.226 20.7008 29.1826 20.6132C29.1391 20.5255 29.1227 20.427 29.1355 20.33C29.2528 19.4472 29.2528 18.5528 29.1355 17.67C29.1227 17.573 29.1391 17.4745 29.1826 17.3868C29.226 17.2992 29.2946 17.2265 29.3795 17.178L30.5 16.531C30.6708 16.4326 30.8205 16.3015 30.9406 16.1452C31.0607 15.9888 31.1488 15.8104 31.1999 15.62C31.251 15.4296 31.264 15.231 31.2383 15.0356C31.2126 14.8401 31.1486 14.6517 31.05 14.481L29.05 11.017C28.9516 10.8462 28.8205 10.6965 28.6642 10.5764C28.5078 10.4563 28.3294 10.3682 28.139 10.3171C27.9486 10.266 27.75 10.253 27.5546 10.2787C27.3591 10.3044 27.1707 10.3684 27 10.467L25.87 11.117C25.7872 11.1663 25.6916 11.1899 25.5953 11.1847C25.4991 11.1795 25.4066 11.1459 25.3295 11.088C24.6218 10.5398 23.8437 10.0891 23.016 9.748C22.9282 9.71033 22.8536 9.64747 22.8015 9.56737C22.7494 9.48727 22.7223 9.39353 22.7235 9.298V8C22.7235 7.60218 22.5655 7.22064 22.2842 6.93934C22.0029 6.65804 21.6213 6.5 21.2235 6.5H17.2235C16.8257 6.5 16.4441 6.65804 16.1628 6.93934C15.8815 7.22064 15.7235 7.60218 15.7235 8V9.3C15.7247 9.39553 15.6976 9.48927 15.6455 9.56937C15.5934 9.64947 15.5188 9.71233 15.431 9.75C14.6033 10.091 13.8252 10.5417 13.1175 11.09C13.0404 11.1479 12.9478 11.1815 12.8516 11.1866C12.7553 11.1916 12.6597 11.1679 12.577 11.1185L11.447 10.4685C11.2763 10.3699 11.0879 10.3059 10.8924 10.2802C10.697 10.2545 10.4984 10.2675 10.308 10.3186C10.1176 10.3697 9.93916 10.4578 9.78284 10.5779C9.62652 10.698 9.49541 10.8477 9.397 11.0185L7.397 14.4825C7.2984 14.6532 7.23441 14.8416 7.20869 15.0371C7.18296 15.2325 7.19602 15.4311 7.2471 15.6215C7.29818 15.8119 7.38628 15.9903 7.50638 16.1467C7.62647 16.303 7.7762 16.4341 7.947 16.5325L9.068 17.1795C9.15284 17.2281 9.22129 17.3008 9.26466 17.3884C9.30802 17.476 9.32433 17.5746 9.3115 17.6715C9.19417 18.5543 9.19417 19.4487 9.3115 20.3315C9.32433 20.4284 9.30802 20.527 9.26466 20.6146C9.22129 20.7022 9.15284 20.7749 9.068 20.8235L7.947 21.4705C7.7762 21.5689 7.62647 21.7 7.50638 21.8563C7.38628 22.0127 7.29818 22.1911 7.2471 22.3815C7.19602 22.5719 7.18296 22.7705 7.20869 22.9659C7.23441 23.1614 7.2984 23.3498 7.397 23.5205L9.397 26.9845C9.59623 27.3289 9.92395 27.5803 10.3083 27.6834C10.6926 27.7865 11.1021 27.733 11.447 27.5345L12.577 26.8845C12.6596 26.8347 12.7553 26.8107 12.8516 26.8158C12.948 26.8209 13.0406 26.8548 13.1175 26.913C13.8251 27.4614 14.6032 27.9122 15.431 28.253C15.5187 28.2915 15.5932 28.3549 15.6452 28.4353C15.6972 28.5158 15.7244 28.6097 15.7235 28.7055V30C15.7235 30.3978 15.8815 30.7794 16.1628 31.0607C16.4441 31.342 16.8257 31.5 17.2235 31.5H21.2235C21.6213 31.5 22.0029 31.342 22.2842 31.0607C22.5655 30.7794 22.7235 30.3978 22.7235 30V28.7C22.7226 28.6042 22.7498 28.5103 22.8018 28.4298C22.8538 28.3494 22.9283 28.286 23.016 28.2475C23.8437 27.9065 24.6219 27.4558 25.3295 26.9075C25.4064 26.8493 25.499 26.8154 25.5954 26.8103C25.6917 26.8052 25.7874 26.8292 25.87 26.879L27 27.529C27.1707 27.6276 27.3591 27.6916 27.5546 27.7173C27.75 27.743 27.9486 27.73 28.139 27.6789C28.3294 27.6278 28.5078 27.5397 28.6642 27.4196C28.8205 27.2995 28.9516 27.1498 29.05 26.979L31.05 23.515C31.2479 23.1706 31.3011 22.7618 31.198 22.3783C31.0949 21.9947 30.8439 21.6677 30.5 21.469ZM19.2235 25C18.0368 25 16.8768 24.6481 15.8901 23.9888C14.9034 23.3295 14.1343 22.3925 13.6802 21.2961C13.2261 20.1997 13.1073 18.9933 13.3388 17.8295C13.5703 16.6656 14.1417 15.5965 14.9809 14.7574C15.82 13.9182 16.8891 13.3468 18.053 13.1153C19.2168 12.8838 20.4232 13.0026 21.5196 13.4567C22.616 13.9108 23.553 14.6799 24.2123 15.6666C24.8716 16.6533 25.2235 17.8133 25.2235 19C25.2218 20.5908 24.5891 22.1159 23.4642 23.2407C22.3394 24.3656 20.8143 24.9983 19.2235 25Z" fill="#2D2D2D"/>
<path d="M16.25 0.5H2.25C1.85218 0.5 1.47064 0.658035 1.18934 0.93934C0.908035 1.22064 0.75 1.60218 0.75 2V23C0.75 23.3978 0.908035 23.7794 1.18934 24.0607C1.47064 24.342 1.85218 24.5 2.25 24.5H16.25C16.6478 24.5 17.0294 24.342 17.3107 24.0607C17.592 23.7794 17.75 23.3978 17.75 23V2C17.75 1.60218 17.592 1.22064 17.3107 0.93934C17.0294 0.658035 16.6478 0.5 16.25 0.5ZM16.75 23C16.75 23.1326 16.6973 23.2598 16.6036 23.3536C16.5098 23.4473 16.3826 23.5 16.25 23.5H2.25C2.11739 23.5 1.99021 23.4473 1.89645 23.3536C1.80268 23.2598 1.75 23.1326 1.75 23V2C1.75 1.86739 1.80268 1.74021 1.89645 1.64645C1.99021 1.55268 2.11739 1.5 2.25 1.5H16.25C16.3826 1.5 16.5098 1.55268 16.6036 1.64645C16.6973 1.74021 16.75 1.86739 16.75 2V23Z" fill="#656565"/>
<path d="M6.57 5.38577C6.79048 5.13247 6.93342 4.82108 6.98177 4.48877C7.03012 4.15645 6.98183 3.81724 6.84267 3.51162C6.70351 3.20599 6.47935 2.94686 6.19694 2.76515C5.91454 2.58344 5.58581 2.48682 5.25 2.48682C4.91419 2.48682 4.58546 2.58344 4.30306 2.76515C4.02065 2.94686 3.7965 3.20599 3.65733 3.51162C3.51817 3.81724 3.46988 4.15645 3.51823 4.48877C3.56658 4.82108 3.70952 5.13247 3.93 5.38577C3.56998 5.60894 3.27273 5.92012 3.06628 6.28998C2.85983 6.65984 2.75098 7.07619 2.75 7.49977V7.99977C2.75 8.13238 2.80268 8.25955 2.89645 8.35332C2.99021 8.44709 3.11739 8.49977 3.25 8.49977H7.25C7.38261 8.49977 7.50979 8.44709 7.60355 8.35332C7.69732 8.25955 7.75 8.13238 7.75 7.99977V7.49977C7.74902 7.07619 7.64017 6.65984 7.43372 6.28998C7.22727 5.92012 6.93002 5.60894 6.57 5.38577ZM5.25 3.49977C5.39834 3.49977 5.54334 3.54376 5.66668 3.62617C5.79001 3.70858 5.88614 3.82571 5.94291 3.96276C5.99968 4.0998 6.01453 4.2506 5.98559 4.39609C5.95665 4.54158 5.88522 4.67521 5.78033 4.7801C5.67544 4.88499 5.5418 4.95642 5.39632 4.98536C5.25083 5.0143 5.10003 4.99945 4.96299 4.94268C4.82594 4.88592 4.70881 4.78979 4.6264 4.66645C4.54399 4.54311 4.5 4.39811 4.5 4.24977C4.5 4.05086 4.57902 3.86009 4.71967 3.71944C4.86032 3.57879 5.05109 3.49977 5.25 3.49977ZM3.75 7.49977C3.75 7.10195 3.90804 6.72041 4.18934 6.43911C4.47064 6.15781 4.85218 5.99977 5.25 5.99977C5.64782 5.99977 6.02936 6.15781 6.31066 6.43911C6.59196 6.72041 6.75 7.10195 6.75 7.49977H3.75Z" fill="#656565"/>
<path d="M8.75 5H11.75C11.8826 5 12.0098 4.94732 12.1036 4.85355C12.1973 4.75979 12.25 4.63261 12.25 4.5C12.25 4.36739 12.1973 4.24021 12.1036 4.14645C12.0098 4.05268 11.8826 4 11.75 4H8.75C8.61739 4 8.49021 4.05268 8.39645 4.14645C8.30268 4.24021 8.25 4.36739 8.25 4.5C8.25 4.63261 8.30268 4.75979 8.39645 4.85355C8.49021 4.94732 8.61739 5 8.75 5Z" fill="#656565"/>
<path d="M15.25 6H8.75C8.61739 6 8.49021 6.05268 8.39645 6.14645C8.30268 6.24021 8.25 6.36739 8.25 6.5C8.25 6.63261 8.30268 6.75979 8.39645 6.85355C8.49021 6.94732 8.61739 7 8.75 7H15.25C15.3826 7 15.5098 6.94732 15.6036 6.85355C15.6973 6.75979 15.75 6.63261 15.75 6.5C15.75 6.36739 15.6973 6.24021 15.6036 6.14645C15.5098 6.05268 15.3826 6 15.25 6Z" fill="#656565"/>
<path d="M6.57 12.3858C6.79048 12.1325 6.93342 11.8211 6.98177 11.4888C7.03012 11.1565 6.98183 10.8172 6.84267 10.5116C6.70351 10.206 6.47935 9.94686 6.19694 9.76515C5.91454 9.58344 5.58581 9.48682 5.25 9.48682C4.91419 9.48682 4.58546 9.58344 4.30306 9.76515C4.02065 9.94686 3.7965 10.206 3.65733 10.5116C3.51817 10.8172 3.46988 11.1565 3.51823 11.4888C3.56658 11.8211 3.70952 12.1325 3.93 12.3858C3.56998 12.6089 3.27273 12.9201 3.06628 13.29C2.85983 13.6598 2.75098 14.0762 2.75 14.4998V14.9998C2.75 15.1324 2.80268 15.2596 2.89645 15.3533C2.99021 15.4471 3.11739 15.4998 3.25 15.4998H7.25C7.38261 15.4998 7.50979 15.4471 7.60355 15.3533C7.69732 15.2596 7.75 15.1324 7.75 14.9998V14.4998C7.74902 14.0762 7.64017 13.6598 7.43372 13.29C7.22727 12.9201 6.93002 12.6089 6.57 12.3858ZM5.25 10.4998C5.39834 10.4998 5.54334 10.5438 5.66668 10.6262C5.79001 10.7086 5.88614 10.8257 5.94291 10.9628C5.99968 11.0998 6.01453 11.2506 5.98559 11.3961C5.95665 11.5416 5.88522 11.6752 5.78033 11.7801C5.67544 11.885 5.5418 11.9564 5.39632 11.9854C5.25083 12.0143 5.10003 11.9994 4.96299 11.9427C4.82594 11.8859 4.70881 11.7898 4.6264 11.6665C4.54399 11.5431 4.5 11.3981 4.5 11.2498C4.5 11.0509 4.57902 10.8601 4.71967 10.7194C4.86032 10.5788 5.05109 10.4998 5.25 10.4998ZM3.75 14.4998C3.75 14.1019 3.90804 13.7204 4.18934 13.4391C4.47064 13.1578 4.85218 12.9998 5.25 12.9998C5.64782 12.9998 6.02936 13.1578 6.31066 13.4391C6.59196 13.7204 6.75 14.1019 6.75 14.4998H3.75Z" fill="#656565"/>
<path d="M8.75 12H11.75C11.8826 12 12.0098 11.9473 12.1036 11.8536C12.1973 11.7598 12.25 11.6326 12.25 11.5C12.25 11.3674 12.1973 11.2402 12.1036 11.1464C12.0098 11.0527 11.8826 11 11.75 11H8.75C8.61739 11 8.49021 11.0527 8.39645 11.1464C8.30268 11.2402 8.25 11.3674 8.25 11.5C8.25 11.6326 8.30268 11.7598 8.39645 11.8536C8.49021 11.9473 8.61739 12 8.75 12Z" fill="#656565"/>
<path d="M15.25 13H8.75C8.61739 13 8.49021 13.0527 8.39645 13.1464C8.30268 13.2402 8.25 13.3674 8.25 13.5C8.25 13.6326 8.30268 13.7598 8.39645 13.8536C8.49021 13.9473 8.61739 14 8.75 14H15.25C15.3826 14 15.5098 13.9473 15.6036 13.8536C15.6973 13.7598 15.75 13.6326 15.75 13.5C15.75 13.3674 15.6973 13.2402 15.6036 13.1464C15.5098 13.0527 15.3826 13 15.25 13Z" fill="#656565"/>
<path d="M6.57 19.3858C6.79048 19.1325 6.93342 18.8211 6.98177 18.4888C7.03012 18.1565 6.98183 17.8172 6.84267 17.5116C6.70351 17.206 6.47935 16.9469 6.19694 16.7652C5.91454 16.5834 5.58581 16.4868 5.25 16.4868C4.91419 16.4868 4.58546 16.5834 4.30306 16.7652C4.02065 16.9469 3.7965 17.206 3.65733 17.5116C3.51817 17.8172 3.46988 18.1565 3.51823 18.4888C3.56658 18.8211 3.70952 19.1325 3.93 19.3858C3.56998 19.6089 3.27273 19.9201 3.06628 20.29C2.85983 20.6598 2.75098 21.0762 2.75 21.4998V21.9998C2.75 22.1324 2.80268 22.2596 2.89645 22.3533C2.99021 22.4471 3.11739 22.4998 3.25 22.4998H7.25C7.38261 22.4998 7.50979 22.4471 7.60355 22.3533C7.69732 22.2596 7.75 22.1324 7.75 21.9998V21.4998C7.74902 21.0762 7.64017 20.6598 7.43372 20.29C7.22727 19.9201 6.93002 19.6089 6.57 19.3858ZM5.25 17.4998C5.39834 17.4998 5.54334 17.5438 5.66668 17.6262C5.79001 17.7086 5.88614 17.8257 5.94291 17.9628C5.99968 18.0998 6.01453 18.2506 5.98559 18.3961C5.95665 18.5416 5.88522 18.6752 5.78033 18.7801C5.67544 18.885 5.5418 18.9564 5.39632 18.9854C5.25083 19.0143 5.10003 18.9994 4.96299 18.9427C4.82594 18.8859 4.70881 18.7898 4.6264 18.6665C4.54399 18.5431 4.5 18.3981 4.5 18.2498C4.5 18.0509 4.57902 17.8601 4.71967 17.7194C4.86032 17.5788 5.05109 17.4998 5.25 17.4998ZM3.75 21.4998C3.75 21.1019 3.90804 20.7204 4.18934 20.4391C4.47064 20.1578 4.85218 19.9998 5.25 19.9998C5.64782 19.9998 6.02936 20.1578 6.31066 20.4391C6.59196 20.7204 6.75 21.1019 6.75 21.4998H3.75Z" fill="#656565"/>
<path d="M8.75 19H11.75C11.8826 19 12.0098 18.9473 12.1036 18.8536C12.1973 18.7598 12.25 18.6326 12.25 18.5C12.25 18.3674 12.1973 18.2402 12.1036 18.1464C12.0098 18.0527 11.8826 18 11.75 18H8.75C8.61739 18 8.49021 18.0527 8.39645 18.1464C8.30268 18.2402 8.25 18.3674 8.25 18.5C8.25 18.6326 8.30268 18.7598 8.39645 18.8536C8.49021 18.9473 8.61739 19 8.75 19Z" fill="#656565"/>
<path d="M15.25 20H8.75C8.61739 20 8.49021 20.0527 8.39645 20.1464C8.30268 20.2402 8.25 20.3674 8.25 20.5C8.25 20.6326 8.30268 20.7598 8.39645 20.8536C8.49021 20.9473 8.61739 21 8.75 21H15.25C15.3826 21 15.5098 20.9473 15.6036 20.8536C15.6973 20.7598 15.75 20.6326 15.75 20.5C15.75 20.3674 15.6973 20.2402 15.6036 20.1464C15.5098 20.0527 15.3826 20 15.25 20Z" fill="#656565"/>
</svg>
