<svg width="24" height="24" viewBox="0 0 24 24" fill="none" xmlns="http://www.w3.org/2000/svg">
<g clip-path="url(#clip0)">
<path d="M20.6087 3.13086H19.7636C19.8005 3.38717 19.8261 3.64705 19.8261 3.91348V20.87C19.8261 22.0732 19.3673 23.1687 18.6204 24.0004H20.6087C21.0409 24.0004 21.3913 23.6501 21.3913 23.2178V3.91344C21.3913 3.48125 21.0409 3.13086 20.6087 3.13086Z" fill="#DADADA"/>
<path d="M14.3478 0C13.9158 0 13.5652 0.350297 13.5652 0.782625V3.13045H3.39131C2.95927 3.13045 2.60869 3.48075 2.60869 3.91308V13.1432C3.46284 13.0771 4.55822 13.0435 4.95652 13.0435C7.70175 13.0435 10.179 14.6558 11.327 17.0794C11.9998 16.6327 12.7605 16.3438 13.5653 16.2298V17.8167C12.8003 17.9708 12.1002 18.3508 11.5425 18.9243C11.1233 19.3549 10.3923 19.1722 10.2284 18.5916C9.56508 16.2465 7.39706 14.6087 4.95656 14.6087C4.60936 14.6087 3.38831 14.6412 2.60874 14.7055V23.2174C2.60874 23.6497 2.95931 24 3.39136 24C8.07689 24 10.4393 24 15.1305 24C16.8567 24 18.261 22.5958 18.261 20.8695V3.91303C18.2609 1.75528 16.5056 0 14.3478 0ZM6.52172 6.26086H9.65217C10.0842 6.26086 10.4348 6.61116 10.4348 7.04348C10.4348 7.47581 10.0842 7.82611 9.65217 7.82611H6.52172C6.08967 7.82611 5.73909 7.47581 5.73909 7.04348C5.73909 6.61116 6.08967 6.26086 6.52172 6.26086ZM13.5652 10.9565H6.52172C6.08967 10.9565 5.73909 10.6062 5.73909 10.1739C5.73909 9.74156 6.08967 9.39127 6.52172 9.39127H13.5652V10.9565ZM16.6957 18.1592C16.2351 17.8923 15.7001 17.7391 15.1305 17.7391V1.69922C16.0415 2.02228 16.6957 2.89275 16.6957 3.91308V18.1592Z" fill="#DADADA"/>
</g>
<defs>
<clipPath id="clip0">
<rect width="24" height="24" fill="white"/>
</clipPath>
</defs>
</svg>
