<svg width="144" height="144" viewBox="0 0 144 144" fill="none" xmlns="http://www.w3.org/2000/svg">
<g clip-path="url(#clip0)">
<path d="M55.923 34.9977L55.9674 34.7386L55.7792 34.5552L45.3307 24.3703C43.1284 22.2235 44.3465 18.47 47.3916 18.0273C47.3917 18.0273 47.3917 18.0273 47.3917 18.0273L61.8313 15.9292L62.0914 15.8914L62.2078 15.6557L68.6653 2.57109C70.0268 -0.187403 73.9727 -0.18811 75.3347 2.57107C75.3347 2.57108 75.3347 2.5711 75.3347 2.57111L81.7922 15.6557L81.9086 15.8914L82.1687 15.9292L96.6083 18.0273C99.6518 18.4695 100.872 22.222 98.6692 24.3703L88.2208 34.5552L88.0326 34.7386L88.077 34.9977L90.5436 49.3788C90.5436 49.3788 90.5436 49.3789 90.5436 49.3789C91.0633 52.4112 87.8701 54.7305 85.1477 53.2992L84.915 53.7418L85.1477 53.2992L72.2327 46.5093L72 46.3869L71.7673 46.5093L58.8524 53.2992C56.1303 54.7297 52.9362 52.4124 53.4564 49.3789L55.923 34.9977Z" stroke="#EEEEEE"/>
<path d="M24.8125 29.5293C24.8125 36.243 19.37 41.6855 12.6562 41.6855C5.94254 41.6855 0.5 36.243 0.5 29.5293C0.5 22.8156 5.94254 17.373 12.6562 17.373C19.37 17.373 24.8125 22.8156 24.8125 29.5293Z" stroke="#EEEEEE"/>
<path d="M0.54467 106.045L0.544575 106.044C0.515177 105.857 0.5 105.664 0.5 105.467V46.4043C0.5 44.3506 2.16502 42.6855 4.21875 42.6855V42.1855C4.21875 42.6855 4.2188 42.6855 4.2189 42.6855H4.21934H4.22007H4.22109H4.2224H4.224H4.22588H4.22806H4.23052H4.23326H4.23629H4.2396H4.24319H4.24706H4.25122H4.25565H4.26036H4.26535H4.27061H4.27615H4.28196H4.28804H4.2944H4.30103H4.30793H4.3151H4.32253H4.33024H4.33821H4.34644H4.35494H4.36371H4.37273H4.38202H4.39157H4.40138H4.41145H4.42177H4.43235H4.44319H4.45428H4.46563H4.47722H4.48908H4.50118H4.51353H4.52613H4.53898H4.55207H4.56541H4.579H4.59283H4.60691H4.62122H4.63578H4.65058H4.66562H4.68089H4.69641H4.71216H4.72814H4.74436H4.76082H4.7775H4.79442H4.81157H4.82895H4.84656H4.86439H4.88245H4.90074H4.91926H4.93799H4.95695H4.97613H4.99554H5.01516H5.035H5.05506H5.07534H5.09583H5.11654H5.13746H5.1586H5.17995H5.20151H5.22328H5.24526H5.26745H5.28984H5.31245H5.33526H5.35827H5.38148H5.4049H5.42853H5.45235H5.47637H5.50059H5.52501H5.54962H5.57444H5.59944H5.62464H5.65004H5.67562H5.7014H5.72737H5.75352H5.77987H5.8064H5.83312H5.86002H5.88711H5.91438H5.94183H5.96947H5.99728H6.02528H6.05345H6.0818H6.11033H6.13903H6.16791H6.19697H6.22619H6.25559H6.28516H6.31489H6.3448H6.37487H6.40512H6.43552H6.4661H6.49683H6.52773H6.5588H6.59002H6.6214H6.65295H6.68465H6.71651H6.74852H6.78069H6.81302H6.8455H6.87813H6.91091H6.94385H6.97693H7.01016H7.04354H7.07707H7.11074H7.14456H7.17852H7.21262H7.24687H7.28125H7.31578H7.35044H7.38525H7.42019H7.45527H7.49048H7.52582H7.5613H7.59692H7.63266H7.66853H7.70454H7.74067H7.77693H7.81331H7.84982H7.88646H7.92322H7.9601H7.9971H8.03423H8.07147H8.10883H8.14631H8.18391H8.22162H8.25945H8.29739H8.33545H8.37362H8.41189H8.45028H8.48878H8.52739H8.5661H8.60492H8.64384H8.68287H8.722H8.76124H8.80057H8.84001H8.87955H8.91918H8.95891H8.99874H9.03866H9.07868H9.11879H9.159H9.1993H9.23968H9.28016H9.32073H9.36138H9.40212H9.44295H9.48386H9.52486H9.56594H9.6071H9.64834H9.68966H9.73107H9.77255H9.8141H9.85574H9.89745H9.93923H9.98109H10.023H10.065H10.1071H10.1492H10.1914H10.2337H10.2761H10.3185H10.3609H10.4035H10.4461H10.4887H10.5315H10.5743H10.6171H10.66H10.703H10.746H10.789H10.8322H10.8753H10.9186H10.9618H11.0052H11.0486H11.092H11.1355H11.179H11.2225H11.2662H11.3098H11.3535H11.3973H11.441H11.4849H11.5287H11.5726H11.6165H11.6605H11.7045H11.7485H11.7926H11.8367H11.8809H11.925H11.9692H12.0134H12.0577H12.1019H12.1462H12.1906H12.2349H12.2793H12.3237H12.3681H12.4125H12.457H12.5014H12.5459H12.5904H12.6349H12.6794H12.724H12.7685H12.8131H12.8577H12.9022H12.9468H12.9914H13.036H13.0806H13.1252H13.1698H13.2145H13.2591H13.3037H13.3483H13.3929H13.4375H13.4821H13.5267H13.5713H13.6159H13.6605H13.7051H13.7496H13.7942H13.8387H13.8833H13.9278H13.9723H14.0168H14.0612H14.1057H14.1501H14.1945H14.2389H14.2833H14.3276H14.372H14.4163H14.4606H14.5048H14.549H14.5932H14.6374H14.6815H14.7257H14.7697H14.8138H14.8578H14.9018H14.9457H14.9896H15.0335H15.0773H15.1211H15.1648H15.2085H15.2522H15.2958H15.3394H15.3829H15.4264H15.4699H15.5133H15.5566H15.5999H15.6431H15.6863H15.7295H15.7725H15.8156H15.8585H15.9014H15.9443H15.9871H16.0298H16.0725H16.1151H16.1577H16.2002H16.2426H16.285H16.3272H16.3695H16.4116H16.4537H16.4957H16.5377H16.5795H16.6213H16.6631H16.7047H16.7463H16.7878H16.8292H16.8706H16.9118H16.953H16.9941H17.0351H17.076H17.1169H17.1576H17.1983H17.2389H17.2794H17.3198H17.3601H17.4004H17.4405H17.4805H17.5205H17.5603H17.6001H17.6397H17.6793H17.7188H17.7581H17.7974H17.8365H17.8756H17.9145H17.9534H17.9921H18.0307H18.0693H18.1077H18.146H18.1842H18.2222H18.2602H18.2981H18.3358H18.3734H18.4109H18.4483H18.4856H18.5227H18.5598H18.5967H18.6335H18.6701H18.7067H18.7431H18.7794H18.8155H18.8516H18.8875H18.9232H18.9589H18.9944H19.0298H19.065H19.1001H19.1351H19.1699H19.2046H19.2392H19.2736H19.3079H19.342H19.376H19.4099H19.4436H19.4771H19.5105H19.5438H19.5769H19.6099H19.6427H19.6754H19.7079H19.7402H19.7724H19.8045H19.8364H19.8681H19.8997H19.9311H19.9624H19.9935H20.0244H20.0552H20.0858H20.1162H20.1465H20.1766H20.2066H20.2364H20.266H20.2954H20.3247H20.3538H20.3827H20.4114H20.44H20.4684H20.4966H20.5246H20.5525H20.5802H20.6076H20.635H20.6621H20.689H20.7158H20.7424H20.7687H20.7949H20.821H20.8468H20.8724H20.8978H20.9231H20.9481H20.973H20.9977H21.0221H21.0464H21.0704H21.0943C23.148 42.6855 24.8125 44.3505 24.8125 46.4043V105.467C24.8125 107.521 23.1475 109.186 21.0938 109.186H4.21875C2.36181 109.186 0.821766 107.824 0.54467 106.045Z" stroke="#EEEEEE"/>
<path d="M34.25 54.6653C40.6222 59.7771 48.0813 63.6184 56.1169 65.8422L56.2503 65.3603L56.1169 65.8422C58.096 66.3898 59.2568 68.4386 58.7092 70.4179C58.1634 72.3895 56.1205 73.5602 54.1331 73.0102L53.9997 73.4921L54.1331 73.0102C47.0101 71.039 40.2904 67.9262 34.25 63.8733V54.6653Z" stroke="#EEEEEE"/>
<path d="M143.5 29.5293C143.5 36.243 138.057 41.6855 131.344 41.6855C124.63 41.6855 119.188 36.243 119.188 29.5293C119.188 22.8156 124.63 17.373 131.344 17.373C138.057 17.373 143.5 22.8156 143.5 29.5293Z" stroke="#EEEEEE"/>
<path d="M87.8831 65.8422L87.8831 65.8422C95.9187 63.6184 103.378 59.7771 109.75 54.6653V63.8733C103.71 67.9262 96.9899 71.0389 89.8669 73.0102L90.0003 73.492L89.8669 73.0102C87.8795 73.5602 85.8366 72.3895 85.2908 70.4179C84.7432 68.4385 85.904 66.3898 87.8831 65.8422Z" stroke="#EEEEEE"/>
<path d="M143.455 106.044L143.455 106.045C143.178 107.824 141.638 109.186 139.781 109.186H122.906C120.853 109.186 119.188 107.521 119.188 105.467V46.4043C119.188 44.3505 120.852 42.6855 122.906 42.6855H139.781C141.835 42.6855 143.5 44.3506 143.5 46.4043V105.467C143.5 105.664 143.485 105.857 143.455 106.044Z" stroke="#EEEEEE"/>
<path d="M97.3125 84.873C98.7269 84.873 100.019 85.6756 100.646 86.9434L125.958 138.131C127.176 140.593 125.387 143.498 122.625 143.498H21.375C18.6265 143.498 16.8184 140.604 18.0415 138.131L43.354 86.9434C43.981 85.6756 45.2731 84.873 46.6875 84.873H97.3125Z" stroke="#EEEEEE"/>
</g>
<defs>
<clipPath id="clip0">
<rect width="144" height="144" fill="white"/>
</clipPath>
</defs>
</svg>
