<?xml version="1.0" encoding="UTF-8" standalone="no"?><svg xmlns="http://www.w3.org/2000/svg" xmlns:xlink="http://www.w3.org/1999/xlink" clip-rule="evenodd" stroke-miterlimit="4.00" viewBox="0 0 729 105"><desc>SVG generated by Keynote</desc><defs></defs><g transform="matrix(1.00, 0.00, -0.00, -1.00, 0.0, 105.0)"><text xml:space="preserve" font-family="ArialMT" font-size="50.0" fill="#000000" transform="matrix(1.00, 0.00, -0.00, -1.00, 0.3, 59.3)">•</text><text xml:space="preserve" font-family="TrebuchetMS" font-size="50.0" fill="#000000" transform="matrix(1.00, 0.00, -0.00, -1.00, 36.0, 59.0)">B</text><text xml:space="preserve" font-family="TrebuchetMS" font-size="50.0" fill="#000000" transform="matrix(1.00, 0.00, -0.00, -1.00, 64.3, 59.0)">o</text><text xml:space="preserve" font-family="TrebuchetMS" font-size="50.0" fill="#000000" transform="matrix(1.00, 0.00, -0.00, -1.00, 91.1, 59.0)">b</text><text xml:space="preserve" font-family="TrebuchetMS" font-size="50.0" fill="#000000" transform="matrix(1.00, 0.00, -0.00, -1.00, 119.0, 59.0)"> </text><text xml:space="preserve" font-family="TrebuchetMS" font-size="50.0" fill="#000000" transform="matrix(1.00, 0.00, -0.00, -1.00, 134.0, 59.0)">c</text><text xml:space="preserve" font-family="TrebuchetMS" font-size="50.0" fill="#000000" transform="matrix(1.00, 0.00, -0.00, -1.00, 158.8, 59.0)">r</text><text xml:space="preserve" font-family="TrebuchetMS" font-size="50.0" fill="#000000" transform="matrix(1.00, 0.00, -0.00, -1.00, 178.2, 59.0)">e</text><text xml:space="preserve" font-family="TrebuchetMS" font-size="50.0" fill="#000000" transform="matrix(1.00, 0.00, -0.00, -1.00, 205.5, 59.0)">a</text><text xml:space="preserve" font-family="TrebuchetMS" font-size="50.0" fill="#000000" transform="matrix(1.00, 0.00, -0.00, -1.00, 231.8, 59.0)">t</text><text xml:space="preserve" font-family="TrebuchetMS" font-size="50.0" fill="#000000" transform="matrix(1.00, 0.00, -0.00, -1.00, 251.7, 59.0)">e</text><text xml:space="preserve" font-family="TrebuchetMS" font-size="50.0" fill="#000000" transform="matrix(1.00, 0.00, -0.00, -1.00, 279.0, 59.0)">s</text><text xml:space="preserve" font-family="TrebuchetMS" font-size="50.0" fill="#000000" transform="matrix(1.00, 0.00, -0.00, -1.00, 299.3, 59.0)"> </text><text xml:space="preserve" font-family="TrebuchetMS" font-size="50.0" fill="#000000" transform="matrix(1.00, 0.00, -0.00, -1.00, 314.3, 59.0)">t</text><text xml:space="preserve" font-family="TrebuchetMS" font-size="50.0" fill="#000000" transform="matrix(1.00, 0.00, -0.00, -1.00, 334.2, 59.0)">h</text><text xml:space="preserve" font-family="TrebuchetMS" font-size="50.0" fill="#000000" transform="matrix(1.00, 0.00, -0.00, -1.00, 361.5, 59.0)">e</text><text xml:space="preserve" font-family="TrebuchetMS" font-size="50.0" fill="#000000" transform="matrix(1.00, 0.00, -0.00, -1.00, 388.9, 59.0)"> </text><text xml:space="preserve" font-family="TrebuchetMS" font-size="50.0" fill="#000000" transform="matrix(1.00, 0.00, -0.00, -1.00, 403.9, 59.0)">y</text><text xml:space="preserve" font-family="TrebuchetMS" font-size="50.0" fill="#000000" transform="matrix(1.00, 0.00, -0.00, -1.00, 428.6, 59.0)">e</text><text xml:space="preserve" font-family="TrebuchetMS" font-size="50.0" fill="#000000" transform="matrix(1.00, 0.00, -0.00, -1.00, 455.9, 59.0)">l</text><text xml:space="preserve" font-family="TrebuchetMS" font-size="50.0" fill="#000000" transform="matrix(1.00, 0.00, -0.00, -1.00, 470.6, 59.0)">l</text><text xml:space="preserve" font-family="TrebuchetMS" font-size="50.0" fill="#000000" transform="matrix(1.00, 0.00, -0.00, -1.00, 485.4, 59.0)">o</text><text xml:space="preserve" font-family="TrebuchetMS" font-size="50.0" fill="#000000" transform="matrix(1.00, 0.00, -0.00, -1.00, 512.2, 59.0)">w</text><text xml:space="preserve" font-family="TrebuchetMS" font-size="50.0" fill="#000000" transform="matrix(1.00, 0.00, -0.00, -1.00, 549.4, 59.0)"> </text><text xml:space="preserve" font-family="TrebuchetMS" font-size="50.0" fill="#000000" transform="matrix(1.00, 0.00, -0.00, -1.00, 564.5, 59.0)">c</text><text xml:space="preserve" font-family="TrebuchetMS" font-size="50.0" fill="#000000" transform="matrix(1.00, 0.00, -0.00, -1.00, 589.2, 59.0)">h</text><text xml:space="preserve" font-family="TrebuchetMS" font-size="50.0" fill="#000000" transform="matrix(1.00, 0.00, -0.00, -1.00, 616.6, 59.0)">e</text><text xml:space="preserve" font-family="TrebuchetMS" font-size="50.0" fill="#000000" transform="matrix(1.00, 0.00, -0.00, -1.00, 643.9, 59.0)">q</text><text xml:space="preserve" font-family="TrebuchetMS" font-size="50.0" fill="#000000" transform="matrix(1.00, 0.00, -0.00, -1.00, 671.7, 59.0)">u</text><text xml:space="preserve" font-family="TrebuchetMS" font-size="50.0" fill="#000000" transform="matrix(1.00, 0.00, -0.00, -1.00, 699.1, 59.0)">e</text><text xml:space="preserve" font-family="TrebuchetMS" font-size="50.0" fill="#000000" transform="matrix(1.00, 0.00, -0.00, -1.00, 726.4, 59.0)"> </text><text xml:space="preserve" font-family="TrebuchetMS" font-size="50.0" fill="#000000" transform="matrix(1.00, 0.00, -0.00, -1.00, 36.0, 12.0)">a</text><text xml:space="preserve" font-family="TrebuchetMS" font-size="50.0" fill="#000000" transform="matrix(1.00, 0.00, -0.00, -1.00, 62.3, 12.0)">n</text><text xml:space="preserve" font-family="TrebuchetMS" font-size="50.0" fill="#000000" transform="matrix(1.00, 0.00, -0.00, -1.00, 89.6, 12.0)">d</text><text xml:space="preserve" font-family="TrebuchetMS" font-size="50.0" fill="#000000" transform="matrix(1.00, 0.00, -0.00, -1.00, 117.5, 12.0)"> </text><text xml:space="preserve" font-family="TrebuchetMS" font-size="50.0" fill="#000000" transform="matrix(1.00, 0.00, -0.00, -1.00, 132.6, 12.0)">s</text><text xml:space="preserve" font-family="TrebuchetMS" font-size="50.0" fill="#000000" transform="matrix(1.00, 0.00, -0.00, -1.00, 152.8, 12.0)">i</text><text xml:space="preserve" font-family="TrebuchetMS" font-size="50.0" fill="#000000" transform="matrix(1.00, 0.00, -0.00, -1.00, 167.1, 12.0)">g</text><text xml:space="preserve" font-family="TrebuchetMS" font-size="50.0" fill="#000000" transform="matrix(1.00, 0.00, -0.00, -1.00, 192.2, 12.0)">n</text><text xml:space="preserve" font-family="TrebuchetMS" font-size="50.0" fill="#000000" transform="matrix(1.00, 0.00, -0.00, -1.00, 219.5, 12.0)">s</text><text xml:space="preserve" font-family="TrebuchetMS" font-size="50.0" fill="#000000" transform="matrix(1.00, 0.00, -0.00, -1.00, 239.7, 12.0)"> </text><text xml:space="preserve" font-family="TrebuchetMS" font-size="50.0" fill="#000000" transform="matrix(1.00, 0.00, -0.00, -1.00, 254.8, 12.0)">i</text><text xml:space="preserve" font-family="TrebuchetMS" font-size="50.0" fill="#000000" transform="matrix(1.00, 0.00, -0.00, -1.00, 269.1, 12.0)">t</text></g></svg>