<?xml version="1.0" encoding="UTF-8" standalone="no"?><svg xmlns="http://www.w3.org/2000/svg" xmlns:xlink="http://www.w3.org/1999/xlink" clip-rule="evenodd" stroke-miterlimit="4.00" viewBox="0 0 899 70"><desc>SVG generated by Keynote</desc><defs></defs><g transform="matrix(1.00, 0.00, -0.00, -1.00, 0.0, 70.0)"><text xml:space="preserve" font-family="Helvetica-Light" font-size="88.0" fill="#000000" transform="matrix(1.00, 0.00, -0.00, -1.00, 1.0, 3.0)">A</text><text xml:space="preserve" font-family="Helvetica-Light" font-size="88.0" fill="#000000" transform="matrix(1.00, 0.00, -0.00, -1.00, 59.7, 3.0)"> </text><text xml:space="preserve" font-family="Helvetica-Light" font-size="88.0" fill="#000000" transform="matrix(1.00, 0.00, -0.00, -1.00, 84.2, 3.0)">c</text><text xml:space="preserve" font-family="Helvetica-Light" font-size="88.0" fill="#000000" transform="matrix(1.00, 0.00, -0.00, -1.00, 133.1, 3.0)">h</text><text xml:space="preserve" font-family="Helvetica-Light" font-size="88.0" fill="#000000" transform="matrix(1.00, 0.00, -0.00, -1.00, 182.0, 3.0)">a</text><text xml:space="preserve" font-family="Helvetica-Light" font-size="88.0" fill="#000000" transform="matrix(1.00, 0.00, -0.00, -1.00, 230.9, 3.0)">i</text><text xml:space="preserve" font-family="Helvetica-Light" font-size="88.0" fill="#000000" transform="matrix(1.00, 0.00, -0.00, -1.00, 250.5, 3.0)">n</text><text xml:space="preserve" font-family="Helvetica-Light" font-size="88.0" fill="#000000" transform="matrix(1.00, 0.00, -0.00, -1.00, 299.4, 3.0)"> </text><text xml:space="preserve" font-family="Helvetica-Light" font-size="88.0" fill="#000000" transform="matrix(1.00, 0.00, -0.00, -1.00, 323.9, 3.0)">o</text><text xml:space="preserve" font-family="Helvetica-Light" font-size="88.0" fill="#000000" transform="matrix(1.00, 0.00, -0.00, -1.00, 372.8, 3.0)">f</text><text xml:space="preserve" font-family="Helvetica-Light" font-size="88.0" fill="#000000" transform="matrix(1.00, 0.00, -0.00, -1.00, 397.3, 3.0)"> </text><text xml:space="preserve" font-family="Helvetica-Light" font-size="88.0" fill="#000000" transform="matrix(1.00, 0.00, -0.00, -1.00, 421.7, 3.0)">t</text><text xml:space="preserve" font-family="Helvetica-Light" font-size="88.0" fill="#000000" transform="matrix(1.00, 0.00, -0.00, -1.00, 446.2, 3.0)">r</text><text xml:space="preserve" font-family="Helvetica-Light" font-size="88.0" fill="#000000" transform="matrix(1.00, 0.00, -0.00, -1.00, 475.5, 3.0)">a</text><text xml:space="preserve" font-family="Helvetica-Light" font-size="88.0" fill="#000000" transform="matrix(1.00, 0.00, -0.00, -1.00, 524.4, 3.0)">n</text><text xml:space="preserve" font-family="Helvetica-Light" font-size="88.0" fill="#000000" transform="matrix(1.00, 0.00, -0.00, -1.00, 573.4, 3.0)">s</text><text xml:space="preserve" font-family="Helvetica-Light" font-size="88.0" fill="#000000" transform="matrix(1.00, 0.00, -0.00, -1.00, 617.4, 3.0)">a</text><text xml:space="preserve" font-family="Helvetica-Light" font-size="88.0" fill="#000000" transform="matrix(1.00, 0.00, -0.00, -1.00, 666.3, 3.0)">c</text><text xml:space="preserve" font-family="Helvetica-Light" font-size="88.0" fill="#000000" transform="matrix(1.00, 0.00, -0.00, -1.00, 715.2, 3.0)">t</text><text xml:space="preserve" font-family="Helvetica-Light" font-size="88.0" fill="#000000" transform="matrix(1.00, 0.00, -0.00, -1.00, 739.7, 3.0)">i</text><text xml:space="preserve" font-family="Helvetica-Light" font-size="88.0" fill="#000000" transform="matrix(1.00, 0.00, -0.00, -1.00, 759.2, 3.0)">o</text><text xml:space="preserve" font-family="Helvetica-Light" font-size="88.0" fill="#000000" transform="matrix(1.00, 0.00, -0.00, -1.00, 808.1, 3.0)">n</text><text xml:space="preserve" font-family="Helvetica-Light" font-size="88.0" fill="#000000" transform="matrix(1.00, 0.00, -0.00, -1.00, 857.1, 3.0)">s</text></g></svg>