<?xml version="1.0" encoding="UTF-8" standalone="no"?><svg xmlns="http://www.w3.org/2000/svg" xmlns:xlink="http://www.w3.org/1999/xlink" clip-rule="evenodd" stroke-miterlimit="4.00" viewBox="0 0 995 373"><desc>SVG generated by Keynote</desc><defs></defs><g transform="matrix(1.00, 0.00, -0.00, -1.00, 0.0, 373.0)"><g><clipPath id="clip-8"><path d="M 0.7 0.7 L 994.7 0.7 L 994.7 372.2 L 0.7 372.2 Z M 0.7 0.7 "></path></clipPath><g clip-path="url(#clip-8)"><path d="M 2.7 370.2 L 992.7 370.2 L 992.7 2.7 L 2.7 2.7 Z M 2.7 370.2 " fill="#5B9BD4"></path><path d="M 0.0 0.0 L 990.0 0.0 L 990.0 367.5 L 0.0 367.5 Z M 0.0 0.0 " fill="none" stroke="#42719B" stroke-width="2.00" stroke-miterlimit="8.00" transform="matrix(1.00, 0.00, 0.00, -1.00, 2.7, 370.2)"></path></g></g><g><clipPath id="clip-9"><path d="M 41.5 208.2 L 398.3 208.2 L 398.3 271.1 L 41.5 271.1 Z M 41.5 208.2 "></path></clipPath><g clip-path="url(#clip-9)"><text xml:space="preserve" font-family="TrebuchetMS" font-size="36.0" fill="#000000" transform="matrix(1.00, 0.00, -0.00, -1.00, 52.0, 227.0)">F</text><text xml:space="preserve" font-family="TrebuchetMS" font-size="36.0" fill="#000000" transform="matrix(1.00, 0.00, -0.00, -1.00, 70.9, 227.0)">r</text><text xml:space="preserve" font-family="TrebuchetMS" font-size="36.0" fill="#000000" transform="matrix(1.00, 0.00, -0.00, -1.00, 84.9, 227.0)">o</text><text xml:space="preserve" font-family="TrebuchetMS" font-size="36.0" fill="#000000" transform="matrix(1.00, 0.00, -0.00, -1.00, 104.2, 227.0)">m</text><text xml:space="preserve" font-family="TrebuchetMS" font-size="36.0" fill="#000000" transform="matrix(1.00, 0.00, -0.00, -1.00, 134.1, 227.0)">:</text><text xml:space="preserve" font-family="TrebuchetMS" font-size="36.0" fill="#000000" transform="matrix(1.00, 0.00, -0.00, -1.00, 147.3, 227.0)"> </text><text xml:space="preserve" font-family="TrebuchetMS" font-size="36.0" fill="#000000" transform="matrix(1.00, 0.00, -0.00, -1.00, 158.1, 227.0)">M</text><text xml:space="preserve" font-family="TrebuchetMS" font-size="36.0" fill="#000000" transform="matrix(1.00, 0.00, -0.00, -1.00, 183.7, 227.0)">i</text><text xml:space="preserve" font-family="TrebuchetMS" font-size="36.0" fill="#000000" transform="matrix(1.00, 0.00, -0.00, -1.00, 194.0, 227.0)">n</text><text xml:space="preserve" font-family="TrebuchetMS" font-size="36.0" fill="#000000" transform="matrix(1.00, 0.00, -0.00, -1.00, 213.7, 227.0)">i</text><text xml:space="preserve" font-family="TrebuchetMS" font-size="36.0" fill="#000000" transform="matrix(1.00, 0.00, -0.00, -1.00, 223.9, 227.0)">n</text><text xml:space="preserve" font-family="TrebuchetMS" font-size="36.0" fill="#000000" transform="matrix(1.00, 0.00, -0.00, -1.00, 243.6, 227.0)">g</text><text xml:space="preserve" font-family="TrebuchetMS" font-size="36.0" fill="#000000" transform="matrix(1.00, 0.00, -0.00, -1.00, 261.7, 227.0)"> </text><text xml:space="preserve" font-family="TrebuchetMS" font-size="36.0" fill="#000000" transform="matrix(1.00, 0.00, -0.00, -1.00, 272.5, 227.0)">r</text><text xml:space="preserve" font-family="TrebuchetMS" font-size="36.0" fill="#000000" transform="matrix(1.00, 0.00, -0.00, -1.00, 286.5, 227.0)">e</text><text xml:space="preserve" font-family="TrebuchetMS" font-size="36.0" fill="#000000" transform="matrix(1.00, 0.00, -0.00, -1.00, 306.2, 227.0)">w</text><text xml:space="preserve" font-family="TrebuchetMS" font-size="36.0" fill="#000000" transform="matrix(1.00, 0.00, -0.00, -1.00, 333.0, 227.0)">a</text><text xml:space="preserve" font-family="TrebuchetMS" font-size="36.0" fill="#000000" transform="matrix(1.00, 0.00, -0.00, -1.00, 351.9, 227.0)">r</text><text xml:space="preserve" font-family="TrebuchetMS" font-size="36.0" fill="#000000" transform="matrix(1.00, 0.00, -0.00, -1.00, 365.9, 227.0)">d</text></g></g><g><clipPath id="clip-10"><path d="M 73.3 296.3 L 296.2 296.3 L 296.2 359.2 L 73.3 359.2 Z M 73.3 296.3 "></path></clipPath><g clip-path="url(#clip-10)"><text xml:space="preserve" font-family="TrebuchetMS" font-size="36.0" fill="#000000" transform="matrix(1.00, 0.00, -0.00, -1.00, 84.0, 315.0)">B</text><text xml:space="preserve" font-family="TrebuchetMS" font-size="36.0" fill="#000000" transform="matrix(1.00, 0.00, -0.00, -1.00, 104.4, 315.0)">i</text><text xml:space="preserve" font-family="TrebuchetMS" font-size="36.0" fill="#000000" transform="matrix(1.00, 0.00, -0.00, -1.00, 114.6, 315.0)">t</text><text xml:space="preserve" font-family="TrebuchetMS" font-size="36.0" fill="#000000" transform="matrix(1.00, 0.00, -0.00, -1.00, 128.9, 315.0)">c</text><text xml:space="preserve" font-family="TrebuchetMS" font-size="36.0" fill="#000000" transform="matrix(1.00, 0.00, -0.00, -1.00, 146.8, 315.0)">o</text><text xml:space="preserve" font-family="TrebuchetMS" font-size="36.0" fill="#000000" transform="matrix(1.00, 0.00, -0.00, -1.00, 166.1, 315.0)">i</text><text xml:space="preserve" font-family="TrebuchetMS" font-size="36.0" fill="#000000" transform="matrix(1.00, 0.00, -0.00, -1.00, 176.3, 315.0)">n</text><text xml:space="preserve" font-family="TrebuchetMS" font-size="36.0" fill="#000000" transform="matrix(1.00, 0.00, -0.00, -1.00, 196.0, 315.0)"> </text><text xml:space="preserve" font-family="TrebuchetMS" font-size="36.0" fill="#000000" transform="matrix(1.00, 0.00, -0.00, -1.00, 206.9, 315.0)">B</text><text xml:space="preserve" font-family="TrebuchetMS" font-size="36.0" fill="#000000" transform="matrix(1.00, 0.00, -0.00, -1.00, 227.2, 315.0)">a</text><text xml:space="preserve" font-family="TrebuchetMS" font-size="36.0" fill="#000000" transform="matrix(1.00, 0.00, -0.00, -1.00, 246.2, 315.0)">n</text><text xml:space="preserve" font-family="TrebuchetMS" font-size="36.0" fill="#000000" transform="matrix(1.00, 0.00, -0.00, -1.00, 265.9, 315.0)">k</text></g></g><g><clipPath id="clip-11"><path d="M 25.8 301.5 L 76.6 301.5 L 76.6 352.3 L 25.8 352.3 Z M 25.8 301.5 "></path></clipPath><g clip-path="url(#clip-11)"><image xlink:href="../../012418F2-C9DB-43BA-8424-4651D57B56D3/assets/35AD6C6153D2937708B91BCF58F5E767.jpeg" width="51.00" height="51.00" transform="matrix(1.00, 0.00, -0.00, -0.98, 26.0, 352.0)"></image></g></g><g><clipPath id="clip-12"><path d="M 41.5 123.0 L 201.8 123.0 L 201.8 185.9 L 41.5 185.9 Z M 41.5 123.0 "></path></clipPath><g clip-path="url(#clip-12)"><text xml:space="preserve" font-family="TrebuchetMS" font-size="36.0" fill="#000000" transform="matrix(1.00, 0.00, -0.00, -1.00, 52.0, 141.0)">T</text><text xml:space="preserve" font-family="TrebuchetMS" font-size="36.0" fill="#000000" transform="matrix(1.00, 0.00, -0.00, -1.00, 68.4, 141.0)">o</text><text xml:space="preserve" font-family="TrebuchetMS" font-size="36.0" fill="#000000" transform="matrix(1.00, 0.00, -0.00, -1.00, 87.7, 141.0)">:</text><text xml:space="preserve" font-family="TrebuchetMS" font-size="36.0" fill="#000000" transform="matrix(1.00, 0.00, -0.00, -1.00, 100.9, 141.0)"> </text><text xml:space="preserve" font-family="TrebuchetMS" font-size="36.0" fill="#000000" transform="matrix(1.00, 0.00, -0.00, -1.00, 109.8, 141.0)">A</text><text xml:space="preserve" font-family="TrebuchetMS" font-size="36.0" fill="#000000" transform="matrix(1.00, 0.00, -0.00, -1.00, 131.1, 141.0)">l</text><text xml:space="preserve" font-family="TrebuchetMS" font-size="36.0" fill="#000000" transform="matrix(1.00, 0.00, -0.00, -1.00, 141.7, 141.0)">i</text><text xml:space="preserve" font-family="TrebuchetMS" font-size="36.0" fill="#000000" transform="matrix(1.00, 0.00, -0.00, -1.00, 151.9, 141.0)">c</text><text xml:space="preserve" font-family="TrebuchetMS" font-size="36.0" fill="#000000" transform="matrix(1.00, 0.00, -0.00, -1.00, 169.8, 141.0)">e</text></g></g><g><clipPath id="clip-13"><path d="M 41.5 37.9 L 313.1 37.9 L 313.1 100.8 L 41.5 100.8 Z M 41.5 37.9 "></path></clipPath><g clip-path="url(#clip-13)"><text xml:space="preserve" font-family="TrebuchetMS" font-size="36.0" fill="#000000" transform="matrix(1.00, 0.00, -0.00, -1.00, 52.0, 56.0)">A</text><text xml:space="preserve" font-family="TrebuchetMS" font-size="36.0" fill="#000000" transform="matrix(1.00, 0.00, -0.00, -1.00, 73.2, 56.0)">m</text><text xml:space="preserve" font-family="TrebuchetMS" font-size="36.0" fill="#000000" transform="matrix(1.00, 0.00, -0.00, -1.00, 103.1, 56.0)">o</text><text xml:space="preserve" font-family="TrebuchetMS" font-size="36.0" fill="#000000" transform="matrix(1.00, 0.00, -0.00, -1.00, 122.4, 56.0)">u</text><text xml:space="preserve" font-family="TrebuchetMS" font-size="36.0" fill="#000000" transform="matrix(1.00, 0.00, -0.00, -1.00, 142.1, 56.0)">n</text><text xml:space="preserve" font-family="TrebuchetMS" font-size="36.0" fill="#000000" transform="matrix(1.00, 0.00, -0.00, -1.00, 161.8, 56.0)">t</text><text xml:space="preserve" font-family="TrebuchetMS" font-size="36.0" fill="#000000" transform="matrix(1.00, 0.00, -0.00, -1.00, 176.1, 56.0)">:</text><text xml:space="preserve" font-family="TrebuchetMS" font-size="36.0" fill="#000000" transform="matrix(1.00, 0.00, -0.00, -1.00, 189.3, 56.0)"> </text><text xml:space="preserve" font-family="TrebuchetMS" font-size="36.0" fill="#000000" transform="matrix(1.00, 0.00, -0.00, -1.00, 200.2, 56.0)">2</text><text xml:space="preserve" font-family="TrebuchetMS" font-size="36.0" fill="#000000" transform="matrix(1.00, 0.00, -0.00, -1.00, 219.1, 56.0)">5</text><text xml:space="preserve" font-family="TrebuchetMS" font-size="36.0" fill="#000000" transform="matrix(1.00, 0.00, -0.00, -1.00, 238.0, 56.0)">B</text><text xml:space="preserve" font-family="TrebuchetMS" font-size="36.0" fill="#000000" transform="matrix(1.00, 0.00, -0.00, -1.00, 258.4, 56.0)">T</text><text xml:space="preserve" font-family="TrebuchetMS" font-size="36.0" fill="#000000" transform="matrix(1.00, 0.00, -0.00, -1.00, 279.3, 56.0)">C</text></g></g><g><clipPath id="clip-14"><path d="M 601.2 292.6 L 900.6 292.6 L 900.6 355.5 L 601.2 355.5 Z M 601.2 292.6 "></path></clipPath><g clip-path="url(#clip-14)"><text xml:space="preserve" font-family="TrebuchetMS" font-size="36.0" fill="#000000" transform="matrix(1.00, 0.00, -0.00, -1.00, 612.0, 311.0)">D</text><text xml:space="preserve" font-family="TrebuchetMS" font-size="36.0" fill="#000000" transform="matrix(1.00, 0.00, -0.00, -1.00, 634.1, 311.0)">a</text><text xml:space="preserve" font-family="TrebuchetMS" font-size="36.0" fill="#000000" transform="matrix(1.00, 0.00, -0.00, -1.00, 653.0, 311.0)">t</text><text xml:space="preserve" font-family="TrebuchetMS" font-size="36.0" fill="#000000" transform="matrix(1.00, 0.00, -0.00, -1.00, 667.3, 311.0)">e</text><text xml:space="preserve" font-family="TrebuchetMS" font-size="36.0" fill="#000000" transform="matrix(1.00, 0.00, -0.00, -1.00, 686.9, 311.0)">:</text><text xml:space="preserve" font-family="TrebuchetMS" font-size="36.0" fill="#000000" transform="matrix(1.00, 0.00, -0.00, -1.00, 700.2, 311.0)"> </text><text xml:space="preserve" font-family="TrebuchetMS" font-size="36.0" fill="#000000" transform="matrix(1.00, 0.00, -0.00, -1.00, 711.0, 311.0)">1</text><text xml:space="preserve" font-family="TrebuchetMS" font-size="36.0" fill="#000000" transform="matrix(1.00, 0.00, -0.00, -1.00, 729.9, 311.0)">4</text><text xml:space="preserve" font-family="TrebuchetMS" font-size="36.0" fill="#000000" transform="matrix(1.00, 0.00, -0.00, -1.00, 748.8, 311.0)">-</text><text xml:space="preserve" font-family="TrebuchetMS" font-size="36.0" fill="#000000" transform="matrix(1.00, 0.00, -0.00, -1.00, 762.0, 311.0)">0</text><text xml:space="preserve" font-family="TrebuchetMS" font-size="36.0" fill="#000000" transform="matrix(1.00, 0.00, -0.00, -1.00, 780.9, 311.0)">3</text><text xml:space="preserve" font-family="TrebuchetMS" font-size="36.0" fill="#000000" transform="matrix(1.00, 0.00, -0.00, -1.00, 799.8, 311.0)">-</text><text xml:space="preserve" font-family="TrebuchetMS" font-size="36.0" fill="#000000" transform="matrix(1.00, 0.00, -0.00, -1.00, 813.0, 311.0)">2</text><text xml:space="preserve" font-family="TrebuchetMS" font-size="36.0" fill="#000000" transform="matrix(1.00, 0.00, -0.00, -1.00, 831.9, 311.0)">0</text><text xml:space="preserve" font-family="TrebuchetMS" font-size="36.0" fill="#000000" transform="matrix(1.00, 0.00, -0.00, -1.00, 850.8, 311.0)">1</text><text xml:space="preserve" font-family="TrebuchetMS" font-size="36.0" fill="#000000" transform="matrix(1.00, 0.00, -0.00, -1.00, 869.7, 311.0)">6</text></g></g><g><clipPath id="clip-15"><path d="M 465.8 37.9 L 653.7 37.9 L 653.7 100.8 L 465.8 100.8 Z M 465.8 37.9 "></path></clipPath><g clip-path="url(#clip-15)"><text xml:space="preserve" font-family="TrebuchetMS" font-size="36.0" fill="#000000" transform="matrix(1.00, 0.00, -0.00, -1.00, 476.0, 56.0)">S</text><text xml:space="preserve" font-family="TrebuchetMS" font-size="36.0" fill="#000000" transform="matrix(1.00, 0.00, -0.00, -1.00, 493.3, 56.0)">i</text><text xml:space="preserve" font-family="TrebuchetMS" font-size="36.0" fill="#000000" transform="matrix(1.00, 0.00, -0.00, -1.00, 503.6, 56.0)">g</text><text xml:space="preserve" font-family="TrebuchetMS" font-size="36.0" fill="#000000" transform="matrix(1.00, 0.00, -0.00, -1.00, 521.7, 56.0)">n</text><text xml:space="preserve" font-family="TrebuchetMS" font-size="36.0" fill="#000000" transform="matrix(1.00, 0.00, -0.00, -1.00, 541.3, 56.0)">a</text><text xml:space="preserve" font-family="TrebuchetMS" font-size="36.0" fill="#000000" transform="matrix(1.00, 0.00, -0.00, -1.00, 560.3, 56.0)">t</text><text xml:space="preserve" font-family="TrebuchetMS" font-size="36.0" fill="#000000" transform="matrix(1.00, 0.00, -0.00, -1.00, 574.6, 56.0)">u</text><text xml:space="preserve" font-family="TrebuchetMS" font-size="36.0" fill="#000000" transform="matrix(1.00, 0.00, -0.00, -1.00, 594.2, 56.0)">r</text><text xml:space="preserve" font-family="TrebuchetMS" font-size="36.0" fill="#000000" transform="matrix(1.00, 0.00, -0.00, -1.00, 608.2, 56.0)">e</text><text xml:space="preserve" font-family="TrebuchetMS" font-size="36.0" fill="#000000" transform="matrix(1.00, 0.00, -0.00, -1.00, 627.9, 56.0)">:</text></g></g></g></svg>