<?xml version="1.0" encoding="UTF-8" standalone="no"?><svg xmlns="http://www.w3.org/2000/svg" xmlns:xlink="http://www.w3.org/1999/xlink" clip-rule="evenodd" stroke-miterlimit="4.00" viewBox="0 0 1960 1080"><desc>SVG generated by Keynote</desc><defs></defs><g transform="matrix(1.00, 0.00, -0.00, -1.00, 0.0, 1080.0)"><path d="M 0.0 1080.0 L 1960.0 1080.0 L 1960.0 0.0 L 0.0 0.0 Z M 0.0 1080.0 " fill="#FFFFFF"></path><text xml:space="preserve" font-family="Helvetica-Light" font-size="83.6" fill="#000000" transform="matrix(1.00, 0.00, -0.00, -1.00, 116.0, 956.0)">C</text><text xml:space="preserve" font-family="Helvetica-Light" font-size="83.6" fill="#000000" transform="matrix(1.00, 0.00, -0.00, -1.00, 176.4, 956.0)">r</text><text xml:space="preserve" font-family="Helvetica-Light" font-size="83.6" fill="#000000" transform="matrix(1.00, 0.00, -0.00, -1.00, 202.7, 956.0)">e</text><text xml:space="preserve" font-family="Helvetica-Light" font-size="83.6" fill="#000000" transform="matrix(1.00, 0.00, -0.00, -1.00, 249.2, 956.0)">a</text><text xml:space="preserve" font-family="Helvetica-Light" font-size="83.6" fill="#000000" transform="matrix(1.00, 0.00, -0.00, -1.00, 295.7, 956.0)">t</text><text xml:space="preserve" font-family="Helvetica-Light" font-size="83.6" fill="#000000" transform="matrix(1.00, 0.00, -0.00, -1.00, 318.9, 956.0)">i</text><text xml:space="preserve" font-family="Helvetica-Light" font-size="83.6" fill="#000000" transform="matrix(1.00, 0.00, -0.00, -1.00, 337.5, 956.0)">n</text><text xml:space="preserve" font-family="Helvetica-Light" font-size="83.6" fill="#000000" transform="matrix(1.00, 0.00, -0.00, -1.00, 383.9, 956.0)">g</text><text xml:space="preserve" font-family="Helvetica-Light" font-size="83.6" fill="#000000" transform="matrix(1.00, 0.00, -0.00, -1.00, 435.0, 956.0)"> </text><text xml:space="preserve" font-family="Helvetica-Light" font-size="83.6" fill="#000000" transform="matrix(1.00, 0.00, -0.00, -1.00, 458.3, 956.0)">a</text><text xml:space="preserve" font-family="Helvetica-Light" font-size="83.6" fill="#000000" transform="matrix(1.00, 0.00, -0.00, -1.00, 504.7, 956.0)"> </text><text xml:space="preserve" font-family="Helvetica-Light" font-size="83.6" fill="#000000" transform="matrix(1.00, 0.00, -0.00, -1.00, 528.0, 956.0)">c</text><text xml:space="preserve" font-family="Helvetica-Light" font-size="83.6" fill="#000000" transform="matrix(1.00, 0.00, -0.00, -1.00, 574.5, 956.0)">h</text><text xml:space="preserve" font-family="Helvetica-Light" font-size="83.6" fill="#000000" transform="matrix(1.00, 0.00, -0.00, -1.00, 620.9, 956.0)">a</text><text xml:space="preserve" font-family="Helvetica-Light" font-size="83.6" fill="#000000" transform="matrix(1.00, 0.00, -0.00, -1.00, 667.4, 956.0)">i</text><text xml:space="preserve" font-family="Helvetica-Light" font-size="83.6" fill="#000000" transform="matrix(1.00, 0.00, -0.00, -1.00, 686.0, 956.0)">n</text><text xml:space="preserve" font-family="Helvetica-Light" font-size="83.6" fill="#000000" transform="matrix(1.00, 0.00, -0.00, -1.00, 732.5, 956.0)"> </text><text xml:space="preserve" font-family="Helvetica-Light" font-size="83.6" fill="#000000" transform="matrix(1.00, 0.00, -0.00, -1.00, 755.7, 956.0)">o</text><text xml:space="preserve" font-family="Helvetica-Light" font-size="83.6" fill="#000000" transform="matrix(1.00, 0.00, -0.00, -1.00, 802.2, 956.0)">f</text><text xml:space="preserve" font-family="Helvetica-Light" font-size="83.6" fill="#000000" transform="matrix(1.00, 0.00, -0.00, -1.00, 825.4, 956.0)"> </text><text xml:space="preserve" font-family="Helvetica-Light" font-size="83.6" fill="#000000" transform="matrix(1.00, 0.00, -0.00, -1.00, 848.7, 956.0)">t</text><text xml:space="preserve" font-family="Helvetica-Light" font-size="83.6" fill="#000000" transform="matrix(1.00, 0.00, -0.00, -1.00, 871.9, 956.0)">r</text><text xml:space="preserve" font-family="Helvetica-Light" font-size="83.6" fill="#000000" transform="matrix(1.00, 0.00, -0.00, -1.00, 899.8, 956.0)">a</text><text xml:space="preserve" font-family="Helvetica-Light" font-size="83.6" fill="#000000" transform="matrix(1.00, 0.00, -0.00, -1.00, 946.2, 956.0)">n</text><text xml:space="preserve" font-family="Helvetica-Light" font-size="83.6" fill="#000000" transform="matrix(1.00, 0.00, -0.00, -1.00, 992.7, 956.0)">s</text><text xml:space="preserve" font-family="Helvetica-Light" font-size="83.6" fill="#000000" transform="matrix(1.00, 0.00, -0.00, -1.00, 1034.5, 956.0)">a</text><text xml:space="preserve" font-family="Helvetica-Light" font-size="83.6" fill="#000000" transform="matrix(1.00, 0.00, -0.00, -1.00, 1081.0, 956.0)">c</text><text xml:space="preserve" font-family="Helvetica-Light" font-size="83.6" fill="#000000" transform="matrix(1.00, 0.00, -0.00, -1.00, 1127.5, 956.0)">t</text><text xml:space="preserve" font-family="Helvetica-Light" font-size="83.6" fill="#000000" transform="matrix(1.00, 0.00, -0.00, -1.00, 1150.7, 956.0)">i</text><text xml:space="preserve" font-family="Helvetica-Light" font-size="83.6" fill="#000000" transform="matrix(1.00, 0.00, -0.00, -1.00, 1169.3, 956.0)">o</text><text xml:space="preserve" font-family="Helvetica-Light" font-size="83.6" fill="#000000" transform="matrix(1.00, 0.00, -0.00, -1.00, 1215.8, 956.0)">n</text><text xml:space="preserve" font-family="Helvetica-Light" font-size="83.6" fill="#000000" transform="matrix(1.00, 0.00, -0.00, -1.00, 1262.2, 956.0)">s</text><text xml:space="preserve" font-family="Helvetica-Light" font-size="83.6" fill="#000000" transform="matrix(1.00, 0.00, -0.00, -1.00, 1304.0, 956.0)"> </text><text xml:space="preserve" font-family="Helvetica-Light" font-size="83.6" fill="#000000" transform="matrix(1.00, 0.00, -0.00, -1.00, 1327.3, 956.0)">w</text><text xml:space="preserve" font-family="Helvetica-Light" font-size="83.6" fill="#000000" transform="matrix(1.00, 0.00, -0.00, -1.00, 1387.6, 956.0)">i</text><text xml:space="preserve" font-family="Helvetica-Light" font-size="83.6" fill="#000000" transform="matrix(1.00, 0.00, -0.00, -1.00, 1406.2, 956.0)">t</text><text xml:space="preserve" font-family="Helvetica-Light" font-size="83.6" fill="#000000" transform="matrix(1.00, 0.00, -0.00, -1.00, 1429.4, 956.0)">h</text><text xml:space="preserve" font-family="Helvetica-Light" font-size="83.6" fill="#000000" transform="matrix(1.00, 0.00, -0.00, -1.00, 1475.9, 956.0)"> </text><text xml:space="preserve" font-family="Helvetica-Light" font-size="83.6" fill="#000000" transform="matrix(1.00, 0.00, -0.00, -1.00, 1499.2, 956.0)">s</text><text xml:space="preserve" font-family="Helvetica-Light" font-size="83.6" fill="#000000" transform="matrix(1.00, 0.00, -0.00, -1.00, 1541.0, 956.0)">e</text><text xml:space="preserve" font-family="Helvetica-Light" font-size="83.6" fill="#000000" transform="matrix(1.00, 0.00, -0.00, -1.00, 1587.4, 956.0)">g</text><text xml:space="preserve" font-family="Helvetica-Light" font-size="83.6" fill="#000000" transform="matrix(1.00, 0.00, -0.00, -1.00, 1638.5, 956.0)">w</text><text xml:space="preserve" font-family="Helvetica-Light" font-size="83.6" fill="#000000" transform="matrix(1.00, 0.00, -0.00, -1.00, 1698.9, 956.0)">i</text><text xml:space="preserve" font-family="Helvetica-Light" font-size="83.6" fill="#000000" transform="matrix(1.00, 0.00, -0.00, -1.00, 1717.4, 956.0)">t</text><text xml:space="preserve" font-family="TrebuchetMS" font-size="56.0" fill="#000000" transform="matrix(1.00, 0.00, -0.00, -1.00, 133.0, 801.0)">S</text><text xml:space="preserve" font-family="TrebuchetMS" font-size="56.0" fill="#000000" transform="matrix(1.00, 0.00, -0.00, -1.00, 159.9, 801.0)">c</text><text xml:space="preserve" font-family="TrebuchetMS" font-size="56.0" fill="#000000" transform="matrix(1.00, 0.00, -0.00, -1.00, 187.7, 801.0)">e</text><text xml:space="preserve" font-family="TrebuchetMS" font-size="56.0" fill="#000000" transform="matrix(1.00, 0.00, -0.00, -1.00, 218.2, 801.0)">n</text><text xml:space="preserve" font-family="TrebuchetMS" font-size="56.0" fill="#000000" transform="matrix(1.00, 0.00, -0.00, -1.00, 248.9, 801.0)">a</text><text xml:space="preserve" font-family="TrebuchetMS" font-size="56.0" fill="#000000" transform="matrix(1.00, 0.00, -0.00, -1.00, 278.3, 801.0)">r</text><text xml:space="preserve" font-family="TrebuchetMS" font-size="56.0" fill="#000000" transform="matrix(1.00, 0.00, -0.00, -1.00, 300.0, 801.0)">i</text><text xml:space="preserve" font-family="TrebuchetMS" font-size="56.0" fill="#000000" transform="matrix(1.00, 0.00, -0.00, -1.00, 316.0, 801.0)">o</text><text xml:space="preserve" font-family="TrebuchetMS" font-size="56.0" fill="#000000" transform="matrix(1.00, 0.00, -0.00, -1.00, 346.1, 801.0)">:</text><text xml:space="preserve" font-family="TrebuchetMS" font-size="56.0" fill="#000000" transform="matrix(1.00, 0.00, -0.00, -1.00, 366.6, 801.0)"> </text><text xml:space="preserve" font-family="TrebuchetMS" font-size="56.0" fill="#000000" transform="matrix(1.00, 0.00, -0.00, -1.00, 380.4, 801.0)">A</text><text xml:space="preserve" font-family="TrebuchetMS" font-size="56.0" fill="#000000" transform="matrix(1.00, 0.00, -0.00, -1.00, 413.4, 801.0)">l</text><text xml:space="preserve" font-family="TrebuchetMS" font-size="56.0" fill="#000000" transform="matrix(1.00, 0.00, -0.00, -1.00, 430.0, 801.0)">i</text><text xml:space="preserve" font-family="TrebuchetMS" font-size="56.0" fill="#000000" transform="matrix(1.00, 0.00, -0.00, -1.00, 445.9, 801.0)">c</text><text xml:space="preserve" font-family="TrebuchetMS" font-size="56.0" fill="#000000" transform="matrix(1.00, 0.00, -0.00, -1.00, 473.7, 801.0)">e</text><text xml:space="preserve" font-family="TrebuchetMS" font-size="56.0" fill="#000000" transform="matrix(1.00, 0.00, -0.00, -1.00, 504.2, 801.0)"> </text><text xml:space="preserve" font-family="TrebuchetMS" font-size="56.0" fill="#000000" transform="matrix(1.00, 0.00, -0.00, -1.00, 521.1, 801.0)">i</text><text xml:space="preserve" font-family="TrebuchetMS" font-size="56.0" fill="#000000" transform="matrix(1.00, 0.00, -0.00, -1.00, 537.1, 801.0)">s</text><text xml:space="preserve" font-family="TrebuchetMS" font-size="56.0" fill="#000000" transform="matrix(1.00, 0.00, -0.00, -1.00, 559.8, 801.0)"> </text><text xml:space="preserve" font-family="TrebuchetMS" font-size="56.0" fill="#000000" transform="matrix(1.00, 0.00, -0.00, -1.00, 576.6, 801.0)">p</text><text xml:space="preserve" font-family="TrebuchetMS" font-size="56.0" fill="#000000" transform="matrix(1.00, 0.00, -0.00, -1.00, 607.8, 801.0)">a</text><text xml:space="preserve" font-family="TrebuchetMS" font-size="56.0" fill="#000000" transform="matrix(1.00, 0.00, -0.00, -1.00, 637.3, 801.0)">y</text><text xml:space="preserve" font-family="TrebuchetMS" font-size="56.0" fill="#000000" transform="matrix(1.00, 0.00, -0.00, -1.00, 664.9, 801.0)">i</text><text xml:space="preserve" font-family="TrebuchetMS" font-size="56.0" fill="#000000" transform="matrix(1.00, 0.00, -0.00, -1.00, 680.9, 801.0)">n</text><text xml:space="preserve" font-family="TrebuchetMS" font-size="56.0" fill="#000000" transform="matrix(1.00, 0.00, -0.00, -1.00, 711.5, 801.0)">g</text><text xml:space="preserve" font-family="TrebuchetMS" font-size="56.0" fill="#000000" transform="matrix(1.00, 0.00, -0.00, -1.00, 739.6, 801.0)"> </text><text xml:space="preserve" font-family="TrebuchetMS" font-size="56.0" fill="#000000" transform="matrix(1.00, 0.00, -0.00, -1.00, 756.5, 801.0)">2</text><text xml:space="preserve" font-family="TrebuchetMS" font-size="56.0" fill="#000000" transform="matrix(1.00, 0.00, -0.00, -1.00, 785.9, 801.0)">5</text><text xml:space="preserve" font-family="TrebuchetMS" font-size="56.0" fill="#000000" transform="matrix(1.00, 0.00, -0.00, -1.00, 815.3, 801.0)">B</text><text xml:space="preserve" font-family="TrebuchetMS" font-size="56.0" fill="#000000" transform="matrix(1.00, 0.00, -0.00, -1.00, 847.0, 801.0)">T</text><text xml:space="preserve" font-family="TrebuchetMS" font-size="56.0" fill="#000000" transform="matrix(1.00, 0.00, -0.00, -1.00, 879.5, 801.0)">C</text><text xml:space="preserve" font-family="TrebuchetMS" font-size="56.0" fill="#000000" transform="matrix(1.00, 0.00, -0.00, -1.00, 913.0, 801.0)"> </text><text xml:space="preserve" font-family="TrebuchetMS" font-size="56.0" fill="#000000" transform="matrix(1.00, 0.00, -0.00, -1.00, 929.9, 801.0)">t</text><text xml:space="preserve" font-family="TrebuchetMS" font-size="56.0" fill="#000000" transform="matrix(1.00, 0.00, -0.00, -1.00, 952.1, 801.0)">o</text><text xml:space="preserve" font-family="TrebuchetMS" font-size="56.0" fill="#000000" transform="matrix(1.00, 0.00, -0.00, -1.00, 982.1, 801.0)"> </text><text xml:space="preserve" font-family="TrebuchetMS" font-size="56.0" fill="#000000" transform="matrix(1.00, 0.00, -0.00, -1.00, 999.0, 801.0)">B</text><text xml:space="preserve" font-family="TrebuchetMS" font-size="56.0" fill="#000000" transform="matrix(1.00, 0.00, -0.00, -1.00, 1030.7, 801.0)">o</text><text xml:space="preserve" font-family="TrebuchetMS" font-size="56.0" fill="#000000" transform="matrix(1.00, 0.00, -0.00, -1.00, 1060.7, 801.0)">b</text><text xml:space="preserve" font-family="TrebuchetMS" font-size="56.0" fill="#000000" transform="matrix(1.00, 0.00, -0.00, -1.00, 1091.9, 801.0)">,</text><text xml:space="preserve" font-family="TrebuchetMS" font-size="56.0" fill="#000000" transform="matrix(1.00, 0.00, -0.00, -1.00, 1112.5, 801.0)"> </text><text xml:space="preserve" font-family="TrebuchetMS" font-size="56.0" fill="#000000" transform="matrix(1.00, 0.00, -0.00, -1.00, 1129.4, 801.0)">b</text><text xml:space="preserve" font-family="TrebuchetMS" font-size="56.0" fill="#000000" transform="matrix(1.00, 0.00, -0.00, -1.00, 1160.6, 801.0)">u</text><text xml:space="preserve" font-family="TrebuchetMS" font-size="56.0" fill="#000000" transform="matrix(1.00, 0.00, -0.00, -1.00, 1191.2, 801.0)">t</text><text xml:space="preserve" font-family="TrebuchetMS" font-size="56.0" fill="#000000" transform="matrix(1.00, 0.00, -0.00, -1.00, 1213.4, 801.0)"> </text><text xml:space="preserve" font-family="TrebuchetMS" font-size="56.0" fill="#000000" transform="matrix(1.00, 0.00, -0.00, -1.00, 1230.3, 801.0)">o</text><text xml:space="preserve" font-family="TrebuchetMS" font-size="56.0" fill="#000000" transform="matrix(1.00, 0.00, -0.00, -1.00, 1260.4, 801.0)">n</text><text xml:space="preserve" font-family="TrebuchetMS" font-size="56.0" fill="#000000" transform="matrix(1.00, 0.00, -0.00, -1.00, 1291.0, 801.0)">l</text><text xml:space="preserve" font-family="TrebuchetMS" font-size="56.0" fill="#000000" transform="matrix(1.00, 0.00, -0.00, -1.00, 1307.5, 801.0)">y</text><text xml:space="preserve" font-family="TrebuchetMS" font-size="56.0" fill="#000000" transform="matrix(1.00, 0.00, -0.00, -1.00, 1335.1, 801.0)"> </text><text xml:space="preserve" font-family="TrebuchetMS" font-size="56.0" fill="#000000" transform="matrix(1.00, 0.00, -0.00, -1.00, 1352.0, 801.0)">i</text><text xml:space="preserve" font-family="TrebuchetMS" font-size="56.0" fill="#000000" transform="matrix(1.00, 0.00, -0.00, -1.00, 1368.0, 801.0)">f</text><text xml:space="preserve" font-family="TrebuchetMS" font-size="56.0" fill="#000000" transform="matrix(1.00, 0.00, -0.00, -1.00, 1388.7, 801.0)"> </text><text xml:space="preserve" font-family="TrebuchetMS" font-size="56.0" fill="#000000" transform="matrix(1.00, 0.00, -0.00, -1.00, 1405.6, 801.0)">B</text><text xml:space="preserve" font-family="TrebuchetMS" font-size="56.0" fill="#000000" transform="matrix(1.00, 0.00, -0.00, -1.00, 1437.2, 801.0)">o</text><text xml:space="preserve" font-family="TrebuchetMS" font-size="56.0" fill="#000000" transform="matrix(1.00, 0.00, -0.00, -1.00, 1467.3, 801.0)">b</text><text xml:space="preserve" font-family="TrebuchetMS" font-size="56.0" fill="#000000" transform="matrix(1.00, 0.00, -0.00, -1.00, 1498.5, 801.0)"> </text><text xml:space="preserve" font-family="TrebuchetMS" font-size="56.0" fill="#000000" transform="matrix(1.00, 0.00, -0.00, -1.00, 1515.4, 801.0)">a</text><text xml:space="preserve" font-family="TrebuchetMS" font-size="56.0" fill="#000000" transform="matrix(1.00, 0.00, -0.00, -1.00, 1544.8, 801.0)">g</text><text xml:space="preserve" font-family="TrebuchetMS" font-size="56.0" fill="#000000" transform="matrix(1.00, 0.00, -0.00, -1.00, 1572.9, 801.0)">r</text><text xml:space="preserve" font-family="TrebuchetMS" font-size="56.0" fill="#000000" transform="matrix(1.00, 0.00, -0.00, -1.00, 1594.7, 801.0)">e</text><text xml:space="preserve" font-family="TrebuchetMS" font-size="56.0" fill="#000000" transform="matrix(1.00, 0.00, -0.00, -1.00, 1625.2, 801.0)">e</text><text xml:space="preserve" font-family="TrebuchetMS" font-size="56.0" fill="#000000" transform="matrix(1.00, 0.00, -0.00, -1.00, 1655.8, 801.0)">s</text><text xml:space="preserve" font-family="TrebuchetMS" font-size="56.0" fill="#000000" transform="matrix(1.00, 0.00, -0.00, -1.00, 1678.4, 801.0)"> </text><text xml:space="preserve" font-family="TrebuchetMS" font-size="56.0" fill="#000000" transform="matrix(1.00, 0.00, -0.00, -1.00, 1695.3, 801.0)">t</text><text xml:space="preserve" font-family="TrebuchetMS" font-size="56.0" fill="#000000" transform="matrix(1.00, 0.00, -0.00, -1.00, 1717.6, 801.0)">o</text><text xml:space="preserve" font-family="TrebuchetMS" font-size="56.0" fill="#000000" transform="matrix(1.00, 0.00, -0.00, -1.00, 1747.6, 801.0)"> </text><text xml:space="preserve" font-family="TrebuchetMS" font-size="56.0" fill="#000000" transform="matrix(1.00, 0.00, -0.00, -1.00, 133.0, 742.0)">p</text><text xml:space="preserve" font-family="TrebuchetMS" font-size="56.0" fill="#000000" transform="matrix(1.00, 0.00, -0.00, -1.00, 164.2, 742.0)">a</text><text xml:space="preserve" font-family="TrebuchetMS" font-size="56.0" fill="#000000" transform="matrix(1.00, 0.00, -0.00, -1.00, 193.6, 742.0)">y</text><text xml:space="preserve" font-family="TrebuchetMS" font-size="56.0" fill="#000000" transform="matrix(1.00, 0.00, -0.00, -1.00, 221.3, 742.0)"> </text><text xml:space="preserve" font-family="TrebuchetMS" font-size="56.0" fill="#000000" transform="matrix(1.00, 0.00, -0.00, -1.00, 238.1, 742.0)">2</text><text xml:space="preserve" font-family="TrebuchetMS" font-size="56.0" fill="#000000" transform="matrix(1.00, 0.00, -0.00, -1.00, 267.5, 742.0)">4</text><text xml:space="preserve" font-family="TrebuchetMS" font-size="56.0" fill="#000000" transform="matrix(1.00, 0.00, -0.00, -1.00, 296.9, 742.0)">.</text><text xml:space="preserve" font-family="TrebuchetMS" font-size="56.0" fill="#000000" transform="matrix(1.00, 0.00, -0.00, -1.00, 317.4, 742.0)">9</text><text xml:space="preserve" font-family="TrebuchetMS" font-size="56.0" fill="#000000" transform="matrix(1.00, 0.00, -0.00, -1.00, 346.8, 742.0)">9</text><text xml:space="preserve" font-family="TrebuchetMS" font-size="56.0" fill="#000000" transform="matrix(1.00, 0.00, -0.00, -1.00, 376.2, 742.0)">B</text><text xml:space="preserve" font-family="TrebuchetMS" font-size="56.0" fill="#000000" transform="matrix(1.00, 0.00, -0.00, -1.00, 407.9, 742.0)">T</text><text xml:space="preserve" font-family="TrebuchetMS" font-size="56.0" fill="#000000" transform="matrix(1.00, 0.00, -0.00, -1.00, 440.3, 742.0)">C</text><text xml:space="preserve" font-family="TrebuchetMS" font-size="56.0" fill="#000000" transform="matrix(1.00, 0.00, -0.00, -1.00, 473.9, 742.0)"> </text><text xml:space="preserve" font-family="TrebuchetMS" font-size="56.0" fill="#000000" transform="matrix(1.00, 0.00, -0.00, -1.00, 490.7, 742.0)">t</text><text xml:space="preserve" font-family="TrebuchetMS" font-size="56.0" fill="#000000" transform="matrix(1.00, 0.00, -0.00, -1.00, 512.9, 742.0)">o</text><text xml:space="preserve" font-family="TrebuchetMS" font-size="56.0" fill="#000000" transform="matrix(1.00, 0.00, -0.00, -1.00, 542.9, 742.0)"> </text><text xml:space="preserve" font-family="TrebuchetMS" font-size="56.0" fill="#000000" transform="matrix(1.00, 0.00, -0.00, -1.00, 559.8, 742.0)">C</text><text xml:space="preserve" font-family="TrebuchetMS" font-size="56.0" fill="#000000" transform="matrix(1.00, 0.00, -0.00, -1.00, 593.3, 742.0)">a</text><text xml:space="preserve" font-family="TrebuchetMS" font-size="56.0" fill="#000000" transform="matrix(1.00, 0.00, -0.00, -1.00, 622.7, 742.0)">r</text><text xml:space="preserve" font-family="TrebuchetMS" font-size="56.0" fill="#000000" transform="matrix(1.00, 0.00, -0.00, -1.00, 644.5, 742.0)">l</text><text xml:space="preserve" font-family="TrebuchetMS" font-size="56.0" fill="#000000" transform="matrix(1.00, 0.00, -0.00, -1.00, 661.0, 742.0)"> </text><text xml:space="preserve" font-family="TrebuchetMS" font-size="56.0" fill="#000000" transform="matrix(1.00, 0.00, -0.00, -1.00, 677.9, 742.0)">l</text><text xml:space="preserve" font-family="TrebuchetMS" font-size="56.0" fill="#000000" transform="matrix(1.00, 0.00, -0.00, -1.00, 694.4, 742.0)">a</text><text xml:space="preserve" font-family="TrebuchetMS" font-size="56.0" fill="#000000" transform="matrix(1.00, 0.00, -0.00, -1.00, 723.9, 742.0)">t</text><text xml:space="preserve" font-family="TrebuchetMS" font-size="56.0" fill="#000000" transform="matrix(1.00, 0.00, -0.00, -1.00, 746.1, 742.0)">e</text><text xml:space="preserve" font-family="TrebuchetMS" font-size="56.0" fill="#000000" transform="matrix(1.00, 0.00, -0.00, -1.00, 776.6, 742.0)">r</text><text xml:space="preserve" font-family="TrebuchetMS" font-size="56.0" fill="#000000" transform="matrix(1.00, 0.00, -0.00, -1.00, 790.9, 742.0)">.</text><text xml:space="preserve" font-family="TrebuchetMS" font-size="56.0" fill="#000000" transform="matrix(1.00, 0.00, -0.00, -1.00, 811.5, 742.0)"> </text><text xml:space="preserve" font-family="TrebuchetMS" font-size="56.0" fill="#000000" transform="matrix(1.00, 0.00, -0.00, -1.00, 133.0, 664.0)">H</text><text xml:space="preserve" font-family="TrebuchetMS" font-size="56.0" fill="#000000" transform="matrix(1.00, 0.00, -0.00, -1.00, 169.7, 664.0)">o</text><text xml:space="preserve" font-family="TrebuchetMS" font-size="56.0" fill="#000000" transform="matrix(1.00, 0.00, -0.00, -1.00, 199.7, 664.0)">w</text><text xml:space="preserve" font-family="TrebuchetMS" font-size="56.0" fill="#000000" transform="matrix(1.00, 0.00, -0.00, -1.00, 241.4, 664.0)">e</text><text xml:space="preserve" font-family="TrebuchetMS" font-size="56.0" fill="#000000" transform="matrix(1.00, 0.00, -0.00, -1.00, 271.9, 664.0)">v</text><text xml:space="preserve" font-family="TrebuchetMS" font-size="56.0" fill="#000000" transform="matrix(1.00, 0.00, -0.00, -1.00, 299.3, 664.0)">e</text><text xml:space="preserve" font-family="TrebuchetMS" font-size="56.0" fill="#000000" transform="matrix(1.00, 0.00, -0.00, -1.00, 329.9, 664.0)">r</text><text xml:space="preserve" font-family="TrebuchetMS" font-size="56.0" fill="#000000" transform="matrix(1.00, 0.00, -0.00, -1.00, 343.6, 664.0)">,</text><text xml:space="preserve" font-family="TrebuchetMS" font-size="56.0" fill="#000000" transform="matrix(1.00, 0.00, -0.00, -1.00, 364.2, 664.0)"> </text><text xml:space="preserve" font-family="TrebuchetMS" font-size="56.0" fill="#000000" transform="matrix(1.00, 0.00, -0.00, -1.00, 378.0, 664.0)">A</text><text xml:space="preserve" font-family="TrebuchetMS" font-size="56.0" fill="#000000" transform="matrix(1.00, 0.00, -0.00, -1.00, 411.0, 664.0)">l</text><text xml:space="preserve" font-family="TrebuchetMS" font-size="56.0" fill="#000000" transform="matrix(1.00, 0.00, -0.00, -1.00, 427.5, 664.0)">i</text><text xml:space="preserve" font-family="TrebuchetMS" font-size="56.0" fill="#000000" transform="matrix(1.00, 0.00, -0.00, -1.00, 443.5, 664.0)">c</text><text xml:space="preserve" font-family="TrebuchetMS" font-size="56.0" fill="#000000" transform="matrix(1.00, 0.00, -0.00, -1.00, 471.3, 664.0)">e</text><text xml:space="preserve" font-family="TrebuchetMS" font-size="56.0" fill="#000000" transform="matrix(1.00, 0.00, -0.00, -1.00, 501.8, 664.0)"> </text><text xml:space="preserve" font-family="TrebuchetMS" font-size="56.0" fill="#000000" transform="matrix(1.00, 0.00, -0.00, -1.00, 518.7, 664.0)">w</text><text xml:space="preserve" font-family="TrebuchetMS" font-size="56.0" fill="#000000" transform="matrix(1.00, 0.00, -0.00, -1.00, 560.4, 664.0)">o</text><text xml:space="preserve" font-family="TrebuchetMS" font-size="56.0" fill="#000000" transform="matrix(1.00, 0.00, -0.00, -1.00, 590.4, 664.0)">r</text><text xml:space="preserve" font-family="TrebuchetMS" font-size="56.0" fill="#000000" transform="matrix(1.00, 0.00, -0.00, -1.00, 612.2, 664.0)">r</text><text xml:space="preserve" font-family="TrebuchetMS" font-size="56.0" fill="#000000" transform="matrix(1.00, 0.00, -0.00, -1.00, 633.9, 664.0)">i</text><text xml:space="preserve" font-family="TrebuchetMS" font-size="56.0" fill="#000000" transform="matrix(1.00, 0.00, -0.00, -1.00, 649.9, 664.0)">e</text><text xml:space="preserve" font-family="TrebuchetMS" font-size="56.0" fill="#000000" transform="matrix(1.00, 0.00, -0.00, -1.00, 680.4, 664.0)">s</text><text xml:space="preserve" font-family="TrebuchetMS" font-size="56.0" fill="#000000" transform="matrix(1.00, 0.00, -0.00, -1.00, 703.1, 664.0)"> </text><text xml:space="preserve" font-family="TrebuchetMS" font-size="56.0" fill="#000000" transform="matrix(1.00, 0.00, -0.00, -1.00, 719.9, 664.0)">t</text><text xml:space="preserve" font-family="TrebuchetMS" font-size="56.0" fill="#000000" transform="matrix(1.00, 0.00, -0.00, -1.00, 742.2, 664.0)">h</text><text xml:space="preserve" font-family="TrebuchetMS" font-size="56.0" fill="#000000" transform="matrix(1.00, 0.00, -0.00, -1.00, 772.8, 664.0)">a</text><text xml:space="preserve" font-family="TrebuchetMS" font-size="56.0" fill="#000000" transform="matrix(1.00, 0.00, -0.00, -1.00, 802.2, 664.0)">t</text><text xml:space="preserve" font-family="TrebuchetMS" font-size="56.0" fill="#000000" transform="matrix(1.00, 0.00, -0.00, -1.00, 824.4, 664.0)"> </text><text xml:space="preserve" font-family="TrebuchetMS" font-size="56.0" fill="#000000" transform="matrix(1.00, 0.00, -0.00, -1.00, 841.3, 664.0)">B</text><text xml:space="preserve" font-family="TrebuchetMS" font-size="56.0" fill="#000000" transform="matrix(1.00, 0.00, -0.00, -1.00, 873.0, 664.0)">o</text><text xml:space="preserve" font-family="TrebuchetMS" font-size="56.0" fill="#000000" transform="matrix(1.00, 0.00, -0.00, -1.00, 903.0, 664.0)">b</text><text xml:space="preserve" font-family="TrebuchetMS" font-size="56.0" fill="#000000" transform="matrix(1.00, 0.00, -0.00, -1.00, 934.3, 664.0)"> </text><text xml:space="preserve" font-family="TrebuchetMS" font-size="56.0" fill="#000000" transform="matrix(1.00, 0.00, -0.00, -1.00, 951.1, 664.0)">w</text><text xml:space="preserve" font-family="TrebuchetMS" font-size="56.0" fill="#000000" transform="matrix(1.00, 0.00, -0.00, -1.00, 992.8, 664.0)">i</text><text xml:space="preserve" font-family="TrebuchetMS" font-size="56.0" fill="#000000" transform="matrix(1.00, 0.00, -0.00, -1.00, 1008.8, 664.0)">l</text><text xml:space="preserve" font-family="TrebuchetMS" font-size="56.0" fill="#000000" transform="matrix(1.00, 0.00, -0.00, -1.00, 1025.4, 664.0)">l</text><text xml:space="preserve" font-family="TrebuchetMS" font-size="56.0" fill="#000000" transform="matrix(1.00, 0.00, -0.00, -1.00, 1041.9, 664.0)"> </text><text xml:space="preserve" font-family="TrebuchetMS" font-size="56.0" fill="#000000" transform="matrix(1.00, 0.00, -0.00, -1.00, 1058.8, 664.0)">j</text><text xml:space="preserve" font-family="TrebuchetMS" font-size="56.0" fill="#000000" transform="matrix(1.00, 0.00, -0.00, -1.00, 1079.3, 664.0)">u</text><text xml:space="preserve" font-family="TrebuchetMS" font-size="56.0" fill="#000000" transform="matrix(1.00, 0.00, -0.00, -1.00, 1109.9, 664.0)">s</text><text xml:space="preserve" font-family="TrebuchetMS" font-size="56.0" fill="#000000" transform="matrix(1.00, 0.00, -0.00, -1.00, 1132.5, 664.0)">t</text><text xml:space="preserve" font-family="TrebuchetMS" font-size="56.0" fill="#000000" transform="matrix(1.00, 0.00, -0.00, -1.00, 1154.7, 664.0)"> </text><text xml:space="preserve" font-family="TrebuchetMS" font-size="56.0" fill="#000000" transform="matrix(1.00, 0.00, -0.00, -1.00, 1171.6, 664.0)">t</text><text xml:space="preserve" font-family="TrebuchetMS" font-size="56.0" fill="#000000" transform="matrix(1.00, 0.00, -0.00, -1.00, 1193.8, 664.0)">a</text><text xml:space="preserve" font-family="TrebuchetMS" font-size="56.0" fill="#000000" transform="matrix(1.00, 0.00, -0.00, -1.00, 1223.3, 664.0)">k</text><text xml:space="preserve" font-family="TrebuchetMS" font-size="56.0" fill="#000000" transform="matrix(1.00, 0.00, -0.00, -1.00, 1251.5, 664.0)">e</text><text xml:space="preserve" font-family="TrebuchetMS" font-size="56.0" fill="#000000" transform="matrix(1.00, 0.00, -0.00, -1.00, 1282.1, 664.0)"> </text><text xml:space="preserve" font-family="TrebuchetMS" font-size="56.0" fill="#000000" transform="matrix(1.00, 0.00, -0.00, -1.00, 1299.0, 664.0)">t</text><text xml:space="preserve" font-family="TrebuchetMS" font-size="56.0" fill="#000000" transform="matrix(1.00, 0.00, -0.00, -1.00, 1321.2, 664.0)">h</text><text xml:space="preserve" font-family="TrebuchetMS" font-size="56.0" fill="#000000" transform="matrix(1.00, 0.00, -0.00, -1.00, 1351.8, 664.0)">e</text><text xml:space="preserve" font-family="TrebuchetMS" font-size="56.0" fill="#000000" transform="matrix(1.00, 0.00, -0.00, -1.00, 1382.4, 664.0)"> </text><text xml:space="preserve" font-family="TrebuchetMS" font-size="56.0" fill="#000000" transform="matrix(1.00, 0.00, -0.00, -1.00, 1399.3, 664.0)">m</text><text xml:space="preserve" font-family="TrebuchetMS" font-size="56.0" fill="#000000" transform="matrix(1.00, 0.00, -0.00, -1.00, 1445.8, 664.0)">o</text><text xml:space="preserve" font-family="TrebuchetMS" font-size="56.0" fill="#000000" transform="matrix(1.00, 0.00, -0.00, -1.00, 1475.8, 664.0)">n</text><text xml:space="preserve" font-family="TrebuchetMS" font-size="56.0" fill="#000000" transform="matrix(1.00, 0.00, -0.00, -1.00, 1506.4, 664.0)">e</text><text xml:space="preserve" font-family="TrebuchetMS" font-size="56.0" fill="#000000" transform="matrix(1.00, 0.00, -0.00, -1.00, 1537.0, 664.0)">y</text><text xml:space="preserve" font-family="TrebuchetMS" font-size="56.0" fill="#000000" transform="matrix(1.00, 0.00, -0.00, -1.00, 1564.6, 664.0)"> </text><text xml:space="preserve" font-family="TrebuchetMS" font-size="56.0" fill="#000000" transform="matrix(1.00, 0.00, -0.00, -1.00, 1581.5, 664.0)">a</text><text xml:space="preserve" font-family="TrebuchetMS" font-size="56.0" fill="#000000" transform="matrix(1.00, 0.00, -0.00, -1.00, 1610.9, 664.0)">n</text><text xml:space="preserve" font-family="TrebuchetMS" font-size="56.0" fill="#000000" transform="matrix(1.00, 0.00, -0.00, -1.00, 1641.5, 664.0)">d</text><text xml:space="preserve" font-family="TrebuchetMS" font-size="56.0" fill="#000000" transform="matrix(1.00, 0.00, -0.00, -1.00, 1672.7, 664.0)"> </text><text xml:space="preserve" font-family="TrebuchetMS" font-size="56.0" fill="#000000" transform="matrix(1.00, 0.00, -0.00, -1.00, 133.0, 605.0)">r</text><text xml:space="preserve" font-family="TrebuchetMS" font-size="56.0" fill="#000000" transform="matrix(1.00, 0.00, -0.00, -1.00, 154.7, 605.0)">e</text><text xml:space="preserve" font-family="TrebuchetMS" font-size="56.0" fill="#000000" transform="matrix(1.00, 0.00, -0.00, -1.00, 185.3, 605.0)">f</text><text xml:space="preserve" font-family="TrebuchetMS" font-size="56.0" fill="#000000" transform="matrix(1.00, 0.00, -0.00, -1.00, 206.0, 605.0)">u</text><text xml:space="preserve" font-family="TrebuchetMS" font-size="56.0" fill="#000000" transform="matrix(1.00, 0.00, -0.00, -1.00, 236.7, 605.0)">s</text><text xml:space="preserve" font-family="TrebuchetMS" font-size="56.0" fill="#000000" transform="matrix(1.00, 0.00, -0.00, -1.00, 259.3, 605.0)">e</text><text xml:space="preserve" font-family="TrebuchetMS" font-size="56.0" fill="#000000" transform="matrix(1.00, 0.00, -0.00, -1.00, 289.9, 605.0)"> </text><text xml:space="preserve" font-family="TrebuchetMS" font-size="56.0" fill="#000000" transform="matrix(1.00, 0.00, -0.00, -1.00, 306.8, 605.0)">t</text><text xml:space="preserve" font-family="TrebuchetMS" font-size="56.0" fill="#000000" transform="matrix(1.00, 0.00, -0.00, -1.00, 329.0, 605.0)">o</text><text xml:space="preserve" font-family="TrebuchetMS" font-size="56.0" fill="#000000" transform="matrix(1.00, 0.00, -0.00, -1.00, 359.1, 605.0)"> </text><text xml:space="preserve" font-family="TrebuchetMS" font-size="56.0" fill="#000000" transform="matrix(1.00, 0.00, -0.00, -1.00, 376.0, 605.0)">s</text><text xml:space="preserve" font-family="TrebuchetMS" font-size="56.0" fill="#000000" transform="matrix(1.00, 0.00, -0.00, -1.00, 398.6, 605.0)">e</text><text xml:space="preserve" font-family="TrebuchetMS" font-size="56.0" fill="#000000" transform="matrix(1.00, 0.00, -0.00, -1.00, 429.2, 605.0)">n</text><text xml:space="preserve" font-family="TrebuchetMS" font-size="56.0" fill="#000000" transform="matrix(1.00, 0.00, -0.00, -1.00, 459.9, 605.0)">d</text><text xml:space="preserve" font-family="TrebuchetMS" font-size="56.0" fill="#000000" transform="matrix(1.00, 0.00, -0.00, -1.00, 491.0, 605.0)"> </text><text xml:space="preserve" font-family="TrebuchetMS" font-size="56.0" fill="#000000" transform="matrix(1.00, 0.00, -0.00, -1.00, 507.9, 605.0)">t</text><text xml:space="preserve" font-family="TrebuchetMS" font-size="56.0" fill="#000000" transform="matrix(1.00, 0.00, -0.00, -1.00, 530.2, 605.0)">o</text><text xml:space="preserve" font-family="TrebuchetMS" font-size="56.0" fill="#000000" transform="matrix(1.00, 0.00, -0.00, -1.00, 560.2, 605.0)"> </text><text xml:space="preserve" font-family="TrebuchetMS" font-size="56.0" fill="#000000" transform="matrix(1.00, 0.00, -0.00, -1.00, 577.1, 605.0)">C</text><text xml:space="preserve" font-family="TrebuchetMS" font-size="56.0" fill="#000000" transform="matrix(1.00, 0.00, -0.00, -1.00, 610.6, 605.0)">a</text><text xml:space="preserve" font-family="TrebuchetMS" font-size="56.0" fill="#000000" transform="matrix(1.00, 0.00, -0.00, -1.00, 640.1, 605.0)">r</text><text xml:space="preserve" font-family="TrebuchetMS" font-size="56.0" fill="#000000" transform="matrix(1.00, 0.00, -0.00, -1.00, 661.8, 605.0)">l</text><text xml:space="preserve" font-family="TrebuchetMS" font-size="56.0" fill="#000000" transform="matrix(1.00, 0.00, -0.00, -1.00, 678.3, 605.0)"> </text><text xml:space="preserve" font-family="TrebuchetMS" font-size="56.0" fill="#000000" transform="matrix(1.00, 0.00, -0.00, -1.00, 133.0, 527.0)">U</text><text xml:space="preserve" font-family="TrebuchetMS" font-size="56.0" fill="#000000" transform="matrix(1.00, 0.00, -0.00, -1.00, 169.3, 527.0)">s</text><text xml:space="preserve" font-family="TrebuchetMS" font-size="56.0" fill="#000000" transform="matrix(1.00, 0.00, -0.00, -1.00, 192.0, 527.0)">e</text><text xml:space="preserve" font-family="TrebuchetMS" font-size="56.0" fill="#000000" transform="matrix(1.00, 0.00, -0.00, -1.00, 222.6, 527.0)"> </text><text xml:space="preserve" font-family="TrebuchetMS" font-size="56.0" fill="#000000" transform="matrix(1.00, 0.00, -0.00, -1.00, 239.4, 527.0)">s</text><text xml:space="preserve" font-family="TrebuchetMS" font-size="56.0" fill="#000000" transform="matrix(1.00, 0.00, -0.00, -1.00, 262.1, 527.0)">e</text><text xml:space="preserve" font-family="TrebuchetMS" font-size="56.0" fill="#000000" transform="matrix(1.00, 0.00, -0.00, -1.00, 292.7, 527.0)">g</text><text xml:space="preserve" font-family="TrebuchetMS" font-size="56.0" fill="#000000" transform="matrix(1.00, 0.00, -0.00, -1.00, 320.8, 527.0)">w</text><text xml:space="preserve" font-family="TrebuchetMS" font-size="56.0" fill="#000000" transform="matrix(1.00, 0.00, -0.00, -1.00, 362.5, 527.0)">i</text><text xml:space="preserve" font-family="TrebuchetMS" font-size="56.0" fill="#000000" transform="matrix(1.00, 0.00, -0.00, -1.00, 378.4, 527.0)">t</text><text xml:space="preserve" font-family="TrebuchetMS" font-size="56.0" fill="#000000" transform="matrix(1.00, 0.00, -0.00, -1.00, 400.7, 527.0)"> </text><text xml:space="preserve" font-family="TrebuchetMS" font-size="56.0" fill="#000000" transform="matrix(1.00, 0.00, -0.00, -1.00, 417.6, 527.0)">a</text><text xml:space="preserve" font-family="TrebuchetMS" font-size="56.0" fill="#000000" transform="matrix(1.00, 0.00, -0.00, -1.00, 447.0, 527.0)">n</text><text xml:space="preserve" font-family="TrebuchetMS" font-size="56.0" fill="#000000" transform="matrix(1.00, 0.00, -0.00, -1.00, 477.6, 527.0)">d</text><text xml:space="preserve" font-family="TrebuchetMS" font-size="56.0" fill="#000000" transform="matrix(1.00, 0.00, -0.00, -1.00, 508.8, 527.0)"> </text><text xml:space="preserve" font-family="TrebuchetMS" font-size="56.0" fill="#000000" transform="matrix(1.00, 0.00, -0.00, -1.00, 525.7, 527.0)">2</text><text xml:space="preserve" font-family="TrebuchetMS" font-size="56.0" fill="#000000" transform="matrix(1.00, 0.00, -0.00, -1.00, 555.1, 527.0)">-</text><text xml:space="preserve" font-family="TrebuchetMS" font-size="56.0" fill="#000000" transform="matrix(1.00, 0.00, -0.00, -1.00, 575.7, 527.0)">o</text><text xml:space="preserve" font-family="TrebuchetMS" font-size="56.0" fill="#000000" transform="matrix(1.00, 0.00, -0.00, -1.00, 605.7, 527.0)">f</text><text xml:space="preserve" font-family="TrebuchetMS" font-size="56.0" fill="#000000" transform="matrix(1.00, 0.00, -0.00, -1.00, 626.4, 527.0)">-</text><text xml:space="preserve" font-family="TrebuchetMS" font-size="56.0" fill="#000000" transform="matrix(1.00, 0.00, -0.00, -1.00, 647.0, 527.0)">2</text><text xml:space="preserve" font-family="TrebuchetMS" font-size="56.0" fill="#000000" transform="matrix(1.00, 0.00, -0.00, -1.00, 676.3, 527.0)"> </text><text xml:space="preserve" font-family="TrebuchetMS" font-size="56.0" fill="#000000" transform="matrix(1.00, 0.00, -0.00, -1.00, 693.2, 527.0)">m</text><text xml:space="preserve" font-family="TrebuchetMS" font-size="56.0" fill="#000000" transform="matrix(1.00, 0.00, -0.00, -1.00, 739.7, 527.0)">u</text><text xml:space="preserve" font-family="TrebuchetMS" font-size="56.0" fill="#000000" transform="matrix(1.00, 0.00, -0.00, -1.00, 770.3, 527.0)">l</text><text xml:space="preserve" font-family="TrebuchetMS" font-size="56.0" fill="#000000" transform="matrix(1.00, 0.00, -0.00, -1.00, 786.8, 527.0)">t</text><text xml:space="preserve" font-family="TrebuchetMS" font-size="56.0" fill="#000000" transform="matrix(1.00, 0.00, -0.00, -1.00, 809.1, 527.0)">i</text><text xml:space="preserve" font-family="TrebuchetMS" font-size="56.0" fill="#000000" transform="matrix(1.00, 0.00, -0.00, -1.00, 825.1, 527.0)">s</text><text xml:space="preserve" font-family="TrebuchetMS" font-size="56.0" fill="#000000" transform="matrix(1.00, 0.00, -0.00, -1.00, 847.7, 527.0)">i</text><text xml:space="preserve" font-family="TrebuchetMS" font-size="56.0" fill="#000000" transform="matrix(1.00, 0.00, -0.00, -1.00, 863.7, 527.0)">g</text></g></svg>